<?xml version="1.0" encoding="utf-8"?>
<!-- Generator: Adobe Illustrator 25.2.3, SVG Export Plug-In . SVG Version: 6.00 Build 0)  -->
<svg version="1.1" id="레이어_1" xmlns="http://www.w3.org/2000/svg" xmlns:xlink="http://www.w3.org/1999/xlink" x="0px"
	 y="0px" viewBox="0 0 510.2 433.7" style="enable-background:new 0 0 510.2 433.7;" xml:space="preserve">
<style type="text/css">
	.st0{fill:#FA424A;fill-opacity:0.2;}
	.st1{fill:none;stroke:#8A8280;stroke-width:0.7;stroke-miterlimit:10;}
	.st2{fill:#C2BFB9;stroke:#8A8280;stroke-width:0.7;stroke-miterlimit:10;}
	.st3{fill:#FFFFFF;stroke:#8A8280;stroke-width:0.7;stroke-miterlimit:10;}
	.st4{opacity:0.1;fill:#FA424A;}
	.st5{fill:#E1DED9;stroke:#FFFFFF;stroke-width:2;stroke-miterlimit:10;}
	.st6{fill:#FA424A;stroke:#FFFFFF;stroke-width:2;stroke-miterlimit:10;}
	.st7{fill:#A6A09C;stroke:#FFFFFF;stroke-width:2;stroke-miterlimit:10;}
	.st8{fill:#6E6567;stroke:#FFFFFF;stroke-width:2;stroke-miterlimit:10;}
	.st9{fill:#8A8280;stroke:#FFFFFF;stroke-width:2;stroke-miterlimit:10;}
	.st10{fill:#C2BFB9;stroke:#FFFFFF;stroke-width:2;stroke-miterlimit:10;}
	.st11{opacity:0.1;fill:#A20F02;stroke:#FFFFFF;stroke-width:2;stroke-miterlimit:10;}
	.st12{fill:#E32B27;}
	.st13{fill:#FFFFFF;}
	.st14{fill:#A20F02;}
	.st15{fill:none;stroke:#FFFFFF;stroke-width:2;stroke-miterlimit:10;}
	.st16{font-family:'NanumBarunGothicOTF-KSCpc-EUC-H';}
	.st17{font-size:7.6307px;}
	.st18{opacity:0.8;fill:#A20F02;stroke:#FFFFFF;stroke-width:2;stroke-miterlimit:10;}
	.st19{fill:none;stroke:#50474B;stroke-width:0.7;stroke-miterlimit:10;}
	.st20{font-size:6.1045px;}
	.st21{font-size:8px;}
	.st22{font-size:6px;}
	.st23{font-size:7px;}
	.st24{fill:none;stroke:#040404;stroke-width:0.7;stroke-miterlimit:10;}
	.st25{fill:#6E6567;stroke:#FFFFFF;stroke-width:2;stroke-linecap:round;stroke-linejoin:round;stroke-miterlimit:10;}
</style>
<rect x="111.7" y="184.8" class="st0" width="68.8" height="17.4"/>
<rect x="111.7" y="205.9" class="st0" width="68.8" height="17.4"/>
<rect x="111.7" y="226.9" class="st0" width="68.8" height="17.4"/>
<rect x="111.7" y="248" class="st0" width="68.8" height="17.4"/>
<rect x="74.1" y="184.8" class="st0" width="34.4" height="80.7"/>
<rect x="111.7" y="184.8" class="st1" width="68.8" height="17.4"/>
<rect x="74.1" y="184.8" class="st1" width="34.4" height="80.7"/>
<rect x="111.7" y="205.6" class="st1" width="68.8" height="17.4"/>
<rect x="111.7" y="227" class="st1" width="68.8" height="17.4"/>
<rect x="111.7" y="248" class="st1" width="68.8" height="17.4"/>
<line class="st2" x1="218.4" y1="125.9" x2="218.4" y2="128.2"/>
<rect x="183.9" y="114.4" class="st0" width="69.1" height="11.3"/>
<rect x="183.9" y="114.4" class="st1" width="69.1" height="11.3"/>
<rect x="183.9" y="128.2" class="st3" width="69.1" height="20.2"/>
<rect x="74.1" y="22.5" class="st4" width="301.2" height="85.8"/>
<rect x="375.3" y="22.5" class="st5" width="134.4" height="85.8"/>
<rect x="22.3" y="22.5" class="st6" width="48.5" height="85.8"/>
<rect x="22.3" y="114.4" class="st6" width="48.5" height="56.8"/>
<rect x="22.3" y="184.8" class="st6" width="48.5" height="80.7"/>
<rect x="22.3" y="268" class="st6" width="48.5" height="25.1"/>
<rect x="303.4" y="248" class="st0" width="76.6" height="17.4"/>
<rect x="303.7" y="268.9" class="st0" width="76.1" height="24.4"/>
<rect x="420.4" y="328.6" class="st5" width="89" height="94.5"/>
<line class="st2" x1="146.2" y1="125.9" x2="146.2" y2="151.5"/>
<line class="st2" x1="146.8" y1="202.2" x2="146.8" y2="205.9"/>
<line class="st2" x1="146.8" y1="223" x2="146.8" y2="227.1"/>
<line class="st2" x1="146.8" y1="244.4" x2="146.8" y2="248.5"/>
<rect x="111.7" y="128.2" class="st3" width="69.1" height="20.2"/>
<rect x="111.7" y="114.4" class="st0" width="69.1" height="11.3"/>
<rect x="146.9" y="3.4" class="st7" width="76.6" height="16.3"/>
<rect x="300.2" y="3.4" class="st8" width="76.6" height="16.3"/>
<rect x="223.6" y="3.4" class="st9" width="76.6" height="16.3"/>
<rect x="73.2" y="3.4" class="st10" width="72.8" height="16.3"/>
<polygon class="st11" points="360.2,374.9 360.2,420.9 70.9,420.9 70.9,328.6 419.9,328.6 419.9,374.9 "/>
<g>
	<g>
		<g>
			<rect x="1.5" y="23.4" class="st12" width="16.5" height="269.3"/>
		</g>
	</g>
	<g>
		<g>
			<path class="st13" d="M9.4,148.1v1.9h4.5v1.1H4.5V150h3.6v-1.9H9.4z M9.2,151.9c1.2,0,2.2,0.2,2.8,0.6c0.7,0.4,1,0.9,1,1.5
				c0,0.6-0.3,1.1-1,1.5c-0.6,0.4-1.6,0.6-2.8,0.6c-1.2,0-2.2-0.2-2.8-0.6c-0.6-0.4-1-0.9-1-1.5c0-0.6,0.3-1.1,1-1.5
				C7,152.1,8,151.9,9.2,151.9z M12.6,145.9c0.1,0,0.2,0,0.2,0.1c0,0,0.1,0.1,0.1,0.2c0,0.3,0,0.7-0.1,1.1c0,0.4-0.1,0.7-0.1,1
				c0,0.3-0.1,0.7-0.2,1.1h-1.3c0.1-0.4,0.1-0.8,0.2-1.2c0-0.4,0.1-0.8,0.1-1.2H5.5v-1.1H12.6z M9.2,152.9c-0.7,0-1.3,0.1-1.7,0.3
				c-0.4,0.2-0.6,0.4-0.6,0.8c0,0.4,0.2,0.7,0.6,0.8c0.4,0.2,1,0.3,1.7,0.3c0.7,0,1.3-0.1,1.7-0.3c0.4-0.2,0.6-0.5,0.6-0.8
				c0-0.4-0.2-0.6-0.6-0.8C10.5,153,9.9,152.9,9.2,152.9z"/>
		</g>
		<g>
			<path class="st13" d="M6,159.5h6.8v0.9H7v0.7h5.7v0.9H7v0.7h5.9v0.9h-3v0.8h4.1v1H4.5v-1h4v-0.8H6c-0.1,0-0.2,0-0.2-0.1
				c0,0-0.1-0.1-0.1-0.3v-3.6c0-0.1,0-0.2,0.1-0.2C5.8,159.5,5.9,159.5,6,159.5z M9.2,169.7c-1.2,0-2.2-0.2-2.8-0.5
				c-0.6-0.3-1-0.8-1-1.3c0-0.5,0.3-1,1-1.3c0.7-0.3,1.6-0.5,2.8-0.5c1.2,0,2.2,0.2,2.8,0.5c0.7,0.3,1,0.8,1,1.3c0,0.5-0.3,1-1,1.3
				C11.4,169.6,10.4,169.7,9.2,169.7z M9.2,167c-0.7,0-1.3,0.1-1.7,0.3c-0.4,0.2-0.6,0.4-0.6,0.6c0,0.3,0.2,0.5,0.6,0.6
				c0.4,0.1,1,0.2,1.7,0.2c0.7,0,1.3-0.1,1.7-0.2c0.4-0.2,0.6-0.4,0.6-0.6c0-0.3-0.2-0.5-0.6-0.6C10.5,167.1,9.9,167,9.2,167z"/>
		</g>
	</g>
</g>
<g>
	<g>
		<g>
			<rect x="1.5" y="328.6" class="st14" width="16.5" height="92.3"/>
		</g>
	</g>
	<g>
		<g>
			<path class="st13" d="M6,348.1v-3.8h1.3v1h4.6v-1h1.3v3.8c0,0.1,0,0.2-0.1,0.3c0,0-0.1,0.1-0.2,0.1h-2.6v1h4.1v1.1H4.9v-1.1h4.1
				v-1H6.3c-0.1,0-0.2,0-0.2-0.1C6,348.3,6,348.2,6,348.1z M12.8,351.3c0.1,0,0.2,0,0.2,0.1c0,0.1,0.1,0.1,0.1,0.2v2.9h-1.3v-2.2
				H5.9v-1.1H12.8z M11.9,347.4v-1H7.3v1H11.9z"/>
		</g>
		<g>
			<path class="st13" d="M14.3,364.6h-4v3.6H9v-3.6H4.9v-1.1h9.4V364.6z M13.1,362.5c-0.9-0.3-1.7-0.6-2.2-0.9
				c-0.6-0.3-1-0.7-1.3-1.2c-0.3,0.5-0.8,0.9-1.3,1.2c-0.6,0.4-1.3,0.7-2.2,0.9l-0.9-0.9c0.5-0.1,1-0.3,1.5-0.5
				c0.4-0.2,0.8-0.4,1.2-0.6c0.3-0.2,0.6-0.5,0.8-0.8c0.2-0.3,0.3-0.6,0.3-1v-0.5h1.4v0.5c0,0.7,0.3,1.3,1,1.8
				c0.7,0.5,1.5,0.8,2.6,1.1L13.1,362.5z"/>
		</g>
		<g>
			<path class="st13" d="M5.2,374.1v-1h6v1H5.2z M8.2,377.9c-0.9,0-1.5-0.2-2-0.5c-0.5-0.3-0.7-0.7-0.7-1.2s0.2-0.8,0.7-1.2
				c0.5-0.3,1.1-0.5,2-0.5c0.9,0,1.5,0.2,2,0.5c0.5,0.3,0.7,0.7,0.7,1.2s-0.2,0.8-0.7,1.2C9.7,377.7,9.1,377.9,8.2,377.9z M13,378.6
				c0.1,0,0.2,0,0.2,0.1c0,0.1,0.1,0.1,0.1,0.2v3H12v-2.2H6.3v-1.1H13z M6.6,371.6h3.2v1H6.6V371.6z M8.2,375.5
				c-0.4,0-0.7,0.1-1,0.2c-0.2,0.1-0.4,0.3-0.4,0.6c0,0.3,0.1,0.5,0.4,0.6c0.2,0.1,0.6,0.2,1,0.2c0.4,0,0.7-0.1,1-0.2
				c0.2-0.1,0.4-0.3,0.4-0.6c0-0.2-0.1-0.4-0.4-0.6C8.9,375.5,8.6,375.5,8.2,375.5z M13.3,371.7v2.7h1.3v1.2h-1.3v2.8H12v-6.6H13.3z
				"/>
		</g>
		<g>
			<path class="st13" d="M5.1,390.9h3c0.2,0,0.5,0,0.8,0c0.3,0,0.7,0,1.1,0c0.4,0,0.7-0.1,1.1-0.1c0.4,0,0.7-0.1,0.9-0.1v1.1
				c-0.4,0.1-0.9,0.1-1.4,0.2c-0.5,0-1.1,0.1-1.7,0.1v3.4H7.7V392H5.1V390.9z M5.8,387.7c0-0.3,0.1-0.6,0.2-0.9
				c0.1-0.3,0.3-0.5,0.5-0.7c0.2-0.2,0.5-0.4,0.8-0.5c0.3-0.1,0.7-0.2,1.1-0.2c0.4,0,0.8,0.1,1.1,0.2c0.3,0.1,0.6,0.3,0.8,0.5
				c0.2,0.2,0.4,0.4,0.5,0.7c0.1,0.3,0.2,0.6,0.2,0.9s-0.1,0.6-0.2,0.9c-0.1,0.3-0.3,0.5-0.5,0.7c-0.2,0.2-0.5,0.4-0.8,0.5
				c-0.3,0.1-0.7,0.2-1.1,0.2c-0.4,0-0.8-0.1-1.1-0.2c-0.3-0.1-0.6-0.3-0.8-0.5c-0.2-0.2-0.4-0.5-0.5-0.7
				C5.9,388.3,5.8,388,5.8,387.7z M7.1,387.7c0,0.3,0.1,0.6,0.3,0.9c0.2,0.3,0.6,0.4,1,0.4c0.4,0,0.8-0.1,1-0.4
				c0.2-0.3,0.3-0.5,0.3-0.9c0-0.3-0.1-0.6-0.3-0.9c-0.2-0.3-0.6-0.4-1-0.4c-0.5,0-0.8,0.1-1,0.4C7.2,387.1,7.1,387.4,7.1,387.7z
				 M13.7,385.4v10.2h-1.3v-10.2H13.7z"/>
		</g>
	</g>
</g>
<line class="st15" x1="73.9" y1="86.8" x2="453.3" y2="86.8"/>
<line class="st15" x1="22.3" y1="65.4" x2="509.7" y2="65.4"/>
<line class="st15" x1="73.9" y1="43.9" x2="453.3" y2="43.9"/>
<line class="st15" x1="453.3" y1="22.5" x2="453.3" y2="108.3"/>
<line class="st15" x1="223.6" y1="43.9" x2="223.6" y2="65.4"/>
<line class="st15" x1="146.9" y1="43.9" x2="146.9" y2="65.4"/>
<line class="st15" x1="146.9" y1="86.8" x2="146.9" y2="108.3"/>
<line class="st15" x1="70.9" y1="22.5" x2="70.9" y2="108.3"/>
<g>
	<g>
		<path class="st13" d="M43.3,45c-0.4-0.2-0.7-0.4-1.1-0.7c-0.4-0.3-0.6-0.6-0.8-0.9c-0.1,0.2-0.1,0.3-0.3,0.5
			c-0.1,0.2-0.3,0.3-0.4,0.5c-0.2,0.2-0.3,0.3-0.5,0.5c-0.2,0.1-0.4,0.3-0.6,0.4l-0.8-0.7c0.7-0.3,1.2-0.7,1.6-1.2
			c0.4-0.5,0.5-1,0.5-1.6v-1h1.1v1c0,0.3,0,0.5,0.1,0.8c0.1,0.3,0.2,0.5,0.4,0.7c0.2,0.2,0.4,0.4,0.6,0.6c0.2,0.2,0.5,0.3,0.8,0.4
			L43.3,45z M45.5,45.7c0.1,0,0.2,0,0.2,0.1c0,0,0.1,0.1,0.1,0.2v2.7h-1v-2.1h-4.6v-0.9H45.5z M43.1,41.9h1.7v-1.4h1v4.9h-1v-2.7
			h-1.7V41.9z"/>
	</g>
	<g>
		<path class="st13" d="M51.1,47c-0.4-0.3-0.8-0.6-1.1-1c-0.3-0.4-0.6-0.8-0.8-1.2c-0.1,0.2-0.2,0.4-0.3,0.6
			c-0.1,0.2-0.3,0.4-0.4,0.6c-0.2,0.2-0.4,0.4-0.6,0.6c-0.2,0.2-0.4,0.4-0.6,0.5l-0.8-0.7c0.8-0.5,1.3-1,1.7-1.7
			c0.4-0.7,0.5-1.4,0.5-2.2v-1.8h1.1v1.8c0,0.8,0.2,1.5,0.5,2.1c0.3,0.6,0.9,1.1,1.6,1.6L51.1,47z M52.3,48.7v-8.2h1v3.1h1.1v0.9
			h-1.1v4.2H52.3z"/>
	</g>
</g>
<g>
	<g>
		<path class="st13" d="M43.1,87.3c0,0.1,0,0.2-0.1,0.2c0,0-0.1,0.1-0.2,0.1h-3.4c-0.1,0-0.2,0-0.2-0.1c0,0,0-0.1,0-0.2v-3.8h1v1.2
			h1.9v-1.2h1V87.3z M45.2,88.4c0.1,0,0.2,0,0.2,0.1c0,0,0.1,0.1,0.1,0.2v2.7h-1.1v-2.1h-4.5v-0.9H45.2z M42.1,86.6v-1.1h-1.9v1.1
			H42.1z M46.5,85.8h-1.1v2.3h-1v-4.9h1v1.7h1.1V85.8z"/>
	</g>
	<g>
		<path class="st13" d="M51.1,89.7c-0.4-0.3-0.8-0.6-1.1-1c-0.3-0.4-0.6-0.8-0.8-1.2c-0.1,0.2-0.2,0.4-0.3,0.6
			c-0.1,0.2-0.3,0.4-0.4,0.6c-0.2,0.2-0.4,0.4-0.6,0.6c-0.2,0.2-0.4,0.4-0.6,0.5l-0.8-0.7c0.8-0.5,1.3-1,1.7-1.7
			c0.4-0.7,0.5-1.4,0.5-2.2v-1.8h1.1v1.8c0,0.8,0.2,1.5,0.5,2.1c0.3,0.6,0.9,1.1,1.6,1.6L51.1,89.7z M52.3,91.4v-8.2h1v3.1h1.1v0.9
			h-1.1v4.2H52.3z"/>
	</g>
</g>
<g>
	<g>
		<path class="st13" d="M42.1,132.8v2.9H45v0.9h-7.6v-0.9h1.6v-2.9h1v2.9H41v-2.9H42.1z M44,129.7c0.1,0,0.2,0,0.2,0.1
			c0,0,0.1,0.1,0.1,0.2c0,0.3-0.1,0.7-0.1,1.1c0,0.4-0.1,0.8-0.1,1.2c0,0.4-0.1,0.8-0.1,1.2c0,0.4-0.1,0.8-0.2,1.1h-1
			c0.1-0.6,0.2-1.3,0.3-2c0.1-0.7,0.1-1.4,0.1-2h-4.9v-0.9H44z"/>
	</g>
	<g>
		<path class="st13" d="M45.5,134.9H47v-2.6h1v2.6c0.2,0,0.4,0,0.6,0c0.3,0,0.5,0,0.8-0.1c0.3,0,0.5,0,0.8-0.1
			c0.3,0,0.5-0.1,0.6-0.1v0.9c-0.2,0-0.5,0.1-0.8,0.1c-0.3,0-0.6,0.1-1,0.1c-0.4,0-0.8,0-1.2,0c-0.4,0-0.9,0-1.3,0h-1V134.9z
			 M50,129.7c0.1,0,0.2,0,0.2,0.1c0,0,0.1,0.1,0.1,0.2c0,0.7-0.1,1.4-0.1,2.1c-0.1,0.7-0.1,1.3-0.2,1.9h-1.1c0-0.2,0.1-0.5,0.1-0.8
			c0-0.3,0.1-0.6,0.1-0.9c0-0.3,0-0.6,0.1-0.9c0-0.3,0-0.6,0-0.9h-3.2v-0.9H50z M53.2,133.5h-1.1v4h-1v-8.2h1v3.3h1.1V133.5z"/>
	</g>
	<g>
		<path class="st13" d="M30.8,146.6h7.6v0.9h-7.6V146.6z M31.4,144.1h1.1l0-2.6h-0.9v-0.9h6v0.9h-0.9l0,2.6h1.1v0.9h-6.3V144.1z
			 M35.6,141.5h-2.1l0,2.6h2.1L35.6,141.5z"/>
	</g>
	<g>
		<path class="st13" d="M45.1,143.4h-4.3v1.1h4.7v0.9h-2.4v1.3h3.3v0.9h-7.6v-0.9H42v-1.3h-2c-0.1,0-0.2,0-0.2-0.1
			c0,0-0.1-0.1-0.1-0.2v-2.3c0-0.1,0-0.2,0.1-0.2c0,0,0.1-0.1,0.2-0.1h4.3v-1.1h-4.6v-0.9h5.3c0.1,0,0.2,0,0.2,0.1
			c0,0,0.1,0.1,0.1,0.2v2.3c0,0.1,0,0.2-0.1,0.2C45.3,143.4,45.2,143.4,45.1,143.4z"/>
	</g>
	<g>
		<path class="st13" d="M53.2,140.8c0.1,0,0.2,0,0.2,0.1c0,0,0.1,0.1,0.1,0.2c0,0.5-0.1,0.9-0.1,1.4c-0.1,0.5-0.1,1-0.2,1.4
			c-0.1,0.5-0.2,0.9-0.3,1.4c-0.1,0.4-0.2,0.8-0.3,1.2h1.8v0.9h-7.6v-0.9h4.8c0.1-0.3,0.2-0.7,0.3-1.1c0.1-0.4,0.2-0.8,0.3-1.3
			c0.1-0.4,0.1-0.9,0.2-1.3c0-0.4,0.1-0.8,0.1-1.2h-4.8v-0.9H53.2z"/>
	</g>
	<g>
		<path class="st13" d="M58,140.6c0.1,0,0.2,0,0.2,0.1c0,0,0.1,0.1,0.1,0.2v2c0,0.1,0,0.2-0.1,0.2c0,0-0.1,0.1-0.2,0.1h-1.7v0.9h0.8
			c0.3,0,0.6,0,0.9,0c0.3,0,0.6-0.1,0.8-0.1v0.8c-0.1,0-0.2,0-0.4,0.1c-0.2,0-0.3,0-0.5,0.1c-0.2,0-0.4,0-0.6,0c-0.2,0-0.4,0-0.5,0
			h-1.2c-0.1,0-0.2,0-0.2-0.1c0,0-0.1-0.1-0.1-0.2v-2c0-0.1,0-0.2,0.1-0.2c0,0,0.1-0.1,0.2-0.1h1.7v-0.9h-2v-0.8H58z M56.4,145.4
			h5.1c0.1,0,0.2,0,0.2,0.1c0,0,0.1,0.1,0.1,0.2v2.5c0,0.1,0,0.2-0.1,0.2c0,0-0.1,0.1-0.2,0.1h-5.1c-0.1,0-0.2,0-0.2-0.1
			c0,0-0.1-0.1-0.1-0.2v-2.5c0-0.1,0-0.2,0.1-0.2C56.3,145.4,56.3,145.4,56.4,145.4z M60.8,147.5v-1.3h-3.6v1.3H60.8z M60.1,140.4
			v1.6h0.8v-1.7h1v4.8h-1v-2.1h-0.8v2.1h-1v-4.7H60.1z"/>
	</g>
	<g>
		<path class="st13" d="M29.5,154c0-0.3,0-0.7,0.1-1c0.1-0.3,0.2-0.7,0.3-1c0.1-0.3,0.3-0.6,0.5-0.9c0.2-0.3,0.4-0.5,0.7-0.8h0.7
			c-0.5,0.6-0.8,1.3-1,1.9c-0.2,0.6-0.3,1.2-0.3,1.8c0,0.6,0.1,1.2,0.3,1.8c0.2,0.6,0.5,1.2,1,1.9H31c-0.2-0.2-0.5-0.5-0.7-0.7
			c-0.2-0.3-0.3-0.6-0.5-0.9c-0.1-0.3-0.2-0.6-0.3-1C29.5,154.6,29.5,154.3,29.5,154z"/>
	</g>
	<g>
		<path class="st13" d="M34.5,151c0.1,0,0.1,0,0.2,0s0,0.1,0,0.2c0,0.1,0,0.3,0,0.4s0,0.2,0,0.4h0.8v-1.3h0.8v6.4h-0.8v-2.5h-1.1
			v-0.7h1.1v-1.1h-0.9c-0.1,0.7-0.4,1.3-0.7,1.8c-0.3,0.6-0.8,1-1.3,1.4l-0.8-0.5c0.7-0.5,1.2-1,1.5-1.6c0.3-0.6,0.5-1.3,0.5-2.1
			h-1.7V151H34.5z M36.8,157.4v-6.8h0.8v6.8H36.8z"/>
	</g>
	<g>
		<path class="st13" d="M42.1,154c-0.1-0.1-0.3-0.1-0.4-0.2c-0.1-0.1-0.3-0.2-0.4-0.3c-0.1-0.1-0.3-0.2-0.4-0.3
			c-0.1-0.1-0.2-0.2-0.3-0.3c-0.1,0.3-0.3,0.5-0.6,0.7c-0.3,0.2-0.6,0.4-1,0.6l-0.6-0.6c0.6-0.2,1-0.4,1.3-0.7
			c0.3-0.3,0.4-0.7,0.4-1.1v-0.2h-1.2v-0.7h3.4v0.7H41v0.2c0,0.4,0.1,0.7,0.4,1c0.3,0.3,0.7,0.5,1.1,0.6L42.1,154z M39.9,157.4
			c-0.1,0-0.1,0-0.2,0c0,0,0-0.1,0-0.2v-1.4c0-0.1,0-0.1,0-0.2c0,0,0.1,0,0.2,0h3.5v-0.5h-3.7v-0.7h4.4c0.1,0,0.1,0,0.2,0.1
			c0,0,0,0.1,0,0.2v1.3c0,0.1,0,0.1,0,0.2c0,0-0.1,0-0.2,0h-3.5v0.5h3.8v0.7H39.9z M42.2,152h1.3v-1.4h0.9v3.6h-0.9v-1.5h-1.3V152z"
			/>
	</g>
	<g>
		<path class="st13" d="M45.3,152.2v-0.7h4v0.7H45.3z M47.3,154.7c-0.6,0-1-0.1-1.3-0.3c-0.3-0.2-0.5-0.5-0.5-0.8
			c0-0.3,0.2-0.6,0.5-0.8c0.3-0.2,0.7-0.3,1.3-0.3c0.6,0,1,0.1,1.3,0.3c0.3,0.2,0.5,0.5,0.5,0.8c0,0.3-0.2,0.6-0.5,0.8
			C48.3,154.6,47.9,154.7,47.3,154.7z M50.5,155.2c0.1,0,0.1,0,0.2,0.1c0,0,0,0.1,0,0.2v2h-0.9V156H46v-0.7H50.5z M46.2,150.5h2.1
			v0.6h-2.1V150.5z M47.3,153.1c-0.3,0-0.5,0-0.6,0.1c-0.2,0.1-0.2,0.2-0.2,0.4c0,0.2,0.1,0.3,0.2,0.4c0.2,0.1,0.4,0.1,0.6,0.1
			c0.3,0,0.5,0,0.6-0.1c0.2-0.1,0.2-0.2,0.2-0.4c0-0.2-0.1-0.3-0.2-0.4C47.8,153.2,47.6,153.1,47.3,153.1z M50.7,150.6v1.8h0.9v0.8
			h-0.9v1.8h-0.9v-4.4H50.7z"/>
	</g>
	<g>
		<path class="st13" d="M55.3,151c0.1,0,0.1,0,0.2,0.1c0,0,0,0.1,0,0.2c-0.1,1.1-0.3,2-0.8,2.8c-0.5,0.8-1.2,1.5-2.1,2.1l-0.7-0.6
			c0.8-0.4,1.5-1,1.9-1.6c0.4-0.6,0.7-1.4,0.7-2.2h-2.3V151H55.3z M57.5,150.6v6.8h-0.9v-6.8H57.5z"/>
	</g>
	<g>
		<path class="st13" d="M59.5,150.8l0.4,1l0.4-1l0.7,0.4l-0.7,0.8l1-0.1v0.8l-1-0.1l0.7,0.9l-0.7,0.4l-0.4-1l-0.4,1l-0.7-0.4
			l0.7-0.9l-1,0.1v-0.8l1,0.1l-0.7-0.8L59.5,150.8z"/>
	</g>
	<g>
		<path class="st13" d="M63.7,154c0,0.3,0,0.7-0.1,1c-0.1,0.3-0.2,0.7-0.3,1c-0.1,0.3-0.3,0.6-0.5,0.9c-0.2,0.3-0.4,0.5-0.6,0.7
			h-0.7c0.5-0.6,0.8-1.3,1-1.9c0.2-0.6,0.3-1.2,0.3-1.8c0-0.6-0.1-1.1-0.3-1.8c-0.2-0.6-0.5-1.2-1-1.9h0.7c0.2,0.2,0.5,0.5,0.6,0.8
			c0.2,0.3,0.3,0.6,0.5,0.9c0.1,0.3,0.2,0.6,0.3,1C63.7,153.3,63.7,153.6,63.7,154z"/>
	</g>
</g>
<text transform="matrix(1 0 0 1 119.1296 122.5295)" class="st16 st17">Summer School</text>
<text transform="matrix(1 0 0 1 122.8 136.9748)"><tspan x="0" y="0" class="st16 st17">건축설계워크숍</tspan><tspan x="11.4" y="8.4" class="st16 st17">(1학점)</tspan></text>
<g>
	<text transform="matrix(1 0 0 1 82.6149 35.7775)" class="st16 st17">전공(18학점 이상)</text>
</g>
<g>
	<text transform="matrix(1 0 0 1 176.6916 31.1989)"><tspan x="0" y="0" class="st16 st17">일반선택 6학점까지 이수 가능</tspan><tspan x="0" y="9.2" class="st16 st17">타전공 12학점까지 이수 가능</tspan></text>
</g>
<g>
	<text transform="matrix(1 0 0 1 176.6911 74.0588)"><tspan x="0" y="0" class="st16 st17">일반선택 6학점까지 이수 가능</tspan><tspan x="0" y="9.2" class="st16 st17">타전공 1학점까지 이수 가능</tspan></text>
</g>
<g>
	<text transform="matrix(1 0 0 1 82.6149 78.6379)" class="st16 st17">전공(27학점 이상)</text>
</g>
<g>
	<text transform="matrix(1 0 0 1 79.4025 52.0407)"><tspan x="0" y="0" class="st16 st17">연구윤리 및 연구관리</tspan><tspan x="7.7" y="9.2" class="st16 st17">(특성화 교과목)</tspan></text>
</g>
<g>
	<text transform="matrix(1 0 0 1 79.4025 95.6603)"><tspan x="0" y="0" class="st16 st17">연구윤리 및 연구관리</tspan><tspan x="7.7" y="9.2" class="st16 st17">(특성화 교과목)</tspan></text>
</g>
<g>
	<text transform="matrix(1 0 0 1 275.6979 56.6188)" class="st16 st17">논문연구(6학점)</text>
</g>
<g>
	<text transform="matrix(1 0 0 1 239.1218 100.0119)" class="st16 st17">논문연구(9학점)</text>
</g>
<g>
	<text transform="matrix(1 0 0 1 397.4587 35.778)" class="st16 st17">18학점 이상</text>
</g>
<g>
	<text transform="matrix(1 0 0 1 399.6833 56.6188)" class="st16 st17">6학점 이상</text>
</g>
<g>
	<text transform="matrix(1 0 0 1 397.4587 78.6379)" class="st16 st17">27학점 이상</text>
</g>
<g>
	<text transform="matrix(1 0 0 1 399.6833 98.4855)" class="st16 st17">9학점 이상</text>
</g>
<g>
	<text transform="matrix(1 0 0 1 464.4811 45.8893)" class="st16 st17">24학점 이상</text>
</g>
<g>
	<text transform="matrix(1 0 0 1 464.4811 88.3859)" class="st16 st17">36학점 이상</text>
</g>
<rect x="22.3" y="114.4" class="st15" width="48.5" height="56.8"/>
<g>
	<g>
		<path class="st13" d="M43.4,215.8v2.9h2.9v0.9h-7.6v-0.9h1.6v-2.9h1v2.9h0.9v-2.9H43.4z M45.3,212.8c0.1,0,0.2,0,0.2,0.1
			c0,0,0.1,0.1,0.1,0.2c0,0.3,0,0.7-0.1,1.1c0,0.4-0.1,0.8-0.1,1.2c0,0.4-0.1,0.8-0.1,1.2c0,0.4-0.1,0.8-0.2,1.1h-1
			c0.1-0.6,0.2-1.3,0.3-2c0.1-0.7,0.1-1.4,0.1-2h-4.9v-0.9H45.3z"/>
	</g>
	<g>
		<path class="st13" d="M46.9,218h1.5v-2.6h1v2.6c0.2,0,0.4,0,0.6,0c0.3,0,0.5,0,0.8,0c0.3,0,0.5,0,0.8-0.1c0.3,0,0.5-0.1,0.6-0.1
			v0.9c-0.2,0-0.5,0.1-0.8,0.1c-0.3,0-0.6,0.1-1,0.1c-0.4,0-0.8,0-1.2,0.1c-0.4,0-0.9,0-1.3,0h-1V218z M51.3,212.8
			c0.1,0,0.2,0,0.2,0.1c0,0,0.1,0.1,0.1,0.2c0,0.7-0.1,1.4-0.1,2.1c-0.1,0.7-0.1,1.3-0.2,1.9h-1.1c0-0.2,0.1-0.5,0.1-0.8
			c0-0.3,0.1-0.6,0.1-0.9c0-0.3,0-0.6,0.1-0.9c0-0.3,0-0.6,0-0.9h-3.2v-0.9H51.3z M54.6,216.5h-1.1v4h-1v-8.2h1v3.3h1.1V216.5z"/>
	</g>
	<g>
		<path class="st13" d="M30.8,229.6h7.6v0.9h-7.6V229.6z M31.4,227.2h1.1l0-2.6h-0.9v-0.9h6v0.9h-0.9l0,2.6h1.1v0.9h-6.3V227.2z
			 M35.6,224.5h-2.1l0,2.6h2.1L35.6,224.5z"/>
	</g>
	<g>
		<path class="st13" d="M45.1,226.5h-4.3v1.1h4.7v0.9h-2.4v1.3h3.3v0.9h-7.6v-0.9H42v-1.3h-2c-0.1,0-0.2,0-0.2-0.1
			c0,0-0.1-0.1-0.1-0.2v-2.3c0-0.1,0-0.2,0.1-0.2c0,0,0.1-0.1,0.2-0.1h4.3v-1.1h-4.6v-0.9h5.3c0.1,0,0.2,0,0.2,0.1s0.1,0.1,0.1,0.2
			v2.3c0,0.1,0,0.2-0.1,0.2C45.3,226.5,45.2,226.5,45.1,226.5z"/>
	</g>
	<g>
		<path class="st13" d="M53.2,223.9c0.1,0,0.2,0,0.2,0.1c0,0,0.1,0.1,0.1,0.2c0,0.5-0.1,1-0.1,1.4c-0.1,0.5-0.1,1-0.2,1.4
			c-0.1,0.5-0.2,0.9-0.3,1.4c-0.1,0.4-0.2,0.8-0.3,1.2h1.8v0.9h-7.6v-0.9h4.8c0.1-0.3,0.2-0.7,0.3-1.1c0.1-0.4,0.2-0.8,0.3-1.3
			c0.1-0.4,0.1-0.9,0.2-1.3c0-0.4,0.1-0.8,0.1-1.2h-4.8v-0.9H53.2z"/>
	</g>
	<g>
		<path class="st13" d="M58,223.6c0.1,0,0.2,0,0.2,0.1c0,0,0.1,0.1,0.1,0.2v2c0,0.1,0,0.2-0.1,0.2c0,0-0.1,0.1-0.2,0.1h-1.7v0.9h0.8
			c0.3,0,0.6,0,0.9,0c0.3,0,0.6-0.1,0.8-0.1v0.8c-0.1,0-0.2,0-0.4,0.1c-0.2,0-0.3,0-0.5,0.1c-0.2,0-0.4,0-0.6,0c-0.2,0-0.4,0-0.5,0
			h-1.2c-0.1,0-0.2,0-0.2-0.1c0,0-0.1-0.1-0.1-0.2v-2c0-0.1,0-0.2,0.1-0.2c0,0,0.1-0.1,0.2-0.1h1.7v-0.9h-2v-0.8H58z M56.4,228.4
			h5.1c0.1,0,0.2,0,0.2,0.1c0,0,0.1,0.1,0.1,0.2v2.5c0,0.1,0,0.2-0.1,0.2c0,0-0.1,0.1-0.2,0.1h-5.1c-0.1,0-0.2,0-0.2-0.1
			c0,0-0.1-0.1-0.1-0.2v-2.5c0-0.1,0-0.2,0.1-0.2C56.3,228.4,56.3,228.4,56.4,228.4z M60.8,230.6v-1.3h-3.6v1.3H60.8z M60.1,223.4
			v1.6h0.8v-1.7h1v4.8h-1V226h-0.8v2.1h-1v-4.7H60.1z"/>
	</g>
	<g>
		<path class="st13" d="M29.5,237c0-0.3,0-0.7,0.1-1c0.1-0.3,0.2-0.7,0.3-1c0.1-0.3,0.3-0.6,0.5-0.9c0.2-0.3,0.4-0.5,0.7-0.8h0.7
			c-0.5,0.6-0.8,1.3-1,1.9c-0.2,0.6-0.3,1.2-0.3,1.8c0,0.6,0.1,1.2,0.3,1.8c0.2,0.6,0.5,1.2,1,1.9H31c-0.2-0.2-0.5-0.5-0.7-0.7
			c-0.2-0.3-0.3-0.6-0.5-0.9c-0.1-0.3-0.2-0.6-0.3-1C29.5,237.7,29.5,237.3,29.5,237z"/>
	</g>
	<g>
		<path class="st13" d="M34.5,234.1c0.1,0,0.1,0,0.2,0.1s0,0.1,0,0.2c0,0.1,0,0.3,0,0.4c0,0.1,0,0.2,0,0.4h0.8v-1.3h0.8v6.4h-0.8
			v-2.5h-1.1v-0.7h1.1v-1.1h-0.9c-0.1,0.7-0.4,1.3-0.7,1.8c-0.3,0.6-0.8,1-1.3,1.4l-0.8-0.5c0.7-0.5,1.2-1,1.5-1.6
			c0.3-0.6,0.5-1.3,0.5-2.1h-1.7v-0.7H34.5z M36.8,240.4v-6.8h0.8v6.8H36.8z"/>
	</g>
	<g>
		<path class="st13" d="M42.1,237.1c-0.1,0-0.3-0.1-0.4-0.2c-0.1-0.1-0.3-0.2-0.4-0.3c-0.1-0.1-0.3-0.2-0.4-0.3
			c-0.1-0.1-0.2-0.2-0.3-0.3c-0.1,0.3-0.3,0.5-0.6,0.7c-0.3,0.2-0.6,0.4-1,0.6l-0.6-0.6c0.6-0.2,1-0.4,1.3-0.7
			c0.3-0.3,0.4-0.7,0.4-1.1v-0.2h-1.2v-0.7h3.4v0.7H41v0.2c0,0.4,0.1,0.7,0.4,1c0.3,0.3,0.7,0.5,1.1,0.6L42.1,237.1z M39.9,240.4
			c-0.1,0-0.1,0-0.2,0c0,0,0-0.1,0-0.2v-1.3c0-0.1,0-0.1,0-0.2c0,0,0.1,0,0.2,0h3.5v-0.5h-3.7v-0.7h4.4c0.1,0,0.1,0,0.2,0.1
			c0,0,0,0.1,0,0.2v1.3c0,0.1,0,0.1,0,0.2c0,0-0.1,0-0.2,0h-3.5v0.5h3.8v0.7H39.9z M42.2,235h1.3v-1.4h0.9v3.6h-0.9v-1.5h-1.3V235z"
			/>
	</g>
	<g>
		<path class="st13" d="M45.3,235.3v-0.7h4v0.7H45.3z M47.3,237.8c-0.6,0-1-0.1-1.3-0.3c-0.3-0.2-0.5-0.5-0.5-0.8
			c0-0.3,0.2-0.6,0.5-0.8c0.3-0.2,0.7-0.3,1.3-0.3c0.6,0,1,0.1,1.3,0.3c0.3,0.2,0.5,0.5,0.5,0.8c0,0.3-0.2,0.6-0.5,0.8
			C48.3,237.7,47.9,237.8,47.3,237.8z M50.5,238.3c0.1,0,0.1,0,0.2,0.1c0,0,0,0.1,0,0.2v2h-0.9V239H46v-0.7H50.5z M46.2,233.6h2.1
			v0.7h-2.1V233.6z M47.3,236.2c-0.3,0-0.5,0-0.6,0.1c-0.2,0.1-0.2,0.2-0.2,0.4c0,0.2,0.1,0.3,0.2,0.4c0.2,0.1,0.4,0.1,0.6,0.1
			c0.3,0,0.5,0,0.6-0.1c0.2-0.1,0.2-0.2,0.2-0.4c0-0.2-0.1-0.3-0.2-0.4C47.8,236.2,47.6,236.2,47.3,236.2z M50.7,233.6v1.8h0.9v0.8
			h-0.9v1.8h-0.9v-4.4H50.7z"/>
	</g>
	<g>
		<path class="st13" d="M55.3,234c0.1,0,0.1,0,0.2,0c0,0,0,0.1,0,0.2c-0.1,1.1-0.3,2-0.8,2.8c-0.5,0.8-1.2,1.5-2.1,2.1l-0.7-0.6
			c0.8-0.4,1.5-1,1.9-1.6c0.4-0.6,0.7-1.4,0.7-2.2h-2.3V234H55.3z M57.5,233.6v6.8h-0.9v-6.8H57.5z"/>
	</g>
	<g>
		<path class="st13" d="M59.5,233.8l0.4,1l0.4-1l0.7,0.4l-0.7,0.8l1-0.1v0.8l-1-0.1l0.7,0.9l-0.7,0.4l-0.4-1l-0.4,1l-0.7-0.4
			l0.7-0.9l-1,0.1V235l1,0.1l-0.7-0.8L59.5,233.8z"/>
	</g>
	<g>
		<path class="st13" d="M63.7,237c0,0.3,0,0.7-0.1,1c-0.1,0.3-0.2,0.7-0.3,1c-0.1,0.3-0.3,0.6-0.5,0.9c-0.2,0.3-0.4,0.5-0.6,0.7
			h-0.7c0.5-0.6,0.8-1.3,1-1.9c0.2-0.6,0.3-1.2,0.3-1.8c0-0.6-0.1-1.1-0.3-1.8c-0.2-0.6-0.5-1.2-1-1.9h0.7c0.2,0.2,0.5,0.5,0.6,0.8
			c0.2,0.3,0.3,0.6,0.5,0.9c0.1,0.3,0.2,0.6,0.3,1C63.7,236.3,63.7,236.7,63.7,237z"/>
	</g>
</g>
<g>
	<g>
		<path class="st13" d="M35.4,275.7v2.9h2.9v0.9h-7.6v-0.9h1.6v-2.9h1v2.9h0.9v-2.9H35.4z M37.3,272.6c0.1,0,0.2,0,0.2,0.1
			c0,0,0.1,0.1,0.1,0.2c0,0.3-0.1,0.7-0.1,1.1c0,0.4-0.1,0.8-0.1,1.2c0,0.4-0.1,0.8-0.1,1.2c0,0.4-0.1,0.8-0.2,1.1h-1
			c0.1-0.6,0.2-1.3,0.3-2c0.1-0.7,0.1-1.4,0.1-2h-4.9v-0.9H37.3z"/>
	</g>
	<g>
		<path class="st13" d="M41,276.4c-0.5-0.1-0.9-0.2-1.1-0.4c-0.3-0.2-0.4-0.4-0.4-0.7c0-0.3,0.2-0.6,0.5-0.8
			c0.4-0.2,0.9-0.3,1.6-0.3c0.7,0,1.2,0.1,1.6,0.3c0.4,0.2,0.5,0.5,0.5,0.8c0,0.3-0.1,0.5-0.4,0.7c-0.3,0.2-0.6,0.3-1.1,0.4v0.5
			c0.1,0,0.2,0,0.4,0c0.2,0,0.4,0,0.6,0c0.2,0,0.4,0,0.6-0.1c0.2,0,0.4,0,0.6-0.1v0.8c-0.1,0-0.3,0-0.6,0.1c-0.2,0-0.5,0-0.8,0.1
			c-0.3,0-0.6,0-0.9,0.1c-0.3,0-0.6,0-0.9,0h-2.1V277H41V276.4z M39.3,273.2h4.6v0.8h-4.6V273.2z M40.4,280.2c-0.1,0-0.2,0-0.2-0.1
			c0,0-0.1-0.1-0.1-0.2v-1.8h1.1v1.2h4.6v0.9H40.4z M40.4,272.1h2.4v0.7h-2.4V272.1z M41.6,274.9c-0.3,0-0.6,0-0.7,0.1
			c-0.2,0.1-0.3,0.2-0.3,0.3c0,0.2,0.1,0.3,0.3,0.3c0.2,0.1,0.4,0.1,0.7,0.1c0.3,0,0.5,0,0.7-0.1c0.2-0.1,0.3-0.2,0.3-0.3
			c0-0.1-0.1-0.3-0.3-0.3C42.1,274.9,41.9,274.9,41.6,274.9z M46.6,275.6h-1.1v3h-1v-6.5h1v2.6h1.1V275.6z"/>
	</g>
	<g>
		<path class="st13" d="M47.1,274.1v-0.8h4.8v0.8H47.1z M49.5,277.1c-0.7,0-1.2-0.1-1.6-0.4c-0.4-0.3-0.6-0.6-0.6-0.9
			c0-0.4,0.2-0.7,0.5-0.9c0.4-0.3,0.9-0.4,1.6-0.4c0.7,0,1.2,0.1,1.6,0.4c0.4,0.3,0.6,0.6,0.6,0.9c0,0.4-0.2,0.7-0.6,0.9
			C50.7,277,50.1,277.1,49.5,277.1z M53.3,277.7c0.1,0,0.2,0,0.2,0.1c0,0,0.1,0.1,0.1,0.2v2.4h-1.1v-1.8H48v-0.9H53.3z M48.2,272.1
			h2.6v0.8h-2.6V272.1z M49.5,275.2c-0.3,0-0.6,0.1-0.8,0.2c-0.2,0.1-0.3,0.3-0.3,0.4c0,0.2,0.1,0.4,0.3,0.5
			c0.2,0.1,0.5,0.1,0.8,0.1c0.3,0,0.6,0,0.8-0.1c0.2-0.1,0.3-0.2,0.3-0.5c0-0.2-0.1-0.3-0.3-0.4C50,275.2,49.8,275.2,49.5,275.2z
			 M53.5,272.1v2.1h1.1v0.9h-1.1v2.2h-1v-5.3H53.5z"/>
	</g>
	<g>
		<path class="st13" d="M54.5,276.1c0.6-0.3,1-0.8,1.3-1.2c0.3-0.5,0.5-1.1,0.5-1.8v-0.7h1.1v0.7c0,0.6,0.1,1.2,0.4,1.6
			c0.3,0.4,0.7,0.8,1.2,1.1l-0.7,0.7c-0.3-0.2-0.6-0.4-0.9-0.7c-0.3-0.3-0.5-0.5-0.6-0.8c-0.1,0.3-0.3,0.6-0.6,0.9
			c-0.3,0.3-0.6,0.6-0.9,0.8L54.5,276.1z M59,277c0.4,0,0.8,0,1.2,0.1c0.4,0.1,0.7,0.2,1,0.3c0.3,0.1,0.5,0.3,0.6,0.5
			c0.2,0.2,0.2,0.5,0.2,0.7c0,0.3-0.1,0.5-0.2,0.7c-0.2,0.2-0.4,0.4-0.6,0.5c-0.3,0.1-0.6,0.3-0.9,0.3c-0.4,0.1-0.8,0.1-1.2,0.1
			c-0.4,0-0.8,0-1.2-0.1c-0.4-0.1-0.7-0.2-0.9-0.3c-0.3-0.1-0.5-0.3-0.6-0.5c-0.1-0.2-0.2-0.5-0.2-0.7c0-0.3,0.1-0.5,0.2-0.7
			c0.2-0.2,0.4-0.4,0.6-0.6c0.3-0.1,0.6-0.3,0.9-0.3C58.2,277.1,58.6,277,59,277z M59,277.8c-0.5,0-1,0.1-1.3,0.2
			c-0.3,0.2-0.5,0.4-0.5,0.7c0,0.3,0.2,0.5,0.5,0.7c0.4,0.2,0.8,0.3,1.3,0.3c0.6,0,1-0.1,1.4-0.3c0.3-0.2,0.5-0.4,0.5-0.7
			c0-0.3-0.2-0.5-0.5-0.7C60,277.9,59.5,277.8,59,277.8z M60.2,272.3v1.6h0.7v-1.8h1v5h-1v-2.3h-0.7v2h-1v-4.6H60.2z"/>
	</g>
	<g>
		<path class="st13" d="M27.4,288.4H35v0.9h-7.6V288.4z M28,285.9h1.1l0-2.6h-0.9v-0.9h6v0.9h-0.9l0,2.6h1.1v0.9H28V285.9z
			 M32.2,283.3h-2.1l0,2.6h2.1L32.2,283.3z"/>
	</g>
	<g>
		<path class="st13" d="M41.7,285.3h-4.3v1.1h4.7v0.9h-2.4v1.3H43v0.9h-7.6v-0.9h3.2v-1.3h-2c-0.1,0-0.2,0-0.2-0.1
			c0,0-0.1-0.1-0.1-0.2v-2.3c0-0.1,0-0.2,0.1-0.2c0,0,0.1-0.1,0.2-0.1h4.3v-1.1h-4.6v-0.9h5.3c0.1,0,0.2,0,0.2,0.1
			c0,0,0.1,0.1,0.1,0.2v2.3c0,0.1,0,0.2-0.1,0.2C41.8,285.2,41.8,285.3,41.7,285.3z"/>
	</g>
	<g>
		<path class="st13" d="M49.8,282.6c0.1,0,0.2,0,0.2,0.1c0,0,0.1,0.1,0.1,0.2c0,0.5-0.1,1-0.1,1.4c-0.1,0.5-0.1,1-0.2,1.4
			c-0.1,0.5-0.2,0.9-0.3,1.4c-0.1,0.4-0.2,0.8-0.3,1.2H51v0.9h-7.6v-0.9h4.8c0.1-0.3,0.2-0.7,0.3-1.1c0.1-0.4,0.2-0.8,0.3-1.3
			c0.1-0.4,0.1-0.9,0.2-1.3c0-0.4,0.1-0.8,0.1-1.2h-4.8v-0.9H49.8z"/>
	</g>
	<g>
		<path class="st13" d="M54.6,282.4c0.1,0,0.2,0,0.2,0.1c0,0,0.1,0.1,0.1,0.2v2c0,0.1,0,0.2-0.1,0.2c0,0-0.1,0.1-0.2,0.1h-1.7v0.9
			h0.8c0.3,0,0.6,0,0.9,0c0.3,0,0.6-0.1,0.8-0.1v0.8c-0.1,0-0.2,0-0.4,0.1c-0.2,0-0.3,0-0.5,0.1c-0.2,0-0.4,0-0.6,0
			c-0.2,0-0.4,0-0.5,0h-1.2c-0.1,0-0.2,0-0.2-0.1c0,0-0.1-0.1-0.1-0.2v-2c0-0.1,0-0.2,0.1-0.2c0,0,0.1-0.1,0.2-0.1h1.7v-0.9h-2v-0.8
			H54.6z M53,287.2h5.1c0.1,0,0.2,0,0.2,0.1c0,0,0.1,0.1,0.1,0.2v2.5c0,0.1,0,0.2-0.1,0.2c0,0-0.1,0.1-0.2,0.1H53
			c-0.1,0-0.2,0-0.2-0.1c0,0-0.1-0.1-0.1-0.2v-2.5c0-0.1,0-0.2,0.1-0.2C52.9,287.2,52.9,287.2,53,287.2z M57.4,289.3v-1.3h-3.6v1.3
			H57.4z M56.7,282.2v1.6h0.8v-1.7h1v4.8h-1v-2.1h-0.8v2.1h-1v-4.7H56.7z"/>
	</g>
	<g>
		<path class="st13" d="M60.5,283.4l0.4,1l0.4-1l0.7,0.4l-0.7,0.8l1-0.1v0.8l-1-0.1l0.7,0.9l-0.7,0.4l-0.4-1l-0.4,1l-0.7-0.4
			l0.7-0.9l-1,0.1v-0.8l1,0.1l-0.7-0.8L60.5,283.4z"/>
	</g>
	<g>
		<path class="st13" d="M63.9,283.4l0.4,1l0.4-1l0.7,0.4l-0.7,0.8l1-0.1v0.8l-1-0.1l0.7,0.9l-0.7,0.4l-0.4-1l-0.4,1l-0.7-0.4
			l0.7-0.9l-1,0.1v-0.8l1,0.1l-0.7-0.8L63.9,283.4z"/>
	</g>
</g>
<rect x="22.3" y="184.5" class="st15" width="48.5" height="81"/>
<rect x="22.3" y="327.9" class="st18" width="48.5" height="93.1"/>
<text transform="matrix(1 0 0 1 84.7761 220.884)"><tspan x="0" y="0" class="st16 st17">영어</tspan><tspan x="0" y="9.2" class="st16 st17">강좌</tspan></text>
<g>
	<text transform="matrix(1 0 0 1 115.1193 191.6603)"><tspan x="0" y="0" class="st16 st17">큐슈대 Sustainable</tspan><tspan x="8.3" y="7.6" class="st16 st17">Design Camp</tspan></text>
</g>
<rect x="22.3" y="268" class="st15" width="48.5" height="25.2"/>
<g>
	<text transform="matrix(1 0 0 1 187.4431 280.7043)"><tspan x="0" y="0" class="st16 st17">동제대 / 큐슈대 파견 가능</tspan><tspan x="13.4" y="8.4" class="st16 st17">(1학기 ~ 2학기)</tspan></text>
</g>
<text transform="matrix(1 0 0 1 306.8483 259.131)" class="st16 st17">인턴쉽 프로그램(예정)</text>
<rect x="146.9" y="268.9" class="st19" width="153.3" height="24.4"/>
<rect x="303.7" y="248.4" class="st19" width="76.1" height="17"/>
<g>
	<text transform="matrix(1 0 0 1 328.1213 276.923)"><tspan x="0" y="0" class="st16 st17">국제실무</tspan><tspan x="-16.2" y="6.1" class="st16 st20">International Practice</tspan><tspan x="3.7" y="12.2" class="st16 st20">(5학점)</tspan></text>
</g>
<rect x="303.5" y="268.9" class="st19" width="76.5" height="24.4"/>
<rect x="111.7" y="114.4" class="st1" width="69.1" height="11.3"/>
<text transform="matrix(1 0 0 1 194.3205 122.5295)" class="st16 st17">Winter School</text>
<text transform="matrix(1 0 0 1 184.675 137.0539)"><tspan x="0" y="0" class="st16 st17">도시문화자원탐색(Ⅱ)</tspan><tspan x="21.6" y="8.4" class="st16 st17">(2학점)</tspan></text>
<g>
	<text transform="matrix(1 0 0 1 120.6628 212.7453)"><tspan x="0" y="0" class="st16 st17">동제대 Summer</tspan><tspan x="8.1" y="7.6" class="st16 st17">Workshop</tspan></text>
</g>
<text transform="matrix(1 0 0 1 117.5534 238.1808)" class="st16 st17">wndrnr UIA-CBC</text>
<g>
	<text transform="matrix(1 0 0 1 120.6628 254.9152)"><tspan x="0" y="0" class="st16 st17">동제대 Summer</tspan><tspan x="14.3" y="7.6" class="st16 st17">School</tspan></text>
</g>
<rect x="111.7" y="151.5" class="st3" width="69.1" height="19.7"/>
<text transform="matrix(1 0 0 1 112.59 159.2805)"><tspan x="0" y="0" class="st16 st17">도시문화자원탐색(Ⅰ)</tspan><tspan x="21.6" y="9.2" class="st16 st17">(2학점)</tspan></text>
<text transform="matrix(1 0 0 1 98.3259 13.6428)" class="st16 st21">1학기</text>
<text transform="matrix(1 0 0 1 177.8112 13.6428)" class="st16 st21">2학기</text>
<text transform="matrix(1 0 0 1 252.8059 13.6428)" class="st16 st21">3학기</text>
<text transform="matrix(1 0 0 1 327.8215 13.6428)" class="st16 st21">4학기</text>
<line class="st15" x1="22.3" y1="374.9" x2="419.9" y2="374.9"/>
<line class="st15" x1="360.3" y1="328.6" x2="360.3" y2="374.7"/>
<line class="st15" x1="241" y1="328.6" x2="241" y2="374.9"/>
<line class="st15" x1="181.4" y1="374.7" x2="181.4" y2="420.9"/>
<line class="st15" x1="300.7" y1="374.7" x2="300.7" y2="420.9"/>
<line class="st15" x1="121.8" y1="328.6" x2="121.8" y2="422.1"/>
<line class="st15" x1="70.9" y1="328.6" x2="70.9" y2="423.9"/>
<g>
	<g>
		<path class="st13" d="M36.3,346.8h5.4v0.9h-4.6v1h4.7v0.9h-2.4v0.9h3.2v0.9h-7.6v-0.9h3.2v-0.9h-2c-0.1,0-0.2,0-0.2-0.1
			c0,0-0.1-0.1-0.1-0.2v-2.2c0-0.1,0-0.2,0.1-0.2C36.1,346.8,36.2,346.8,36.3,346.8z M38.8,351.8c1,0,1.7,0.1,2.3,0.4
			c0.5,0.3,0.8,0.7,0.8,1.2c0,0.5-0.3,0.9-0.8,1.2c-0.5,0.3-1.3,0.4-2.3,0.4c-1,0-1.8-0.1-2.3-0.4c-0.5-0.3-0.8-0.7-0.8-1.2
			c0-0.5,0.3-0.9,0.8-1.2C37.1,351.9,37.8,351.8,38.8,351.8z M38.8,352.6c-0.6,0-1,0.1-1.4,0.2c-0.3,0.1-0.5,0.3-0.5,0.6
			c0,0.3,0.2,0.5,0.5,0.6c0.3,0.1,0.8,0.2,1.4,0.2c0.6,0,1-0.1,1.4-0.2c0.3-0.1,0.5-0.3,0.5-0.6c0-0.3-0.2-0.5-0.5-0.6
			C39.9,352.7,39.4,352.6,38.8,352.6z"/>
	</g>
	<g>
		<path class="st13" d="M47.1,348h-1.2v0.9c0,0.9,0.1,1.6,0.4,2.1c0.2,0.5,0.7,1,1.3,1.4l-0.7,0.7c-0.3-0.2-0.6-0.5-0.9-0.8
			c-0.3-0.3-0.5-0.6-0.6-0.9c-0.1,0.3-0.3,0.7-0.6,1c-0.3,0.4-0.6,0.7-0.9,1l-0.9-0.6c0.6-0.4,1.1-0.9,1.4-1.5
			c0.3-0.6,0.4-1.4,0.4-2.3V348h-1.2v-0.9h3.6V348z M46.5,349.2h1.2v-2.4h1v7.7h-1v-4.3h-1.2V349.2z M50.3,346.6v8.2h-1v-8.2H50.3z"
			/>
	</g>
	<g>
		<path class="st13" d="M51.9,347.1h2.6v0.9h-1.9v3.9l0.8,0c0.1,0,0.3,0,0.4,0c0.2,0,0.3,0,0.4-0.1c0.1,0,0.3,0,0.4-0.1
			c0.1,0,0.2,0,0.3-0.1v0.9c-0.1,0-0.2,0-0.4,0.1c-0.2,0-0.3,0-0.5,0.1c-0.2,0-0.4,0-0.6,0c-0.2,0-0.4,0-0.5,0c-0.1,0-0.2,0-0.3,0
			c-0.1,0-0.2,0-0.4,0c-0.1,0-0.3,0-0.5,0c-0.1,0-0.2,0-0.2-0.1c0,0-0.1-0.1-0.1-0.2v-5.2c0-0.1,0-0.2,0.1-0.2
			C51.8,347.1,51.8,347.1,51.9,347.1z M56.3,346.8v2.6h0.8v-2.7h1v8.2h-1v-4.5h-0.8v4.1h-1v-7.7H56.3z"/>
	</g>
	<g>
		<path class="st13" d="M38.1,361.1c0-0.3,0-0.7,0.1-1c0.1-0.3,0.2-0.7,0.3-1c0.1-0.3,0.3-0.6,0.5-0.9c0.2-0.3,0.4-0.5,0.7-0.8h0.7
			c-0.5,0.6-0.8,1.3-1,1.9c-0.2,0.6-0.3,1.2-0.3,1.8c0,0.6,0.1,1.2,0.3,1.8c0.2,0.6,0.5,1.2,1,1.9h-0.7c-0.2-0.2-0.5-0.5-0.7-0.7
			c-0.2-0.3-0.3-0.6-0.5-0.9c-0.1-0.3-0.2-0.6-0.3-1C38.1,361.8,38.1,361.4,38.1,361.1z"/>
	</g>
	<g>
		<path class="st13" d="M44.1,361.4c-0.3-0.2-0.6-0.3-0.9-0.6c-0.3-0.2-0.5-0.5-0.7-0.7c0,0.1-0.1,0.3-0.2,0.4
			c-0.1,0.1-0.2,0.3-0.4,0.4c-0.1,0.1-0.3,0.3-0.5,0.4c-0.2,0.1-0.3,0.2-0.5,0.3l-0.7-0.6c0.6-0.3,1-0.6,1.3-1
			c0.3-0.4,0.5-0.8,0.5-1.3v-0.9h0.9v0.8c0,0.2,0,0.5,0.1,0.7c0.1,0.2,0.2,0.4,0.3,0.6c0.1,0.2,0.3,0.3,0.5,0.5
			c0.2,0.1,0.4,0.3,0.7,0.3L44.1,361.4z M45.9,362.1c0.1,0,0.1,0,0.2,0.1c0,0,0.1,0.1,0.1,0.2v2.3h-0.9v-1.8h-3.8v-0.7H45.9z
			 M43.9,358.8h1.4v-1.1h0.9v4.1h-0.9v-2.2h-1.4V358.8z"/>
	</g>
	<g>
		<path class="st13" d="M50.6,363.1c-0.3-0.2-0.6-0.5-0.9-0.8c-0.3-0.3-0.5-0.6-0.6-1c-0.1,0.2-0.1,0.3-0.2,0.5
			c-0.1,0.2-0.2,0.3-0.4,0.5c-0.1,0.2-0.3,0.3-0.5,0.5c-0.2,0.2-0.3,0.3-0.5,0.4l-0.7-0.6c0.6-0.4,1.1-0.9,1.4-1.4
			c0.3-0.6,0.4-1.2,0.5-1.9v-1.5h0.9v1.5c0,0.7,0.1,1.3,0.4,1.8c0.3,0.5,0.7,0.9,1.3,1.3L50.6,363.1z M51.6,364.5v-6.8h0.9v2.6h0.9
			v0.8h-0.9v3.5H51.6z"/>
	</g>
	<g>
		<path class="st13" d="M55.6,361.1c0,0.3,0,0.7-0.1,1c-0.1,0.3-0.2,0.7-0.3,1c-0.1,0.3-0.3,0.6-0.5,0.9c-0.2,0.3-0.4,0.5-0.6,0.7
			h-0.7c0.5-0.6,0.8-1.3,1-1.9c0.2-0.6,0.3-1.2,0.3-1.8c0-0.6-0.1-1.1-0.3-1.8c-0.2-0.6-0.5-1.2-1-1.9h0.7c0.2,0.2,0.5,0.5,0.6,0.8
			c0.2,0.3,0.3,0.6,0.5,0.9c0.1,0.3,0.2,0.6,0.3,1C55.6,360.4,55.6,360.7,55.6,361.1z"/>
	</g>
</g>
<g>
	<text transform="matrix(1 0 0 1 79.9865 356.5451)" class="st16 st21">부산대학교</text>
</g>
<g>
	<text transform="matrix(1 0 0 1 79.9865 403.6867)" class="st16 st21">부산대학교</text>
</g>
<g>
	<text transform="matrix(1 0 0 1 125.4167 391.9465)"><tspan x="0" y="0" class="st16 st21">큐슈대학교 파견</tspan><tspan x="8.8" y="8" class="st16 st22">(20학점 이수,</tspan><tspan x="14.5" y="16" class="st16 st22">여름계절 </tspan><tspan x="11.4" y="24" class="st16 st22">8학점 포함)</tspan></text>
</g>
<g>
	<text transform="matrix(1 0 0 1 155.4934 351.8078)"><tspan x="0" y="0" class="st16 st21">동제대학교 파견</tspan><tspan x="8.3" y="10" class="st16 st22">(20학점 이수)</tspan></text>
</g>
<g>
	<text transform="matrix(1 0 0 1 282.843 351.8088)"><tspan x="0" y="0" class="st16 st21">부산대학교</tspan><tspan x="-1.6" y="10" class="st16 st22">(논문학기 포함)</tspan></text>
</g>
<g>
	<text transform="matrix(1 0 0 1 220.8327 398.9504)"><tspan x="0" y="0" class="st16 st21">부산대학교</tspan><tspan x="-1.6" y="10" class="st16 st22">(논문학기 포함)</tspan></text>
</g>
<g>
	<g>
		<path class="st13" d="M42.6,395.9h-1.9v3.2h-1v-3.2H38v3.1h-1v-3.1h-1.9V395h5.2c0-0.2,0.1-0.4,0.1-0.6c0-0.2,0.1-0.4,0.1-0.6
			c-0.4,0.1-0.9,0.1-1.4,0.2c-0.5,0-1,0-1.5,0h-1.8v-0.9h2.4c0.5,0,0.9,0,1.3,0c0.4,0,0.8,0,1.2-0.1c0-0.2,0-0.3,0.1-0.5
			c0-0.2,0-0.3,0.1-0.5h-4.8v-0.9h5.6c0.1,0,0.2,0,0.2,0.1c0,0,0.1,0.1,0.1,0.2c0,0.5-0.1,1.1-0.2,1.8c-0.1,0.7-0.2,1.3-0.3,1.9h1.3
			V395.9z"/>
	</g>
	<g>
		<path class="st13" d="M44.9,399v-2.8H43v-0.9h7.6v0.9h-1.9v2.8h-1v-2.8H46v2.8H44.9z M49.7,394.5c-0.7-0.2-1.3-0.5-1.8-0.7
			c-0.5-0.3-0.8-0.6-1-1c-0.2,0.4-0.6,0.7-1.1,1c-0.5,0.3-1,0.5-1.7,0.7l-0.7-0.8c0.4-0.1,0.8-0.2,1.2-0.4c0.4-0.1,0.7-0.3,0.9-0.5
			c0.3-0.2,0.5-0.4,0.6-0.6c0.1-0.2,0.2-0.5,0.2-0.8v-0.4h1.1v0.4c0,0.6,0.3,1.1,0.8,1.4c0.5,0.4,1.2,0.7,2.1,0.9L49.7,394.5z"/>
	</g>
	<g>
		<path class="st13" d="M51.9,391.4h2.6v0.9h-1.9v3.9l0.8,0c0.1,0,0.3,0,0.4,0c0.2,0,0.3,0,0.4-0.1c0.1,0,0.3,0,0.4-0.1
			c0.1,0,0.2,0,0.3-0.1v0.9c-0.1,0-0.2,0-0.4,0.1c-0.2,0-0.3,0-0.5,0.1c-0.2,0-0.4,0-0.6,0c-0.2,0-0.4,0-0.5,0c-0.1,0-0.2,0-0.3,0
			c-0.1,0-0.2,0-0.4,0c-0.1,0-0.3,0-0.5,0c-0.1,0-0.2,0-0.2-0.1c0,0-0.1-0.1-0.1-0.2v-5.2c0-0.1,0-0.2,0.1-0.2
			C51.8,391.4,51.8,391.4,51.9,391.4z M56.3,391v2.6h0.8v-2.7h1v8.2h-1v-4.5h-0.8v4.1h-1V391H56.3z"/>
	</g>
	<g>
		<path class="st13" d="M38.1,405.4c0-0.3,0-0.7,0.1-1c0.1-0.3,0.2-0.7,0.3-1c0.1-0.3,0.3-0.6,0.5-0.9c0.2-0.3,0.4-0.5,0.7-0.8h0.7
			c-0.5,0.6-0.8,1.3-1,1.9c-0.2,0.6-0.3,1.2-0.3,1.8c0,0.6,0.1,1.2,0.3,1.8c0.2,0.6,0.5,1.2,1,1.9h-0.7c-0.2-0.2-0.5-0.5-0.7-0.7
			c-0.2-0.3-0.3-0.6-0.5-0.9c-0.1-0.3-0.2-0.6-0.3-1C38.1,406,38.1,405.7,38.1,405.4z"/>
	</g>
	<g>
		<path class="st13" d="M44.1,405.7c-0.3-0.2-0.6-0.4-0.9-0.6c-0.3-0.2-0.5-0.5-0.7-0.7c0,0.1-0.1,0.3-0.2,0.4
			c-0.1,0.1-0.2,0.3-0.4,0.4c-0.1,0.1-0.3,0.3-0.5,0.4c-0.2,0.1-0.3,0.2-0.5,0.3l-0.7-0.6c0.6-0.3,1-0.6,1.3-1
			c0.3-0.4,0.5-0.8,0.5-1.3v-0.9h0.9v0.8c0,0.2,0,0.5,0.1,0.7c0.1,0.2,0.2,0.4,0.3,0.6c0.1,0.2,0.3,0.3,0.5,0.5
			c0.2,0.1,0.4,0.3,0.7,0.3L44.1,405.7z M45.9,406.4c0.1,0,0.1,0,0.2,0.1c0,0,0.1,0.1,0.1,0.2v2.3h-0.9v-1.8h-3.8v-0.7H45.9z
			 M43.9,403.1h1.4V402h0.9v4.1h-0.9v-2.2h-1.4V403.1z"/>
	</g>
	<g>
		<path class="st13" d="M50.6,407.4c-0.3-0.2-0.6-0.5-0.9-0.8c-0.3-0.3-0.5-0.6-0.6-1c-0.1,0.2-0.1,0.3-0.2,0.5
			c-0.1,0.2-0.2,0.3-0.4,0.5c-0.1,0.2-0.3,0.3-0.5,0.5c-0.2,0.2-0.3,0.3-0.5,0.4l-0.7-0.6c0.6-0.4,1.1-0.9,1.4-1.4
			c0.3-0.6,0.4-1.2,0.5-1.8v-1.5h0.9v1.5c0,0.7,0.1,1.3,0.4,1.8c0.3,0.5,0.7,0.9,1.3,1.3L50.6,407.4z M51.6,408.8V402h0.9v2.6h0.9
			v0.8h-0.9v3.5H51.6z"/>
	</g>
	<g>
		<path class="st13" d="M55.6,405.4c0,0.3,0,0.7-0.1,1c-0.1,0.3-0.2,0.7-0.3,1c-0.1,0.3-0.3,0.6-0.5,0.9c-0.2,0.3-0.4,0.5-0.6,0.7
			h-0.7c0.5-0.6,0.8-1.3,1-1.9c0.2-0.6,0.3-1.2,0.3-1.8c0-0.6-0.1-1.1-0.3-1.8c-0.2-0.6-0.5-1.2-1-1.9h0.7c0.2,0.2,0.5,0.5,0.6,0.8
			c0.2,0.3,0.3,0.6,0.5,0.9c0.1,0.3,0.2,0.6,0.3,1C55.6,404.7,55.6,405,55.6,405.4z"/>
	</g>
</g>
<g>
	<text transform="matrix(1 0 0 1 387.5554 356.5451)" class="st16 st21">☆</text>
</g>
<g>
	<text transform="matrix(1 0 0 1 327.6247 403.6867)" class="st16 st21">☆</text>
</g>
<g>
	<rect x="420.4" y="328.6" class="st15" width="89" height="94.5"/>
	<line class="st15" x1="420.4" y1="375.9" x2="509.4" y2="375.9"/>
</g>
<g>
	<text transform="matrix(1.0503 0 0 1 434.9421 348.1291)"><tspan x="0" y="0" class="st16 st17">전공 : 36학점 이수</tspan><tspan x="6.8" y="9.3" class="st16 st20">(부산대 이수학점 </tspan><tspan x="12.1" y="18.5" class="st16 st20">16학점 전환)</tspan></text>
</g>
<g>
	<text transform="matrix(1 0 0 1 431.653 384.884)"><tspan x="0" y="0" class="st16 st17">전공 : 22학점 이수</tspan><tspan x="0" y="8.4" class="st16 st17">논문연구 : 여름계절 </tspan><tspan x="0" y="16.8" class="st16 st17">               8학점 이수</tspan><tspan x="0" y="25.2" class="st16 st17">총 : 30학점 이수</tspan><tspan x="0" y="33.6" class="st16 st20">(부산대 이수학점 10학점 전환)</tspan></text>
</g>
<text transform="matrix(1 0 0 1 22.3313 178.4767)" class="st16 st20">* 정규 수료학점에 포함되지 않음(단, 복수학위 과정은 정규 수료학점에 포함한다.)</text>
<text transform="matrix(1 0 0 1 22.3317 302.4006)" class="st16 st23">** 재원 및 여석인원에 따라 석사, 박사, 석.박사 통합과정 학생 파견 가능</text>
<g>
	<text transform="matrix(1 0 0 1 22.3737 429.3674)" class="st16 st23">☆ 최종학기의 논문작성 진도에 따라서 각각 3년(동제대)과 2년반(큐슈대)이 소요될 수 있음.</text>
</g>
<polyline class="st24" points="172.9,29.7 147.2,29.7 147.2,37.8 172.9,37.8 "/>
<polyline class="st24" points="172.9,72.5 147.2,72.5 147.2,80.6 172.9,80.6 "/>
<polygon class="st25" points="299,287.3 305.3,281 299,274.8 "/>
<polygon class="st25" points="334.1,291.8 340.4,298.1 346.7,291.8 "/>
<rect x="420.4" y="310" class="st8" width="89" height="17.9"/>
<rect x="121.8" y="309.6" class="st10" width="59.6" height="18.2"/>
<rect x="241" y="309.6" class="st7" width="59.6" height="18.2"/>
<rect x="300.7" y="309.6" class="st9" width="59.6" height="18.2"/>
<rect x="360.2" y="309.6" class="st9" width="59.6" height="18.2"/>
<rect x="181.4" y="309.6" class="st7" width="59.6" height="18.2"/>
<rect x="70.9" y="309.6" class="st10" width="50.9" height="18.2"/>
<g>
	<rect x="70.9" y="310" class="st15" width="349.1" height="17.8"/>
	<line class="st15" x1="360.3" y1="310" x2="360.3" y2="327.9"/>
	<line class="st15" x1="300.7" y1="310" x2="300.7" y2="327.9"/>
	<line class="st15" x1="241" y1="310" x2="241" y2="327.9"/>
	<line class="st15" x1="181.4" y1="310" x2="181.4" y2="327.9"/>
	<line class="st15" x1="121.8" y1="310" x2="121.8" y2="327.9"/>
</g>
<text transform="matrix(1 0 0 1 88.3581 322.0373)" class="st16 st21">1학기</text>
<text transform="matrix(1 0 0 1 142.5441 322.0373)" class="st16 st21">2학기</text>
<text transform="matrix(1 0 0 1 198.9792 322.0373)" class="st16 st21">3학기</text>
<text transform="matrix(1 0 0 1 260.0187 322.0373)" class="st16 st21">4학기</text>
<text transform="matrix(1 0 0 1 321.7248 322.0373)" class="st16 st21">5학기</text>
<text transform="matrix(1 0 0 1 381.6555 322.0373)" class="st16 st21">6학기</text>
<rect x="420.4" y="310" class="st15" width="89" height="17.8"/>
<text transform="matrix(1 0 0 1 457.9099 318.7795)"><tspan x="0" y="0" class="st16 st21">공통</tspan><tspan x="-35.8" y="6" class="st16 st20">(</tspan><tspan x="-33.1" y="6" class="st16 st20">부산대학교 수료학점 및 졸업요건 충족)</tspan></text>
</svg>
