<?xml version="1.0" encoding="utf-8"?>
<!-- Generator: Adobe Illustrator 25.3.0, SVG Export Plug-In . SVG Version: 6.00 Build 0)  -->
<svg version="1.1" id="레이어_1" xmlns="http://www.w3.org/2000/svg" xmlns:xlink="http://www.w3.org/1999/xlink" x="0px"
	 y="0px" viewBox="0 0 1247.2 184.2" style="enable-background:new 0 0 1247.2 184.2;" xml:space="preserve">
<style type="text/css">
	.st0{fill:#106EB8;}
	.st1{fill:#00876D;}
	.st2{display:none;}
	.st3{display:inline;fill:#106EB8;}
	.st4{fill:#FFFFFF;}
</style>
<g id="부산대학교__건축학과">
	<g>
		<path class="st0" d="M339.7,75.6h91.4v12.1h-38.7v31.9h-14V87.7h-38.8L339.7,75.6L339.7,75.6z M359.1,29.1c4.3,0,5.3,0.4,5.3,1.3
			c0,0.8-0.7,1.9-0.7,3.4v4.6h43.9v-9.3h8.5c5.2,0,6.4,0.4,6.4,1.4c0,0.8-0.8,2.1-0.8,4v34.1h-72.1V29.1H359.1z M363.7,49.8v7.4
			h43.9v-7.4H363.7z"/>
		<path class="st0" d="M470.6,28.3c4.8,0,6,0.5,6,1.7s-1.4,3.1-1.4,5.9c0,10.5,7.5,27,23.2,34.1c-3.6,2.9-7.2,6.7-10.2,10.5
			c-8.1-5.1-16.7-14.7-19.1-22.9c-2.2,8.7-9.1,18-20.5,25.4c-2.6-3-7.1-7-10.9-9.7c14.9-7.3,24.3-19.9,24.3-45
			C461.9,28.3,470.6,28.3,470.6,28.3z M457.5,87.1c5.7,0,6.9,0.5,6.9,1.8c0,1.1-1.1,2.8-1.1,5.1v11.1h56.9v12.2h-71.1V87.1H457.5z
			 M510,25.9c7.2,0,9,0.4,9,1.8c0,1.2-1.5,3.2-1.5,6.4V58h12.2v12.8h-12.2V95h-14.1V25.9C503.4,25.9,510,25.9,510,25.9z"/>
		<path class="st0" d="M539.8,34h38.7v12.2h-24.6v41.4h3.5c5.9,0,15.9-0.5,24.9-2.1c0.6,3.9,1.4,8.4,2,12
			c-12.4,2.5-26.7,2.6-35.3,2.6h-9.2V34L539.8,34z M617.8,25.9c5.1,0,6.4,0.4,6.4,1.5s-1.2,2.8-1.2,5.4v86.8h-13.8v-41h-7v37.5
			h-13.6V27.6h9.4c4.5,0,5.8,0.3,5.8,1.2c0,1-1.6,2.7-1.6,5.4v32.1h7V25.9C609.2,25.9,617.8,25.9,617.8,25.9z"/>
		<path class="st0" d="M636.4,39.6h57.2V50h-57.2V39.6z M689,67.2c0,7.9-7.9,15.3-24.2,15.3c-15.5,0-23.5-7.4-23.5-15.3
			c0-7.6,7.9-14.8,23.5-14.8C681,52.4,689,59.6,689,67.2z M643,88.8h69.9v30.9h-14.1v-18.8H643L643,88.8L643,88.8z M650.9,26.6h28.6
			V37h-28.6V26.6z M655.4,67.3c0,3.6,3.2,6.1,9.4,6.1c6.9,0,10.2-2.5,10.2-6.1c0-3.2-3.2-5.7-10.2-5.7
			C658.6,61.6,655.4,64.1,655.4,67.3z M705.4,25.9c7.2,0,9,0.4,9,1.8c0,1.2-1.5,3.2-1.5,6.4v22h12.2v12.8h-12.2v13.6h-14.1V25.9
			C698.8,25.9,705.4,25.9,705.4,25.9z"/>
		<path class="st0" d="M730.3,95.8h19.4V65.6h7.5c5.5,0,6.8,0.3,6.8,1.2c0,0.9-1.1,2.2-1.1,4.3v24.7h11.6V65.6h8
			c5.4,0,6.7,0.4,6.7,1.2c0,0.9-1.5,2.3-1.5,4.3v24.7h34v12.6h-91.6L730.3,95.8L730.3,95.8z M739.3,32.2h73.9c0,22-2,38.4-6.8,55.2
			l-14.6-1.1c2.2-6.8,6.5-24.7,6.5-41.5h-59L739.3,32.2L739.3,32.2z"/>
		<path class="st0" d="M867.3,30.7h44.5c0,23.7-11.4,44.9-42.2,56.9c-1.9-3.8-4.9-8.4-8-11.8c20.6-5.1,32.9-21.6,32.9-32.9h-27.2
			V30.7z M881.6,88.9c5.7,0,7,0.5,7,1.7c0,1.1-1.2,2.8-1.2,5.1v9.4h58.1v12.2h-72.3V88.8C873.3,88.8,881.6,88.8,881.6,88.9z
			 M936.3,25.9c7.4,0,9.2,0.4,9.2,1.6c0,1-1.5,2.8-1.5,5.6V95h-14.2V65.9h-19.3V53.6h19.3V25.9C929.9,25.9,936.3,25.9,936.3,25.9z"
			/>
		<path class="st0" d="M957.3,71h91.5v11.5h-38.9v4.9h29.4v32.2h-14.2V99h-58.4V87.4H995v-4.9h-37.7L957.3,71L957.3,71z M965.9,38.4
			h75.1v10.3h-29c0,2.7,14.2,10.3,28.2,10.3c1.2,0,2.3-0.1,3.5-0.2c-2.8,3.3-5.4,7.8-6.7,10.6c-14-1.2-29.8-7.1-34.3-14
			c-4.8,6.5-20.5,12.9-33.3,14c-1.5-2.8-4.5-7.5-7.2-10.8c1.3,0.2,2.6,0.3,4,0.3c12.5,0,26.8-7.5,26.8-10.2h-27.1V38.4L965.9,38.4z
			 M986.5,25.6h34.2v9.8h-34.2V25.6z"/>
		<path class="st0" d="M1058.7,39.6h57.2V50h-57.2V39.6z M1111.2,67.2c0,7.9-7.9,15.3-24.2,15.3c-15.5,0-23.5-7.4-23.5-15.3
			c0-7.6,7.9-14.8,23.5-14.8C1103.3,52.4,1111.2,59.6,1111.2,67.2z M1065.3,88.8h69.9v30.9h-14.1v-18.8h-55.8L1065.3,88.8
			L1065.3,88.8z M1073.1,26.6h28.6V37h-28.6V26.6z M1077.6,67.3c0,3.6,3.2,6.1,9.4,6.1c6.9,0,10.2-2.5,10.2-6.1
			c0-3.2-3.2-5.7-10.2-5.7C1080.8,61.6,1077.6,64.1,1077.6,67.3z M1127.6,25.9c7.2,0,9,0.4,9,1.8c0,1.2-1.5,3.2-1.5,6.4v22h12.2
			v12.8h-12.1v13.6h-14.1V25.9H1127.6z"/>
		<path class="st0" d="M1180.4,59c5.9,0,7.1,0.4,7.1,1.3c0,0.8-1,2-1,3.7v29.8c7.5-0.5,20-1.6,28.5-2.7c0.4,3.4,1.2,7.8,1.9,10.9
			c-12.8,1.3-32.2,3-51.9,4.5c-3.3,0.4-5.2,2.1-6.4,2.1c-0.9,0-1.5-0.8-2.2-3.5l-1.9-9.5c6.2-0.4,12.2-0.6,18.1-1.1V59H1180.4z
			 M1160.6,32.2h50.9c0,18.6-1.2,40.7-4.5,52.2l-13.7-0.6c2.1-6.8,4.3-28.4,4.3-39.4h-37L1160.6,32.2L1160.6,32.2z M1226.7,25.9
			c6.2,0,7.8,0.4,7.8,1.6s-1.7,3.3-1.7,6.6v32.8h12.2v12.7h-12.2v40h-14.1V25.9H1226.7z"/>
	</g>
</g>
<g id="Department_of_Architecture_x2C__Pusan_National_University_1_">
	<g>
		<path class="st0" d="M344.5,163.1v-0.8h1.1c1.2,0,2.1-0.4,2.6-1.2c0.3-0.5,0.5-1.5,0.5-3.2v-18.8c0-1.8-0.2-3-0.6-3.4
			c-0.6-0.6-1.4-0.9-2.5-0.9h-1.1V134h11.9c4.4,0,7.7,0.5,9.9,1.5c2.3,1,4.1,2.6,5.5,4.9c1.4,2.3,2.1,5,2.1,8
			c0,4.1-1.2,7.4-3.7,10.2c-2.8,3-7,4.6-12.6,4.6L344.5,163.1L344.5,163.1z M352.8,161c1.8,0.4,3.3,0.6,4.6,0.6
			c3.3,0,6.1-1.2,8.3-3.5c2.2-2.3,3.3-5.5,3.3-9.5s-1.1-7.2-3.3-9.5c-2.2-2.3-5-3.5-8.4-3.5c-1.3,0-2.8,0.2-4.4,0.6L352.8,161
			L352.8,161z"/>
		<path class="st0" d="M378.7,150.9c0,2.9,0.7,5.2,2.1,6.9s3.1,2.5,5,2.5c1.3,0,2.4-0.4,3.4-1.1c1-0.7,1.8-1.9,2.4-3.6l0.7,0.4
			c-0.3,2-1.2,3.8-2.6,5.4c-1.5,1.6-3.3,2.4-5.4,2.4c-2.4,0-4.4-0.9-6.1-2.8s-2.5-4.3-2.5-7.4c0-3.4,0.9-6,2.6-7.9s3.9-2.8,6.5-2.8
			c2.2,0,4,0.7,5.4,2.2s2.1,3.4,2.1,5.8L378.7,150.9L378.7,150.9z M378.7,149.6h9.1c-0.1-1.3-0.2-2.1-0.5-2.7
			c-0.4-0.8-0.9-1.4-1.6-1.9s-1.5-0.7-2.2-0.7c-1.2,0-2.2,0.5-3.2,1.4C379.5,146.7,378.9,148,378.7,149.6z"/>
		<path class="st0" d="M392.1,145.4l6.1-2.4h0.8v4.6c1-1.7,2-2.9,3.1-3.6s2.1-1,3.2-1c2,0,3.6,0.8,4.9,2.3c1.6,1.9,2.4,4.4,2.4,7.4
			c0,3.4-1,6.2-2.9,8.4c-1.6,1.8-3.6,2.7-6.1,2.7c-1.1,0-2-0.1-2.8-0.4c-0.6-0.2-1.2-0.6-1.9-1.3v6c0,1.4,0.1,2.2,0.2,2.6
			c0.2,0.4,0.5,0.7,0.9,0.9s1.1,0.3,2.2,0.3v0.8h-10.3v-0.8h0.5c0.8,0,1.5-0.1,2-0.4c0.3-0.2,0.5-0.4,0.6-0.8
			c0.1-0.4,0.2-1.2,0.2-2.7v-18.6c0-1.3-0.1-2.1-0.2-2.4c-0.1-0.3-0.3-0.6-0.5-0.8s-0.6-0.3-1-0.3c-0.3,0-0.8,0.1-1.3,0.3
			L392.1,145.4z M399,148.8v7.4c0,1.6,0.1,2.6,0.2,3.1c0.2,0.8,0.7,1.6,1.5,2.2s1.8,0.9,3,0.9c1.4,0,2.6-0.6,3.5-1.7
			c1.2-1.5,1.7-3.5,1.7-6.2c0-3-0.7-5.3-2-6.9c-0.9-1.1-2-1.7-3.3-1.7c-0.7,0-1.4,0.2-2,0.5C401,146.8,400.2,147.5,399,148.8z"/>
		<path class="st0" d="M425.2,160.3c-2,1.6-3.3,2.5-3.8,2.7c-0.8,0.4-1.6,0.5-2.5,0.5c-1.4,0-2.5-0.5-3.4-1.4s-1.3-2.2-1.3-3.7
			c0-1,0.2-1.8,0.6-2.5c0.6-1,1.6-1.9,3.1-2.8s3.9-1.9,7.2-3.1v-0.8c0-2-0.3-3.3-0.9-4s-1.5-1.1-2.7-1.1c-0.9,0-1.6,0.2-2.1,0.7
			s-0.8,1.1-0.8,1.7v1.2c0,0.7-0.2,1.2-0.5,1.5c-0.3,0.4-0.8,0.5-1.3,0.5s-1-0.2-1.3-0.6s-0.5-0.9-0.5-1.5c0-1.2,0.6-2.4,1.9-3.4
			s3-1.6,5.3-1.6c1.8,0,3.2,0.3,4.3,0.9c0.8,0.4,1.5,1.1,1.9,2.1c0.3,0.6,0.4,1.9,0.4,3.8v6.7c0,1.9,0,3,0.1,3.4s0.2,0.7,0.4,0.9
			s0.4,0.2,0.6,0.2s0.4-0.1,0.6-0.1c0.3-0.2,0.9-0.7,1.7-1.6v1.2c-1.6,2.1-3.1,3.2-4.6,3.2c-0.7,0-1.3-0.2-1.7-0.7
			C425.4,162.3,425.2,161.5,425.2,160.3z M425.2,158.9v-7.5c-2.2,0.9-3.6,1.5-4.2,1.8c-1.1,0.6-1.9,1.3-2.4,2s-0.7,1.4-0.7,2.3
			c0,1,0.3,1.9,0.9,2.6c0.6,0.7,1.3,1,2.1,1C422,161,423.4,160.3,425.2,158.9z"/>
		<path class="st0" d="M437.9,142.9v4.4c1.6-2.9,3.3-4.4,5.1-4.4c0.8,0,1.4,0.2,2,0.7s0.8,1,0.8,1.7c0,0.6-0.2,1-0.6,1.4
			s-0.8,0.6-1.3,0.6s-1.1-0.2-1.7-0.7s-1.1-0.7-1.4-0.7s-0.5,0.1-0.8,0.4c-0.6,0.6-1.3,1.6-2,2.9v9.4c0,1.1,0.1,1.9,0.4,2.5
			c0.2,0.4,0.5,0.7,1,1s1.1,0.4,2,0.4v0.8h-10.1v-0.8c1,0,1.8-0.2,2.2-0.5c0.4-0.2,0.6-0.6,0.8-1.1c0.1-0.2,0.1-0.9,0.1-2.1v-7.6
			c0-2.3,0-3.7-0.1-4.1c-0.1-0.4-0.3-0.8-0.5-1s-0.6-0.3-0.9-0.3c-0.4,0-1,0.1-1.5,0.3l-0.2-0.8l6-2.4L437.9,142.9L437.9,142.9z"/>
		<path class="st0" d="M451.1,137v6.5h4.6v1.5h-4.6v12.8c0,1.3,0.2,2.1,0.5,2.6c0.4,0.4,0.8,0.7,1.4,0.7c0.5,0,0.9-0.1,1.4-0.4
			c0.4-0.3,0.8-0.7,1-1.3h0.8c-0.5,1.4-1.2,2.5-2.1,3.2s-1.9,1.1-2.8,1.1c-0.7,0-1.3-0.2-1.9-0.6c-0.6-0.4-1.1-0.9-1.4-1.6
			c-0.3-0.7-0.5-1.7-0.5-3.1v-13.2h-3.1v-0.7c0.8-0.3,1.6-0.9,2.4-1.6c0.8-0.8,1.6-1.6,2.2-2.7c0.3-0.5,0.8-1.5,1.4-3L451.1,137
			L451.1,137z"/>
		<path class="st0" d="M462,147.1c1.4-1.4,2.3-2.3,2.5-2.5c0.6-0.5,1.3-1,2.1-1.3s1.5-0.4,2.2-0.4c1.2,0,2.3,0.4,3.2,1.1
			c0.9,0.7,1.5,1.8,1.8,3.1c1.5-1.7,2.7-2.9,3.7-3.4s2.1-0.8,3.1-0.8s2,0.3,2.8,0.8s1.5,1.4,1.9,2.6c0.3,0.8,0.5,2.1,0.5,3.9v8.5
			c0,1.2,0.1,2.1,0.3,2.5c0.1,0.3,0.4,0.6,0.8,0.8s1,0.3,1.9,0.3v0.8h-9.7v-0.8h0.4c0.8,0,1.5-0.2,2-0.5c0.3-0.2,0.6-0.6,0.7-1.1
			c0.1-0.2,0.1-0.9,0.1-2.1v-8.5c0-1.6-0.2-2.7-0.6-3.4c-0.6-0.9-1.5-1.4-2.7-1.4c-0.8,0-1.5,0.2-2.3,0.6c-0.8,0.4-1.7,1.1-2.8,2.1
			v0.2v0.9v9.4c0,1.4,0.1,2.2,0.2,2.5s0.4,0.6,0.9,0.8s1.1,0.3,2.1,0.3v0.8h-10v-0.8c1.1,0,1.8-0.1,2.2-0.4s0.7-0.6,0.9-1.2
			c0.1-0.2,0.1-0.9,0.1-2.1v-8.5c0-1.6-0.2-2.8-0.7-3.5c-0.6-0.9-1.5-1.4-2.6-1.4c-0.8,0-1.5,0.2-2.3,0.6c-1.2,0.6-2.1,1.3-2.8,2.1
			v10.6c0,1.3,0.1,2.1,0.3,2.5c0.2,0.4,0.4,0.7,0.8,0.9s1.1,0.3,2.1,0.3v0.8h-9.7V162c0.9,0,1.5-0.1,1.9-0.3s0.6-0.5,0.8-0.9
			s0.3-1.2,0.3-2.5v-7.5c0-2.2-0.1-3.6-0.2-4.2c-0.1-0.5-0.3-0.8-0.5-1s-0.5-0.3-0.9-0.3s-0.9,0.1-1.4,0.3l-0.3-0.8l5.9-2.4h0.9
			L462,147.1L462,147.1z"/>
		<path class="st0" d="M492.2,150.9c0,2.9,0.7,5.2,2.1,6.9s3.1,2.5,5,2.5c1.3,0,2.4-0.4,3.4-1.1c1-0.7,1.8-1.9,2.4-3.6l0.7,0.4
			c-0.3,2-1.2,3.8-2.6,5.4c-1.5,1.6-3.3,2.4-5.4,2.4c-2.4,0-4.4-0.9-6.1-2.8s-2.5-4.3-2.5-7.4c0-3.4,0.9-6,2.6-7.9s3.9-2.8,6.5-2.8
			c2.2,0,4,0.7,5.4,2.2s2.1,3.4,2.1,5.8L492.2,150.9L492.2,150.9z M492.2,149.6h9.1c-0.1-1.3-0.2-2.1-0.5-2.7
			c-0.4-0.8-0.9-1.4-1.6-1.9s-1.5-0.7-2.2-0.7c-1.2,0-2.2,0.5-3.2,1.4C492.9,146.7,492.4,148,492.2,149.6z"/>
		<path class="st0" d="M512.7,147c2.3-2.8,4.5-4.2,6.6-4.2c1.1,0,2,0.3,2.8,0.8s1.4,1.4,1.9,2.6c0.3,0.9,0.5,2.2,0.5,3.9v8.4
			c0,1.2,0.1,2.1,0.3,2.5s0.4,0.6,0.8,0.8c0.4,0.2,1,0.3,1.9,0.3v0.8h-9.7v-0.8h0.4c0.9,0,1.6-0.1,1.9-0.4s0.6-0.7,0.8-1.2
			c0.1-0.2,0.1-0.9,0.1-2v-8.1c0-1.8-0.2-3.1-0.7-3.9s-1.2-1.2-2.4-1.2c-1.7,0-3.4,0.9-5.1,2.8v10.4c0,1.3,0.1,2.2,0.2,2.5
			c0.2,0.4,0.5,0.7,0.8,0.9c0.4,0.2,1.1,0.3,2.1,0.3v0.8h-9.7v-0.8h0.4c1,0,1.7-0.2,2-0.8s0.5-1.5,0.5-2.9v-7.3c0-2.4,0-3.8-0.2-4.3
			s-0.3-0.9-0.5-1.1c-0.2-0.2-0.5-0.3-0.9-0.3s-0.9,0.1-1.4,0.3l-0.3-0.8l5.9-2.4h0.9L512.7,147L512.7,147z"/>
		<path class="st0" d="M533.2,137v6.5h4.6v1.5h-4.6v12.8c0,1.3,0.2,2.1,0.5,2.6c0.4,0.4,0.8,0.7,1.4,0.7c0.5,0,0.9-0.1,1.4-0.4
			c0.4-0.3,0.8-0.7,1-1.3h0.8c-0.5,1.4-1.2,2.5-2.1,3.2c-0.9,0.7-1.9,1.1-2.8,1.1c-0.7,0-1.3-0.2-1.9-0.6c-0.6-0.4-1.1-0.9-1.4-1.6
			c-0.3-0.7-0.5-1.7-0.5-3.1v-13.2h-3.1v-0.7c0.8-0.3,1.6-0.9,2.4-1.6c0.8-0.8,1.6-1.6,2.2-2.7c0.3-0.5,0.8-1.5,1.4-3L533.2,137
			L533.2,137z"/>
		<path class="st0" d="M557.5,142.9c3,0,5.4,1.1,7.2,3.4c1.5,1.9,2.3,4.1,2.3,6.7c0,1.8-0.4,3.5-1.3,5.4c-0.9,1.8-2,3.2-3.5,4.1
			s-3.1,1.4-5,1.4c-3,0-5.3-1.2-7.1-3.5c-1.5-2-2.2-4.2-2.2-6.7c0-1.8,0.5-3.6,1.3-5.4c0.9-1.8,2.1-3.1,3.5-3.9
			C554.3,143.3,555.8,142.9,557.5,142.9z M556.8,144.2c-0.8,0-1.5,0.2-2.3,0.7c-0.8,0.4-1.4,1.2-1.9,2.4c-0.5,1.1-0.7,2.6-0.7,4.4
			c0,2.9,0.6,5.3,1.7,7.4c1.1,2.1,2.6,3.1,4.5,3.1c1.4,0,2.5-0.6,3.4-1.7c0.9-1.1,1.4-3.1,1.4-5.9c0-3.5-0.8-6.2-2.3-8.2
			C559.7,144.9,558.4,144.2,556.8,144.2z"/>
		<path class="st0" d="M576.1,145v12.9c0,1.8,0.2,3,0.6,3.5c0.5,0.6,1.2,0.9,2.1,0.9h1.8v0.8h-11.8v-0.8h0.9c0.6,0,1.1-0.1,1.6-0.4
			s0.8-0.7,1-1.2s0.3-1.4,0.3-2.8V145h-3.8v-1.6h3.8v-1.3c0-2,0.3-3.6,1-5c0.6-1.4,1.6-2.5,2.9-3.3s2.8-1.3,4.4-1.3
			c1.5,0,2.9,0.5,4.1,1.5c0.8,0.6,1.2,1.4,1.2,2.2c0,0.4-0.2,0.8-0.6,1.2c-0.4,0.4-0.8,0.6-1.2,0.6c-0.3,0-0.7-0.1-1-0.4
			s-0.8-0.7-1.3-1.5s-1-1.3-1.5-1.6s-0.9-0.4-1.5-0.4c-0.7,0-1.2,0.2-1.7,0.5s-0.8,0.9-1,1.6c-0.2,0.7-0.3,2.6-0.3,5.7v1.4h5.1v1.6
			L576.1,145L576.1,145z"/>
		<path class="st0" d="M607.5,153.4h-11.3l-2,4.6c-0.5,1.1-0.7,2-0.7,2.5c0,0.4,0.2,0.8,0.6,1.2c0.4,0.4,1.3,0.6,2.7,0.7v0.8h-9.2
			v-0.8c1.2-0.2,2-0.5,2.4-0.8c0.7-0.7,1.5-2.1,2.4-4.2l10.2-24h0.8l10.1,24.2c0.8,1.9,1.6,3.2,2.2,3.8c0.6,0.6,1.6,0.9,2.8,1v0.8
			H607v-0.8c1.2-0.1,1.9-0.2,2.4-0.6s0.6-0.7,0.6-1.2c0-0.6-0.3-1.6-0.9-3L607.5,153.4z M606.9,151.8L602,140l-5.1,11.8H606.9z"/>
		<path class="st0" d="M624.8,142.9v4.4c1.6-2.9,3.3-4.4,5.1-4.4c0.8,0,1.4,0.2,2,0.7s0.8,1,0.8,1.7c0,0.6-0.2,1-0.6,1.4
			s-0.8,0.6-1.3,0.6s-1.1-0.2-1.7-0.7c-0.6-0.5-1.1-0.7-1.4-0.7s-0.5,0.1-0.8,0.4c-0.6,0.6-1.3,1.6-2,2.9v9.4c0,1.1,0.1,1.9,0.4,2.5
			c0.2,0.4,0.5,0.7,1,1s1.1,0.4,2,0.4v0.8h-10.1v-0.8c1,0,1.8-0.2,2.2-0.5c0.4-0.2,0.6-0.6,0.8-1.1c0.1-0.2,0.1-0.9,0.1-2.1v-7.6
			c0-2.3,0-3.7-0.1-4.1c-0.1-0.4-0.3-0.8-0.5-1s-0.6-0.3-0.9-0.3c-0.4,0-1,0.1-1.5,0.3l-0.2-0.8l6-2.4L624.8,142.9L624.8,142.9z"/>
		<path class="st0" d="M648.9,155.6c-0.5,2.6-1.6,4.6-3.1,6s-3.3,2.1-5.1,2.1c-2.2,0-4.2-0.9-5.8-2.8c-1.7-1.9-2.5-4.4-2.5-7.6
			c0-3.1,0.9-5.6,2.8-7.5s4-2.9,6.6-2.9c1.9,0,3.5,0.5,4.8,1.5c1.2,1,1.9,2.1,1.9,3.2c0,0.5-0.2,1-0.5,1.3s-0.8,0.5-1.5,0.5
			c-0.8,0-1.5-0.3-1.9-0.8c-0.2-0.3-0.4-0.9-0.5-1.7s-0.4-1.5-0.9-1.9s-1.2-0.6-2.1-0.6c-1.4,0-2.6,0.5-3.5,1.6
			c-1.2,1.4-1.7,3.3-1.7,5.6c0,2.4,0.6,4.4,1.7,6.2c1.2,1.8,2.7,2.7,4.7,2.7c1.4,0,2.7-0.5,3.8-1.4c0.8-0.7,1.5-1.9,2.3-3.6
			L648.9,155.6z"/>
		<path class="st0" d="M656.1,132.6V147c1.6-1.8,2.8-2.9,3.8-3.4c0.9-0.5,1.9-0.7,2.8-0.7c1.1,0,2.1,0.3,2.9,0.9
			c0.8,0.6,1.4,1.6,1.8,2.9c0.3,0.9,0.4,2.6,0.4,5v7c0,1.2,0.1,2.1,0.3,2.6c0.1,0.3,0.4,0.6,0.7,0.8s1,0.3,1.9,0.3v0.8H661v-0.8h0.5
			c0.9,0,1.5-0.1,1.9-0.4s0.6-0.7,0.8-1.2c0-0.2,0.1-0.9,0.1-2v-7c0-2.1-0.1-3.6-0.3-4.2c-0.2-0.7-0.6-1.2-1.1-1.5s-1.1-0.5-1.8-0.5
			s-1.4,0.2-2.2,0.6s-1.7,1.1-2.7,2.3v10.4c0,1.4,0.1,2.2,0.2,2.5c0.2,0.3,0.4,0.6,0.8,0.8c0.4,0.2,1.1,0.3,2.1,0.3v0.8h-9.8v-0.8
			c0.9,0,1.6-0.1,2.1-0.4c0.3-0.1,0.5-0.4,0.7-0.8c0.2-0.4,0.3-1.2,0.3-2.4v-17.8c0-2.2,0-3.6-0.2-4.1s-0.3-0.9-0.5-1.1
			c-0.2-0.2-0.5-0.3-0.9-0.3c-0.3,0-0.8,0.1-1.5,0.3l-0.3-0.9l5.9-2.4H656.1L656.1,132.6z"/>
		<path class="st0" d="M677.6,142.9v15.8c0,1.2,0.1,2.1,0.3,2.5s0.4,0.7,0.8,0.9s1,0.3,1.9,0.3v0.8H671v-0.8c1,0,1.6-0.1,1.9-0.3
			s0.6-0.5,0.8-0.9s0.3-1.2,0.3-2.5v-7.6c0-2.1-0.1-3.5-0.2-4.1c-0.1-0.5-0.3-0.8-0.5-1s-0.5-0.3-0.9-0.3s-0.9,0.1-1.5,0.3l-0.3-0.8
			l5.9-2.4L677.6,142.9L677.6,142.9z M675.9,132.6c0.6,0,1.1,0.2,1.5,0.6c0.4,0.4,0.6,0.9,0.6,1.5s-0.2,1.1-0.6,1.6
			c-0.4,0.4-0.9,0.6-1.5,0.6s-1.1-0.2-1.5-0.6s-0.6-0.9-0.6-1.6s0.2-1.1,0.6-1.5C674.7,132.8,675.2,132.6,675.9,132.6z"/>
		<path class="st0" d="M687.3,137v6.5h4.6v1.5h-4.6v12.8c0,1.3,0.2,2.1,0.5,2.6c0.4,0.4,0.8,0.7,1.4,0.7c0.5,0,0.9-0.1,1.4-0.4
			c0.4-0.3,0.8-0.7,1-1.3h0.8c-0.5,1.4-1.2,2.5-2.1,3.2c-0.9,0.7-1.9,1.1-2.8,1.1c-0.7,0-1.3-0.2-1.9-0.6c-0.6-0.4-1.1-0.9-1.4-1.6
			c-0.3-0.7-0.5-1.7-0.5-3.1v-13.2h-3.1v-0.7c0.8-0.3,1.6-0.9,2.4-1.6c0.8-0.8,1.6-1.6,2.2-2.7c0.3-0.5,0.8-1.5,1.4-3L687.3,137
			L687.3,137z"/>
		<path class="st0" d="M695.7,150.9c0,2.9,0.7,5.2,2.1,6.9c1.4,1.7,3.1,2.5,5,2.5c1.3,0,2.4-0.4,3.4-1.1c1-0.7,1.8-1.9,2.4-3.6
			l0.7,0.4c-0.3,2-1.2,3.8-2.6,5.4s-3.3,2.4-5.4,2.4c-2.4,0-4.4-0.9-6.1-2.8s-2.5-4.3-2.5-7.4c0-3.4,0.9-6,2.6-7.9
			c1.7-1.9,3.9-2.8,6.5-2.8c2.2,0,4,0.7,5.4,2.2s2.1,3.4,2.1,5.8L695.7,150.9L695.7,150.9z M695.7,149.6h9.1
			c-0.1-1.3-0.2-2.1-0.5-2.7c-0.4-0.8-0.9-1.4-1.6-1.9c-0.7-0.5-1.5-0.7-2.2-0.7c-1.2,0-2.2,0.5-3.2,1.4
			C696.4,146.7,695.9,148,695.7,149.6z"/>
		<path class="st0" d="M727.2,155.6c-0.5,2.6-1.6,4.6-3.1,6s-3.3,2.1-5.1,2.1c-2.2,0-4.2-0.9-5.8-2.8c-1.7-1.9-2.5-4.4-2.5-7.6
			c0-3.1,0.9-5.6,2.8-7.5s4-2.9,6.6-2.9c1.9,0,3.5,0.5,4.8,1.5c1.2,1,1.9,2.1,1.9,3.2c0,0.5-0.2,1-0.5,1.3s-0.8,0.5-1.5,0.5
			c-0.8,0-1.5-0.3-1.9-0.8c-0.2-0.3-0.4-0.9-0.5-1.7s-0.4-1.5-0.9-1.9s-1.2-0.6-2.1-0.6c-1.4,0-2.6,0.5-3.5,1.6
			c-1.2,1.4-1.7,3.3-1.7,5.6c0,2.4,0.6,4.4,1.7,6.2c1.2,1.8,2.7,2.7,4.7,2.7c1.4,0,2.7-0.5,3.8-1.4c0.8-0.7,1.5-1.9,2.3-3.6
			L727.2,155.6z"/>
		<path class="st0" d="M734.3,137v6.5h4.6v1.5h-4.6v12.8c0,1.3,0.2,2.1,0.5,2.6c0.4,0.4,0.8,0.7,1.4,0.7c0.5,0,0.9-0.1,1.4-0.4
			c0.4-0.3,0.8-0.7,1-1.3h0.8c-0.5,1.4-1.2,2.5-2.1,3.2c-0.9,0.7-1.9,1.1-2.8,1.1c-0.7,0-1.3-0.2-1.9-0.6c-0.6-0.4-1.1-0.9-1.4-1.6
			c-0.3-0.7-0.5-1.7-0.5-3.1v-13.2h-3.1v-0.7c0.8-0.3,1.6-0.9,2.4-1.6c0.8-0.8,1.6-1.6,2.2-2.7c0.3-0.5,0.8-1.5,1.4-3L734.3,137
			L734.3,137z"/>
		<path class="st0" d="M756.6,143.4v11.9c0,2.3,0,3.7,0.2,4.2s0.3,0.9,0.5,1.1s0.5,0.3,0.8,0.3c0.4,0,1-0.1,1.5-0.4l0.3,0.8
			l-5.9,2.4h-1v-4.2c-1.7,1.8-3,3-3.9,3.5s-1.8,0.7-2.8,0.7c-1.1,0-2.1-0.3-2.9-1s-1.4-1.5-1.7-2.5s-0.5-2.4-0.5-4.2v-8.8
			c0-0.9-0.1-1.6-0.3-1.9c-0.2-0.4-0.5-0.6-0.9-0.8s-1.1-0.3-2.1-0.3v-0.8h6.9v13.2c0,1.8,0.3,3,1,3.6s1.4,0.9,2.3,0.9
			c0.6,0,1.3-0.2,2.1-0.6s1.7-1.1,2.8-2.2v-11.1c0-1.1-0.2-1.9-0.6-2.3c-0.4-0.4-1.3-0.6-2.5-0.6v-0.8L756.6,143.4L756.6,143.4z"/>
		<path class="st0" d="M765.6,142.9v4.4c1.7-2.9,3.3-4.4,5.1-4.4c0.8,0,1.4,0.2,2,0.7s0.8,1,0.8,1.7c0,0.6-0.2,1-0.6,1.4
			s-0.8,0.6-1.3,0.6s-1.1-0.2-1.7-0.7s-1.1-0.7-1.4-0.7c-0.3,0-0.5,0.1-0.8,0.4c-0.6,0.6-1.3,1.6-2,2.9v9.4c0,1.1,0.1,1.9,0.4,2.5
			c0.2,0.4,0.5,0.7,1,1s1.2,0.4,2,0.4v0.8H759v-0.8c1,0,1.8-0.2,2.2-0.5c0.4-0.2,0.6-0.6,0.8-1.1c0.1-0.2,0.1-0.9,0.1-2.1v-7.6
			c0-2.3,0-3.7-0.1-4.1c-0.1-0.4-0.3-0.8-0.5-1s-0.6-0.3-0.9-0.3c-0.4,0-1,0.1-1.5,0.3l-0.2-0.8l6-2.4L765.6,142.9L765.6,142.9z"/>
		<path class="st0" d="M776.4,150.9c0,2.9,0.7,5.2,2.1,6.9c1.4,1.7,3.1,2.5,5,2.5c1.3,0,2.4-0.4,3.4-1.1c1-0.7,1.8-1.9,2.4-3.6
			l0.7,0.4c-0.3,2-1.2,3.8-2.6,5.4s-3.3,2.4-5.4,2.4c-2.4,0-4.4-0.9-6.1-2.8s-2.5-4.3-2.5-7.4c0-3.4,0.9-6,2.6-7.9
			c1.7-1.9,3.9-2.8,6.5-2.8c2.2,0,4,0.7,5.4,2.2s2.1,3.4,2.1,5.8L776.4,150.9L776.4,150.9z M776.4,149.6h9.1
			c-0.1-1.3-0.2-2.1-0.5-2.7c-0.4-0.8-0.9-1.4-1.6-1.9c-0.7-0.5-1.5-0.7-2.2-0.7c-1.2,0-2.2,0.5-3.2,1.4
			C777.1,146.7,776.5,148,776.4,149.6z"/>
		<path class="st0" d="M792.1,170.4v-0.9c1.5-0.5,2.6-1.2,3.4-2.3c0.8-1,1.2-2.1,1.2-3.2c0-0.3-0.1-0.5-0.2-0.7
			c-0.1-0.1-0.2-0.2-0.3-0.2c-0.2,0-0.5,0.1-1,0.4c-0.3,0.1-0.5,0.2-0.8,0.2c-0.7,0-1.3-0.2-1.7-0.6c-0.4-0.4-0.6-1-0.6-1.7
			s0.3-1.3,0.8-1.8s1.2-0.8,2-0.8c1,0,1.8,0.4,2.5,1.2s1.1,1.9,1.1,3.3c0,1.5-0.5,2.9-1.5,4.1C796,168.7,794.4,169.7,792.1,170.4z"
			/>
		<path class="st0" d="M817.9,149.5v8.5c0,1.8,0.2,3,0.6,3.4c0.5,0.6,1.4,0.9,2.5,0.9h1.1v0.8h-12.5v-0.8h1.1c1.2,0,2.1-0.4,2.6-1.2
			c0.3-0.4,0.4-1.5,0.4-3.2v-18.8c0-1.8-0.2-3-0.6-3.4c-0.6-0.6-1.4-0.9-2.5-0.9h-1.1V134h10.7c2.6,0,4.7,0.3,6.2,0.8
			s2.8,1.4,3.8,2.7s1.5,2.8,1.5,4.5c0,2.4-0.8,4.3-2.3,5.8c-1.6,1.5-3.8,2.2-6.7,2.2c-0.7,0-1.5-0.1-2.3-0.1
			C819.7,149.8,818.8,149.7,817.9,149.5z M817.9,148.2c0.8,0.1,1.4,0.2,2,0.3s1.1,0.1,1.5,0.1c1.5,0,2.8-0.6,3.9-1.7
			c1.1-1.1,1.6-2.6,1.6-4.5c0-1.3-0.3-2.4-0.8-3.5s-1.2-1.9-2.2-2.4s-2-0.8-3.2-0.8c-0.7,0-1.7,0.1-2.8,0.4V148.2L817.9,148.2z"/>
		<path class="st0" d="M850.5,143.4v11.9c0,2.3,0,3.7,0.2,4.2s0.3,0.9,0.5,1.1s0.5,0.3,0.8,0.3c0.4,0,1-0.1,1.5-0.4l0.3,0.8
			l-5.9,2.4h-1v-4.2c-1.7,1.8-3,3-3.9,3.5s-1.8,0.7-2.8,0.7c-1.1,0-2.1-0.3-2.9-1s-1.4-1.5-1.7-2.5s-0.5-2.4-0.5-4.2v-8.8
			c0-0.9-0.1-1.6-0.3-1.9c-0.2-0.4-0.5-0.6-0.9-0.8s-1.1-0.3-2.1-0.3v-0.8h6.9v13.2c0,1.8,0.3,3,1,3.6s1.4,0.9,2.3,0.9
			c0.6,0,1.3-0.2,2.1-0.6s1.7-1.1,2.8-2.2v-11.1c0-1.1-0.2-1.9-0.6-2.3c-0.4-0.4-1.3-0.6-2.5-0.6v-0.8L850.5,143.4L850.5,143.4z"/>
		<path class="st0" d="M866.5,142.9v6.7h-0.7c-0.5-2.1-1.2-3.5-2.1-4.3c-0.8-0.8-1.9-1.1-3.2-1.1c-1,0-1.8,0.3-2.4,0.8
			c-0.6,0.5-0.9,1.1-0.9,1.8c0,0.8,0.2,1.5,0.7,2.1c0.4,0.6,1.3,1.2,2.7,1.9l3.1,1.5c2.9,1.4,4.4,3.3,4.4,5.6c0,1.8-0.7,3.2-2,4.3
			s-2.9,1.6-4.5,1.6c-1.2,0-2.6-0.2-4.1-0.6c-0.5-0.1-0.9-0.2-1.2-0.2s-0.6,0.2-0.8,0.6h-0.7v-7h0.7c0.4,2,1.2,3.5,2.3,4.5
			s2.4,1.5,3.8,1.5c1,0,1.8-0.3,2.4-0.9s0.9-1.3,0.9-2.1c0-1-0.3-1.8-1-2.5s-2.1-1.5-4.2-2.6c-2.1-1-3.4-2-4.1-2.8
			c-0.6-0.8-1-1.9-1-3.1c0-1.6,0.5-3,1.7-4.1c1.1-1.1,2.5-1.6,4.3-1.6c0.8,0,1.7,0.2,2.8,0.5c0.7,0.2,1.2,0.3,1.5,0.3
			c0.2,0,0.4-0.1,0.5-0.1c0.1-0.1,0.3-0.3,0.5-0.7L866.5,142.9L866.5,142.9z"/>
		<path class="st0" d="M880.6,160.3c-2,1.6-3.3,2.5-3.8,2.7c-0.8,0.4-1.6,0.5-2.5,0.5c-1.4,0-2.5-0.5-3.4-1.4s-1.3-2.2-1.3-3.7
			c0-1,0.2-1.8,0.6-2.5c0.6-1,1.6-1.9,3.1-2.8s3.9-1.9,7.2-3.1v-0.8c0-2-0.3-3.3-0.9-4s-1.5-1.1-2.7-1.1c-0.9,0-1.6,0.2-2.2,0.7
			c-0.5,0.5-0.8,1.1-0.8,1.7v1.2c0,0.7-0.2,1.2-0.5,1.5c-0.3,0.4-0.8,0.5-1.3,0.5s-1-0.2-1.3-0.6c-0.3-0.4-0.5-0.9-0.5-1.5
			c0-1.2,0.6-2.4,1.9-3.4s3-1.6,5.3-1.6c1.8,0,3.2,0.3,4.3,0.9c0.8,0.4,1.5,1.1,1.9,2.1c0.3,0.6,0.4,1.9,0.4,3.8v6.7
			c0,1.9,0,3,0.1,3.4s0.2,0.7,0.3,0.9s0.3,0.2,0.6,0.2c0.2,0,0.4-0.1,0.6-0.1c0.3-0.2,0.9-0.7,1.7-1.6v1.2c-1.6,2.1-3.1,3.2-4.6,3.2
			c-0.7,0-1.3-0.2-1.7-0.7C880.9,162.3,880.7,161.5,880.6,160.3z M880.6,158.9v-7.5c-2.2,0.9-3.6,1.5-4.2,1.8
			c-1.1,0.6-1.9,1.3-2.4,2s-0.7,1.4-0.7,2.3c0,1,0.3,1.9,0.9,2.6c0.6,0.7,1.3,1,2.1,1C877.4,161,878.9,160.3,880.6,158.9z"/>
		<path class="st0" d="M893.3,147c2.3-2.8,4.5-4.2,6.6-4.2c1.1,0,2,0.3,2.8,0.8s1.4,1.4,1.8,2.6c0.3,0.9,0.5,2.2,0.5,3.9v8.4
			c0,1.2,0.1,2.1,0.3,2.5s0.4,0.6,0.8,0.8c0.3,0.2,1,0.3,1.9,0.3v0.8h-9.7v-0.8h0.4c0.9,0,1.6-0.1,1.9-0.4s0.6-0.7,0.8-1.2
			c0.1-0.2,0.1-0.9,0.1-2v-8.1c0-1.8-0.2-3.1-0.7-3.9c-0.5-0.8-1.2-1.2-2.3-1.2c-1.7,0-3.4,0.9-5.1,2.8v10.4c0,1.3,0.1,2.2,0.2,2.5
			c0.2,0.4,0.5,0.7,0.8,0.9s1.1,0.3,2.1,0.3v0.8h-9.7v-0.8h0.4c1,0,1.7-0.2,2-0.8c0.3-0.5,0.5-1.5,0.5-2.9v-7.3c0-2.4,0-3.8-0.2-4.3
			s-0.3-0.9-0.5-1.1c-0.2-0.2-0.5-0.3-0.9-0.3s-0.9,0.1-1.4,0.3l-0.3-0.8l5.9-2.4h0.9L893.3,147L893.3,147z"/>
		<path class="st0" d="M915.7,134h7.9l17.8,21.9V139c0-1.8-0.2-2.9-0.6-3.4c-0.5-0.6-1.4-0.9-2.5-0.9h-1V134h10.1v0.8h-1
			c-1.2,0-2.1,0.4-2.6,1.1c-0.3,0.5-0.5,1.5-0.5,3.1v24.6h-0.8l-19.2-23.5V158c0,1.8,0.2,2.9,0.6,3.4c0.5,0.6,1.4,0.9,2.5,0.9h1v0.8
			h-10.1v-0.8h1c1.2,0,2.1-0.4,2.6-1.1c0.3-0.5,0.5-1.5,0.5-3.1v-20.3c-0.8-1-1.5-1.6-1.9-2c-0.4-0.3-1.1-0.6-1.9-0.9
			c-0.4-0.1-1-0.2-1.9-0.2L915.7,134L915.7,134z"/>
		<path class="st0" d="M959.1,160.3c-2,1.6-3.3,2.5-3.8,2.7c-0.8,0.4-1.6,0.5-2.5,0.5c-1.4,0-2.5-0.5-3.4-1.4s-1.3-2.2-1.3-3.7
			c0-1,0.2-1.8,0.6-2.5c0.6-1,1.6-1.9,3.1-2.8s3.9-1.9,7.2-3.1v-0.8c0-2-0.3-3.3-0.9-4s-1.5-1.1-2.7-1.1c-0.9,0-1.6,0.2-2.2,0.7
			c-0.5,0.5-0.8,1.1-0.8,1.7v1.2c0,0.7-0.2,1.2-0.5,1.5c-0.3,0.4-0.8,0.5-1.3,0.5s-1-0.2-1.3-0.6c-0.3-0.4-0.5-0.9-0.5-1.5
			c0-1.2,0.6-2.4,1.9-3.4s3-1.6,5.3-1.6c1.8,0,3.2,0.3,4.3,0.9c0.8,0.4,1.5,1.1,1.9,2.1c0.3,0.6,0.4,1.9,0.4,3.8v6.7
			c0,1.9,0,3,0.1,3.4s0.2,0.7,0.3,0.9s0.3,0.2,0.6,0.2c0.2,0,0.4-0.1,0.6-0.1c0.3-0.2,0.9-0.7,1.7-1.6v1.2c-1.6,2.1-3.1,3.2-4.6,3.2
			c-0.7,0-1.3-0.2-1.7-0.7C959.4,162.3,959.2,161.5,959.1,160.3z M959.1,158.9v-7.5c-2.2,0.9-3.6,1.5-4.2,1.8
			c-1.1,0.6-1.9,1.3-2.4,2s-0.7,1.4-0.7,2.3c0,1,0.3,1.9,0.9,2.6c0.6,0.7,1.3,1,2.1,1C955.9,161,957.4,160.3,959.1,158.9z"/>
		<path class="st0" d="M971.8,137v6.5h4.6v1.5h-4.6v12.8c0,1.3,0.2,2.1,0.5,2.6c0.4,0.4,0.8,0.7,1.4,0.7c0.5,0,0.9-0.1,1.4-0.4
			c0.4-0.3,0.8-0.7,1-1.3h0.8c-0.5,1.4-1.2,2.5-2.1,3.2c-0.9,0.7-1.9,1.1-2.8,1.1c-0.7,0-1.3-0.2-1.9-0.6c-0.6-0.4-1.1-0.9-1.4-1.6
			c-0.3-0.7-0.5-1.7-0.5-3.1v-13.2h-3.1v-0.7c0.8-0.3,1.6-0.9,2.4-1.6c0.8-0.8,1.6-1.6,2.2-2.7c0.3-0.5,0.8-1.5,1.4-3L971.8,137
			L971.8,137z"/>
		<path class="st0" d="M983.6,142.9v15.8c0,1.2,0.1,2.1,0.3,2.5s0.4,0.7,0.8,0.9s1,0.3,1.9,0.3v0.8H977v-0.8c1,0,1.6-0.1,1.9-0.3
			s0.6-0.5,0.8-0.9s0.3-1.2,0.3-2.5v-7.6c0-2.1-0.1-3.5-0.2-4.1c-0.1-0.5-0.3-0.8-0.5-1s-0.5-0.3-0.9-0.3s-0.9,0.1-1.5,0.3l-0.3-0.8
			l5.9-2.4L983.6,142.9L983.6,142.9z M981.8,132.6c0.6,0,1.1,0.2,1.5,0.6c0.4,0.4,0.6,0.9,0.6,1.5s-0.2,1.1-0.6,1.6
			c-0.4,0.4-0.9,0.6-1.5,0.6s-1.1-0.2-1.5-0.6s-0.6-0.9-0.6-1.6s0.2-1.1,0.6-1.5C980.7,132.8,981.2,132.6,981.8,132.6z"/>
		<path class="st0" d="M997.2,142.9c3,0,5.4,1.1,7.2,3.4c1.5,1.9,2.3,4.1,2.3,6.7c0,1.8-0.4,3.5-1.3,5.4c-0.8,1.8-2,3.2-3.5,4.1
			s-3.1,1.4-5,1.4c-3,0-5.3-1.2-7.1-3.5c-1.5-2-2.2-4.2-2.2-6.7c0-1.8,0.5-3.6,1.3-5.4s2.1-3.1,3.5-3.9
			C994,143.3,995.6,142.9,997.2,142.9z M996.6,144.2c-0.8,0-1.5,0.2-2.3,0.7c-0.8,0.4-1.4,1.2-1.9,2.4c-0.5,1.1-0.7,2.6-0.7,4.4
			c0,2.9,0.6,5.3,1.7,7.4c1.1,2.1,2.6,3.1,4.5,3.1c1.4,0,2.5-0.6,3.4-1.7s1.3-3.1,1.3-5.9c0-3.5-0.8-6.2-2.3-8.2
			C999.4,144.9,998.1,144.2,996.6,144.2z"/>
		<path class="st0" d="M1013.9,147c2.3-2.8,4.5-4.2,6.6-4.2c1.1,0,2,0.3,2.8,0.8s1.4,1.4,1.8,2.6c0.3,0.9,0.5,2.2,0.5,3.9v8.4
			c0,1.2,0.1,2.1,0.3,2.5c0.2,0.4,0.4,0.6,0.8,0.8c0.3,0.2,1,0.3,1.9,0.3v0.8h-9.7v-0.8h0.4c0.9,0,1.6-0.1,1.9-0.4s0.6-0.7,0.8-1.2
			c0.1-0.2,0.1-0.9,0.1-2v-8.1c0-1.8-0.2-3.1-0.7-3.9c-0.5-0.8-1.2-1.2-2.3-1.2c-1.7,0-3.4,0.9-5.1,2.8v10.4c0,1.3,0.1,2.2,0.2,2.5
			c0.2,0.4,0.5,0.7,0.8,0.9s1.1,0.3,2.1,0.3v0.8h-9.7v-0.8h0.4c1,0,1.7-0.2,2-0.8c0.3-0.5,0.5-1.5,0.5-2.9v-7.3c0-2.4,0-3.8-0.2-4.3
			s-0.3-0.9-0.5-1.1c-0.2-0.2-0.5-0.3-0.9-0.3s-0.9,0.1-1.4,0.3l-0.3-0.8l5.9-2.4h0.9L1013.9,147L1013.9,147z"/>
		<path class="st0" d="M1039.9,160.3c-2,1.6-3.3,2.5-3.8,2.7c-0.8,0.4-1.6,0.5-2.5,0.5c-1.4,0-2.5-0.5-3.4-1.4s-1.3-2.2-1.3-3.7
			c0-1,0.2-1.8,0.6-2.5c0.6-1,1.6-1.9,3.1-2.8s3.9-1.9,7.2-3.1v-0.8c0-2-0.3-3.3-0.9-4c-0.6-0.7-1.5-1.1-2.7-1.1
			c-0.9,0-1.6,0.2-2.2,0.7c-0.5,0.5-0.8,1.1-0.8,1.7v1.2c0,0.7-0.2,1.2-0.5,1.5c-0.3,0.4-0.8,0.5-1.3,0.5s-1-0.2-1.3-0.6
			c-0.3-0.4-0.5-0.9-0.5-1.5c0-1.2,0.6-2.4,1.9-3.4s3-1.6,5.3-1.6c1.8,0,3.2,0.3,4.3,0.9c0.8,0.4,1.5,1.1,1.9,2.1
			c0.3,0.6,0.4,1.9,0.4,3.8v6.7c0,1.9,0,3,0.1,3.4s0.2,0.7,0.3,0.9s0.3,0.2,0.6,0.2c0.2,0,0.4-0.1,0.6-0.1c0.3-0.2,0.9-0.7,1.7-1.6
			v1.2c-1.6,2.1-3.1,3.2-4.6,3.2c-0.7,0-1.3-0.2-1.7-0.7C1040.1,162.3,1039.9,161.5,1039.9,160.3z M1039.9,158.9v-7.5
			c-2.2,0.9-3.6,1.5-4.2,1.8c-1.1,0.6-1.9,1.3-2.4,2s-0.7,1.4-0.7,2.3c0,1,0.3,1.9,0.9,2.6c0.6,0.7,1.3,1,2.1,1
			C1036.6,161,1038.1,160.3,1039.9,158.9z"/>
		<path class="st0" d="M1053.5,132.6v26.1c0,1.2,0.1,2.1,0.3,2.4c0.2,0.3,0.5,0.7,0.8,0.9c0.4,0.2,1.1,0.3,2.1,0.3v0.8h-9.7v-0.8
			c0.9,0,1.5-0.1,1.8-0.3c0.3-0.2,0.6-0.5,0.8-0.9c0.2-0.4,0.3-1.2,0.3-2.5v-17.9c0-2.2,0-3.6-0.2-4.1c-0.1-0.5-0.3-0.9-0.5-1
			c-0.2-0.2-0.5-0.3-0.8-0.3c-0.4,0-0.8,0.1-1.4,0.3l-0.4-0.8l5.9-2.4h1L1053.5,132.6L1053.5,132.6z"/>
		<path class="st0" d="M1086.7,134.8V134h10.3v0.8h-1.1c-1.2,0-2,0.5-2.6,1.4c-0.3,0.4-0.5,1.5-0.5,3.1v11.8c0,2.9-0.3,5.2-0.9,6.8
			c-0.6,1.6-1.7,3-3.4,4.1c-1.7,1.1-4,1.7-6.9,1.7c-3.2,0-5.6-0.6-7.2-1.6c-1.7-1.1-2.8-2.6-3.5-4.4c-0.5-1.3-0.7-3.7-0.7-7.2v-11.4
			c0-1.8-0.2-3-0.7-3.5s-1.3-0.8-2.4-0.8h-1.1V134h12.6v0.8h-1.1c-1.2,0-2.1,0.4-2.6,1.1c-0.4,0.5-0.5,1.6-0.5,3.2v12.7
			c0,1.1,0.1,2.4,0.3,3.9c0.2,1.5,0.6,2.6,1.1,3.4c0.5,0.8,1.3,1.5,2.3,2s2.3,0.8,3.8,0.8c1.9,0,3.6-0.4,5.1-1.2s2.5-1.9,3.1-3.2
			s0.8-3.5,0.8-6.6v-11.8c0-1.8-0.2-3-0.6-3.4c-0.6-0.6-1.4-0.9-2.5-0.9H1086.7L1086.7,134.8z"/>
		<path class="st0" d="M1103.2,147c2.3-2.8,4.5-4.2,6.6-4.2c1.1,0,2,0.3,2.8,0.8c0.8,0.5,1.4,1.4,1.8,2.6c0.3,0.9,0.5,2.2,0.5,3.9
			v8.4c0,1.2,0.1,2.1,0.3,2.5c0.2,0.4,0.4,0.6,0.8,0.8c0.3,0.2,1,0.3,1.9,0.3v0.8h-9.7v-0.8h0.4c0.9,0,1.6-0.1,1.9-0.4
			s0.6-0.7,0.8-1.2c0.1-0.2,0.1-0.9,0.1-2v-8.1c0-1.8-0.2-3.1-0.7-3.9c-0.5-0.8-1.2-1.2-2.3-1.2c-1.7,0-3.4,0.9-5.1,2.8v10.4
			c0,1.3,0.1,2.2,0.2,2.5c0.2,0.4,0.5,0.7,0.8,0.9c0.3,0.2,1.1,0.3,2.1,0.3v0.8h-9.7v-0.8h0.4c1,0,1.7-0.2,2-0.8
			c0.3-0.5,0.5-1.5,0.5-2.9v-7.3c0-2.4,0-3.8-0.2-4.3c-0.2-0.5-0.3-0.9-0.5-1.1c-0.2-0.2-0.5-0.3-0.9-0.3s-0.9,0.1-1.4,0.3l-0.3-0.8
			l5.9-2.4h0.9L1103.2,147L1103.2,147z"/>
		<path class="st0" d="M1124.8,142.9v15.8c0,1.2,0.1,2.1,0.3,2.5c0.2,0.4,0.4,0.7,0.8,0.9c0.4,0.2,1,0.3,1.9,0.3v0.8h-9.6v-0.8
			c1,0,1.6-0.1,1.9-0.3s0.6-0.5,0.8-0.9c0.2-0.4,0.3-1.2,0.3-2.5v-7.6c0-2.1-0.1-3.5-0.2-4.1c-0.1-0.5-0.3-0.8-0.5-1
			c-0.2-0.2-0.5-0.3-0.9-0.3s-0.9,0.1-1.5,0.3l-0.3-0.8l5.9-2.4L1124.8,142.9L1124.8,142.9z M1123,132.6c0.6,0,1.1,0.2,1.5,0.6
			c0.4,0.4,0.6,0.9,0.6,1.5s-0.2,1.1-0.6,1.6c-0.4,0.4-0.9,0.6-1.5,0.6s-1.1-0.2-1.5-0.6s-0.6-0.9-0.6-1.6s0.2-1.1,0.6-1.5
			C1121.8,132.8,1122.4,132.6,1123,132.6z"/>
		<path class="st0" d="M1127.7,143.4h9.3v0.8h-0.6c-0.6,0-1,0.1-1.3,0.4c-0.3,0.3-0.4,0.6-0.4,1.1s0.2,1.1,0.5,1.8l4.6,10.9
			l4.6-11.3c0.3-0.8,0.5-1.4,0.5-1.8c0-0.2-0.1-0.4-0.2-0.5c-0.2-0.2-0.4-0.4-0.6-0.4s-0.7-0.1-1.5-0.1v-0.8h6.4v0.8
			c-0.8,0.1-1.3,0.2-1.6,0.4c-0.5,0.4-0.9,1.1-1.3,2.1l-7,16.9h-0.9l-7-16.6c-0.3-0.8-0.6-1.3-0.9-1.7c-0.3-0.3-0.7-0.6-1.1-0.9
			c-0.2-0.1-0.7-0.2-1.4-0.4L1127.7,143.4L1127.7,143.4z"/>
		<path class="st0" d="M1152.6,150.9c0,2.9,0.7,5.2,2.1,6.9s3.1,2.5,5.1,2.5c1.3,0,2.4-0.4,3.4-1.1c0.9-0.7,1.8-1.9,2.4-3.6l0.7,0.4
			c-0.3,2-1.2,3.8-2.6,5.4s-3.3,2.4-5.4,2.4c-2.4,0-4.4-0.9-6.1-2.8c-1.7-1.8-2.5-4.3-2.5-7.4c0-3.4,0.9-6,2.6-7.9s3.9-2.8,6.5-2.8
			c2.2,0,4,0.7,5.4,2.2c1.4,1.4,2.1,3.4,2.1,5.8L1152.6,150.9L1152.6,150.9z M1152.6,149.6h9.1c-0.1-1.3-0.2-2.1-0.4-2.7
			c-0.4-0.8-0.9-1.4-1.6-1.9s-1.4-0.7-2.2-0.7c-1.2,0-2.2,0.5-3.2,1.4C1153.3,146.7,1152.8,148,1152.6,149.6z"/>
		<path class="st0" d="M1173.1,142.9v4.4c1.7-2.9,3.3-4.4,5.1-4.4c0.8,0,1.4,0.2,2,0.7s0.8,1,0.8,1.7c0,0.6-0.2,1-0.6,1.4
			s-0.8,0.6-1.3,0.6s-1.1-0.2-1.7-0.7s-1.1-0.7-1.4-0.7s-0.5,0.1-0.8,0.4c-0.6,0.6-1.3,1.6-2,2.9v9.4c0,1.1,0.1,1.9,0.4,2.5
			c0.2,0.4,0.5,0.7,1,1s1.2,0.4,2,0.4v0.8h-10.1v-0.8c1,0,1.8-0.2,2.2-0.5c0.4-0.2,0.6-0.6,0.8-1.1c0.1-0.2,0.1-0.9,0.1-2.1v-7.6
			c0-2.3-0.1-3.7-0.1-4.1c-0.1-0.4-0.3-0.8-0.5-1s-0.6-0.3-0.9-0.3c-0.4,0-0.9,0.1-1.5,0.3l-0.2-0.8l5.9-2.4L1173.1,142.9
			L1173.1,142.9z"/>
		<path class="st0" d="M1193.3,142.9v6.7h-0.7c-0.5-2.1-1.2-3.5-2.1-4.3c-0.8-0.8-1.9-1.1-3.2-1.1c-1,0-1.8,0.3-2.4,0.8
			s-0.9,1.1-0.9,1.8c0,0.8,0.2,1.5,0.7,2.1c0.4,0.6,1.3,1.2,2.7,1.9l3.1,1.5c2.9,1.4,4.4,3.3,4.4,5.6c0,1.8-0.7,3.2-2,4.3
			s-2.9,1.6-4.5,1.6c-1.2,0-2.6-0.2-4.1-0.6c-0.5-0.1-0.9-0.2-1.2-0.2c-0.3,0-0.6,0.2-0.8,0.6h-0.7v-7h0.7c0.4,2,1.2,3.5,2.3,4.5
			c1.1,1,2.4,1.5,3.8,1.5c1,0,1.8-0.3,2.4-0.9s0.9-1.3,0.9-2.1c0-1-0.3-1.8-1-2.5s-2.1-1.5-4.2-2.6c-2.1-1-3.4-2-4.1-2.8
			c-0.6-0.8-1-1.9-1-3.1c0-1.6,0.6-3,1.7-4.1s2.6-1.6,4.3-1.6c0.8,0,1.7,0.2,2.8,0.5c0.7,0.2,1.2,0.3,1.5,0.3c0.2,0,0.4-0.1,0.5-0.1
			c0.1-0.1,0.3-0.3,0.4-0.7L1193.3,142.9L1193.3,142.9z"/>
		<path class="st0" d="M1203,142.9v15.8c0,1.2,0.1,2.1,0.3,2.5s0.4,0.7,0.8,0.9c0.3,0.2,1,0.3,1.9,0.3v0.8h-9.6v-0.8
			c1,0,1.6-0.1,1.9-0.3s0.6-0.5,0.8-0.9s0.3-1.2,0.3-2.5v-7.6c0-2.1-0.1-3.5-0.2-4.1c-0.1-0.5-0.3-0.8-0.5-1s-0.5-0.3-0.9-0.3
			s-0.9,0.1-1.5,0.3l-0.3-0.8l5.9-2.4L1203,142.9L1203,142.9z M1201.3,132.6c0.6,0,1.1,0.2,1.5,0.6c0.4,0.4,0.6,0.9,0.6,1.5
			s-0.2,1.1-0.6,1.6c-0.4,0.4-0.9,0.6-1.5,0.6s-1.1-0.2-1.6-0.6s-0.6-0.9-0.6-1.6s0.2-1.1,0.6-1.5
			C1200.1,132.8,1200.6,132.6,1201.3,132.6z"/>
		<path class="st0" d="M1212.7,137v6.5h4.6v1.5h-4.6v12.8c0,1.3,0.2,2.1,0.6,2.6c0.4,0.4,0.8,0.7,1.4,0.7c0.5,0,0.9-0.1,1.4-0.4
			c0.4-0.3,0.8-0.7,1-1.3h0.8c-0.5,1.4-1.2,2.5-2.1,3.2s-1.9,1.1-2.8,1.1c-0.7,0-1.3-0.2-1.9-0.6c-0.6-0.4-1.1-0.9-1.4-1.6
			c-0.3-0.7-0.4-1.7-0.4-3.1v-13.2h-3.1v-0.7c0.8-0.3,1.6-0.9,2.4-1.6c0.8-0.8,1.6-1.6,2.2-2.7c0.3-0.5,0.8-1.5,1.4-3L1212.7,137
			L1212.7,137z"/>
		<path class="st0" d="M1216.7,143.4h9.2v0.8h-0.4c-0.6,0-1.1,0.1-1.4,0.4s-0.5,0.6-0.5,1c0,0.6,0.2,1.3,0.7,2.3l4.8,9.9l4.4-10.9
			c0.2-0.6,0.4-1.2,0.4-1.7c0-0.3-0.1-0.4-0.2-0.6c-0.1-0.2-0.3-0.3-0.5-0.4c-0.2-0.1-0.7-0.1-1.3-0.1v-0.8h6.4v0.8
			c-0.5,0.1-0.9,0.2-1.2,0.3c-0.3,0.2-0.6,0.5-0.9,1c-0.1,0.2-0.4,0.8-0.7,1.6l-8,19.6c-0.8,1.9-1.8,3.3-3,4.3s-2.5,1.5-3.6,1.5
			c-0.8,0-1.5-0.2-2.1-0.7c-0.5-0.5-0.8-1.1-0.8-1.7c0-0.6,0.2-1.1,0.6-1.4s0.9-0.6,1.6-0.6c0.5,0,1.1,0.2,1.9,0.5
			c0.6,0.2,0.9,0.3,1.1,0.3c0.4,0,0.9-0.2,1.4-0.7c0.5-0.4,1-1.3,1.5-2.6l1.4-3.4l-7.1-14.9c-0.2-0.4-0.6-1-1-1.6
			c-0.4-0.5-0.7-0.8-0.9-1c-0.3-0.2-0.9-0.4-1.6-0.6L1216.7,143.4L1216.7,143.4z"/>
	</g>
</g>
<g>
	<g>
		<g>
			<path class="st1" d="M255.3,16.2c1-0.1,2.2,0,3.5,0.2c2.2,0.3,3.6,1,4.6,2.1c1.1,1.3,1.6,3.1,1.3,5.6c-0.4,3-1.6,4.6-2.8,5.4
				c-1.4,1-3.2,1.3-5.6,1c-1.3-0.2-2.2-0.4-2.9-0.5L255.3,16.2z M256.2,28.3c0.3,0.1,0.6,0.2,1,0.2c2.4,0.4,4.2-1,4.8-4.7
				c0.5-3.2-0.8-5-3.2-5.2c-0.5-0.1-0.9-0.1-1.3-0.1L256.2,28.3z"/>
			<path class="st1" d="M271,31.1l-0.6,2.2l-7.2-2l3.6-13.6l6.9,1.9l-0.6,2.2l-4.5-1.2l-0.9,3.3l4.2,1.2l-0.5,2.2l-4.2-1.2l-1,3.8
				L271,31.1z"/>
			<path class="st1" d="M270,33.2l5.1-12.9c0.8,0.2,2,0.5,3.3,1c1.5,0.6,2.6,1.4,3.2,2.4c0.5,1,0.5,2.2,0,3.4
				c-1.4,3.6-4.6,3.2-6.5,2.5c-0.4-0.1-0.6-0.3-0.8-0.5l-2,4.9L270,33.2z M275.1,27.3c0.2,0.2,0.5,0.3,0.8,0.4
				c1.5,0.6,2.7,0.1,3.2-1.4c0.5-1.4,0-2.4-1.4-3c-0.5-0.2-0.8-0.3-1.1-0.3L275.1,27.3z"/>
			<path class="st1" d="M289.6,26.7L286,40.9l-2.3-1.4l1-3.7l-3.2-1.7l-2.6,2.8l-2.3-1.3l10.2-10.5L289.6,26.7z M282.7,32.5l2.5,1.4
				l0.9-3.2c0.3-0.9,0.6-2,0.9-2.8H287c-0.5,0.7-1.4,1.6-1.9,2.3L282.7,32.5z"/>
			<path class="st1" d="M293.6,29.3c0.8,0.4,1.9,1.1,3,1.8c1.4,1,4,3.2,1.7,6.2c-1,1.4-2.6,1.8-4,1.4l0,0c0.5,0.9,0.4,2-0.3,3.2
				c-0.7,1.5-1.4,3.2-1.5,3.7l-2.2-1.6c0.1-0.5,0.5-1.6,1.4-3.2c0.8-1.6,0.7-2.4-0.3-3.2l-0.7-0.5l-3.4,4.6l-2.1-1.5L293.6,29.3z
				 M291.9,35.8l0.8,0.6c1.2,0.9,2.4,0.7,3.2-0.4c1.1-1.4,0.3-2.5-0.5-3.1c-0.5-0.4-0.8-0.5-1-0.6L291.9,35.8z"/>
			<path class="st1" d="M307.5,40.8l-1.6,1.7l-2.4-2.3l-8.1,8.5l-1.9-1.8l8.1-8.5l-2.3-2.3l1.6-1.7L307.5,40.8z"/>
			<path class="st1" d="M315.8,51.2L305,60.5l-1.5-2l4.2-3.5c1.4-1.2,3.2-2.6,4.3-3.5l0,0c-1.5,0.7-3.3,1.4-4.9,2.1l-5.5,2.2
				l-1.2-1.5l3.5-4.6c1-1.4,2.3-2.8,3.4-4.2l0,0c-1.4,1.1-3.2,2.3-4.6,3.2l-4.4,3.1l-1.4-1.9l11.7-7.9l2,2.5l-3.3,4.4
				c-1.1,1.4-2.2,2.7-3.2,3.9l0,0c1.4-0.7,3.1-1.4,4.7-2.1l5.1-2.1L315.8,51.2z"/>
			<path class="st1" d="M310.2,65.7l-2,1.1l-3.6-6.6l12.4-6.8l3.5,6.3l-2,1.1l-2.3-4.1l-3,1.6l2.1,3.8l-2,1.1l-2.1-3.8l-3.4,1.9
				L310.2,65.7z"/>
			<path class="st1" d="M324.8,70.3l-13.2,5.1l-0.9-2.4l4.4-4.8c1.1-1.2,2.4-2.5,3.7-3.6v-0.1c-1.6,0.7-3.4,1.5-5.8,2.4l-4.1,1.5
				l-0.8-2.2l13.2-5.1l1,2.6l-4.3,4.7c-1.1,1.2-2.4,2.5-3.6,3.5l0,0c1.6-0.8,3.4-1.6,5.6-2.4l4-1.5L324.8,70.3z"/>
			<path class="st1" d="M327.1,80.2l-2.3,0.5l-0.7-3.2l-11.5,2.7l-0.6-2.5l11.5-2.7l-0.7-3.2l2.3-0.5L327.1,80.2z"/>
			<path class="st1" d="M321.4,95c-4.9,0.3-7.6-2-7.8-5.3c-0.2-3.5,2.8-5.7,6.9-6c4.2-0.2,7.4,1.8,7.6,5.3
				C328.4,92.9,325.1,94.9,321.4,95z M320.8,86.6c-2.8,0.2-5,1.3-4.9,3.2c0.1,1.9,2.4,2.8,5.2,2.6c2.6-0.2,5-1.2,4.9-3.2
				C325.9,87.2,323.4,86.4,320.8,86.6z"/>
			<path class="st1" d="M313.9,97.4l0.2-2.5l14.1,1.2l-0.6,7.1l-2.3-0.2l0.4-4.6l-3.7-0.3l-0.4,4.2l-2.3-0.2l0.4-4.2L313.9,97.4z"/>
			<path class="st1" d="M325.3,113.5l-14.6,0.1l0.6-2.6h3.9l0.9-3.5l-3.3-1.8l0.6-2.5l12.7,7.2L325.3,113.5z M318,108.4l-0.7,2.8
				h3.3c0.9,0,2.1,0.1,3,0.1v-0.1c-0.8-0.4-1.9-0.9-2.6-1.3L318,108.4z"/>
			<path class="st1" d="M323.7,118.2c-0.2,0.9-0.5,2.1-1.1,3.3c-0.6,1.5-2.2,4.6-5.7,3.2c-1.6-0.6-2.3-2.1-2.3-3.4h-0.1
				c-0.7,0.7-1.8,0.8-3.2,0.5c-1.7-0.3-3.3-0.6-4-0.5l1-2.4c0.5,0,1.7,0.2,3.4,0.5c1.8,0.4,2.5,0.1,3-1l0.4-0.8l-5.3-2.2l1-2.3
				L323.7,118.2z M317,118.2l-0.5,1c-0.5,1.4-0.1,2.5,1.2,3.1c1.7,0.7,2.5-0.4,2.9-1.3c0.2-0.5,0.4-0.9,0.4-1.2L317,118.2z"/>
			<path class="st1" d="M313.6,133.3c0.5-0.4,1-0.8,1.4-1.6c1.1-1.9,0.6-4.2-2.3-6c-2.8-1.6-5.1-1.1-6.2,1c-0.4,0.7-0.7,1.5-0.7,2.1
				l-2.1-0.8c0-0.5,0.4-1.6,1-2.8c2-3.5,5.6-4,9.2-1.9c4.2,2.4,4.9,6.3,3.2,9.4c-0.7,1.3-1.4,1.9-1.8,2.2L313.6,133.3z"/>
			<path class="st1" d="M308.8,143.6l-11.1-8.8l1.6-2l4.8,3.8l2.8-3.6l-4.8-3.8l1.6-2l11.1,8.8l-1.6,2l-4.4-3.5l-2.8,3.6l4.4,3.5
				L308.8,143.6z"/>
			<path class="st1" d="M297.5,134.9l10.1,9.8l-1.8,1.9l-10.1-9.8L297.5,134.9z"/>
			<path class="st1" d="M298.7,153.1l-1.5-1.8l2.5-2.2l-7.8-8.8l2-1.7l7.8,8.8l2.4-2.2l1.5,1.8L298.7,153.1z"/>
			<path class="st1" d="M285.3,147.9L284,146l6.1-4.2l8,11.6l-6,4.2l-1.3-1.9l3.8-2.6l-2-2.8l-3.6,2.5l-1.3-1.8l3.6-2.5l-2.3-3.2
				L285.3,147.9z"/>
			<path class="st1" d="M282.5,159.9c0.5,0,1.3-0.2,2.1-0.6c2-1.1,2.8-3.2,1.2-6.3c-1.5-2.8-3.7-3.6-5.8-2.4
				c-0.7,0.4-1.4,0.9-1.7,1.4l-1.4-1.7c0.4-0.5,1.2-1.2,2.3-1.9c3.5-1.9,6.9-0.5,8.8,3.2c2.3,4.3,0.8,7.9-2.3,9.7
				c-1.3,0.7-2.3,0.8-2.7,0.8L282.5,159.9z"/>
			<path class="st1" d="M274.9,165.6l-0.8-2.2l3.1-1.2l-4.2-10.9l2.4-0.9l4.2,10.9l3.1-1.2l0.8,2.2L274.9,165.6z"/>
			<path class="st1" d="M264.8,168.2l-2-8c-1-4,0.4-6.3,3.3-7c2.9-0.7,5.1,0.7,6,4.7l2,8l-2.5,0.6l-2.1-8.3c-0.6-2.4-1.7-3.2-3-2.9
				c-1.4,0.4-1.9,1.5-1.4,4l2.1,8.3L264.8,168.2z"/>
			<path class="st1" d="M262.8,168.3c-0.9,0.3-2.1,0.5-3.4,0.6c-1.7,0.2-5.1,0.4-5.5-3.4c-0.2-1.7,0.7-3.1,1.9-3.7v-0.1
				c-1-0.3-1.6-1.2-2.1-2.5c-0.5-1.6-1.1-3.2-1.4-3.8l2.6-0.3c0.3,0.4,0.7,1.5,1.2,3.2c0.5,1.8,1.2,2.3,2.3,2.2l0.9-0.1l-0.6-5.7
				l2.5-0.3L262.8,168.3z M259.5,162.5l-1.1,0.1c-1.4,0.2-2.3,1.2-2.1,2.4c0.2,1.8,1.5,2,2.4,1.9c0.5-0.1,1-0.2,1.2-0.3L259.5,162.5
				z"/>
			<path class="st1" d="M245.5,157.5v-2.3l7.5,0.1l-0.2,14.1l-7.2-0.1v-2.3l4.6,0.1v-3.4l-4.3-0.1v-2.3l4.3,0.1v-3.9L245.5,157.5z"
				/>
			<path class="st0" d="M241.1,154.7l-2.7,13.6c-0.8,0-2-0.1-3.4-0.4c-1.6-0.4-2.8-0.9-3.5-1.9c-0.6-0.9-0.9-2.1-0.6-3.3
				c0.7-3.8,4-4.1,5.9-3.6c0.4,0.1,0.6,0.2,0.9,0.3l1.1-5.1L241.1,154.7z M237.1,161.5c-0.3-0.1-0.5-0.2-0.9-0.3
				c-1.5-0.4-2.7,0.5-3,1.9c-0.3,1.4,0.5,2.4,1.8,2.7c0.5,0.1,0.9,0.1,1.1,0.1L237.1,161.5z"/>
			<path class="st0" d="M219.6,163.5l2.7-7.9c1.4-3.9,3.7-5.1,6.6-4.2s3.9,3.3,2.5,7.2l-2.7,7.9l-2.4-0.8l2.8-8
				c0.8-2.3,0.4-3.6-0.9-4.1c-1.4-0.5-2.4,0.3-3.2,2.6l-2.8,8L219.6,163.5z"/>
			<path class="st0" d="M223,152.6c-0.5-0.7-1.3-1.5-2.3-2c-1.3-0.6-2.3-0.4-2.7,0.6c-0.5,0.9-0.2,1.7,0.9,3
				c1.4,1.7,1.9,3.4,1.1,5.1c-1,2.1-3.3,2.9-6,1.6c-1.2-0.5-1.9-1.3-2.3-1.9l1.4-1.7c0.3,0.5,0.9,1.1,1.9,1.6
				c1.2,0.6,2.1,0.2,2.4-0.5c0.5-0.9,0.1-1.6-1.1-3.1c-1.4-1.9-1.7-3.4-0.9-5.1c1.1-2.2,3.4-3.1,6.2-1.6c1.2,0.6,2.3,1.5,2.6,2.2
				L223,152.6z"/>
			<path class="st0" d="M205,155.3l4.7-13.8l2.3,1.5l-1.3,3.6l3,2l2.8-2.6l2.2,1.4l-10.9,9.7L205,155.3z M212.2,150.1l-2.3-1.5
				l-1.1,3.2c-0.3,0.8-0.7,1.9-1.1,2.7l0,0c0.6-0.6,1.4-1.4,2.1-2.1L212.2,150.1z"/>
			<path class="st0" d="M193.6,145.9l9.5-10.6l1.9,1.8l-1.7,6.2c-0.5,1.5-1,3.3-1.6,4.9l0.1,0.1c1.1-1.4,2.3-2.9,4.1-4.8l2.9-3.2
				l1.7,1.5l-9.4,10.5l-2.1-1.9l1.7-6.1c0.5-1.5,1-3.3,1.6-4.8l0,0c-1.1,1.4-2.3,3-3.9,4.7l-2.8,3.2L193.6,145.9z"/>
			<path class="st0" d="M184.3,134.4l11.3-8.6l1.5,2.1l-2.9,5.8c-0.7,1.4-1.6,3.2-2.5,4.5v0.1c1.4-1.2,2.9-2.3,4.9-3.9l3.4-2.6
				l1.4,1.8l-11.3,8.6l-1.7-2.3l2.9-5.7c0.7-1.4,1.6-3.1,2.4-4.4l0,0c-1.4,1.2-2.9,2.4-4.7,3.9l-3.3,2.5L184.3,134.4z"/>
			<path class="st0" d="M180.2,127.3l10.6-10.1l1.3,2.3l-2.8,2.6l1.7,3.2l3.7-1l1.3,2.3l-14.2,3.4L180.2,127.3z M189,126l-1.4-2.5
				l-2.4,2.3c-0.6,0.6-1.5,1.4-2.3,1.9v0.1c0.8-0.3,2-0.6,2.8-0.8L189,126z"/>
			<path class="st0" d="M175.1,115.4l2.2-0.8l1.2,3.1l10.9-4.2l0.9,2.4l-10.8,4.2l1.2,3.1l-2.2,0.8L175.1,115.4z"/>
			<path class="st0" d="M188.7,110.9l-13.5,4.1l-0.7-2.4l13.5-4.1L188.7,110.9z"/>
			<path class="st0" d="M178.7,99.2c4.9-0.9,7.8,1,8.3,4.2c0.6,3.5-2.1,6-6,6.8c-4.2,0.8-7.6-0.8-8.2-4.2
				C172,102.3,175,99.9,178.7,99.2z M180.4,107.6c2.7-0.5,4.8-1.9,4.4-3.8c-0.4-1.9-2.7-2.4-5.5-1.9c-2.5,0.5-4.7,1.8-4.4,3.8
				C175.2,107.6,177.8,108,180.4,107.6z"/>
			<path class="st0" d="M171.5,89.1l14.1-0.4l0.1,2.6l-5.8,3c-1.4,0.7-3.2,1.5-4.7,2.2v0.1c1.7-0.2,3.7-0.3,6.2-0.3l4.3-0.1l0.1,2.3
				l-14.1,0.4l-0.1-2.8l5.7-3c1.4-0.7,3.1-1.5,4.5-2.1l0,0c-1.8,0.2-3.8,0.3-6,0.4h-4.2L171.5,89.1z"/>
			<path class="st0" d="M172.4,81l14.4-1.9l-0.4,2.7l-3.8,0.5l-0.5,3.5l3.6,1.4l-0.4,2.6L172,84.1L172.4,81z M180.3,85.1l0.4-2.8
				l-3.2,0.4c-0.9,0.1-2.1,0.2-3,0.3V83c0.8,0.3,2,0.6,2.8,1L180.3,85.1z"/>
			<path class="st0" d="M186.6,72.1l2.3,0.5l-1.9,7.1l-13.6-3.6l0.6-2.5l11.4,3.1L186.6,72.1z"/>
			<path class="st0" d="M180.5,56.5l7.5,3.4c3.8,1.7,4.7,4.2,3.4,6.9c-1.3,2.7-3.7,3.5-7.5,1.8l-7.6-3.4l1.1-2.3l7.8,3.5
				c2.3,1,3.6,0.6,4.2-0.5c0.5-1.3,0-2.4-2.3-3.5l-7.8-3.5L180.5,56.5z"/>
			<path class="st0" d="M186.9,46.4l11.7,7.9l-1.4,2.2l-6.4-0.8c-1.6-0.2-3.5-0.5-5.1-0.9v0.1c1.5,0.9,3.2,1.9,5.3,3.3l3.6,2.4
				l-1.4,1.8l-11.7-7.9l1.5-2.3l6.3,0.8c1.5,0.2,3.4,0.5,5,0.9l0,0c-1.6-0.9-3.2-1.9-5.2-3.2l-3.5-2.3L186.9,46.4z"/>
			<path class="st0" d="M199,54.2l-10.9-9l1.6-2l10.9,9L199,54.2z"/>
			<path class="st0" d="M195.6,37l2-2l7,12.8l-2.1,2.1l-12.7-7.2l2-2l5.5,3.3c1.4,0.9,3,1.8,4.3,2.8l0,0c-1-1.4-1.9-2.9-2.8-4.3
				L195.6,37z"/>
			<path class="st0" d="M211.3,39.4l1.4,1.8l-6,4.6l-8.7-11.1l5.7-4.4l1.4,1.8l-3.6,2.9l2.1,2.7l3.4-2.7l1.4,1.7l-3.4,2.7l2.4,3.1
				L211.3,39.4z"/>
			<path class="st0" d="M205.1,29.5c0.6-0.6,1.7-1.4,2.8-2.1c1.4-0.9,4.5-2.4,6.4,0.8c0.9,1.4,0.6,3.1-0.2,4.2v0.1
				c1-0.2,2,0.4,3,1.4c1.2,1.3,2.3,2.5,2.9,2.8l-2.3,1.4c-0.4-0.3-1.3-1.1-2.4-2.4c-1.3-1.4-2-1.5-3.1-0.9l-0.7,0.5l3,4.9l-2.2,1.4
				L205.1,29.5z M210.5,33.5l0.9-0.5c1.3-0.7,1.5-2,0.8-3.2c-0.9-1.5-2.3-1.2-3.1-0.7c-0.5,0.3-0.8,0.5-1,0.7L210.5,33.5z"/>
			<path class="st0" d="M218.1,34.7c0.8,0.1,2,0,3-0.5c1.3-0.6,1.7-1.5,1.3-2.5c-0.5-0.9-1.3-1.2-2.9-1.2c-2.3,0-3.9-0.7-4.7-2.3
				c-1-2.1-0.1-4.4,2.5-5.6c1.2-0.5,2.2-0.6,2.9-0.6l0.5,2.3c-0.5,0-1.4,0-2.4,0.5c-1.3,0.5-1.4,1.5-1.2,2.3
				c0.5,0.9,1.2,1.1,3.1,1.1c2.3,0,3.8,0.8,4.5,2.5c1,2.3,0.2,4.6-2.7,5.9c-1.2,0.5-2.6,0.7-3.3,0.6L218.1,34.7z"/>
			<path class="st0" d="M226,34.3L221.3,21l2.4-0.9l4.8,13.3L226,34.3z"/>
			<path class="st0" d="M232.9,17.5l0.6,2.3l-3.2,0.9l3.1,11.4l-2.5,0.7l-3.1-11.4l-3.2,0.9L224,20L232.9,17.5z"/>
			<path class="st0" d="M239.8,16.4l2.8-0.5l-2.7,8.8l0.9,5.8l-2.5,0.4l-0.9-5.7l-5.1-7.7l3-0.4l1.8,3.2c0.5,0.9,1,1.8,1.4,2.7l0,0
				c0.1-1,0.3-1.9,0.5-3L239.8,16.4z"/>
		</g>
		<path class="st0" d="M251.1,23.5c0,1.5-1.3,2.8-2.8,2.8c-1.5,0-2.8-1.3-2.8-2.8c0-1.5,1.3-2.8,2.8-2.8
			C250,20.7,251.1,21.9,251.1,23.5z"/>
		<path class="st0" d="M244.8,161.6c0,0.8-0.6,1.4-1.4,1.4s-1.4-0.6-1.4-1.4c0-0.8,0.6-1.4,1.4-1.4
			C244.3,160.1,244.8,160.7,244.8,161.6z"/>
	</g>
	<g>
		<path class="st1" d="M285.1,130.7h-26.3c-8.1,0.1-9.1,6.7-9.1,6.7c-1.6-7.5-9.5-6.7-9.5-6.7h-25.6V84.2h24.7
			c8.2,0.2,10.5,8.2,10.5,8.2c2.7-8.1,11.2-8.2,11.2-8.2h24.2L285.1,130.7L285.1,130.7z M259.3,79.6c-7.2,0.3-9.5,5.5-9.5,5.5
			c-2.3-5.5-9.2-5.5-9.2-5.5h-29.8v55.7h29.2c4,0,5.4,2.3,5.9,4h8c1.4-4.2,5.4-4,5.4-4h29.6V79.6H259.3L259.3,79.6z"/>
		<path class="st1" d="M234.5,105.6h-10.8v13.5l0,0h15l0,0l0,0v-8.8h3.8v8.8h14.9v-8.8h3.8v8.8H276v-4.7h-10.8v-4.2H276v-14h-14.9
			v9.3h-3.8v-9.3h-4.1v9.3h-6.8v-9.3h-4.1v9.3h-3.8v-9.3h-15v4.7h10.8V105.6L234.5,105.6z M234.5,114.5h-6.8v-4.2h6.8V114.5
			L234.5,114.5z M253.2,114.5h-6.8v-4.2h6.8V114.5L253.2,114.5z M265.1,100.9h6.8v4.7h-6.8V100.9L265.1,100.9z"/>
		<polygon class="st0" points="247.6,53.8 251.2,52.4 247.6,52.4 		"/>
		<path class="st0" d="M239.8,60.2c1.4-1.7,2.7-1.5,2.7-0.8s-0.7,1.6-0.7,1.6h-8.6l-4.7-8.4l0,0c-1.2-2.2-2.7-3.1-5.1-3.1
			c-2.5,0-7.2,0-12.6,0v25.2c7.7,0,26.5,0,28.8,0c8.5,0.1,10.2,4.6,10.2,4.6c1.8-3.5,5.2-4.5,10.5-4.5c2.6,0,21.1,0,28.7,0V49.7
			c-5.6,0-10.3,0-12.8,0c-2.4,0-4,0.9-5.1,3.1l0,0l-4.8,8.4c0,0-3.8,0-7.1,0v-7.4l4.9-5.9h-5.1l1.3-1.4h-10.2c-2.1,0-3.7,1-4.2,2.4
			H242c-3.3,0-4.5,2.3-3.8,5.3L239.8,60.2L239.8,60.2z M285.1,70.1c-13.5,0-14.1,0-23.9,0c-6.4,0-9.4,0.5-11.4,3.2
			c-2.2-2.6-3.9-3.2-10.3-3.2c-5.4,0-20.4,0-24.9,0V54.3h7.9c0.8,0,1.4,0.2,1.8,0.5c0.3,0.2,0.9,0.7,1.3,1.4
			c0.5,0.9,5.1,9.3,5.1,9.3H244c0,0,1.3-3.2,2-5.4c0.8-2.3,0.5-3.8-1.2-4c-1.4-0.1-2.3,0.3-2.4,1l-0.6-2.5c-0.4-1.3-0.1-2.2,1.4-2.2
			h4.3c0,0,0.1-1.7,2.4-1.7h7.1l-2,2.3v12.5h14.1c0,0,4.4-8.4,5-9.3c0.4-0.7,1-1.2,1.3-1.4c0.5-0.3,1.1-0.5,1.8-0.5h7.9V70.1
			L285.1,70.1z"/>
		<path class="st1" d="M243.8,124.1c0.5-0.2,1-0.6,1.3-1.3l0,0v4c0,0.4,0,0.7,0.3,1l0,0h-1.2l0,0c0.4-0.2,0.4-0.5,0.4-1v-2.7H243.8
			L243.8,124.1L243.8,124.1z"/>
		<path class="st1" d="M246.8,127.5c0.9-0.3,1.8-1.3,1.8-2.4c0-0.7-0.4-1.5-1-1.5c-0.5,0-0.8,0.5-0.8,1.1s0.4,1.2,0.9,1.2
			c0.2,0,0.5-0.1,0.6-0.2l-0.4,0.6c-0.2,0.1-0.3,0.1-0.5,0.1c-0.6,0-1.2-0.6-1.2-1.4c0-1,0.7-1.7,1.5-1.7c0.9,0,1.5,0.9,1.5,1.9
			c0,0.8-0.4,1.6-0.9,2.1c-0.5,0.5-1.1,0.8-1.8,0.9L246.8,127.5L246.8,127.5z"/>
		<path class="st1" d="M251.3,126.3c-0.5,0-0.9,0-1.3-0.1l1.3-2.5V126.3L251.3,126.3z M251.3,126.8v0.2c0,0.4,0,0.6-0.3,0.7l0,0h1.1
			l0,0c-0.3-0.2-0.3-0.5-0.3-0.8v-0.2h0.5l0.3-0.8c-0.2,0.2-0.5,0.3-0.7,0.3V123H251l-1.8,3.7L251.3,126.8L251.3,126.8z"/>
		<path class="st1" d="M255.5,123.5c-0.4,0.1-0.8,0.5-1.2,0.7c-0.4,0.5-0.6,1.1-0.6,1.7c0,0.7,0.4,1.5,1,1.5c0.5,0,0.8-0.5,0.8-1.1
			c0-0.7-0.3-1.2-0.9-1.2c-0.2,0-0.5,0.1-0.6,0.3l0.4-0.5c0.2-0.1,0.4-0.1,0.5-0.1c0.7,0,1.3,0.6,1.3,1.5c0,1-0.6,1.7-1.4,1.7
			c-0.9,0-1.5-0.9-1.5-2c0-1.7,1.4-2.8,2.6-2.9L255.5,123.5L255.5,123.5z"/>
	</g>
	<g class="st2">
		<ellipse class="st3" cx="249.9" cy="92.7" rx="59.8" ry="58.4"/>
		<path class="st3" d="M285.2,130.7h-26.3c-8.1,0.1-9.1,6.7-9.1,6.7c-1.6-7.5-9.5-6.7-9.5-6.7h-25.7V84.2h24.7
			c8.2,0.2,10.5,8.2,10.5,8.2c2.7-8.1,11.2-8.2,11.2-8.2h24.2V130.7L285.2,130.7z"/>
		<path class="st3" d="M259.3,79.6c-7.2,0.3-9.5,5.5-9.5,5.5c-2.3-5.5-9.2-5.5-9.2-5.5h-29.8v55.7h29.2c4,0,5.4,2.3,5.9,4h8
			c1.4-4.2,5.4-4,5.4-4h29.6V79.6H259.3L259.3,79.6z"/>
		<path class="st3" d="M239.8,60.2c1.4-1.7,2.7-1.5,2.7-0.8s-0.7,1.6-0.7,1.6h-8.6l-4.7-8.4l0,0c-1.2-2.2-2.7-3.1-5.1-3.1
			c-2.5,0-7.2,0-12.6,0v25.2c7.7,0,26.5,0,28.8,0c8.5,0.1,10.2,4.6,10.2,4.6c1.8-3.5,5.2-4.5,10.5-4.5c2.6,0,21.1,0,28.7,0V49.7
			c-5.6,0-10.3,0-12.8,0c-2.4,0-4,0.9-5.1,3.1l0,0l-4.8,8.4c0,0-3.8,0-7.1,0v-7.4l4.9-5.9h-5.1l1.3-1.4h-10.2c-2.1,0-3.7,1-4.2,2.4
			H242c-3.3,0-4.5,2.3-3.8,5.3L239.8,60.2L239.8,60.2z"/>
		<path class="st3" d="M285.2,70.1c-13.5,0-14.1,0-23.9,0c-6.4,0-9.4,0.5-11.4,3.2c-2.2-2.6-3.9-3.2-10.3-3.2c-5.4,0-20.4,0-24.9,0
			V54.3h7.9c0.8,0,1.4,0.2,1.8,0.5c0.3,0.2,0.9,0.7,1.3,1.4c0.5,0.9,5.1,9.3,5.1,9.3h13.4c0,0,1.3-3.2,2-5.4c0.8-2.3,0.5-3.8-1.2-4
			c-1.4-0.1-2.3,0.3-2.4,1l-0.6-2.5c-0.4-1.3-0.1-2.2,1.4-2.2h4.3c0,0,0.1-1.7,2.4-1.7h7.1l-2,2.3v12.5h14c0,0,4.4-8.4,5-9.3
			c0.4-0.7,1-1.2,1.3-1.4c0.5-0.3,1.1-0.5,1.8-0.5h7.9L285.2,70.1L285.2,70.1z"/>
		<path class="st3" d="M285.1,130.7h-26.3c-8.1,0.1-9.1,6.7-9.1,6.7c-1.6-7.5-9.5-6.7-9.5-6.7h-25.6V84.2h24.7
			c8.2,0.2,10.5,8.2,10.5,8.2c2.7-8.1,11.2-8.2,11.2-8.2h24.2L285.1,130.7L285.1,130.7z M259.3,79.6c-7.2,0.3-9.5,5.5-9.5,5.5
			c-2.3-5.5-9.2-5.5-9.2-5.5h-29.8v55.7h29.2c4,0,5.4,2.3,5.9,4h8c1.4-4.2,5.4-4,5.4-4h29.6V79.6H259.3L259.3,79.6z"/>
		<path class="st3" d="M234.5,105.6h-10.8v13.5l0,0h15l0,0l0,0v-8.8h3.8v8.8h14.9v-8.8h3.8v8.8H276v-4.7h-10.8v-4.2H276v-14h-14.9
			v9.3h-3.8v-9.3h-4.1v9.3h-6.8v-9.3h-4.1v9.3h-3.8v-9.3h-15v4.7h10.8V105.6L234.5,105.6z M234.5,114.5h-6.8v-4.2h6.8V114.5
			L234.5,114.5z M253.2,114.5h-6.8v-4.2h6.8V114.5L253.2,114.5z M265.1,100.9h6.8v4.7h-6.8V100.9L265.1,100.9z"/>
		<polygon class="st3" points="247.6,53.8 251.2,52.4 247.6,52.4 		"/>
		<path class="st3" d="M239.8,60.2c1.4-1.7,2.7-1.5,2.7-0.8s-0.7,1.6-0.7,1.6h-8.6l-4.7-8.4l0,0c-1.2-2.2-2.7-3.1-5.1-3.1
			c-2.5,0-7.2,0-12.6,0v25.2c7.7,0,26.5,0,28.8,0c8.5,0.1,10.2,4.6,10.2,4.6c1.8-3.5,5.2-4.5,10.5-4.5c2.6,0,21.1,0,28.7,0V49.7
			c-5.6,0-10.3,0-12.8,0c-2.4,0-4,0.9-5.1,3.1l0,0l-4.8,8.4c0,0-3.8,0-7.1,0v-7.4l4.9-5.9h-5.1l1.3-1.4h-10.2c-2.1,0-3.7,1-4.2,2.4
			H242c-3.3,0-4.5,2.3-3.8,5.3L239.8,60.2L239.8,60.2z M285.1,70.1c-13.5,0-14.1,0-23.9,0c-6.4,0-9.4,0.5-11.4,3.2
			c-2.2-2.6-3.9-3.2-10.3-3.2c-5.4,0-20.4,0-24.9,0V54.3h7.9c0.8,0,1.4,0.2,1.8,0.5c0.3,0.2,0.9,0.7,1.3,1.4
			c0.5,0.9,5.1,9.3,5.1,9.3H244c0,0,1.3-3.2,2-5.4c0.8-2.3,0.5-3.8-1.2-4c-1.4-0.1-2.3,0.3-2.4,1l-0.6-2.5c-0.4-1.3-0.1-2.2,1.4-2.2
			h4.3c0,0,0.1-1.7,2.4-1.7h7.1l-2,2.3v12.5h14.1c0,0,4.4-8.4,5-9.3c0.4-0.7,1-1.2,1.3-1.4c0.5-0.3,1.1-0.5,1.8-0.5h7.9V70.1
			L285.1,70.1z"/>
		<path class="st3" d="M243.8,124.1c0.5-0.2,1-0.6,1.3-1.3l0,0v4c0,0.4,0,0.7,0.3,1l0,0h-1.2l0,0c0.4-0.2,0.4-0.5,0.4-1v-2.7H243.8
			L243.8,124.1L243.8,124.1z"/>
		<path class="st3" d="M246.8,127.5c0.9-0.3,1.8-1.3,1.8-2.4c0-0.7-0.4-1.5-1-1.5c-0.5,0-0.8,0.5-0.8,1.1s0.4,1.2,0.9,1.2
			c0.2,0,0.5-0.1,0.6-0.2l-0.4,0.6c-0.2,0.1-0.3,0.1-0.5,0.1c-0.6,0-1.2-0.6-1.2-1.4c0-1,0.7-1.7,1.5-1.7c0.9,0,1.5,0.9,1.5,1.9
			c0,0.8-0.4,1.6-0.9,2.1c-0.5,0.5-1.1,0.8-1.8,0.9L246.8,127.5L246.8,127.5z"/>
		<path class="st3" d="M251.3,126.3c-0.5,0-0.9,0-1.3-0.1l1.3-2.5V126.3L251.3,126.3z M251.3,126.8v0.2c0,0.4,0,0.6-0.3,0.7l0,0h1.1
			l0,0c-0.3-0.2-0.3-0.5-0.3-0.8v-0.2h0.5l0.3-0.8c-0.2,0.2-0.5,0.3-0.7,0.3V123H251l-1.8,3.7L251.3,126.8L251.3,126.8z"/>
		<path class="st3" d="M255.5,123.5c-0.4,0.1-0.8,0.5-1.2,0.7c-0.4,0.5-0.6,1.1-0.6,1.7c0,0.7,0.4,1.5,1,1.5c0.5,0,0.8-0.5,0.8-1.1
			c0-0.7-0.3-1.2-0.9-1.2c-0.2,0-0.5,0.1-0.6,0.3l0.4-0.5c0.2-0.1,0.4-0.1,0.5-0.1c0.7,0,1.3,0.6,1.3,1.5c0,1-0.6,1.7-1.4,1.7
			c-0.9,0-1.5-0.9-1.5-2c0-1.7,1.4-2.8,2.6-2.9L255.5,123.5L255.5,123.5z"/>
	</g>
</g>
<rect x="-45.8" y="26.3" class="st4" width="162.9" height="130"/>
</svg>
