<?xml version="1.0" encoding="utf-8"?>
<!-- Generator: Adobe Illustrator 25.1.0, SVG Export Plug-In . SVG Version: 6.00 Build 0)  -->
<svg version="1.1" id="레이어_1" xmlns="http://www.w3.org/2000/svg" xmlns:xlink="http://www.w3.org/1999/xlink" x="0px"
	 y="0px" viewBox="0 0 170.08 170.08" style="enable-background:new 0 0 170.08 170.08;" xml:space="preserve">
<style type="text/css">
	.st0{fill:#FFFFFF;}
	.st1{fill:none;stroke:#727171;stroke-width:0.4;stroke-miterlimit:10;}
	.st2{fill:#FFFFFF;stroke:#000000;stroke-width:0.7;stroke-miterlimit:10;}
	.st3{fill:none;stroke:#000000;stroke-width:0.7;stroke-miterlimit:10;}
	.st4{stroke:#000000;stroke-width:2;stroke-miterlimit:10;}
	.st5{fill:#F3DEB8;stroke:#000000;stroke-width:0.7;stroke-miterlimit:10;}
	.st6{fill:#070606;}
</style>
<rect x="0.45" y="0.45" class="st0" width="170" height="170"/>
<circle class="st1" cx="85.45" cy="85.45" r="85"/>
<path class="st2" d="M84.85,92.52c0,0-15.86,0.35-23.7,2.64s-17.68,6.16-19.87,15.48s-1.09,13.07,0,17.18
	c1.09,4.11,6.2,26.98,10.21,32.79c8.39,2.64,14.66,1.94,20.73,0c0.96-5.28,0.78-10.38,0.78-10.38c7.84,2.11,11.3,1.23,15.86,0
	c0,5.98,0.55,8.27,1.09,10.03c12.58,2.11,14.58,2.11,20.6,0.35c5.1-14.25,6.56-20.94,8.39-24.28c1.82-3.34,4.38-9.5,5.1-14.25
	c10.94-6.16,18.05-8.8,18.41-19.53s-4.01-18.83-14.58-27.8S102.2,55.45,91.24,62.2C83.75,67.71,82.84,85.83,84.85,92.52z"/>
<path class="st3" d="M84.85,92.52c0.89,5.61,1.32,11.66,4.78,18.05c1.16,2.13,2.65,4.3,4.61,6.49c7.84,8.8,20.05,10.38,29.81,5.01"
	/>
<path class="st3" d="M89.63,110.57c0,0-0.13-6.52,3.88-8.81s12.94,0.88,21.51-6.16s9.12-12.49,13.67-13.02c4.56-0.53,9.16,3,9.16,3"
	/>
<path class="st2" d="M84.85,74.84c0,0-2.83-4.76-9.39-1.24c-6.56,3.52-8.56,8.92-8.56,8.92s3.64,5.68,10.38,4.63
	c6.75-1.06,6.77-6.2,6.77-6.2"/>
<path class="st2" d="M107.08,61.53c0,0,0.47-7.98,5.39-9.21c4.92-1.23,11.58-2.17,11.58-2.17s1.84,5.27-1.4,9.88s-8.9,4.58-8.9,4.58
	"/>
<path class="st2" d="M43.82,105.12c0,0-9.06,5.19-12.77,3.73s-1.89-4.98-5.54-6.91s-6.93-0.7-8.57,2.64
	c4.19,1.23,2.19-0.18,4.19,1.23s1.28,5.45,7.66,6.69s13.55-4.89,13.55-4.89"/>
<ellipse class="st3" cx="96.88" cy="85.13" rx="4.1" ry="3.96"/>
<ellipse class="st3" cx="113.01" cy="77.3" rx="4.01" ry="3.87"/>
<ellipse class="st4" cx="98.79" cy="85.22" rx="0.73" ry="0.7"/>
<ellipse class="st4" cx="114.76" cy="77.33" rx="0.73" ry="0.7"/>
<path class="st5" d="M137.67,85.5c0,0-4.6-3.53-9.16-3c-4.56,0.53-5.1,5.98-13.67,13.02s-17.5,3.87-21.51,6.16
	c-4.01,2.29-3.88,8.81-3.88,8.81c1.16,2.13,2.65,4.3,4.61,6.49c7.84,8.8,20.05,10.38,29.81,5.01c10.94-6.16,18.05-8.8,18.41-19.53
	C142.49,96.13,141.05,90.71,137.67,85.5"/>
<g>
	<ellipse transform="matrix(0.9498 -0.313 0.313 0.9498 -30.0581 39.3258)" class="st6" cx="107.45" cy="113.28" rx="3" ry="2.03"/>
	
		<ellipse transform="matrix(0.9518 -0.3068 0.3068 0.9518 -24.5831 45.3507)" class="st6" cx="131.97" cy="100.88" rx="2.91" ry="2.12"/>
	<path class="st6" d="M104.63,114.27c-0.91-3.19,0.05-4.67,0.67-5.43c-0.05,1.66-0.51,1.78,0.41,3.06"/>
	<path class="st6" d="M134.41,99.56c-2.23-2.52-4.04-2.58-5.03-2.51c1.45,0.89,1.81,0.58,2.4,2.05"/>
</g>
</svg>
