<?xml version="1.0" encoding="utf-8"?>
<!-- Generator: Adobe Illustrator 24.3.0, SVG Export Plug-In . SVG Version: 6.00 Build 0)  -->
<svg version="1.1" id="레이어_1" xmlns="http://www.w3.org/2000/svg" xmlns:xlink="http://www.w3.org/1999/xlink" x="0px"
	 y="0px" viewBox="0 0 453.5 396.9" style="enable-background:new 0 0 453.5 396.9;" xml:space="preserve">
<style type="text/css">
	.st0{fill:none;}
	.st1{font-family:'MalgunGothic';}
	.st2{font-size:8.1456px;}
	.st3{fill:none;stroke:#000000;stroke-width:0.36;stroke-miterlimit:10;}
</style>
<rect x="359.5" y="12.6" class="st0" width="43.4" height="25.9"/>
<rect x="359.5" y="12.6" class="st0" width="43.4" height="25.9"/>
<g id="_x3C_text_x3E_">
	<text transform="matrix(0.8747 0 0 1 384.8096 34.944)" class="st1 st2">점</text>
	<text transform="matrix(0.8747 0 0 1 389.2646 21.7936)" class="st1 st2">기</text>
	<text transform="matrix(0.8747 0 0 1 370.4648 34.944)" class="st1 st2">준</text>
	<text transform="matrix(0.8747 0 0 1 377.5498 34.944)" class="st1 st2">학</text>
	<text transform="matrix(0.8747 0 0 1 415.7891 21.7936)" class="st1 st2">K</text>
	<text transform="matrix(0.8747 0 0 1 419.9873 21.7936)" class="st1 st2">AA</text>
	<text transform="matrix(0.8747 0 0 1 429.4346 21.7936)" class="st1 st2">B</text>
	<text transform="matrix(0.8747 0 0 1 410.3799 34.944)" class="st1 st2">기</text>
	<text transform="matrix(0.8747 0 0 1 417.4648 34.944)" class="st1 st2">준</text>
	<text transform="matrix(0.8747 0 0 1 424.7246 34.944)" class="st1 st2">학점</text>
	<text transform="matrix(0.8747 0 0 1 16.9819 63.9928)" class="st1 st2">교양</text>
	<text transform="matrix(0.8747 0 0 1 31.2393 63.9928)" class="st1 st2">교</text>
	<text transform="matrix(0.8747 0 0 1 38.4121 63.9928)" class="st1 st2">과과정</text>
	<text transform="matrix(0.8747 0 0 1 143.4214 48.8805)" class="st1 st2">일</text>
	<text transform="matrix(0.8747 0 0 1 150.5938 48.8805)" class="st1 st2">반교양</text>
	<text transform="matrix(0.8747 0 0 1 278.7031 48.8805)" class="st1 st2">3</text>
	<text transform="matrix(0.8747 0 0 1 282.6392 48.8805)" class="st1 st2">0</text>
	<text transform="matrix(0.8747 0 0 1 333.8125 63.9928)" class="st1 st2">3</text>
	<text transform="matrix(0.8747 0 0 1 337.749 63.9928)" class="st1 st2">9</text>
	<text transform="matrix(0.8747 0 0 1 377.2461 63.9928)" class="st1 st2">4</text>
	<text transform="matrix(0.8747 0 0 1 381.1826 63.9928)" class="st1 st2">2</text>
	<text transform="matrix(0.8747 0 0 1 420.7666 63.9928)" class="st1 st2">4</text>
	<text transform="matrix(0.8747 0 0 1 424.7031 63.9928)" class="st1 st2">0</text>
	<text transform="matrix(0.8747 0 0 1 143.4214 63.9928)" class="st1 st2">일</text>
	<text transform="matrix(0.8747 0 0 1 150.5938 63.9928)" class="st1 st2">반선택</text>
	<text transform="matrix(0.8747 0 0 1 280.6777 63.9928)" class="st1 st2">3</text>
	<text transform="matrix(0.8747 0 0 1 280.6777 79.107)" class="st1 st2">6</text>
	<text transform="matrix(0.8747 0 0 1 16.9819 184.902)" class="st1 st2">전공</text>
	<text transform="matrix(0.8747 0 0 1 31.2393 184.902)" class="st1 st2">교</text>
	<text transform="matrix(0.8747 0 0 1 38.4121 184.902)" class="st1 st2">과과정</text>
	<text transform="matrix(0.8747 0 0 1 74.7515 139.5621)" class="st1 st2">필수</text>
	<text transform="matrix(0.8747 0 0 1 143.4214 79.107)" class="st1 st2">전</text>
	<text transform="matrix(0.8747 0 0 1 150.5938 79.107)" class="st1 st2">공기초</text>
	<text transform="matrix(0.8747 0 0 1 151.9204 94.2203)" class="st1 st2">설</text>
	<text transform="matrix(0.8747 0 0 1 159.0928 94.2203)" class="st1 st2">계교</text>
	<text transform="matrix(0.8747 0 0 1 173.3506 94.2203)" class="st1 st2">과</text>
	<text transform="matrix(0.8747 0 0 1 180.6104 94.2203)" class="st1 st2">영역</text>
	<text transform="matrix(0.8747 0 0 1 278.7031 94.2203)" class="st1 st2">5</text>
	<text transform="matrix(0.8747 0 0 1 282.6392 94.2203)" class="st1 st2">4</text>
	<text transform="matrix(0.8747 0 0 1 333.8125 94.2203)" class="st1 st2">5</text>
	<text transform="matrix(0.8747 0 0 1 337.749 94.2203)" class="st1 st2">4</text>
	<text transform="matrix(0.8747 0 0 1 377.2461 94.2203)" class="st1 st2">4</text>
	<text transform="matrix(0.8747 0 0 1 381.1826 94.2203)" class="st1 st2">0</text>
	<text transform="matrix(0.8747 0 0 1 420.7666 94.2203)" class="st1 st2">5</text>
	<text transform="matrix(0.8747 0 0 1 424.7031 94.2203)" class="st1 st2">0</text>
	<text transform="matrix(0.8747 0 0 1 101.8765 147.1188)" class="st1 st2">일</text>
	<text transform="matrix(0.8747 0 0 1 108.9614 147.1188)" class="st1 st2">반</text>
	<text transform="matrix(0.8747 0 0 1 116.2217 147.1188)" class="st1 st2">교과</text>
	<text transform="matrix(0.8747 0 0 1 130.479 147.1188)" class="st1 st2">영</text>
	<text transform="matrix(0.8747 0 0 1 137.6519 147.1188)" class="st1 st2">역</text>
	<text transform="matrix(0.8747 0 0 1 184.8823 109.3346)" class="st1 st2">의</text>
	<text transform="matrix(0.8747 0 0 1 191.9673 109.3346)" class="st1 st2">사</text>
	<text transform="matrix(0.8747 0 0 1 199.2275 109.3346)" class="st1 st2">소통</text>
	<text transform="matrix(0.8747 0 0 1 280.6777 109.3346)" class="st1 st2">9</text>
	<text transform="matrix(0.8747 0 0 1 333.8125 147.1188)" class="st1 st2">5</text>
	<text transform="matrix(0.8747 0 0 1 337.749 147.1188)" class="st1 st2">4</text>
	<text transform="matrix(0.8747 0 0 1 379.7363 109.3346)" class="st1 st2">-</text>
	<text transform="matrix(0.8747 0 0 1 422.7422 109.3346)" class="st1 st2">6</text>
	<text transform="matrix(0.8747 0 0 1 181.2778 124.4488)" class="st1 st2">문</text>
	<text transform="matrix(0.8747 0 0 1 188.4502 124.4488)" class="st1 st2">화적</text>
	<text transform="matrix(0.8747 0 0 1 202.708 124.4488)" class="st1 st2">맥</text>
	<text transform="matrix(0.8747 0 0 1 209.9678 124.4488)" class="st1 st2">락</text>
	<text transform="matrix(0.8747 0 0 1 278.7031 124.4488)" class="st1 st2">1</text>
	<text transform="matrix(0.8747 0 0 1 282.6392 124.4488)" class="st1 st2">8</text>
	<text transform="matrix(0.8747 0 0 1 377.2461 124.4488)" class="st1 st2">1</text>
	<text transform="matrix(0.8747 0 0 1 381.1826 124.4488)" class="st1 st2">2</text>
	<text transform="matrix(0.8747 0 0 1 420.7666 124.4488)" class="st1 st2">1</text>
	<text transform="matrix(0.8747 0 0 1 424.7031 124.4488)" class="st1 st2">8</text>
	<text transform="matrix(0.8747 0 0 1 168.0581 154.6754)" class="st1 st2">기술</text>
	<text transform="matrix(0.8747 0 0 1 218.1021 139.5621)" class="st1 st2">구조</text>
	<text transform="matrix(0.8747 0 0 1 263.9395 139.5621)" class="st1 st2">6</text>
	<text transform="matrix(0.8747 0 0 1 295.3564 154.6754)" class="st1 st2">2</text>
	<text transform="matrix(0.8747 0 0 1 299.293 154.6754)" class="st1 st2">1</text>
	<text transform="matrix(0.8747 0 0 1 377.2461 154.6754)" class="st1 st2">2</text>
	<text transform="matrix(0.8747 0 0 1 381.1826 154.6754)" class="st1 st2">7</text>
	<text transform="matrix(0.8747 0 0 1 420.7666 154.6754)" class="st1 st2">2</text>
	<text transform="matrix(0.8747 0 0 1 424.7031 154.6754)" class="st1 st2">4</text>
	<text transform="matrix(0.8747 0 0 1 210.978 154.6754)" class="st1 st2">환경</text>
	<text transform="matrix(0.8747 0 0 1 225.2354 154.6754)" class="st1 st2">조</text>
	<text transform="matrix(0.8747 0 0 1 232.4082 154.6754)" class="st1 st2">절</text>
	<text transform="matrix(0.8747 0 0 1 263.9395 154.6754)" class="st1 st2">6</text>
	<text transform="matrix(0.8747 0 0 1 218.1021 169.7887)" class="st1 st2">시공</text>
	<text transform="matrix(0.8747 0 0 1 263.9395 169.7887)" class="st1 st2">9</text>
	<text transform="matrix(0.8747 0 0 1 192.0073 184.902)" class="st1 st2">실</text>
	<text transform="matrix(0.8747 0 0 1 199.1797 184.902)" class="st1 st2">무</text>
	<text transform="matrix(0.8747 0 0 1 280.6777 184.902)" class="st1 st2">6</text>
	<text transform="matrix(0.8747 0 0 1 377.2461 184.902)" class="st1 st2">1</text>
	<text transform="matrix(0.8747 0 0 1 381.1826 184.902)" class="st1 st2">2</text>
	<text transform="matrix(0.8747 0 0 1 422.7422 184.902)" class="st1 st2">6</text>
	<text transform="matrix(0.8747 0 0 1 74.7515 237.799)" class="st1 st2">선택</text>
	<text transform="matrix(0.8747 0 0 1 101.8765 237.799)" class="st1 st2">일</text>
	<text transform="matrix(0.8747 0 0 1 108.9614 237.799)" class="st1 st2">반</text>
	<text transform="matrix(0.8747 0 0 1 116.2217 237.799)" class="st1 st2">교과</text>
	<text transform="matrix(0.8747 0 0 1 130.479 237.799)" class="st1 st2">영</text>
	<text transform="matrix(0.8747 0 0 1 137.6519 237.799)" class="st1 st2">역</text>
	<text transform="matrix(0.8747 0 0 1 184.8823 200.0157)" class="st1 st2">의</text>
	<text transform="matrix(0.8747 0 0 1 191.9673 200.0157)" class="st1 st2">사</text>
	<text transform="matrix(0.8747 0 0 1 199.2275 200.0157)" class="st1 st2">소통</text>
	<text transform="matrix(0.8747 0 0 1 280.6777 200.0157)" class="st1 st2">6</text>
	<text transform="matrix(0.8747 0 0 1 333.8125 224.7472)" class="st1 st2">4</text>
	<text transform="matrix(0.8747 0 0 1 337.749 224.7472)" class="st1 st2">8</text>
	<text transform="matrix(0.8747 0 0 1 325.5713 237.799)" class="st1 st2">(</text>
	<text transform="matrix(0.8747 0 0 1 327.7578 237.799)" class="st1 st2">2</text>
	<text transform="matrix(0.8747 0 0 1 331.6943 237.799)" class="st1 st2">1</text>
	<text transform="matrix(0.8747 0 0 1 335.6152 237.799)" class="st1 st2">학점</text>
	<text transform="matrix(0.8747 0 0 1 320.5078 250.8527)" class="st1 st2">이</text>
	<text transform="matrix(0.8747 0 0 1 327.6807 250.8527)" class="st1 st2">상 </text>
	<text transform="matrix(0.8747 0 0 1 338.4473 250.8527)" class="st1 st2">이수</text>
	<text transform="matrix(0.8747 0 0 1 352.6973 250.8527)" class="st1 st2">)</text>
	<text transform="matrix(0.8747 0 0 1 377.2461 237.799)" class="st1 st2">1</text>
	<text transform="matrix(0.8747 0 0 1 381.1826 237.799)" class="st1 st2">7</text>
	<text transform="matrix(0.8747 0 0 1 420.7666 237.799)" class="st1 st2">2</text>
	<text transform="matrix(0.8747 0 0 1 424.7031 237.799)" class="st1 st2">1</text>
	<text transform="matrix(0.8747 0 0 1 181.2778 215.129)" class="st1 st2">문</text>
	<text transform="matrix(0.8747 0 0 1 188.4502 215.129)" class="st1 st2">화적</text>
	<text transform="matrix(0.8747 0 0 1 202.708 215.129)" class="st1 st2">맥</text>
	<text transform="matrix(0.8747 0 0 1 209.9678 215.129)" class="st1 st2">락</text>
	<text transform="matrix(0.8747 0 0 1 278.7031 215.129)" class="st1 st2">3</text>
	<text transform="matrix(0.8747 0 0 1 282.6392 215.129)" class="st1 st2">6</text>
	<text transform="matrix(0.8747 0 0 1 168.0581 245.3566)" class="st1 st2">기술</text>
	<text transform="matrix(0.8747 0 0 1 218.1021 230.2423)" class="st1 st2">구조</text>
	<text transform="matrix(0.8747 0 0 1 263.9395 230.2423)" class="st1 st2">6</text>
	<text transform="matrix(0.8747 0 0 1 297.3311 245.3566)" class="st1 st2">6</text>
	<text transform="matrix(0.8747 0 0 1 210.978 245.3566)" class="st1 st2">환경</text>
	<text transform="matrix(0.8747 0 0 1 225.2354 245.3566)" class="st1 st2">조</text>
	<text transform="matrix(0.8747 0 0 1 232.4082 245.3566)" class="st1 st2">절</text>
	<text transform="matrix(0.8747 0 0 1 264.4541 245.3566)" class="st1 st2">-</text>
	<text transform="matrix(0.8747 0 0 1 218.1021 260.4689)" class="st1 st2">시공</text>
	<text transform="matrix(0.8747 0 0 1 264.4541 260.4689)" class="st1 st2">-</text>
	<text transform="matrix(0.8747 0 0 1 192.0073 275.5841)" class="st1 st2">실</text>
	<text transform="matrix(0.8747 0 0 1 199.1797 275.5841)" class="st1 st2">무</text>
	<text transform="matrix(0.8747 0 0 1 281.1924 275.5841)" class="st1 st2">-</text>
	<text transform="matrix(0.8747 0 0 1 156.1265 290.6974)" class="st1 st2">합계</text>
	<text transform="matrix(0.8747 0 0 1 331.8379 290.6974)" class="st1 st2">16</text>
	<text transform="matrix(0.8747 0 0 1 339.71 290.6974)" class="st1 st2">8</text>
	<text transform="matrix(0.8747 0 0 1 375.2725 290.6974)" class="st1 st2">15</text>
	<text transform="matrix(0.8747 0 0 1 383.1445 290.6974)" class="st1 st2">0</text>
	<text transform="matrix(0.8747 0 0 1 418.793 290.6974)" class="st1 st2">16</text>
	<text transform="matrix(0.8747 0 0 1 426.665 290.6974)" class="st1 st2">0</text>
	<text transform="matrix(0.8747 0 0 1 59.5581 310.423)" class="st1 st2">교</text>
	<text transform="matrix(0.8747 0 0 1 66.7305 310.423)" class="st1 st2">양</text>
	<text transform="matrix(0.8747 0 0 1 73.8931 310.423)" class="st1 st2">(</text>
	<text transform="matrix(0.8747 0 0 1 76.0801 310.423)" class="st1 st2">30</text>
	<text transform="matrix(0.8747 0 0 1 83.9521 310.423)" class="st1 st2">)</text>
	<text transform="matrix(0.8747 0 0 1 213.2954 310.423)" class="st1 st2">전공</text>
	<text transform="matrix(0.8747 0 0 1 227.5444 310.423)" class="st1 st2">(</text>
	<text transform="matrix(0.8747 0 0 1 229.731 310.423)" class="st1 st2">13</text>
	<text transform="matrix(0.8747 0 0 1 237.6035 310.423)" class="st1 st2">5</text>
	<text transform="matrix(0.8747 0 0 1 241.627 310.423)" class="st1 st2">)</text>
	<text transform="matrix(0.8747 0 0 1 338.7051 325.5372)" class="st1 st2">일</text>
	<text transform="matrix(0.8747 0 0 1 345.8779 325.5372)" class="st1 st2">반선택</text>
	<text transform="matrix(0.8747 0 0 1 393.8135 325.5372)" class="st1 st2">졸</text>
	<text transform="matrix(0.8747 0 0 1 400.8984 325.5372)" class="st1 st2">업</text>
	<text transform="matrix(0.8747 0 0 1 408.1582 325.5372)" class="st1 st2">기준</text>
	<text transform="matrix(0.8747 0 0 1 422.416 325.5372)" class="st1 st2">학</text>
	<text transform="matrix(0.8747 0 0 1 429.5889 325.5372)" class="st1 st2">점</text>
	<text transform="matrix(0.8747 0 0 1 27.4546 333.0929)" class="st1 st2">교양</text>
	<text transform="matrix(0.8747 0 0 1 41.7119 333.0929)" class="st1 st2">필</text>
	<text transform="matrix(0.8747 0 0 1 48.8848 333.0929)" class="st1 st2">수</text>
	<text transform="matrix(0.8747 0 0 1 89.687 333.0929)" class="st1 st2">교</text>
	<text transform="matrix(0.8747 0 0 1 96.772 333.0929)" class="st1 st2">양</text>
	<text transform="matrix(0.8747 0 0 1 104.0322 333.0929)" class="st1 st2">선택</text>
	<text transform="matrix(0.8747 0 0 1 175.0112 325.5372)" class="st1 st2">최소</text>
	<text transform="matrix(0.8747 0 0 1 189.2686 325.5372)" class="st1 st2">전</text>
	<text transform="matrix(0.8747 0 0 1 196.4414 325.5372)" class="st1 st2">공</text>
	<text transform="matrix(0.8747 0 0 1 203.5952 325.5372)" class="st1 st2">(</text>
	<text transform="matrix(0.8747 0 0 1 205.7817 325.5372)" class="st1 st2">135</text>
	<text transform="matrix(0.8747 0 0 1 217.5903 325.5372)" class="st1 st2">)</text>
	<text transform="matrix(0.8747 0 0 1 276.4717 333.0929)" class="st1 st2">심</text>
	<text transform="matrix(0.8747 0 0 1 283.5566 333.0929)" class="st1 st2">화</text>
	<text transform="matrix(0.8747 0 0 1 290.8169 333.0929)" class="st1 st2">전공</text>
	<text transform="matrix(0.8747 0 0 1 151.9204 340.6495)" class="st1 st2">전</text>
	<text transform="matrix(0.8747 0 0 1 159.0928 340.6495)" class="st1 st2">공기초</text>
	<text transform="matrix(0.8747 0 0 1 214.2397 340.6495)" class="st1 st2">전공</text>
	<text transform="matrix(0.8747 0 0 1 228.4971 340.6495)" class="st1 st2">일</text>
	<text transform="matrix(0.8747 0 0 1 235.6699 340.6495)" class="st1 st2">반</text>
	<text transform="matrix(0.8747 0 0 1 39.7295 368.8175)" class="st1 st2">9</text>
	<text transform="matrix(0.8747 0 0 1 100.0737 368.8175)" class="st1 st2">2</text>
	<text transform="matrix(0.8747 0 0 1 104.0098 368.8175)" class="st1 st2">1</text>
	<text transform="matrix(0.8747 0 0 1 162.3071 368.8175)" class="st1 st2">1</text>
	<text transform="matrix(0.8747 0 0 1 166.2432 368.8175)" class="st1 st2">5</text>
	<text transform="matrix(0.8747 0 0 1 222.5659 355.7648)" class="st1 st2">12</text>
	<text transform="matrix(0.8747 0 0 1 230.438 355.7648)" class="st1 st2">0</text>
	<text transform="matrix(0.8747 0 0 1 208.0581 368.8175)" class="st1 st2">전</text>
	<text transform="matrix(0.8747 0 0 1 215.2305 368.8175)" class="st1 st2">공필수</text>
	<text transform="matrix(0.8747 0 0 1 236.7295 368.8175)" class="st1 st2">(</text>
	<text transform="matrix(0.8747 0 0 1 238.916 368.8175)" class="st1 st2">99</text>
	<text transform="matrix(0.8747 0 0 1 246.7886 368.8175)" class="st1 st2">)</text>
	<text transform="matrix(0.8747 0 0 1 208.0581 381.9679)" class="st1 st2">전</text>
	<text transform="matrix(0.8747 0 0 1 215.2305 381.9679)" class="st1 st2">공선택</text>
	<text transform="matrix(0.8747 0 0 1 236.7295 381.9679)" class="st1 st2">(</text>
	<text transform="matrix(0.8747 0 0 1 238.916 381.9679)" class="st1 st2">21</text>
	<text transform="matrix(0.8747 0 0 1 246.7886 381.9679)" class="st1 st2">)</text>
	<text transform="matrix(0.8747 0 0 1 289.2617 368.8175)" class="st1 st2">-</text>
	<text transform="matrix(0.8747 0 0 1 351.0654 368.8175)" class="st1 st2">3</text>
	<text transform="matrix(0.8747 0 0 1 409.3506 368.8175)" class="st1 st2">16</text>
	<text transform="matrix(0.8747 0 0 1 417.2227 368.8175)" class="st1 st2">8</text>
</g>
<rect x="10.6" y="12.6" class="st0" width="238.6" height="25.9"/>
<path d="M128.8,25.5c-0.3,0.4-0.7,0.6-1.1,0.6c-0.4,0-0.7-0.2-1-0.5c-0.3-0.3-0.4-0.7-0.4-1.2c0-0.5,0.1-0.9,0.4-1.2
	c0.3-0.3,0.6-0.5,1-0.5c0.5,0,0.9,0.2,1.2,0.7h1.1v-0.8h0.4v4H130v-1H128.8z M127.7,23.1c-0.3,0-0.5,0.1-0.7,0.4
	c-0.2,0.2-0.3,0.5-0.3,0.9c0,0.4,0.1,0.7,0.3,0.9c0.2,0.2,0.4,0.3,0.7,0.3s0.5-0.1,0.7-0.3c0.2-0.2,0.3-0.5,0.3-0.9
	c0-0.4-0.1-0.7-0.3-0.9S128,23.1,127.7,23.1z M128.8,29.2c-0.6,0-1-0.1-1.3-0.4s-0.5-0.6-0.5-0.9s0.2-0.7,0.5-0.9s0.7-0.4,1.3-0.4
	s1,0.1,1.3,0.4c0.3,0.2,0.5,0.6,0.5,0.9c0,0.4-0.2,0.7-0.5,0.9C129.8,29.1,129.3,29.2,128.8,29.2z M128.8,27c-0.4,0-0.8,0.1-1,0.2
	c-0.2,0.2-0.3,0.4-0.3,0.6s0.1,0.5,0.3,0.6c0.2,0.2,0.6,0.2,1,0.2c0.4,0,0.8-0.1,1-0.2c0.2-0.2,0.3-0.4,0.3-0.6s-0.1-0.5-0.3-0.6
	C129.5,27.1,129.2,27,128.8,27z M129,25h1v-1.2h-1c0.1,0.2,0.1,0.4,0.1,0.6C129.1,24.6,129.1,24.8,129,25z"/>
<path d="M134.6,25.5c-0.3,0.4-0.7,0.6-1.1,0.6c-0.4,0-0.7-0.2-1-0.5c-0.3-0.3-0.4-0.7-0.4-1.2c0-0.5,0.1-0.9,0.4-1.2
	c0.3-0.3,0.6-0.5,1-0.5c0.5,0,0.9,0.2,1.2,0.7h1.1v-0.9h0.4v3.8h-0.4v-0.9H134.6z M133.5,23.1c-0.3,0-0.5,0.1-0.7,0.3
	c-0.2,0.2-0.3,0.5-0.3,0.9c0,0.4,0.1,0.7,0.3,0.9c0.2,0.2,0.4,0.3,0.7,0.3c0.3,0,0.5-0.1,0.7-0.3s0.3-0.5,0.3-0.9
	c0-0.4-0.1-0.7-0.3-0.9C134,23.3,133.7,23.1,133.5,23.1z M135.8,29.2v-2h-3.1v-0.5h3.5v2.5H135.8z M134.8,25h1v-1.1h-0.9
	c0,0.2,0.1,0.3,0.1,0.5C134.9,24.6,134.8,24.8,134.8,25z"/>
<rect x="249.3" y="12.6" class="st0" width="66.7" height="25.9"/>
<path d="M271.7,22.1c-0.1,2.2-0.9,3.9-2.5,5.2l-0.4-0.4c0.6-0.4,1.1-1,1.6-1.8c0.5-0.8,0.7-1.6,0.8-2.5h-2v-0.5H271.7z M273.9,29.1
	v-3.8h-0.8v3.6h-0.5v-7.3h0.5v3.2h0.8v-3.3h0.5v7.7H273.9z"/>
<path d="M279.5,25c-0.3-0.1-0.6-0.4-0.9-0.7c-0.3-0.3-0.5-0.6-0.7-0.9c-0.3,0.7-0.8,1.3-1.6,1.8l-0.4-0.4c0.5-0.3,0.9-0.7,1.2-1.1
	c0.3-0.4,0.5-0.9,0.5-1.4v-0.7h0.5v0.7c0,0.5,0.2,1,0.5,1.4c0.3,0.4,0.7,0.7,1.2,0.9L279.5,25z M277.2,28.9V27h3.6v-0.8h-3.6v-0.5
	h4.1v1.9h-3.6v0.9h3.8v0.5H277.2z M280.8,25.3v-1.9h-1.6v-0.5h1.6v-1.4h0.5v3.8H280.8z"/>
<path d="M283.2,22.8v-0.5h1.7v-0.9h0.5v0.9h1.7v0.5H283.2z M285.2,25.9c-0.5,0-0.9-0.1-1.2-0.4c-0.3-0.2-0.4-0.6-0.4-1
	c0-0.4,0.1-0.7,0.4-1c0.3-0.2,0.7-0.4,1.2-0.4s0.9,0.1,1.2,0.4c0.3,0.2,0.4,0.6,0.4,1c0,0.4-0.1,0.7-0.4,1
	C286.1,25.8,285.7,25.9,285.2,25.9z M287.8,29.1V27H284v-0.5h4.4v2.6H287.8z M285.2,23.7c-0.4,0-0.6,0.1-0.8,0.2
	c-0.2,0.2-0.3,0.4-0.3,0.6c0,0.2,0.1,0.4,0.3,0.6c0.2,0.2,0.5,0.2,0.8,0.2s0.6-0.1,0.8-0.2c0.2-0.2,0.3-0.4,0.3-0.6
	c0-0.2-0.1-0.4-0.3-0.6C285.8,23.8,285.5,23.7,285.2,23.7z M288.4,24.4v1.7h-0.5v-4.7h0.5v2.4h1v0.5H288.4z"/>
<path d="M293.9,25.4c-0.3-0.2-0.6-0.5-0.9-0.8s-0.5-0.7-0.6-1c-0.1,0.3-0.4,0.7-0.7,1.1s-0.6,0.7-0.9,0.9l-0.4-0.4
	c0.5-0.3,0.9-0.6,1.2-1.1c0.3-0.5,0.5-1,0.5-1.6v-0.2h-1.5v-0.5h3.5v0.5h-1.5v0.2c0,0.5,0.2,1,0.5,1.5s0.7,0.8,1.2,1L293.9,25.4z
	 M291.6,28.9v-2.8h4.1v2.8H291.6z M295.2,26.6h-3.1v1.7h3.1V26.6z M295.2,25.7v-2h-1.6v-0.5h1.6v-1.7h0.5v4.3H295.2z"/>
<rect x="316" y="12.6" class="st0" width="43.5" height="25.9"/>
<path d="M328.2,19.2c-0.3,0.1-0.7,0.1-1.2,0.1h-2.9v-0.5h0.9l-0.1-2.5h0.5l0.1,2.5h1.1l0.1-2.5h0.5l-0.1,2.4c0.4,0,0.8,0,1-0.1
	L328.2,19.2z M324.3,15.8v-0.5h3.6v0.5H324.3z M325.3,22.3v-2.3h0.5v1.8h3.8v0.5H325.3z M327.8,18.2v-0.5h1.2v-0.7h-1.2v-0.5h1.2
	v-1.6h0.5v5.6H329v-2.3H327.8z"/>
<path d="M334.6,18.8c-0.3-0.2-0.6-0.5-0.9-0.8c-0.3-0.3-0.5-0.7-0.6-1c-0.1,0.3-0.4,0.7-0.7,1.1s-0.6,0.7-0.9,0.9l-0.4-0.4
	c0.5-0.3,0.9-0.6,1.2-1.1c0.3-0.5,0.5-1,0.5-1.6v-0.8h0.5v0.8c0,0.5,0.2,1,0.5,1.5c0.3,0.5,0.7,0.8,1.2,1L334.6,18.8z M334.5,22.4
	c-0.7,0-1.2-0.1-1.6-0.4s-0.6-0.6-0.6-1.1c0-0.4,0.2-0.8,0.6-1.1c0.4-0.3,0.9-0.4,1.6-0.4c0.7,0,1.2,0.1,1.6,0.4
	c0.4,0.3,0.6,0.6,0.6,1.1c0,0.4-0.2,0.8-0.6,1.1C335.7,22.3,335.2,22.4,334.5,22.4z M334.5,19.9c-0.5,0-0.9,0.1-1.2,0.3
	c-0.3,0.2-0.4,0.4-0.4,0.7c0,0.3,0.1,0.5,0.4,0.7c0.3,0.2,0.7,0.3,1.2,0.3c0.5,0,0.9-0.1,1.2-0.3s0.4-0.4,0.4-0.7
	c0-0.3-0.1-0.5-0.4-0.7C335.4,20,335,19.9,334.5,19.9z M336,19.3V17h-1.6v-0.5h1.6v-1.6h0.5v4.4H336z"/>
<path d="M338.3,16.3v-0.5h1.7v-0.9h0.5v0.9h1.7v0.5H338.3z M340.3,19.3c-0.5,0-0.9-0.1-1.2-0.4c-0.3-0.2-0.4-0.6-0.4-1
	c0-0.4,0.1-0.7,0.4-1c0.3-0.2,0.7-0.4,1.2-0.4s0.9,0.1,1.2,0.4c0.3,0.2,0.4,0.6,0.4,1c0,0.4-0.1,0.7-0.4,1S340.8,19.3,340.3,19.3z
	 M343,22.5v-2.1h-3.9v-0.5h4.4v2.6H343z M340.3,17.2c-0.4,0-0.6,0.1-0.8,0.2c-0.2,0.2-0.3,0.4-0.3,0.6c0,0.2,0.1,0.4,0.3,0.6
	c0.2,0.2,0.5,0.2,0.8,0.2c0.4,0,0.6-0.1,0.8-0.2c0.2-0.2,0.3-0.4,0.3-0.6c0-0.2-0.1-0.4-0.3-0.6C340.9,17.2,340.6,17.2,340.3,17.2z
	 M343.5,17.8v1.7H343v-4.7h0.5v2.4h1v0.5H343.5z"/>
<path d="M349,18.8c-0.3-0.2-0.6-0.5-0.9-0.8c-0.3-0.3-0.5-0.7-0.6-1c-0.1,0.3-0.4,0.7-0.7,1.1s-0.6,0.7-0.9,0.9l-0.4-0.4
	c0.5-0.3,0.9-0.6,1.2-1.1c0.3-0.5,0.5-1,0.5-1.6v-0.2h-1.5v-0.5h3.5v0.5h-1.5v0.2c0,0.5,0.2,1,0.5,1.5c0.3,0.5,0.7,0.8,1.2,1
	L349,18.8z M346.7,22.3v-2.8h4.1v2.8H346.7z M350.3,20.1h-3.1v1.7h3.1V20.1z M350.3,19.1v-2h-1.6v-0.5h1.6v-1.7h0.5v4.3H350.3z"/>
<rect x="316" y="12.6" class="st0" width="43.5" height="25.9"/>
<path d="M331,34.5v-0.5h2.8v-1.9h0.5v1.9h2.8v0.5H331z M334.1,30c-0.2,0.4-0.5,0.8-1,1.2s-1,0.7-1.5,0.9l-0.4-0.5
	c0.8-0.2,1.4-0.6,1.9-1.1s0.7-1,0.7-1.5v-0.4h0.5V29c0,0.5,0.2,0.9,0.7,1.5c0.5,0.5,1.1,0.9,1.9,1.1l-0.4,0.5
	c-0.5-0.2-1-0.5-1.5-0.9S334.3,30.4,334.1,30z"/>
<path d="M342.1,35.4v-2.9h-1.4V32h1.4v-1.6h-1.2c-0.4,1.4-1.1,2.6-2.3,3.5l-0.4-0.4c0.6-0.4,1.1-1,1.6-1.8c0.5-0.8,0.7-1.6,0.8-2.5
	h-2v-0.5h2.5c0,0.5-0.1,0.8-0.1,1.2h1.1v-1.7h0.5v7.3H342.1z M343.3,35.7V28h0.5v7.7H343.3z"/>
<path d="M370.8,21.8h-0.7l-2.7-4.7c-0.1-0.1-0.1-0.2-0.2-0.4h0c0,0.2,0,0.4,0,0.8v4.3h-0.6v-5.9h0.7l2.6,4.7
	c0.1,0.2,0.2,0.3,0.2,0.4h0c0-0.2,0-0.5,0-0.9v-4.2h0.6V21.8z"/>
<path d="M375.7,21.5c-0.4,0.2-0.8,0.4-1.4,0.4c-0.7,0-1.3-0.3-1.7-0.8c-0.4-0.5-0.7-1.2-0.7-2.1c0-0.9,0.2-1.7,0.7-2.2
	c0.5-0.6,1.1-0.9,1.9-0.9c0.5,0,0.9,0.1,1.2,0.2v0.7c-0.4-0.2-0.8-0.3-1.2-0.3c-0.6,0-1.1,0.2-1.5,0.7c-0.4,0.5-0.5,1.1-0.5,1.8
	c0,0.7,0.2,1.3,0.5,1.7c0.3,0.4,0.8,0.7,1.4,0.7c0.5,0,1-0.1,1.3-0.4V21.5z"/>
<path d="M380.7,21.8H380l-0.6-1.7h-2.2l-0.5,1.7h-0.6l2-5.9h0.6L380.7,21.8z M379.3,19.5l-0.8-2.5c0-0.1-0.1-0.2-0.1-0.4h0
	c0,0.2-0.1,0.3-0.1,0.4l-0.8,2.5H379.3z"/>
<path d="M385.1,21.8h-0.7l-0.9-1.6c-0.2-0.4-0.3-0.6-0.5-0.7c-0.1-0.1-0.3-0.2-0.5-0.2H382v2.5h-0.6v-5.9h1.5c0.5,0,0.8,0.1,1.1,0.4
	s0.4,0.7,0.4,1.1c0,0.8-0.4,1.3-1.1,1.6v0c0.1,0.1,0.3,0.2,0.4,0.3c0.1,0.1,0.2,0.3,0.4,0.7L385.1,21.8z M382,16.5v2.2h0.8
	c0.3,0,0.6-0.1,0.8-0.3c0.2-0.2,0.3-0.5,0.3-0.8c0-0.3-0.1-0.6-0.3-0.7c-0.2-0.2-0.4-0.3-0.8-0.3H382z"/>
<path d="M385.8,21.8v-5.9h1.4c0.4,0,0.8,0.1,1,0.4c0.3,0.2,0.4,0.6,0.4,1c0,0.3-0.1,0.6-0.2,0.9s-0.4,0.4-0.6,0.5v0
	c0.3,0,0.6,0.2,0.8,0.4s0.3,0.6,0.3,1c0,0.5-0.2,0.9-0.5,1.2s-0.7,0.5-1.2,0.5H385.8z M386.4,16.5v1.9h0.6c0.3,0,0.6-0.1,0.8-0.3
	c0.2-0.2,0.3-0.4,0.3-0.8c0-0.6-0.3-0.9-1-0.9H386.4z M386.4,19.1v2.1h0.8c0.4,0,0.6-0.1,0.8-0.3c0.2-0.2,0.3-0.5,0.3-0.8
	c0-0.7-0.4-1.1-1.3-1.1H386.4z"/>
<rect x="359.5" y="12.6" class="st0" width="43.4" height="25.9"/>
<rect x="402.9" y="12.6" class="st0" width="43.5" height="25.9"/>
<rect x="402.9" y="12.6" class="st0" width="43.5" height="25.9"/>
<rect x="10.6" y="38.5" class="st0" width="55.6" height="45.3"/>
<rect x="66.3" y="38.5" class="st0" width="183" height="15.1"/>
<rect x="249.3" y="38.5" class="st0" width="66.7" height="15.1"/>
<rect x="316" y="38.5" class="st0" width="43.5" height="45.3"/>
<rect x="359.5" y="38.5" class="st0" width="43.4" height="45.3"/>
<rect x="402.9" y="38.5" class="st0" width="43.5" height="45.3"/>
<rect x="66.3" y="53.6" class="st0" width="183" height="15.1"/>
<rect x="249.3" y="53.6" class="st0" width="66.7" height="15.1"/>
<rect x="66.3" y="68.7" class="st0" width="183" height="15.1"/>
<rect x="249.3" y="68.7" class="st0" width="66.7" height="15.1"/>
<rect x="10.6" y="83.8" class="st0" width="55.6" height="196.5"/>
<rect x="66.3" y="83.8" class="st0" width="31.3" height="105.8"/>
<rect x="97.6" y="83.8" class="st0" width="151.7" height="15.1"/>
<rect x="249.3" y="83.8" class="st0" width="66.7" height="15.1"/>
<rect x="316" y="83.8" class="st0" width="43.5" height="15.1"/>
<rect x="359.5" y="83.8" class="st0" width="43.4" height="15.1"/>
<rect x="402.9" y="83.8" class="st0" width="43.5" height="15.1"/>
<rect x="97.6" y="98.9" class="st0" width="51.5" height="90.7"/>
<rect x="149.1" y="98.9" class="st0" width="100.2" height="15.1"/>
<rect x="249.3" y="98.9" class="st0" width="66.7" height="15.1"/>
<rect x="316" y="98.9" class="st0" width="43.5" height="90.7"/>
<rect x="359.5" y="98.9" class="st0" width="43.4" height="15.1"/>
<rect x="402.9" y="98.9" class="st0" width="43.5" height="15.1"/>
<rect x="149.1" y="114" class="st0" width="100.2" height="15.1"/>
<rect x="249.3" y="114" class="st0" width="66.7" height="15.1"/>
<rect x="359.5" y="114" class="st0" width="43.4" height="15.1"/>
<rect x="402.9" y="114" class="st0" width="43.5" height="15.1"/>
<rect x="149.1" y="129.2" class="st0" width="52.1" height="45.3"/>
<rect x="201.2" y="129.2" class="st0" width="48.1" height="15.1"/>
<rect x="249.3" y="129.2" class="st0" width="33.4" height="15.1"/>
<rect x="282.7" y="129.2" class="st0" width="33.3" height="45.3"/>
<rect x="359.5" y="129.2" class="st0" width="43.4" height="45.3"/>
<rect x="402.9" y="129.2" class="st0" width="43.5" height="45.3"/>
<rect x="201.2" y="144.3" class="st0" width="48.1" height="15.1"/>
<rect x="249.3" y="144.3" class="st0" width="33.4" height="15.1"/>
<rect x="201.2" y="159.4" class="st0" width="48.1" height="15.1"/>
<rect x="249.3" y="159.4" class="st0" width="33.4" height="15.1"/>
<rect x="149.1" y="174.5" class="st0" width="100.2" height="15.1"/>
<rect x="249.3" y="174.5" class="st0" width="66.7" height="15.1"/>
<rect x="359.5" y="174.5" class="st0" width="43.4" height="15.1"/>
<rect x="402.9" y="174.5" class="st0" width="43.5" height="15.1"/>
<rect x="66.3" y="189.6" class="st0" width="31.3" height="90.7"/>
<rect x="97.6" y="189.6" class="st0" width="51.5" height="90.7"/>
<rect x="149.1" y="189.6" class="st0" width="100.2" height="15.1"/>
<rect x="249.3" y="189.6" class="st0" width="66.7" height="15.1"/>
<rect x="316" y="189.6" class="st0" width="43.5" height="90.7"/>
<rect x="316" y="189.6" class="st0" width="43.5" height="90.7"/>
<rect x="316" y="189.6" class="st0" width="43.5" height="90.7"/>
<rect x="316" y="189.6" class="st0" width="43.5" height="90.7"/>
<rect x="316" y="189.6" class="st0" width="43.5" height="90.7"/>
<rect x="316" y="189.6" class="st0" width="43.5" height="90.7"/>
<rect x="359.5" y="189.6" class="st0" width="43.4" height="90.7"/>
<rect x="402.9" y="189.6" class="st0" width="43.5" height="90.7"/>
<rect x="149.1" y="204.7" class="st0" width="100.2" height="15.1"/>
<rect x="249.3" y="204.7" class="st0" width="66.7" height="15.1"/>
<rect x="149.1" y="219.8" class="st0" width="52.1" height="45.3"/>
<rect x="201.2" y="219.8" class="st0" width="48.1" height="15.1"/>
<rect x="249.3" y="219.8" class="st0" width="33.4" height="15.1"/>
<rect x="282.7" y="219.8" class="st0" width="33.3" height="45.3"/>
<rect x="201.2" y="235" class="st0" width="48.1" height="15.1"/>
<rect x="249.3" y="235" class="st0" width="33.4" height="15.1"/>
<rect x="201.2" y="250.1" class="st0" width="48.1" height="15.1"/>
<rect x="249.3" y="250.1" class="st0" width="33.4" height="15.1"/>
<rect x="149.1" y="265.2" class="st0" width="100.2" height="15.1"/>
<rect x="249.3" y="265.2" class="st0" width="66.7" height="15.1"/>
<rect x="10.6" y="280.3" class="st0" width="305.3" height="15.1"/>
<rect x="316" y="280.3" class="st0" width="43.5" height="15.1"/>
<rect x="359.5" y="280.3" class="st0" width="43.4" height="15.1"/>
<rect x="402.9" y="280.3" class="st0" width="43.5" height="15.1"/>
<line class="st3" x1="10.6" y1="12.6" x2="10.6" y2="295.4"/>
<line class="st3" x1="66.3" y1="38.5" x2="66.3" y2="280.3"/>
<line class="st3" x1="97.6" y1="83.8" x2="97.6" y2="280.3"/>
<line class="st3" x1="149.1" y1="98.9" x2="149.1" y2="280.3"/>
<line class="st3" x1="201.2" y1="129.2" x2="201.2" y2="174.5"/>
<line class="st3" x1="201.2" y1="219.8" x2="201.2" y2="265.2"/>
<line class="st3" x1="249.3" y1="12.6" x2="249.3" y2="280.3"/>
<line class="st3" x1="282.7" y1="129.2" x2="282.7" y2="174.5"/>
<line class="st3" x1="282.7" y1="219.8" x2="282.7" y2="265.2"/>
<line class="st3" x1="316" y1="12.6" x2="316" y2="295.4"/>
<line class="st3" x1="359.5" y1="12.6" x2="359.5" y2="295.4"/>
<line class="st3" x1="402.9" y1="12.6" x2="402.9" y2="295.4"/>
<line class="st3" x1="446.4" y1="12.6" x2="446.4" y2="295.4"/>
<line class="st3" x1="10.5" y1="12.6" x2="446.6" y2="12.6"/>
<line class="st3" x1="10.5" y1="38.5" x2="446.6" y2="38.5"/>
<line class="st3" x1="66.2" y1="53.6" x2="316.1" y2="53.6"/>
<line class="st3" x1="66.2" y1="68.7" x2="316.1" y2="68.7"/>
<line class="st3" x1="10.5" y1="83.8" x2="446.6" y2="83.8"/>
<line class="st3" x1="97.5" y1="98.9" x2="446.6" y2="98.9"/>
<line class="st3" x1="149" y1="114" x2="316.1" y2="114"/>
<line class="st3" x1="359.4" y1="114" x2="446.6" y2="114"/>
<line class="st3" x1="149" y1="129.2" x2="316.1" y2="129.2"/>
<line class="st3" x1="359.4" y1="129.2" x2="446.6" y2="129.2"/>
<line class="st3" x1="201.1" y1="144.3" x2="282.8" y2="144.3"/>
<line class="st3" x1="201.1" y1="159.4" x2="282.8" y2="159.4"/>
<line class="st3" x1="149" y1="174.5" x2="316.1" y2="174.5"/>
<line class="st3" x1="359.4" y1="174.5" x2="446.6" y2="174.5"/>
<line class="st3" x1="66.2" y1="189.6" x2="446.6" y2="189.6"/>
<line class="st3" x1="149" y1="204.7" x2="316.1" y2="204.7"/>
<line class="st3" x1="149" y1="219.8" x2="316.1" y2="219.8"/>
<line class="st3" x1="201.1" y1="235" x2="282.8" y2="235"/>
<line class="st3" x1="201.1" y1="250.1" x2="282.8" y2="250.1"/>
<line class="st3" x1="149" y1="265.2" x2="316.1" y2="265.2"/>
<line class="st3" x1="10.5" y1="280.3" x2="446.6" y2="280.3"/>
<line class="st3" x1="10.5" y1="295.4" x2="446.6" y2="295.4"/>
<line class="st3" x1="446.4" y1="12.6" x2="446.4" y2="295.4"/>
<line class="st3" x1="10.6" y1="12.6" x2="10.6" y2="295.4"/>
<line class="st3" x1="10.5" y1="295.4" x2="446.6" y2="295.4"/>
<line class="st3" x1="10.5" y1="12.6" x2="446.6" y2="12.6"/>
<rect x="10.6" y="300" class="st0" width="124.5" height="15.1"/>
<rect x="10.6" y="300" class="st0" width="124.5" height="15.1"/>
<rect x="135.1" y="300" class="st0" width="186.8" height="15.1"/>
<rect x="135.1" y="300" class="st0" width="186.8" height="15.1"/>
<rect x="321.9" y="300" class="st0" width="62.3" height="45.3"/>
<rect x="384.2" y="300" class="st0" width="62.1" height="45.3"/>
<rect x="10.6" y="315.1" class="st0" width="62.2" height="30.2"/>
<rect x="72.9" y="315.1" class="st0" width="62.2" height="30.2"/>
<rect x="135.1" y="315.1" class="st0" width="124.6" height="15.1"/>
<rect x="135.1" y="315.1" class="st0" width="124.6" height="15.1"/>
<rect x="259.6" y="315.1" class="st0" width="62.2" height="30.2"/>
<rect x="135.1" y="330.2" class="st0" width="62.3" height="15.1"/>
<rect x="197.4" y="330.2" class="st0" width="62.2" height="15.1"/>
<rect x="10.6" y="345.4" class="st0" width="62.2" height="41.3"/>
<rect x="72.9" y="345.4" class="st0" width="62.2" height="41.3"/>
<rect x="135.1" y="345.4" class="st0" width="62.3" height="41.3"/>
<rect x="197.4" y="345.4" class="st0" width="62.2" height="41.3"/>
<rect x="197.4" y="345.4" class="st0" width="62.2" height="41.3"/>
<rect x="197.4" y="345.4" class="st0" width="62.2" height="41.3"/>
<rect x="197.4" y="345.4" class="st0" width="62.2" height="41.3"/>
<rect x="197.4" y="345.4" class="st0" width="62.2" height="41.3"/>
<rect x="259.6" y="345.4" class="st0" width="62.2" height="41.3"/>
<rect x="321.9" y="345.4" class="st0" width="62.3" height="41.3"/>
<rect x="384.2" y="345.4" class="st0" width="62.1" height="41.3"/>
<line class="st3" x1="10.6" y1="300" x2="10.6" y2="386.7"/>
<line class="st3" x1="72.9" y1="315.1" x2="72.9" y2="386.7"/>
<line class="st3" x1="135.1" y1="300" x2="135.1" y2="386.7"/>
<line class="st3" x1="197.4" y1="330.2" x2="197.4" y2="386.7"/>
<line class="st3" x1="259.6" y1="315.1" x2="259.6" y2="386.7"/>
<line class="st3" x1="321.9" y1="300" x2="321.9" y2="386.7"/>
<line class="st3" x1="384.2" y1="300" x2="384.2" y2="386.7"/>
<line class="st3" x1="446.3" y1="300" x2="446.3" y2="386.7"/>
<line class="st3" x1="10.5" y1="300" x2="446.5" y2="300"/>
<line class="st3" x1="10.5" y1="315.1" x2="322.1" y2="315.1"/>
<line class="st3" x1="135" y1="330.2" x2="259.8" y2="330.2"/>
<line class="st3" x1="10.5" y1="345.4" x2="446.5" y2="345.4"/>
<line class="st3" x1="10.5" y1="386.7" x2="446.5" y2="386.7"/>
<line class="st3" x1="446.3" y1="300" x2="446.3" y2="386.7"/>
<line class="st3" x1="10.6" y1="300" x2="10.6" y2="386.7"/>
<line class="st3" x1="10.5" y1="386.7" x2="446.5" y2="386.7"/>
<line class="st3" x1="10.5" y1="300" x2="446.5" y2="300"/>
</svg>
