<?xml version="1.0" encoding="utf-8"?>
<!-- Generator: Adobe Illustrator 24.3.0, SVG Export Plug-In . SVG Version: 6.00 Build 0)  -->
<svg version="1.1" id="레이어_1" xmlns="http://www.w3.org/2000/svg" xmlns:xlink="http://www.w3.org/1999/xlink" x="0px"
	 y="0px" viewBox="0 0 453.5 226.8" style="enable-background:new 0 0 453.5 226.8;" xml:space="preserve">
<style type="text/css">
	.st0{fill:#FFFFFF;stroke:#076FB8;stroke-width:0.5;stroke-miterlimit:10;}
	.st1{fill:#9AACCA;}
	.st2{fill:#FFFFFF;}
	.st3{fill:#5A749B;stroke:#FFFFFF;stroke-width:2;stroke-miterlimit:10;}
	.st4{fill:none;stroke:#727171;stroke-width:0.2679;stroke-linecap:square;stroke-miterlimit:10;}
	.st5{fill:none;stroke:#727171;stroke-width:0.2653;stroke-linecap:square;stroke-miterlimit:10;}
	.st6{fill:none;stroke:#727171;stroke-width:0.2743;stroke-linecap:square;stroke-miterlimit:10;}
	.st7{fill:none;stroke:#727171;stroke-width:0.3197;stroke-linecap:square;stroke-miterlimit:10;}
	.st8{fill:none;stroke:#727171;stroke-width:0.199;stroke-linecap:square;stroke-miterlimit:10;}
	.st9{fill:none;stroke:#727171;stroke-width:0.2765;stroke-linecap:square;stroke-miterlimit:10;}
</style>
<rect x="267" y="59.8" class="st0" width="178.1" height="20.8"/>
<rect x="11.2" y="59" class="st1" width="185.4" height="49.5"/>
<g>
	<path class="st2" d="M23,77.1v1.8h3.2v0.6h-7.1v-0.6h3.2v-1.8h-2.1V73h0.6v1.5h3.6V73h0.6v4.1H23z M24.5,75.1h-3.6v1.4h3.6V75.1z"
		/>
	<path class="st2" d="M32,77c-0.3,0.1-0.8,0.1-1.3,0.1h-3.3v-0.6h1l-0.1-2.7h0.6l0.1,2.7h1.3l0.1-2.7h0.6l-0.1,2.7
		c0.5,0,0.9,0,1.2-0.1L32,77z M27.6,73.4v-0.6h4.1v0.6H27.6z M28.7,80.5v-2.6h0.6v2h4.4v0.6H28.7z M31.5,76v-0.6h1.4v-0.8h-1.4V74
		h1.4v-1.7h0.6v6.2h-0.6V76H31.5z"/>
	<path class="st2" d="M39.1,76.7c-0.3-0.2-0.7-0.5-1-0.9c-0.3-0.4-0.6-0.7-0.7-1c-0.1,0.4-0.4,0.7-0.7,1.2c-0.4,0.4-0.7,0.7-1.1,0.9
		l-0.4-0.4c0.6-0.3,1-0.7,1.4-1.3c0.4-0.5,0.5-1.1,0.5-1.7v-0.3h-1.7v-0.6h3.9v0.6h-1.7v0.3c0,0.6,0.2,1.1,0.6,1.6
		c0.4,0.5,0.8,0.9,1.3,1.1L39.1,76.7z M40.7,80.7v-2.5h-4.4v-0.6h5v3.1H40.7z M40.7,77.1v-2.4h-1.8v-0.6h1.8v-1.9h0.6v4.9H40.7z"/>
	<path class="st2" d="M45.5,76.9c-0.6,0-1-0.2-1.4-0.6c-0.4-0.4-0.6-0.9-0.6-1.6c0-0.6,0.2-1.2,0.6-1.6c0.4-0.4,0.9-0.6,1.4-0.6
		s1,0.2,1.4,0.6s0.6,0.9,0.6,1.6c0,0.6-0.2,1.2-0.6,1.6C46.6,76.7,46.1,76.9,45.5,76.9z M45.5,73.2c-0.4,0-0.8,0.1-1,0.4
		s-0.4,0.7-0.4,1.1s0.1,0.9,0.4,1.1c0.3,0.3,0.6,0.4,1,0.4s0.8-0.1,1-0.4c0.3-0.3,0.4-0.7,0.4-1.1s-0.1-0.9-0.4-1.1
		S45.9,73.2,45.5,73.2z M44.5,80.4v-2.8h0.6v2.2h4.4v0.6H44.5z M48.7,78.5v-6.2h0.6v6.2H48.7z"/>
	<path class="st2" d="M56.1,76.9c-0.6,0-1-0.2-1.4-0.6c-0.4-0.4-0.6-0.9-0.6-1.6c0-0.6,0.2-1.2,0.6-1.6c0.4-0.4,0.9-0.6,1.4-0.6
		s1,0.2,1.4,0.6s0.6,0.9,0.6,1.6c0,0.6-0.2,1.2-0.6,1.6C57.2,76.7,56.7,76.9,56.1,76.9z M56.1,73.2c-0.4,0-0.8,0.1-1,0.4
		s-0.4,0.7-0.4,1.1s0.1,0.9,0.4,1.1c0.3,0.3,0.6,0.4,1,0.4s0.8-0.1,1-0.4c0.3-0.3,0.4-0.7,0.4-1.1s-0.1-0.9-0.4-1.1
		S56.6,73.2,56.1,73.2z M55.1,80.4v-2.8h0.6v2.2h4.4v0.6H55.1z M59.3,78.5v-6.2h0.6v6.2H59.3z"/>
	<path class="st2" d="M64.8,78.9v-1.7h-3.3v-0.6h7.1v0.6h-3.2v1.7H64.8z M62.6,80.5v-2.5h0.6v2h4.4v0.6H62.6z M62.7,75.6v-3h4.7v3
		H62.7z M66.8,73.2h-3.5V75h3.5V73.2z"/>
	<path class="st2" d="M69.5,73.8v-0.6h2v-1h0.6v1H74v0.6H69.5z M71.8,77.2c-0.6,0-1-0.1-1.4-0.4c-0.3-0.3-0.5-0.6-0.5-1.1
		c0-0.4,0.2-0.8,0.5-1.1c0.3-0.3,0.8-0.4,1.4-0.4s1.1,0.1,1.4,0.4c0.3,0.3,0.5,0.6,0.5,1.1c0,0.4-0.2,0.8-0.5,1.1
		S72.4,77.2,71.8,77.2z M74.8,80.7v-2.3h-4.4v-0.6h5v2.9H74.8z M71.8,74.8c-0.4,0-0.7,0.1-1,0.3s-0.4,0.4-0.4,0.7
		c0,0.3,0.1,0.5,0.3,0.7c0.2,0.2,0.5,0.3,1,0.3c0.4,0,0.7-0.1,1-0.3c0.2-0.2,0.3-0.4,0.3-0.7c0-0.3-0.1-0.5-0.3-0.7
		S72.2,74.8,71.8,74.8z M75.4,75.5v1.9h-0.6v-5.2h0.6v2.7h1.2v0.6H75.4z"/>
	<path class="st2" d="M81.5,76.7c-0.3-0.2-0.7-0.5-1-0.9c-0.3-0.4-0.6-0.7-0.7-1c-0.1,0.4-0.4,0.7-0.7,1.2c-0.4,0.4-0.7,0.7-1.1,0.9
		l-0.4-0.4c0.6-0.3,1-0.7,1.4-1.3c0.4-0.5,0.5-1.1,0.5-1.7v-0.3h-1.7v-0.6h3.9v0.6H80v0.3c0,0.6,0.2,1.1,0.6,1.6
		c0.4,0.5,0.8,0.9,1.3,1.1L81.5,76.7z M83.1,80.7v-2.5h-4.4v-0.6h5v3.1H83.1z M83.1,77.1v-2.4h-1.8v-0.6h1.8v-1.9h0.6v4.9H83.1z"/>
	<path class="st2" d="M88,79.4v-0.6h3.2v-2.1h0.6v2.1h3.2v0.6H88z M91.5,74.4c-0.2,0.5-0.6,0.9-1.1,1.4c-0.5,0.4-1.1,0.8-1.7,1
		l-0.4-0.5c0.9-0.2,1.6-0.6,2.1-1.2c0.5-0.6,0.8-1.1,0.8-1.6v-0.4h0.6v0.4c0,0.5,0.3,1,0.8,1.6s1.2,1,2.1,1.2l-0.4,0.5
		c-0.6-0.2-1.2-0.5-1.7-1S91.7,74.9,91.5,74.4z"/>
	<path class="st2" d="M98.2,76.6c-0.6,0-1-0.2-1.4-0.6c-0.4-0.4-0.5-0.9-0.5-1.5c0-0.6,0.2-1.1,0.5-1.5s0.8-0.6,1.4-0.6
		c0.6,0,1,0.2,1.4,0.6c0.4,0.4,0.5,0.9,0.5,1.5c0,0.6-0.2,1.1-0.5,1.5C99.2,76.4,98.7,76.6,98.2,76.6z M98.2,73.1
		c-0.4,0-0.7,0.1-1,0.4c-0.2,0.3-0.4,0.6-0.4,1.1c0,0.4,0.1,0.8,0.4,1.1s0.6,0.4,1,0.4c0.4,0,0.7-0.1,1-0.4s0.4-0.6,0.4-1.1
		c0-0.4-0.1-0.8-0.4-1.1C98.9,73.2,98.6,73.1,98.2,73.1z M99.6,80.6c-0.8,0-1.4-0.2-1.8-0.5c-0.4-0.3-0.6-0.7-0.6-1.2
		c0-0.5,0.2-0.9,0.6-1.2s1-0.5,1.8-0.5c0.8,0,1.4,0.2,1.8,0.5c0.4,0.3,0.6,0.7,0.6,1.2s-0.2,0.9-0.6,1.2
		C101,80.5,100.4,80.6,99.6,80.6z M99.6,77.8c-0.6,0-1,0.1-1.4,0.3c-0.3,0.2-0.5,0.5-0.5,0.8c0,0.3,0.2,0.6,0.5,0.8s0.8,0.3,1.4,0.3
		c0.6,0,1.1-0.1,1.4-0.3c0.3-0.2,0.5-0.5,0.5-0.8c0-0.3-0.2-0.6-0.5-0.8C100.6,77.9,100.2,77.8,99.6,77.8z M101.9,76v1.2h-0.6v-4.9
		h0.6v1.3h1.2v0.6h-1.2v1.3h1.2V76H101.9z"/>
	<path class="st2" d="M103.9,76.5V76h7.1v0.5H103.9z M107.4,75.3c-0.8,0-1.4-0.1-1.8-0.4c-0.4-0.3-0.6-0.6-0.6-1.1
		c0-0.5,0.2-0.8,0.6-1.1c0.4-0.3,1-0.4,1.8-0.4c0.8,0,1.4,0.1,1.8,0.4c0.4,0.3,0.6,0.6,0.6,1.1c0,0.5-0.2,0.8-0.6,1.1
		S108.2,75.3,107.4,75.3z M105,80.6v-1.9h4.2v-0.8H105v-0.5h4.8v1.9h-4.2v0.9h4.4v0.5H105z M107.4,72.8c-0.6,0-1,0.1-1.4,0.3
		s-0.5,0.4-0.5,0.7c0,0.3,0.2,0.5,0.5,0.7s0.8,0.3,1.4,0.3c0.6,0,1-0.1,1.3-0.3c0.3-0.2,0.5-0.4,0.5-0.7c0-0.3-0.2-0.5-0.5-0.7
		S108,72.8,107.4,72.8z"/>
	<path class="st2" d="M118.4,72.6c-0.1,1-0.4,1.9-1,2.6S116,76.6,115,77l-0.4-0.5c0.9-0.3,1.6-0.8,2.2-1.4s0.9-1.2,1-1.9h-2.7v-0.6
		H118.4z M120.7,80.5c-0.5-0.1-1.1-0.3-1.6-0.6c-0.5-0.3-0.9-0.7-1.2-1.1c-0.2,0.4-0.6,0.8-1.1,1.1c-0.5,0.3-1,0.6-1.6,0.7l-0.3-0.5
		c0.7-0.1,1.3-0.3,1.8-0.7c0.5-0.4,0.8-0.8,0.9-1.3h-2.3v-0.6h5.2V78h-2.3c0.1,0.4,0.4,0.8,0.9,1.3c0.5,0.4,1.1,0.7,1.8,0.7
		L120.7,80.5z M120.5,75.1v1.9h-0.6v-4.7h0.6v2.2h1.2v0.6H120.5z"/>
	<path class="st2" d="M126.3,77.6v3.2h-0.6v-3.2h-3.2V77h7.1v0.6H126.3z M128.8,76.1c-0.5-0.1-1.1-0.4-1.7-0.7s-1-0.7-1.1-1
		c-0.2,0.3-0.5,0.6-1,0.9s-1.1,0.6-1.8,0.7l-0.4-0.6c0.7-0.1,1.4-0.3,1.9-0.7s0.9-0.8,1-1.3h-2.4V73h2.5v-0.9h0.6V73h2.4v0.6h-2.4
		c0.1,0.4,0.4,0.8,0.9,1.2c0.5,0.4,1.2,0.6,2,0.8L128.8,76.1z"/>
	<path class="st2" d="M130.4,79.2v-0.6h2.8v-2.8h0.6v2.8h3.7v0.6H130.4z M136.1,77.6l-0.6-0.1c0.1-0.9,0.1-1.8,0.1-2.6v-1.3h-4.3
		v-0.6h4.9V75C136.3,75.8,136.3,76.7,136.1,77.6z"/>
	<path class="st2" d="M142.1,76v1.9h0.4c1.6,0,2.6,0,3.1-0.1l0,0.6c-0.4,0.1-0.9,0.1-1.4,0.1c-0.5,0-1.4,0-2.7,0V73h3.6v0.6h-3v1.8
		h2.8V76H142.1z M146.9,76.2v4.6h-0.6v-8.5h0.6v3.3h1.3v0.6H146.9z"/>
	<path class="st2" d="M154.9,78.9v-1.7h-3.3v-0.6h7.1v0.6h-3.2v1.7H154.9z M152.7,80.5v-2.5h0.6v2h4.4v0.6H152.7z M152.8,75.6v-3
		h4.7v3H152.8z M156.9,73.2h-3.5V75h3.5V73.2z"/>
	<path class="st2" d="M162.3,77.5v1.2c0.9,0,1.7,0,2.3-0.1l0,0.6c-1.4,0.1-3.1,0.1-5.2,0.1l-0.1-0.6c0.7,0,1.5,0,2.3,0v-1.2
		c-0.5-0.1-0.9-0.2-1.2-0.5c-0.3-0.3-0.4-0.6-0.4-1c0-0.5,0.2-0.8,0.5-1.1s0.8-0.4,1.4-0.4c0.6,0,1.1,0.1,1.4,0.4
		c0.3,0.3,0.5,0.6,0.5,1.1c0,0.4-0.1,0.8-0.4,1.1C163.2,77.3,162.9,77.4,162.3,77.5z M161.8,72.3h0.6v1.1h2V74h-4.6v-0.6h2V72.3z
		 M162,75c-0.4,0-0.7,0.1-1,0.3c-0.2,0.2-0.4,0.4-0.4,0.7s0.1,0.5,0.4,0.7c0.2,0.2,0.6,0.3,1,0.3c0.4,0,0.7-0.1,1-0.3
		s0.4-0.4,0.4-0.7c0-0.3-0.1-0.5-0.4-0.7C162.8,75.1,162.5,75,162,75z M165.7,76.6v4.1h-0.6v-8.5h0.6V76h1.2v0.6H165.7z"/>
	<path class="st2" d="M170.2,76.9v1.7c1.1,0,1.8-0.1,2.3-0.1l0,0.6c-0.4,0-1.1,0.1-2.3,0.1c-1.2,0-2.1,0-2.7,0l-0.1-0.6
		c0.8,0,1.6,0,2.3,0v-1.7c-0.5-0.1-1-0.3-1.3-0.7c-0.3-0.4-0.5-0.8-0.5-1.4c0-0.6,0.2-1.1,0.6-1.5s0.9-0.6,1.5-0.6
		c0.6,0,1.1,0.2,1.4,0.6c0.4,0.4,0.6,0.9,0.6,1.5c0,0.5-0.2,1-0.5,1.4C171.2,76.6,170.8,76.9,170.2,76.9z M169.9,73.5
		c-0.4,0-0.8,0.1-1,0.4c-0.3,0.3-0.4,0.6-0.4,1.1c0,0.4,0.1,0.8,0.4,1.1s0.6,0.4,1,0.4c0.4,0,0.8-0.1,1-0.4s0.4-0.6,0.4-1
		c0-0.4-0.1-0.8-0.4-1.1S170.3,73.5,169.9,73.5z M173.6,76.3v4.4H173v-8.5h0.6v3.4h1.2v0.6H173.6z"/>
	<path class="st2" d="M179.3,76v1.9h0.4c1.6,0,2.6,0,3.1-0.1l0,0.6c-0.4,0.1-0.9,0.1-1.4,0.1c-0.5,0-1.4,0-2.7,0V73h3.6v0.6h-3v1.8
		h2.8V76H179.3z M184.1,76.2v4.6h-0.6v-8.5h0.6v3.3h1.3v0.6H184.1z"/>
	<path class="st2" d="M22.1,89.4c-0.4-0.4-0.8-0.8-1.2-1.4c-0.4-0.5-0.6-1-0.7-1.4c-0.1,0.4-0.4,0.9-0.7,1.5c-0.4,0.6-0.8,1-1.2,1.4
		l-0.5-0.4c0.6-0.5,1.1-1.1,1.5-1.8c0.4-0.7,0.6-1.5,0.6-2.2v-1.4h0.6V85c0,0.7,0.2,1.5,0.6,2.2c0.4,0.7,0.9,1.3,1.5,1.7L22.1,89.4z
		 M23.8,87.1v4.4h-0.6v-8.5h0.6v3.4h1.3v0.6H23.8z"/>
	<path class="st2" d="M28.7,88.3v1.2l1.4-0.1c0.4,0,0.7,0,0.9,0l0,0.6c-0.4,0-1.2,0.1-2.4,0.1c-1.2,0-2.1,0-2.7,0l-0.1-0.6
		c0.8,0,1.5,0,2.3,0v-1.2c-0.5-0.1-0.9-0.2-1.2-0.5s-0.4-0.6-0.4-1c0-0.5,0.2-0.8,0.5-1.1s0.8-0.4,1.4-0.4c0.6,0,1.1,0.1,1.4,0.4
		c0.3,0.3,0.5,0.6,0.5,1.1c0,0.4-0.1,0.8-0.4,1.1C29.6,88.1,29.2,88.3,28.7,88.3z M28.1,83.1h0.6v1.1h2v0.6h-4.6v-0.6h2V83.1z
		 M28.4,85.8c-0.4,0-0.7,0.1-1,0.3c-0.2,0.2-0.4,0.4-0.4,0.7c0,0.3,0.1,0.5,0.3,0.7s0.6,0.3,1,0.3c0.4,0,0.7-0.1,1-0.3
		s0.3-0.4,0.3-0.7c0-0.3-0.1-0.5-0.4-0.7S28.8,85.8,28.4,85.8z M31.6,91.5v-8.5h0.6v8.5H31.6z"/>
	<path class="st2" d="M37.4,86.8c0,0.8-0.2,1.5-0.5,1.9c-0.3,0.5-0.7,0.7-1.2,0.7c-0.5,0-0.9-0.2-1.2-0.7c-0.3-0.5-0.4-1.2-0.4-2.1
		s0.1-1.6,0.4-2.1c0.3-0.5,0.7-0.7,1.2-0.7c0.5,0,0.9,0.2,1.2,0.7s0.4,1.1,0.5,1.9h0.9v-3h0.6v8h-0.6v-4.5H37.4z M35.7,84.2
		c-0.4,0-0.6,0.2-0.8,0.6s-0.3,1-0.3,1.7s0.1,1.3,0.3,1.7c0.2,0.4,0.5,0.6,0.8,0.6c0.4,0,0.6-0.2,0.8-0.6c0.2-0.4,0.3-1,0.3-1.7
		s-0.1-1.3-0.3-1.7C36.3,84.4,36.1,84.2,35.7,84.2z M39.6,91.5v-8.5h0.6v8.5H39.6z"/>
	<path class="st2" d="M47.7,83.8c-0.1,2.4-1,4.3-2.9,5.7l-0.5-0.4c0.7-0.4,1.3-1.1,1.8-1.9c0.5-0.9,0.8-1.8,0.9-2.8h-2.3v-0.6H47.7z
		 M50.2,91.5v-4.2h-0.9v4h-0.6v-8h0.6v3.5h0.9v-3.7h0.6v8.5H50.2z"/>
	<path class="st2" d="M52.7,87.4v-4h0.6v1.5h2.3v-1.5h0.6v4H52.7z M55.7,85.5h-2.3v1.4h2.3V85.5z M55.9,91.4c-0.8,0-1.4-0.1-1.8-0.4
		c-0.4-0.3-0.6-0.7-0.6-1.1c0-0.5,0.2-0.8,0.6-1.1s1-0.4,1.8-0.4c0.8,0,1.4,0.1,1.8,0.4c0.4,0.3,0.6,0.7,0.6,1.1
		c0,0.5-0.2,0.9-0.6,1.2C57.3,91.3,56.7,91.4,55.9,91.4z M55.9,88.9c-0.6,0-1.1,0.1-1.4,0.3s-0.5,0.4-0.5,0.7c0,0.3,0.2,0.6,0.5,0.7
		s0.8,0.3,1.4,0.3c0.6,0,1.1-0.1,1.4-0.3c0.3-0.2,0.5-0.4,0.5-0.7c0-0.3-0.2-0.6-0.5-0.7S56.5,88.9,55.9,88.9z M58.3,86v2.1h-0.6v-5
		h0.6v2.4h1.2V86H58.3z"/>
	<path class="st2" d="M64.3,87.5c-0.3-0.2-0.7-0.5-1-0.9c-0.3-0.4-0.6-0.7-0.7-1c-0.1,0.4-0.4,0.7-0.7,1.2c-0.4,0.4-0.7,0.7-1.1,0.9
		l-0.4-0.4c0.6-0.3,1-0.7,1.4-1.3c0.4-0.5,0.5-1.1,0.5-1.7V84h-1.7v-0.6h3.9V84h-1.7v0.3c0,0.6,0.2,1.1,0.6,1.6
		c0.4,0.5,0.8,0.9,1.3,1.1L64.3,87.5z M65.9,91.5V89h-4.4v-0.6h5v3.1H65.9z M65.9,87.9v-2.4h-1.8V85h1.8v-1.9h0.6v4.9H65.9z"/>
	<path class="st2" d="M70.5,89.4c-0.6,0-1-0.3-1.4-0.8s-0.5-1.2-0.5-2.1c0-0.9,0.2-1.6,0.5-2.1c0.4-0.5,0.8-0.8,1.4-0.8
		c0.6,0,1.1,0.3,1.4,0.8c0.4,0.5,0.5,1.2,0.5,2.1c0,0.9-0.2,1.6-0.5,2.1C71.6,89.1,71.1,89.4,70.5,89.4z M70.5,84.2
		c-0.4,0-0.7,0.2-1,0.6c-0.3,0.4-0.4,1-0.4,1.7c0,0.7,0.1,1.2,0.4,1.7s0.6,0.6,1,0.6c0.4,0,0.7-0.2,1-0.6s0.4-1,0.4-1.7
		c0-0.7-0.1-1.3-0.4-1.7S71,84.2,70.5,84.2z M73.9,91.5v-8.5h0.6v8.5H73.9z"/>
	<path class="st2" d="M76.6,89.1v-5.3h3.6v1.3h1.6v-2h0.6v8.5h-0.6v-3.7h-1.6v1.3H76.6z M79.6,84.4h-2.4v4.1h2.4V84.4z M80.2,87.3
		h1.6v-1.6h-1.6V87.3z"/>
	<path class="st2" d="M89.1,90v-2h-2.4v-0.6h7.1V88h-2.1v2h-0.6v-2h-1.4v2H89.1z M87.8,91.3v-2.4h0.6v1.8h4.4v0.6H87.8z M90.3,86.5
		c-0.8,0-1.3-0.2-1.8-0.5s-0.6-0.7-0.6-1.2c0-0.5,0.2-0.9,0.6-1.2s1-0.5,1.8-0.5c0.8,0,1.4,0.2,1.8,0.5c0.4,0.3,0.6,0.7,0.6,1.2
		c0,0.5-0.2,0.9-0.6,1.2C91.6,86.4,91,86.5,90.3,86.5z M90.3,83.8c-0.6,0-1,0.1-1.3,0.3c-0.3,0.2-0.5,0.5-0.5,0.8
		c0,0.3,0.2,0.6,0.5,0.8c0.3,0.2,0.7,0.3,1.3,0.3s1-0.1,1.3-0.3c0.3-0.2,0.5-0.5,0.5-0.8c0-0.3-0.2-0.6-0.5-0.8
		C91.3,83.9,90.8,83.8,90.3,83.8z"/>
	<path class="st2" d="M95.2,89.7v-3.4h2.9v-2h-2.9v-0.6h3.5v3.1h-2.9v2.2c1.9,0,3.1-0.1,3.6-0.2l0.1,0.6
		C98.9,89.6,97.5,89.7,95.2,89.7z M100.3,91.5v-8.5h0.6v8.5H100.3z"/>
	<path class="st2" d="M106.7,87.5c-0.3-0.2-0.7-0.5-1-0.9c-0.3-0.4-0.6-0.7-0.7-1c-0.1,0.4-0.4,0.7-0.7,1.2
		c-0.4,0.4-0.7,0.7-1.1,0.9l-0.4-0.4c0.6-0.3,1-0.7,1.4-1.3c0.4-0.5,0.5-1.1,0.5-1.7V84H103v-0.6h3.9V84h-1.7v0.3
		c0,0.6,0.2,1.1,0.6,1.6c0.4,0.5,0.8,0.9,1.3,1.1L106.7,87.5z M108.3,91.5V89h-4.4v-0.6h5v3.1H108.3z M108.3,87.9v-2.4h-1.8V85h1.8
		v-1.9h0.6v4.9H108.3z"/>
	<path class="st2" d="M113.1,87.7c-0.6,0-1-0.2-1.4-0.6c-0.4-0.4-0.6-0.9-0.6-1.6c0-0.6,0.2-1.2,0.6-1.6c0.4-0.4,0.9-0.6,1.4-0.6
		s1,0.2,1.4,0.6s0.6,0.9,0.6,1.6c0,0.6-0.2,1.2-0.6,1.6C114.2,87.5,113.7,87.7,113.1,87.7z M113.1,84c-0.4,0-0.8,0.1-1,0.4
		s-0.4,0.7-0.4,1.1s0.1,0.9,0.4,1.1c0.3,0.3,0.6,0.4,1,0.4s0.8-0.1,1-0.4c0.3-0.3,0.4-0.7,0.4-1.1s-0.1-0.9-0.4-1.1
		S113.5,84,113.1,84z M112.1,91.2v-2.8h0.6v2.2h4.4v0.6H112.1z M116.3,89.3v-6.2h0.6v6.2H116.3z"/>
	<path class="st2" d="M124.6,89.6c-0.7-0.7-1.2-1.6-1.4-2.6c-0.1,0.4-0.3,0.9-0.6,1.4c-0.3,0.5-0.6,1-1,1.3l-0.5-0.4
		c0.4-0.4,0.8-0.9,1.2-1.7c0.3-0.8,0.5-1.5,0.5-2.2v-1.7h0.6v1.7c0,0.7,0.2,1.4,0.5,2.1c0.3,0.7,0.7,1.3,1.1,1.7L124.6,89.6z
		 M125.6,91.3v-4.7h-1.3V86h1.3v-2.7h0.6v8H125.6z M127,91.5v-8.5h0.6v8.5H127z"/>
	<path class="st2" d="M133.6,91.3V88H132v-0.6h1.6v-1.8h-1.4c-0.4,1.6-1.3,2.8-2.6,3.8l-0.5-0.4c0.7-0.4,1.3-1.1,1.8-1.9
		c0.5-0.9,0.8-1.8,0.9-2.8h-2.3v-0.6h2.9c0,0.5-0.1,0.9-0.1,1.3h1.2v-1.8h0.6v8H133.6z M135,91.5v-8.5h0.6v8.5H135z"/>
	<path class="st2" d="M141.3,89.4c-0.4-0.4-0.8-0.8-1.2-1.4c-0.4-0.5-0.6-1-0.7-1.4c-0.1,0.5-0.4,1-0.7,1.5s-0.8,1-1.2,1.4l-0.5-0.4
		c0.6-0.5,1.1-1.1,1.5-1.8c0.4-0.7,0.6-1.5,0.6-2.2v-1.4h0.6V85c0,0.7,0.2,1.4,0.6,2.1c0.4,0.7,0.9,1.3,1.5,1.7L141.3,89.4z
		 M142.8,91.5v-8.5h0.6v8.5H142.8z"/>
	<path class="st2" d="M145.8,87.6v-4h3.5v4H145.8z M148.7,84.2h-2.4V87h2.4V84.2z M146.6,91.2v-2.7h0.6v2.1h4.3v0.6H146.6z
		 M150.7,89.3v-6.2h0.6v6.2H150.7z"/>
	<path class="st2" d="M157.8,87.4c-0.6,0-1-0.2-1.4-0.6c-0.4-0.4-0.5-0.9-0.5-1.5c0-0.6,0.2-1.1,0.5-1.5s0.8-0.6,1.4-0.6
		c0.6,0,1,0.2,1.4,0.6c0.4,0.4,0.5,0.9,0.5,1.5c0,0.6-0.2,1.1-0.5,1.5C158.8,87.2,158.4,87.4,157.8,87.4z M157.8,83.9
		c-0.4,0-0.7,0.1-1,0.4c-0.2,0.3-0.4,0.6-0.4,1.1c0,0.4,0.1,0.8,0.4,1.1s0.6,0.4,1,0.4c0.4,0,0.7-0.1,1-0.4s0.4-0.6,0.4-1.1
		c0-0.4-0.1-0.8-0.4-1.1C158.5,84,158.2,83.9,157.8,83.9z M159.2,91.4c-0.8,0-1.4-0.2-1.8-0.5c-0.4-0.3-0.6-0.7-0.6-1.2
		c0-0.5,0.2-0.9,0.6-1.2s1-0.5,1.8-0.5c0.8,0,1.4,0.2,1.8,0.5c0.4,0.3,0.6,0.7,0.6,1.2s-0.2,0.9-0.6,1.2
		C160.6,91.3,160,91.4,159.2,91.4z M159.2,88.6c-0.6,0-1,0.1-1.4,0.3c-0.3,0.2-0.5,0.5-0.5,0.8c0,0.3,0.2,0.6,0.5,0.8
		s0.8,0.3,1.4,0.3c0.6,0,1.1-0.1,1.4-0.3c0.3-0.2,0.5-0.5,0.5-0.8c0-0.3-0.2-0.6-0.5-0.8C160.3,88.7,159.8,88.6,159.2,88.6z
		 M161.6,86.8V88H161v-4.9h0.6v1.3h1.2v0.6h-1.2v1.3h1.2v0.6H161.6z"/>
	<path class="st2" d="M167.6,87.5c-0.3-0.2-0.7-0.5-1-0.9c-0.3-0.4-0.6-0.7-0.7-1.1c-0.2,0.4-0.4,0.8-0.8,1.2
		c-0.4,0.4-0.7,0.7-1.1,1l-0.4-0.5c0.5-0.3,1-0.7,1.4-1.3s0.6-1.1,0.6-1.7v-0.9h0.6v0.9c0,0.6,0.2,1.1,0.6,1.6
		c0.4,0.5,0.8,0.9,1.3,1.1L167.6,87.5z M167.5,91.4c-0.8,0-1.4-0.2-1.8-0.5c-0.4-0.3-0.7-0.7-0.7-1.2s0.2-0.9,0.6-1.2
		c0.4-0.3,1-0.5,1.8-0.5s1.4,0.2,1.8,0.5c0.4,0.3,0.6,0.7,0.6,1.2s-0.2,0.9-0.7,1.2C168.9,91.3,168.3,91.4,167.5,91.4z M167.5,88.7
		c-0.6,0-1.1,0.1-1.4,0.3c-0.3,0.2-0.5,0.5-0.5,0.8c0,0.3,0.2,0.6,0.5,0.8s0.8,0.3,1.4,0.3c0.6,0,1.1-0.1,1.4-0.3
		c0.3-0.2,0.5-0.5,0.5-0.8c0-0.3-0.2-0.6-0.5-0.8C168.6,88.8,168.1,88.7,167.5,88.7z M169.3,88v-2.5h-1.8v-0.6h1.8v-1.8h0.6V88
		H169.3z"/>
	<path class="st2" d="M171.5,90.1v-0.6h1.8v-2.9h0.6v2.9h1.4v-2.9h0.6v2.9h2.7v0.6H171.5z M177.4,88.5l-0.6-0.1
		c0.1-0.8,0.1-1.7,0.1-2.7v-1.2h-4.5v-0.6h5.1v1.8C177.5,86.5,177.5,87.4,177.4,88.5z"/>
	<path class="st2" d="M184.7,91.5v-2.2h-4.3v-0.6h1v-1.1h-2V87h7.1v0.6h-2v1.1h0.9v2.8H184.7z M183,86.3c-0.8,0-1.4-0.1-1.8-0.4
		s-0.6-0.7-0.6-1.2c0-0.5,0.2-0.9,0.6-1.2c0.4-0.3,1-0.4,1.8-0.4c0.8,0,1.4,0.1,1.8,0.4s0.6,0.7,0.6,1.2c0,0.5-0.2,0.9-0.6,1.2
		S183.7,86.3,183,86.3z M183,83.7c-1.2,0-1.8,0.3-1.8,1c0,0.3,0.2,0.6,0.5,0.7s0.8,0.3,1.4,0.3s1.1-0.1,1.4-0.3
		c0.3-0.2,0.5-0.4,0.5-0.7C184.8,84,184.2,83.7,183,83.7z M183.9,88.8v-1.1H182v1.1H183.9z"/>
</g>
<g>
	<path d="M321.9,69.6v1.8h3.2V72h-7.1v-0.6h3.2v-1.8h-2.1v-4.1h0.6V67h3.6v-1.5h0.6v4.1H321.9z M323.4,67.6h-3.6V69h3.6V67.6z"/>
	<path d="M331,69.6c-0.3,0.1-0.8,0.1-1.3,0.1h-3.3v-0.6h1l-0.1-2.7h0.6l0.1,2.7h1.3l0.1-2.7h0.6l-0.1,2.7c0.5,0,0.9,0,1.2-0.1
		L331,69.6z M326.5,65.9v-0.6h4.1v0.6H326.5z M327.6,73v-2.6h0.6v2h4.4V73H327.6z M330.4,68.5v-0.6h1.4v-0.8h-1.4v-0.6h1.4v-1.7h0.6
		V71h-0.6v-2.5H330.4z"/>
	<path d="M338.1,69.2c-0.3-0.2-0.7-0.5-1-0.9c-0.3-0.4-0.6-0.7-0.7-1c-0.1,0.4-0.4,0.7-0.7,1.2c-0.4,0.4-0.7,0.7-1.1,0.9l-0.4-0.4
		c0.6-0.3,1-0.7,1.4-1.3c0.4-0.5,0.5-1.1,0.5-1.7v-0.3h-1.7v-0.6h3.9v0.6h-1.7V66c0,0.6,0.2,1.1,0.6,1.6c0.4,0.5,0.8,0.9,1.3,1.1
		L338.1,69.2z M339.6,73.3v-2.5h-4.4v-0.6h5v3.1H339.6z M339.6,69.7v-2.4h-1.8v-0.6h1.8v-1.9h0.6v4.9H339.6z"/>
	<path d="M347.2,69.4c-0.6,0-1-0.2-1.4-0.6c-0.4-0.4-0.6-0.9-0.6-1.6c0-0.6,0.2-1.2,0.6-1.6c0.4-0.4,0.9-0.6,1.4-0.6s1,0.2,1.4,0.6
		s0.6,0.9,0.6,1.6c0,0.6-0.2,1.2-0.6,1.6C348.2,69.2,347.7,69.4,347.2,69.4z M347.2,65.7c-0.4,0-0.8,0.1-1,0.4s-0.4,0.7-0.4,1.1
		s0.1,0.9,0.4,1.1c0.3,0.3,0.6,0.4,1,0.4s0.8-0.1,1-0.4c0.3-0.3,0.4-0.7,0.4-1.1s-0.1-0.9-0.4-1.1S347.6,65.7,347.2,65.7z
		 M346.1,72.9v-2.8h0.6v2.2h4.4v0.6H346.1z M350.3,71v-6.2h0.6V71H350.3z"/>
	<path d="M355.8,71.4v-1.7h-3.3v-0.6h7.1v0.6h-3.2v1.7H355.8z M353.6,73v-2.5h0.6v2h4.4V73H353.6z M353.7,68.1v-3h4.7v3H353.7z
		 M357.8,65.7h-3.5v1.9h3.5V65.7z"/>
	<path d="M360.5,66.4v-0.6h2v-1h0.6v1h1.9v0.6H360.5z M362.8,69.7c-0.6,0-1-0.1-1.4-0.4c-0.3-0.3-0.5-0.6-0.5-1.1
		c0-0.4,0.2-0.8,0.5-1.1c0.3-0.3,0.8-0.4,1.4-0.4s1.1,0.1,1.4,0.4c0.3,0.3,0.5,0.6,0.5,1.1c0,0.4-0.2,0.8-0.5,1.1
		S363.4,69.7,362.8,69.7z M365.9,73.3V71h-4.4v-0.6h5v2.9H365.9z M362.8,67.4c-0.4,0-0.7,0.1-1,0.3s-0.4,0.4-0.4,0.7
		c0,0.3,0.1,0.5,0.3,0.7c0.2,0.2,0.5,0.3,1,0.3c0.4,0,0.7-0.1,1-0.3c0.2-0.2,0.3-0.4,0.3-0.7c0-0.3-0.1-0.5-0.3-0.7
		S363.2,67.4,362.8,67.4z M366.4,68v1.9h-0.6v-5.2h0.6v2.7h1.2V68H366.4z"/>
	<path d="M372.5,69.2c-0.3-0.2-0.7-0.5-1-0.9c-0.3-0.4-0.6-0.7-0.7-1c-0.1,0.4-0.4,0.7-0.7,1.2c-0.4,0.4-0.7,0.7-1.1,0.9l-0.4-0.4
		c0.6-0.3,1-0.7,1.4-1.3c0.4-0.5,0.5-1.1,0.5-1.7v-0.3h-1.7v-0.6h3.9v0.6H371V66c0,0.6,0.2,1.1,0.6,1.6c0.4,0.5,0.8,0.9,1.3,1.1
		L372.5,69.2z M374.1,73.3v-2.5h-4.4v-0.6h5v3.1H374.1z M374.1,69.7v-2.4h-1.8v-0.6h1.8v-1.9h0.6v4.9H374.1z"/>
	<path d="M379,71.9v-0.6h3.2v-2.1h0.6v2.1h3.2v0.6H379z M382.6,67c-0.2,0.5-0.6,0.9-1.1,1.4c-0.5,0.4-1.1,0.8-1.7,1l-0.4-0.5
		c0.9-0.2,1.6-0.6,2.1-1.2c0.5-0.6,0.8-1.1,0.8-1.6v-0.4h0.6v0.4c0,0.5,0.3,1,0.8,1.6s1.2,1,2.1,1.2l-0.4,0.5
		c-0.6-0.2-1.2-0.5-1.7-1S382.8,67.4,382.6,67z"/>
	<path d="M389.2,69.1c-0.6,0-1-0.2-1.4-0.6c-0.4-0.4-0.5-0.9-0.5-1.5c0-0.6,0.2-1.1,0.5-1.5s0.8-0.6,1.4-0.6c0.6,0,1,0.2,1.4,0.6
		c0.4,0.4,0.5,0.9,0.5,1.5c0,0.6-0.2,1.1-0.5,1.5C390.2,68.9,389.7,69.1,389.2,69.1z M389.2,65.6c-0.4,0-0.7,0.1-1,0.4
		c-0.2,0.3-0.4,0.6-0.4,1.1c0,0.4,0.1,0.8,0.4,1.1s0.6,0.4,1,0.4c0.4,0,0.7-0.1,1-0.4s0.4-0.6,0.4-1.1c0-0.4-0.1-0.8-0.4-1.1
		C389.9,65.7,389.6,65.6,389.2,65.6z M390.6,73.2c-0.8,0-1.4-0.2-1.8-0.5c-0.4-0.3-0.6-0.7-0.6-1.2c0-0.5,0.2-0.9,0.6-1.2
		s1-0.5,1.8-0.5c0.8,0,1.4,0.2,1.8,0.5c0.4,0.3,0.6,0.7,0.6,1.2s-0.2,0.9-0.6,1.2C392,73,391.4,73.2,390.6,73.2z M390.6,70.4
		c-0.6,0-1,0.1-1.4,0.3c-0.3,0.2-0.5,0.5-0.5,0.8c0,0.3,0.2,0.6,0.5,0.8s0.8,0.3,1.4,0.3c0.6,0,1.1-0.1,1.4-0.3
		c0.3-0.2,0.5-0.5,0.5-0.8c0-0.3-0.2-0.6-0.5-0.8C391.6,70.5,391.2,70.4,390.6,70.4z M392.9,68.5v1.2h-0.6v-4.9h0.6V66h1.2v0.6h-1.2
		v1.3h1.2v0.6H392.9z"/>
</g>
<rect x="267" y="87" class="st0" width="178.1" height="20.8"/>
<g>
	<path d="M325.4,92.7c-0.1,2.4-1,4.3-2.9,5.7l-0.5-0.4c0.7-0.4,1.3-1.1,1.8-1.9c0.5-0.9,0.8-1.8,0.9-2.8h-2.3v-0.6H325.4z
		 M327.9,100.5v-4.2H327v4h-0.6v-8h0.6v3.5h0.9V92h0.6v8.5H327.9z"/>
	<path d="M330.4,96.4v-4h0.6v1.5h2.3v-1.5h0.6v4H330.4z M333.4,94.4H331v1.4h2.3V94.4z M333.6,100.4c-0.8,0-1.4-0.1-1.8-0.4
		c-0.4-0.3-0.6-0.7-0.6-1.1c0-0.5,0.2-0.8,0.6-1.1s1-0.4,1.8-0.4c0.8,0,1.4,0.1,1.8,0.4c0.4,0.3,0.6,0.7,0.6,1.1
		c0,0.5-0.2,0.9-0.6,1.2C335,100.2,334.4,100.4,333.6,100.4z M333.6,97.8c-0.6,0-1.1,0.1-1.4,0.3s-0.5,0.4-0.5,0.7
		c0,0.3,0.2,0.6,0.5,0.7s0.8,0.3,1.4,0.3c0.6,0,1.1-0.1,1.4-0.3c0.3-0.2,0.5-0.4,0.5-0.7c0-0.3-0.2-0.6-0.5-0.7
		S334.2,97.8,333.6,97.8z M336,94.9V97h-0.6v-5h0.6v2.4h1.2v0.6H336z"/>
	<path d="M342,96.5c-0.3-0.2-0.7-0.5-1-0.9c-0.3-0.4-0.6-0.7-0.7-1c-0.1,0.4-0.4,0.7-0.7,1.2c-0.4,0.4-0.7,0.7-1.1,0.9l-0.4-0.4
		c0.6-0.3,1-0.7,1.4-1.3c0.4-0.5,0.5-1.1,0.5-1.7V93h-1.7v-0.6h3.9V93h-1.7v0.3c0,0.6,0.2,1.1,0.6,1.6c0.4,0.5,0.8,0.9,1.3,1.1
		L342,96.5z M343.6,100.5V98h-4.4v-0.6h5v3.1H343.6z M343.6,96.9v-2.4h-1.8v-0.6h1.8V92h0.6v4.9H343.6z"/>
	<path d="M353.9,100.5v-2.6h-4.3v-0.6h2.1v-1.6h-3.2v-0.6h5.3c0-0.5,0.1-1.2,0.1-2.3h-4.2v-0.6h4.8c0,1,0,1.9-0.1,2.9h1.2v0.6h-3.3
		v1.6h2.1v3.2H353.9z"/>
	<path d="M359.9,98.5c-0.7-0.7-1.2-1.6-1.4-2.6c-0.1,0.4-0.3,0.9-0.6,1.4c-0.3,0.5-0.6,1-1,1.3l-0.5-0.4c0.4-0.4,0.8-0.9,1.2-1.7
		c0.3-0.8,0.5-1.5,0.5-2.2v-1h-1.4v-0.6h3.4v0.6h-1.4v1c0,0.7,0.2,1.4,0.5,2.1c0.3,0.7,0.7,1.3,1.1,1.7L359.9,98.5z M361,100.2v-4.7
		h-1.3v-0.6h1.3v-2.7h0.6v8H361z M362.4,100.5V92h0.6v8.5H362.4z"/>
	<path d="M367.2,97.2v1.2c0.9,0,1.7,0,2.3-0.1l0,0.6c-1.4,0.1-3.1,0.1-5.2,0.1l-0.1-0.6c0.7,0,1.5,0,2.3,0v-1.2
		c-0.5-0.1-0.9-0.2-1.2-0.5c-0.3-0.3-0.4-0.6-0.4-1c0-0.5,0.2-0.8,0.5-1.1s0.8-0.4,1.4-0.4c0.6,0,1.1,0.1,1.4,0.4
		c0.3,0.3,0.5,0.6,0.5,1.1c0,0.4-0.1,0.8-0.4,1.1C368.1,97,367.7,97.2,367.2,97.2z M366.6,92h0.6v1.1h2v0.6h-4.6v-0.6h2V92z
		 M366.9,94.7c-0.4,0-0.7,0.1-1,0.3c-0.2,0.2-0.4,0.4-0.4,0.7s0.1,0.5,0.4,0.7c0.2,0.2,0.6,0.3,1,0.3c0.4,0,0.7-0.1,1-0.3
		s0.4-0.4,0.4-0.7c0-0.3-0.1-0.5-0.4-0.7C367.6,94.8,367.3,94.7,366.9,94.7z M370.5,96.4v4.1H370V92h0.6v3.8h1.2v0.6H370.5z"/>
	<path d="M375.1,96.4v-0.6h7.1v0.6H375.1z M378.6,100.4c-0.8,0-1.4-0.1-1.8-0.4c-0.4-0.3-0.6-0.7-0.6-1.2c0-0.5,0.2-0.9,0.6-1.1
		c0.4-0.3,1-0.4,1.8-0.4c0.8,0,1.4,0.1,1.8,0.4c0.4,0.3,0.6,0.7,0.6,1.1c0,0.5-0.2,0.9-0.6,1.2C380,100.2,379.4,100.4,378.6,100.4z
		 M376.3,94.9v-2.7h0.6v2.1h4.2v0.6H376.3z M378.6,97.8c-0.6,0-1.1,0.1-1.4,0.3c-0.3,0.2-0.5,0.4-0.5,0.7s0.2,0.6,0.5,0.7
		c0.3,0.2,0.8,0.3,1.4,0.3c0.6,0,1.1-0.1,1.4-0.3c0.3-0.2,0.5-0.4,0.5-0.7c0-0.3-0.2-0.6-0.5-0.7S379.2,97.8,378.6,97.8z"/>
	<path d="M387.3,96.5c-0.4,0.1-0.8,0.1-1.2,0.1s-1.2,0-2.4,0v-2.5h2.6V93h-2.6v-0.6h3.1v2.3h-2.6v1.4h0.9c0.9,0,1.5,0,2-0.1
		L387.3,96.5z M388.7,100.5v-2.4h-4.4v-0.6h5v3H388.7z M387.3,95.5v-0.6h1.4v-1h-1.4v-0.6h1.4V92h0.6v5h-0.6v-1.5H387.3z"/>
</g>
<rect x="267" y="114.9" class="st0" width="178.1" height="20.8"/>
<rect x="11.2" y="114.2" class="st1" width="185.4" height="49.5"/>
<g>
	<path class="st2" d="M38.2,129.8c-0.5-0.4-0.9-0.9-1.2-1.4s-0.6-1-0.7-1.4c-0.1,0.4-0.3,0.9-0.7,1.5c-0.4,0.5-0.7,1-1.2,1.4
		l-0.4-0.5c0.6-0.5,1.1-1.1,1.5-1.8s0.5-1.5,0.5-2.2v-0.7h-1.7v-0.6h4v0.6h-1.7v0.7c0,0.8,0.2,1.5,0.6,2.2c0.4,0.7,0.8,1.3,1.4,1.7
		L38.2,129.8z M39.6,131.9v-8.5h0.6v8.5H39.6z"/>
	<path class="st2" d="M46,127.1c-0.4,0.5-0.9,0.8-1.6,0.8c-0.6,0-1-0.2-1.4-0.6c-0.4-0.4-0.6-0.9-0.6-1.6c0-0.6,0.2-1.2,0.6-1.6
		c0.4-0.4,0.8-0.6,1.4-0.6c0.7,0,1.3,0.3,1.7,0.9h1.6v-1.1h0.6v4.8h-0.6v-1.1H46z M44.4,124.2c-0.4,0-0.7,0.1-1,0.4
		c-0.3,0.3-0.4,0.7-0.4,1.2s0.1,0.9,0.4,1.2s0.6,0.4,1,0.4c0.4,0,0.8-0.1,1-0.4s0.4-0.7,0.4-1.2s-0.1-0.9-0.4-1.2
		C45.2,124.4,44.8,124.2,44.4,124.2z M47.6,131.8v-2.5h-4.3v-0.6h4.9v3.1H47.6z M46.3,126.6h1.4v-1.4h-1.3c0.1,0.2,0.1,0.4,0.1,0.7
		C46.4,126.1,46.3,126.3,46.3,126.6z"/>
	<path class="st2" d="M49.9,130.4l-0.1-0.6c0.7,0,1.6,0,2.8,0c1.2,0,2-0.1,2.4-0.1l0,0.6c-0.4,0-1.2,0.1-2.5,0.1
		S50.5,130.4,49.9,130.4z M52.4,128.1c-0.6,0-1-0.2-1.4-0.6s-0.6-0.9-0.6-1.5c0-0.6,0.2-1.1,0.6-1.4s0.9-0.6,1.4-0.6
		c0.6,0,1.1,0.2,1.4,0.6c0.4,0.4,0.6,0.9,0.6,1.4c0,0.6-0.2,1.1-0.6,1.5C53.5,127.9,53,128.1,52.4,128.1z M52.4,124.7
		c-0.4,0-0.7,0.1-1,0.4c-0.3,0.3-0.4,0.6-0.4,1c0,0.4,0.1,0.8,0.4,1c0.3,0.3,0.6,0.4,1,0.4c0.4,0,0.7-0.1,1-0.4
		c0.3-0.3,0.4-0.6,0.4-1s-0.1-0.8-0.4-1S52.8,124.7,52.4,124.7z M55.6,131.9v-8.5h0.6v8.5H55.6z"/>
	<path class="st2" d="M64.6,128.2c-0.4-0.3-0.7-0.6-1.1-1c-0.3-0.4-0.6-0.8-0.7-1.1c-0.1,0.4-0.4,0.8-0.8,1.3
		c-0.4,0.5-0.7,0.8-1.1,1l-0.4-0.5c0.5-0.3,1-0.8,1.4-1.4c0.4-0.6,0.6-1.2,0.6-1.8v-0.3h-1.7v-0.6h3.9v0.6h-1.7v0.3
		c0,0.6,0.2,1.1,0.6,1.7c0.4,0.6,0.8,1,1.3,1.2L64.6,128.2z M62,131.6v-2.8h0.6v2.2h4.3v0.6H62z M66.1,129.5v-3.3h-1.8v-0.6h1.8
		v-2.1h0.6v6H66.1z"/>
	<path class="st2" d="M68.4,128.3v-0.6h3.2v-0.9h-2.1v-3.3h4.8v0.6h-4.2v0.8h4v0.6h-4v0.8h4.3v0.6h-2.2v0.9h3.2v0.6H68.4z
		 M71.9,131.9c-0.8,0-1.4-0.1-1.9-0.4c-0.4-0.3-0.6-0.6-0.6-1.1s0.2-0.8,0.6-1.1c0.4-0.3,1-0.4,1.9-0.4s1.4,0.1,1.9,0.4
		c0.4,0.3,0.6,0.6,0.6,1.1s-0.2,0.8-0.6,1.1C73.3,131.8,72.7,131.9,71.9,131.9z M71.9,129.4c-1.2,0-1.9,0.3-1.9,1s0.6,1,1.9,1
		s1.9-0.3,1.9-1S73.2,129.4,71.9,129.4z"/>
	<path class="st2" d="M77.1,130.1l-0.7,2.2H76l0.5-2.2H77.1z"/>
	<path class="st2" d="M84.1,127.7c-0.3-0.2-0.6-0.5-0.9-0.8s-0.5-0.7-0.6-1c-0.1,0.3-0.3,0.7-0.6,1.1c-0.3,0.4-0.6,0.7-1,1l-0.4-0.4
		c0.5-0.3,0.9-0.7,1.2-1.2c0.3-0.5,0.5-1.1,0.5-1.6v-0.9h0.6v0.9c0,0.5,0.2,1.1,0.5,1.5s0.7,0.8,1.1,1.1L84.1,127.7z M84.5,131.8
		c-0.8,0-1.4-0.2-1.9-0.5c-0.4-0.3-0.7-0.7-0.7-1.2s0.2-0.9,0.7-1.2s1.1-0.5,1.9-0.5c0.8,0,1.4,0.2,1.9,0.5c0.4,0.3,0.7,0.7,0.7,1.2
		s-0.2,0.9-0.7,1.2C85.9,131.6,85.3,131.8,84.5,131.8z M84.5,129.1c-0.6,0-1.1,0.1-1.4,0.3s-0.5,0.5-0.5,0.8c0,0.3,0.2,0.6,0.5,0.8
		c0.3,0.2,0.8,0.3,1.4,0.3c0.6,0,1.1-0.1,1.4-0.3c0.3-0.2,0.5-0.5,0.5-0.8c0-0.3-0.2-0.6-0.5-0.8S85.1,129.1,84.5,129.1z
		 M86.4,128.4v-2.1h-0.9v1.9h-0.6v-4.5h0.6v2.1h0.9v-2.2H87v4.9H86.4z"/>
	<path class="st2" d="M89.7,127.2v1.9H90c1,0,1.8,0,2.3-0.1l0,0.6c-0.8,0.1-1.8,0.1-3.2,0.1v-5.5h3v0.6h-2.4v1.9h2.2v0.6H89.7z
		 M94.5,131.9v-4.4h-1v4.1h-0.6v-8h0.6v3.3h1v-3.5h0.6v8.5H94.5z"/>
	<path class="st2" d="M97.2,130.1l-0.7,2.2h-0.4l0.5-2.2H97.2z"/>
	<path class="st2" d="M104.1,130.1v-1.7h-3.3v-0.6h7.1v0.6h-3.2v1.7H104.1z M101.9,131.7v-2.5h0.6v2h4.4v0.6H101.9z M102,126.8v-3
		h4.7v3H102z M106.1,124.3h-3.5v1.9h3.5V124.3z"/>
	<path class="st2" d="M111.5,128.7v1.2c0.9,0,1.7,0,2.3-0.1l0,0.6c-1.4,0.1-3.1,0.1-5.2,0.1l-0.1-0.6c0.7,0,1.5,0,2.3,0v-1.2
		c-0.5-0.1-0.9-0.2-1.2-0.5c-0.3-0.3-0.4-0.6-0.4-1c0-0.5,0.2-0.8,0.5-1.1s0.8-0.4,1.4-0.4c0.6,0,1.1,0.1,1.4,0.4
		c0.3,0.3,0.5,0.6,0.5,1.1c0,0.4-0.1,0.8-0.4,1.1C112.4,128.5,112,128.6,111.5,128.7z M110.9,123.5h0.6v1.1h2v0.6h-4.6v-0.6h2V123.5
		z M111.2,126.1c-0.4,0-0.7,0.1-1,0.3c-0.2,0.2-0.4,0.4-0.4,0.7s0.1,0.5,0.4,0.7c0.2,0.2,0.6,0.3,1,0.3c0.4,0,0.7-0.1,1-0.3
		s0.4-0.4,0.4-0.7c0-0.3-0.1-0.5-0.4-0.7C111.9,126.2,111.6,126.1,111.2,126.1z M114.8,127.8v4.1h-0.6v-8.5h0.6v3.8h1.2v0.6H114.8z"
		/>
	<path class="st2" d="M117.4,130.1l-0.7,2.2h-0.4l0.5-2.2H117.4z"/>
	<path class="st2" d="M125,127.5c-0.8-0.5-1.4-1.1-1.8-1.8c-0.1,0.4-0.4,0.7-0.7,1.1c-0.4,0.4-0.7,0.7-1.1,0.9l-0.4-0.5
		c0.5-0.3,1-0.7,1.4-1.2s0.6-1,0.6-1.6v-0.8h0.6v0.8c0,0.5,0.2,1,0.5,1.5c0.4,0.5,0.8,0.8,1.3,1L125,127.5z M124.2,131.6
		c-0.4,0-1.3,0.1-2.5,0.1v-2.1h1.7v-0.8h-1.7v-0.6h2.3v1.9h-1.7v0.9h0.2c0.8,0,1.4,0,1.7-0.1L124.2,131.6z M124.6,131.7v-3.4h2.3
		v3.4H124.6z M126.3,128.8h-1.2v2.3h1.2V128.8z M126.9,126.2v1.5h-0.6v-4.3h0.6v2.2h1.2v0.6H126.9z"/>
	<path class="st2" d="M132.5,127.2c0,0.8-0.2,1.5-0.5,1.9c-0.3,0.5-0.7,0.7-1.2,0.7c-0.5,0-0.9-0.2-1.2-0.7
		c-0.3-0.5-0.4-1.2-0.4-2.1s0.1-1.6,0.4-2.1c0.3-0.5,0.7-0.7,1.2-0.7c0.5,0,0.9,0.2,1.2,0.7s0.4,1.1,0.5,1.9h0.9v-3h0.6v8h-0.6v-4.5
		H132.5z M130.9,124.6c-0.4,0-0.6,0.2-0.8,0.6s-0.3,1-0.3,1.7s0.1,1.3,0.3,1.7c0.2,0.4,0.5,0.6,0.8,0.6c0.4,0,0.6-0.2,0.8-0.6
		c0.2-0.4,0.3-1,0.3-1.7s-0.1-1.3-0.3-1.7C131.5,124.8,131.2,124.6,130.9,124.6z M134.8,131.9v-8.5h0.6v8.5H134.8z"/>
	<path class="st2" d="M143.7,124.2c0,1.2-0.3,2.3-0.9,3.2c-0.6,1-1.4,1.8-2.5,2.5l-0.5-0.5c0.8-0.4,1.5-1,2.1-1.8
		c0.6-0.8,1-1.8,1.1-2.8h-2.9v-0.6H143.7z M145.2,131.9v-8.5h0.6v8.5H145.2z"/>
	<path class="st2" d="M147.9,128.1v-4.3h0.6v1.6h2.3v-1.6h0.6v4.3H147.9z M150.8,126.1h-2.3v1.5h2.3V126.1z M148.8,131.7V129h0.6v2
		h4.3v0.6H148.8z M153.4,126.7v3h-0.6v-6.2h0.6v2.6h1.2v0.6H153.4z"/>
	<path class="st2" d="M155.5,125.4v-0.6h2v-1.3h0.6v1.3h2v0.6H155.5z M157.7,129.8c-0.6,0-1-0.2-1.4-0.5c-0.4-0.4-0.5-0.8-0.5-1.3
		c0-0.5,0.2-1,0.5-1.4c0.4-0.4,0.8-0.5,1.4-0.5c0.6,0,1,0.2,1.4,0.5c0.4,0.4,0.5,0.8,0.5,1.4c0,0.5-0.2,1-0.5,1.3
		C158.8,129.6,158.3,129.8,157.7,129.8z M157.7,126.6c-0.4,0-0.7,0.1-1,0.4c-0.3,0.3-0.4,0.6-0.4,0.9c0,0.4,0.1,0.7,0.4,0.9
		c0.3,0.3,0.6,0.4,1,0.4s0.7-0.1,1-0.4c0.3-0.3,0.4-0.6,0.4-0.9c0-0.4-0.1-0.7-0.4-0.9C158.4,126.7,158.1,126.6,157.7,126.6z
		 M161.3,127.9v4h-0.6v-8.5h0.6v3.9h1.3v0.6H161.3z"/>
	<path class="st2" d="M167.4,128.6c-0.3,0.8-0.9,1.2-1.6,1.2c-0.6,0-1-0.3-1.4-0.8c-0.4-0.5-0.5-1.2-0.5-2.1c0-0.9,0.2-1.6,0.5-2.1
		c0.3-0.5,0.8-0.8,1.4-0.8c0.7,0,1.3,0.4,1.6,1.2h1.6v-1.7h0.6v8.5H169v-3.3H167.4z M165.7,124.6c-0.4,0-0.7,0.2-1,0.6
		s-0.4,1-0.4,1.7c0,0.7,0.1,1.3,0.4,1.7s0.6,0.6,1,0.6c0.4,0,0.7-0.2,1-0.6c0.3-0.4,0.4-1,0.4-1.7c0-0.7-0.1-1.3-0.4-1.7
		C166.5,124.8,166.2,124.6,165.7,124.6z M167.6,128h1.4v-2.3h-1.4c0.1,0.3,0.1,0.7,0.1,1.1C167.7,127.3,167.6,127.7,167.6,128z"/>
	<path class="st2" d="M24.7,140.6c-0.5-0.4-0.9-0.9-1.2-1.4s-0.6-1-0.7-1.4c-0.1,0.4-0.3,0.9-0.7,1.5c-0.4,0.5-0.7,1-1.2,1.4
		l-0.4-0.5c0.6-0.5,1.1-1.1,1.5-1.8s0.5-1.5,0.5-2.2v-0.7h-1.7V135h4v0.6h-1.7v0.7c0,0.8,0.2,1.5,0.6,2.2c0.4,0.7,0.8,1.3,1.4,1.7
		L24.7,140.6z M26.2,142.7v-8.5h0.6v8.5H26.2z"/>
	<path class="st2" d="M32.6,137.9c-0.4,0.5-0.9,0.8-1.6,0.8c-0.6,0-1-0.2-1.4-0.6c-0.4-0.4-0.6-0.9-0.6-1.6c0-0.6,0.2-1.2,0.6-1.6
		c0.4-0.4,0.8-0.6,1.4-0.6c0.7,0,1.3,0.3,1.7,0.9h1.6v-1.1h0.6v4.8h-0.6v-1.1H32.6z M30.9,135c-0.4,0-0.7,0.1-1,0.4
		c-0.3,0.3-0.4,0.7-0.4,1.2s0.1,0.9,0.4,1.2s0.6,0.4,1,0.4c0.4,0,0.8-0.1,1-0.4s0.4-0.7,0.4-1.2s-0.1-0.9-0.4-1.2
		C31.7,135.2,31.4,135,30.9,135z M34.2,142.6v-2.5h-4.3v-0.6h4.9v3.1H34.2z M32.8,137.4h1.4v-1.4h-1.3c0.1,0.2,0.1,0.4,0.1,0.7
		C32.9,136.9,32.9,137.1,32.8,137.4z"/>
	<path class="st2" d="M39.5,138.1v-3.6h0.6v1.3h2.3v-1.3H43v3.6H39.5z M42.4,136.4h-2.3v1.1h2.3V136.4z M40.4,142.6v-2.1h4.1v-0.9
		h-4.1V139H45v2.1h-4.1v1h4.3v0.6H40.4z M45,136.9v1.7h-0.6v-4.3H45v2.1h1.2v0.6H45z"/>
	<path class="st2" d="M51.1,139c-0.4-0.3-0.7-0.6-1.1-1c-0.3-0.4-0.6-0.8-0.7-1.1c-0.1,0.4-0.4,0.8-0.8,1.3c-0.4,0.5-0.7,0.8-1.1,1
		l-0.4-0.5c0.5-0.3,1-0.8,1.4-1.4c0.4-0.6,0.6-1.2,0.6-1.8v-0.3h-1.7v-0.6h3.9v0.6h-1.7v0.3c0,0.6,0.2,1.1,0.6,1.7
		c0.4,0.6,0.8,1,1.3,1.2L51.1,139z M48.5,142.4v-2.8h0.6v2.2h4.3v0.6H48.5z M52.6,140.3V137h-1.8v-0.6h1.8v-2.1h0.6v6H52.6z"/>
	<path class="st2" d="M54.9,138.5V138H62v0.5H54.9z M58.5,137.3c-0.8,0-1.4-0.1-1.8-0.4c-0.4-0.3-0.6-0.6-0.6-1.1
		c0-0.5,0.2-0.8,0.6-1.1c0.4-0.3,1-0.4,1.8-0.4c0.8,0,1.4,0.1,1.8,0.4c0.4,0.3,0.6,0.6,0.6,1.1c0,0.5-0.2,0.8-0.6,1.1
		S59.2,137.3,58.5,137.3z M56.1,142.6v-1.9h4.2v-0.8h-4.2v-0.5h4.8v1.9h-4.2v0.9H61v0.5H56.1z M58.5,134.8c-0.6,0-1,0.1-1.4,0.3
		s-0.5,0.4-0.5,0.7c0,0.3,0.2,0.5,0.5,0.7s0.8,0.3,1.4,0.3c0.6,0,1-0.1,1.3-0.3c0.3-0.2,0.5-0.4,0.5-0.7c0-0.3-0.2-0.5-0.5-0.7
		S59,134.8,58.5,134.8z"/>
	<path class="st2" d="M69.7,139c-0.4-0.3-0.7-0.6-1.1-1c-0.3-0.4-0.6-0.8-0.7-1.1c-0.1,0.4-0.4,0.8-0.8,1.3c-0.4,0.5-0.7,0.8-1.1,1
		l-0.4-0.5c0.5-0.3,1-0.8,1.4-1.4c0.4-0.6,0.6-1.2,0.6-1.8v-1.1h0.6v1.1c0,0.6,0.2,1.1,0.6,1.7c0.4,0.6,0.8,1,1.3,1.2L69.7,139z
		 M67.1,142.4v-2.7h0.6v2.1H72v0.6H67.1z M71.2,140.4v-3.6h-1.8v-0.6h1.8v-2h0.6v6.2H71.2z"/>
	<path class="st2" d="M73.5,141.4v-0.6h3.2v-2h-2V135h4.7v0.6h-4.1v2.6h4.2v0.6h-2.2v2h3.2v0.6H73.5z"/>
	<path class="st2" d="M81.5,136.2v-0.6h2v-1.3h0.6v1.3h2v0.6H81.5z M83.8,140.6c-0.6,0-1-0.2-1.4-0.5c-0.4-0.4-0.5-0.8-0.5-1.3
		c0-0.5,0.2-1,0.5-1.4c0.4-0.4,0.8-0.5,1.4-0.5c0.6,0,1,0.2,1.4,0.5c0.4,0.4,0.5,0.8,0.5,1.4c0,0.5-0.2,1-0.5,1.3
		C84.8,140.4,84.3,140.6,83.8,140.6z M83.8,137.4c-0.4,0-0.7,0.1-1,0.4c-0.3,0.3-0.4,0.6-0.4,0.9c0,0.4,0.1,0.7,0.4,0.9
		c0.3,0.3,0.6,0.4,1,0.4s0.7-0.1,1-0.4c0.3-0.3,0.4-0.6,0.4-0.9c0-0.4-0.1-0.7-0.4-0.9C84.5,137.5,84.2,137.4,83.8,137.4z
		 M87.4,138.7v4h-0.6v-8.5h0.6v3.9h1.3v0.6H87.4z"/>
	<path class="st2" d="M89.4,141.2v-0.6h2.8v-2.8h0.6v2.8h3.7v0.6H89.4z M95.1,139.6l-0.6-0.1c0.1-0.9,0.1-1.8,0.1-2.6v-1.3h-4.3V135
		h4.9v1.9C95.3,137.8,95.2,138.7,95.1,139.6z"/>
	<path class="st2" d="M105.3,142.7v-2.6H101v-0.6h2.1V138H100v-0.6h5.3c0-0.5,0.1-1.2,0.1-2.3h-4.2v-0.6h4.8c0,1,0,1.9-0.1,2.9h1.2
		v0.6h-3.3v1.6h2.1v3.2H105.3z"/>
	<path class="st2" d="M112,135c-0.1,2.4-1.2,4.3-3.4,5.7l-0.5-0.5c0.8-0.4,1.5-1,2.1-1.8s1-1.8,1.1-2.8h-2.9V135H112z M113.8,138.3
		v4.4h-0.6v-8.5h0.6v3.5h1.4v0.6H113.8z"/>
	<path class="st2" d="M118.6,138.9v1.7c1.1,0,1.8-0.1,2.3-0.1l0,0.6c-0.4,0-1.1,0.1-2.3,0.1c-1.2,0-2.1,0-2.7,0l-0.1-0.6
		c0.8,0,1.6,0,2.3,0v-1.7c-0.5-0.1-1-0.3-1.3-0.7c-0.3-0.4-0.5-0.8-0.5-1.4c0-0.6,0.2-1.1,0.6-1.5s0.9-0.6,1.5-0.6
		c0.6,0,1.1,0.2,1.4,0.6c0.4,0.4,0.6,0.9,0.6,1.5c0,0.5-0.2,1-0.5,1.4C119.5,138.6,119.1,138.8,118.6,138.9z M118.3,135.4
		c-0.4,0-0.8,0.1-1,0.4c-0.3,0.3-0.4,0.6-0.4,1.1c0,0.4,0.1,0.8,0.4,1.1s0.6,0.4,1,0.4c0.4,0,0.8-0.1,1-0.4s0.4-0.6,0.4-1
		c0-0.4-0.1-0.8-0.4-1.1S118.7,135.4,118.3,135.4z M121.9,138.3v4.4h-0.6v-8.5h0.6v3.4h1.2v0.6H121.9z"/>
	<path class="st2" d="M130.7,140.6c-0.4-0.4-0.8-0.8-1.2-1.4c-0.4-0.5-0.6-1-0.7-1.4c-0.1,0.4-0.4,0.9-0.7,1.5
		c-0.4,0.6-0.8,1-1.2,1.4l-0.5-0.4c0.6-0.5,1.1-1.1,1.5-1.8c0.4-0.7,0.6-1.5,0.6-2.2v-1.4h0.6v1.4c0,0.7,0.2,1.5,0.6,2.2
		c0.4,0.7,0.9,1.3,1.5,1.7L130.7,140.6z M132.4,138.3v4.4h-0.6v-8.5h0.6v3.4h1.3v0.6H132.4z"/>
	<path class="st2" d="M137.3,139.5v1.2l1.4-0.1c0.4,0,0.7,0,0.9,0l0,0.6c-0.4,0-1.2,0.1-2.4,0.1c-1.2,0-2.1,0-2.7,0l-0.1-0.6
		c0.8,0,1.5,0,2.3,0v-1.2c-0.5-0.1-0.9-0.2-1.2-0.5s-0.4-0.6-0.4-1c0-0.5,0.2-0.8,0.5-1.1s0.8-0.4,1.4-0.4c0.6,0,1.1,0.1,1.4,0.4
		c0.3,0.3,0.5,0.6,0.5,1.1c0,0.4-0.1,0.8-0.4,1.1C138.2,139.3,137.8,139.4,137.3,139.5z M136.7,134.3h0.6v1.1h2v0.6h-4.6v-0.6h2
		V134.3z M137,137c-0.4,0-0.7,0.1-1,0.3c-0.2,0.2-0.4,0.4-0.4,0.7c0,0.3,0.1,0.5,0.3,0.7s0.6,0.3,1,0.3c0.4,0,0.7-0.1,1-0.3
		s0.3-0.4,0.3-0.7c0-0.3-0.1-0.5-0.4-0.7S137.5,137,137,137z M140.2,142.7v-8.5h0.6v8.5H140.2z"/>
	<path class="st2" d="M146,138c0,0.8-0.2,1.5-0.5,1.9c-0.3,0.5-0.7,0.7-1.2,0.7c-0.5,0-0.9-0.2-1.2-0.7c-0.3-0.5-0.4-1.2-0.4-2.1
		s0.1-1.6,0.4-2.1c0.3-0.5,0.7-0.7,1.2-0.7c0.5,0,0.9,0.2,1.2,0.7s0.4,1.1,0.5,1.9h0.9v-3h0.6v8h-0.6V138H146z M144.3,135.4
		c-0.4,0-0.6,0.2-0.8,0.6s-0.3,1-0.3,1.7s0.1,1.3,0.3,1.7c0.2,0.4,0.5,0.6,0.8,0.6c0.4,0,0.6-0.2,0.8-0.6c0.2-0.4,0.3-1,0.3-1.7
		s-0.1-1.3-0.3-1.7C144.9,135.6,144.7,135.4,144.3,135.4z M148.3,142.7v-8.5h0.6v8.5H148.3z"/>
	<path class="st2" d="M153,139v-0.6h3.2v-0.9h-2v-3.1h0.6v1h3.5v-1h0.6v3.1h-2v0.9h3.2v0.6H153z M156.5,142.7
		c-0.8,0-1.4-0.1-1.8-0.4c-0.4-0.3-0.6-0.6-0.6-1.1c0-0.5,0.2-0.9,0.6-1.1s1-0.4,1.8-0.4s1.4,0.1,1.8,0.4s0.6,0.6,0.6,1.1
		c0,0.5-0.2,0.9-0.6,1.1C157.9,142.5,157.3,142.7,156.5,142.7z M156.5,140.2c-1.2,0-1.8,0.3-1.8,1c0,0.7,0.6,1,1.8,1s1.8-0.3,1.8-1
		C158.3,140.5,157.7,140.2,156.5,140.2z M158.3,136h-3.5v0.9h3.5V136z"/>
	<path class="st2" d="M165.1,140.6c-0.4-0.4-0.8-0.8-1.2-1.4c-0.4-0.5-0.6-1-0.7-1.4c-0.1,0.4-0.4,0.9-0.7,1.5
		c-0.4,0.6-0.8,1-1.2,1.4l-0.5-0.4c0.6-0.5,1.1-1.1,1.5-1.8c0.4-0.7,0.6-1.5,0.6-2.2v-1.4h0.6v1.4c0,0.7,0.2,1.5,0.6,2.2
		c0.4,0.7,0.9,1.3,1.5,1.7L165.1,140.6z M166.8,138.3v4.4h-0.6v-8.5h0.6v3.4h1.3v0.6H166.8z"/>
	<path class="st2" d="M168.9,136.2v-0.6h2v-1.3h0.6v1.3h2v0.6H168.9z M171.2,140.6c-0.6,0-1-0.2-1.4-0.5c-0.4-0.4-0.5-0.8-0.5-1.3
		c0-0.5,0.2-1,0.5-1.4c0.4-0.4,0.8-0.5,1.4-0.5c0.6,0,1,0.2,1.4,0.5c0.4,0.4,0.5,0.8,0.5,1.4c0,0.5-0.2,1-0.5,1.3
		C172.2,140.4,171.8,140.6,171.2,140.6z M171.2,137.4c-0.4,0-0.7,0.1-1,0.4c-0.3,0.3-0.4,0.6-0.4,0.9c0,0.4,0.1,0.7,0.4,0.9
		c0.3,0.3,0.6,0.4,1,0.4s0.7-0.1,1-0.4c0.3-0.3,0.4-0.6,0.4-0.9c0-0.4-0.1-0.7-0.4-0.9C171.9,137.5,171.6,137.4,171.2,137.4z
		 M174.8,138.7v4h-0.6v-8.5h0.6v3.9h1.3v0.6H174.8z"/>
	<path class="st2" d="M176.8,139.2v-0.6h7.1v0.6H176.8z M178,142.4v-2.5h0.6v1.9h4.2v0.6H178z M178.1,137.4v-2.8h0.6v2.3h4.2v0.6
		H178.1z"/>
	<path class="st2" d="M54.6,149.7c-0.3-0.2-0.6-0.4-0.9-0.8c-0.3-0.3-0.5-0.6-0.6-0.9c-0.1,0.3-0.3,0.6-0.6,1s-0.6,0.6-0.9,0.8
		l-0.5-0.5c0.5-0.2,0.8-0.5,1.2-1c0.3-0.5,0.5-0.9,0.5-1.4v-0.3h-1.4v-0.6h1.4v-0.9h0.6v0.9h1.4v0.6h-1.4v0.3c0,0.5,0.2,0.9,0.5,1.3
		c0.3,0.4,0.7,0.7,1.1,0.9L54.6,149.7z M56.8,153.5v-2.5h-4.4v-0.6h5v3H56.8z M56.8,150v-2h-0.9v2h-0.6v-4.8h0.6v2.2h0.9V145h0.6v5
		H56.8z"/>
	<path class="st2" d="M61.4,149.3c-0.6,0-1-0.2-1.4-0.6c-0.4-0.4-0.5-0.9-0.5-1.4c0-0.6,0.2-1.1,0.5-1.4c0.4-0.4,0.8-0.6,1.4-0.6
		c0.6,0,1,0.2,1.4,0.6c0.4,0.4,0.5,0.9,0.5,1.4s-0.2,1.1-0.5,1.4C62.5,149.1,62,149.3,61.4,149.3z M61.4,145.9c-0.4,0-0.7,0.1-1,0.4
		c-0.2,0.3-0.4,0.6-0.4,1c0,0.4,0.1,0.8,0.4,1.1c0.2,0.3,0.6,0.4,1,0.4c0.4,0,0.7-0.1,1-0.4c0.2-0.3,0.4-0.6,0.4-1
		c0-0.4-0.1-0.8-0.4-1C62.2,146,61.8,145.9,61.4,145.9z M60.5,153.3v-3.1h4.7v3.1H60.5z M64.6,150.8h-3.5v1.9h3.5V150.8z
		 M64.6,149.7V145h0.6v4.7H64.6z"/>
	<path class="st2" d="M70.8,145.5c-0.1,2-1.3,3.5-3.4,4.5l-0.4-0.5c0.9-0.3,1.6-0.8,2.2-1.4c0.6-0.6,0.9-1.3,1-2h-2.7v-0.6H70.8z
		 M68.2,153.3v-3.1h4.6v3.1H68.2z M72.2,150.8h-3.5v1.9h3.5V150.8z M72.8,147.9v1.8h-0.6V145h0.6v2.3h1.2v0.6H72.8z"/>
	<path class="st2" d="M79.9,149.4c-0.6,0-1-0.2-1.4-0.6s-0.5-0.9-0.5-1.5c0-0.6,0.2-1.1,0.5-1.5c0.4-0.4,0.8-0.6,1.4-0.6
		s1,0.2,1.4,0.6c0.4,0.4,0.5,0.9,0.5,1.5c0,0.6-0.2,1.1-0.5,1.5C81,149.2,80.5,149.4,79.9,149.4z M81.1,152.7
		c-0.5-0.3-0.8-0.7-1-1.1c-0.3,0.7-0.8,1.3-1.4,1.8l-0.5-0.4c0.5-0.3,0.9-0.6,1.1-1.1s0.4-0.9,0.4-1.4v-0.4h0.6v0.4
		c0,0.4,0.1,0.8,0.3,1.1s0.5,0.5,0.8,0.7L81.1,152.7z M79.9,145.8c-0.4,0-0.7,0.1-1,0.4c-0.2,0.3-0.4,0.6-0.4,1.1
		c0,0.4,0.1,0.8,0.4,1.1c0.2,0.3,0.6,0.4,1,0.4c0.4,0,0.7-0.1,1-0.4s0.4-0.6,0.4-1.1c0-0.4-0.1-0.8-0.4-1.1
		C80.7,146,80.3,145.8,79.9,145.8z M84.2,153.3c-0.3-0.2-0.5-0.4-0.8-0.7c-0.3-0.3-0.5-0.6-0.6-0.9c-0.1,0.3-0.3,0.6-0.6,0.9
		s-0.5,0.6-0.8,0.8L81,153c0.5-0.2,0.8-0.6,1.1-1s0.4-0.9,0.4-1.4v-0.4h0.6v0.4c0,0.5,0.1,1,0.4,1.4s0.7,0.8,1.1,0.9L84.2,153.3z
		 M83.2,149.7V145h0.6v4.7H83.2z"/>
	<path class="st2" d="M85.4,150v-0.6h7.1v0.6H85.4z M86.6,153.2v-2.5h0.6v1.9h4.2v0.6H86.6z M86.7,148.2v-2.8h0.6v2.3h4.2v0.6H86.7z
		"/>
	<path class="st2" d="M100.3,151.4c-0.5-0.4-0.9-0.9-1.2-1.4s-0.6-1-0.7-1.4c-0.1,0.4-0.3,0.9-0.7,1.5c-0.4,0.5-0.7,1-1.2,1.4
		l-0.4-0.5c0.6-0.5,1.1-1.1,1.5-1.8s0.5-1.5,0.5-2.2v-0.7h-1.7v-0.6h4v0.6h-1.7v0.7c0,0.8,0.2,1.5,0.6,2.2c0.4,0.7,0.8,1.3,1.4,1.7
		L100.3,151.4z M101.7,153.5V145h0.6v8.5H101.7z"/>
	<path class="st2" d="M108.1,149.5c-0.3-0.2-0.7-0.5-1-0.9c-0.3-0.4-0.6-0.7-0.7-1.1c-0.2,0.4-0.4,0.8-0.8,1.2
		c-0.4,0.4-0.7,0.7-1.1,1l-0.4-0.5c0.5-0.3,1-0.7,1.4-1.3s0.6-1.1,0.6-1.7v-0.9h0.6v0.9c0,0.6,0.2,1.1,0.6,1.6
		c0.4,0.5,0.8,0.9,1.3,1.1L108.1,149.5z M109.6,153.5V151h-4.4v-0.6h5v3.1H109.6z M109.6,149.9V145h0.6v4.9H109.6z"/>
	<path class="st2" d="M114.5,149.7c-0.6,0-1-0.2-1.4-0.6c-0.4-0.4-0.6-0.9-0.6-1.6c0-0.6,0.2-1.2,0.6-1.6c0.4-0.4,0.9-0.6,1.4-0.6
		s1,0.2,1.4,0.6s0.6,0.9,0.6,1.6c0,0.6-0.2,1.2-0.6,1.6C115.5,149.5,115,149.7,114.5,149.7z M114.5,146c-0.4,0-0.8,0.1-1,0.4
		s-0.4,0.7-0.4,1.1s0.1,0.9,0.4,1.1c0.3,0.3,0.6,0.4,1,0.4s0.8-0.1,1-0.4c0.3-0.3,0.4-0.7,0.4-1.1s-0.1-0.9-0.4-1.1
		S114.9,146,114.5,146z M113.4,153.2v-2.8h0.6v2.2h4.4v0.6H113.4z M117.6,151.2V145h0.6v6.2H117.6z"/>
	<path class="st2" d="M124.7,149.4c-0.6,0-1-0.2-1.4-0.6c-0.4-0.4-0.5-0.9-0.5-1.5c0-0.6,0.2-1.1,0.5-1.5s0.8-0.6,1.4-0.6
		c0.6,0,1,0.2,1.4,0.6c0.4,0.4,0.5,0.9,0.5,1.5c0,0.6-0.2,1.1-0.5,1.5C125.8,149.2,125.3,149.4,124.7,149.4z M124.7,145.8
		c-0.4,0-0.7,0.1-1,0.4c-0.2,0.3-0.4,0.6-0.4,1.1c0,0.4,0.1,0.8,0.4,1.1s0.6,0.4,1,0.4c0.4,0,0.7-0.1,1-0.4s0.4-0.6,0.4-1.1
		c0-0.4-0.1-0.8-0.4-1.1C125.4,146,125.1,145.8,124.7,145.8z M126.1,153.4c-0.8,0-1.4-0.2-1.8-0.5c-0.4-0.3-0.6-0.7-0.6-1.2
		c0-0.5,0.2-0.9,0.6-1.2s1-0.5,1.8-0.5c0.8,0,1.4,0.2,1.8,0.5c0.4,0.3,0.6,0.7,0.6,1.2s-0.2,0.9-0.6,1.2
		C127.5,153.3,126.9,153.4,126.1,153.4z M126.1,150.6c-0.6,0-1,0.1-1.4,0.3c-0.3,0.2-0.5,0.5-0.5,0.8c0,0.3,0.2,0.6,0.5,0.8
		s0.8,0.3,1.4,0.3c0.6,0,1.1-0.1,1.4-0.3c0.3-0.2,0.5-0.5,0.5-0.8c0-0.3-0.2-0.6-0.5-0.8C127.2,150.7,126.7,150.6,126.1,150.6z
		 M128.5,148.8v1.2h-0.6V145h0.6v1.3h1.2v0.6h-1.2v1.3h1.2v0.6H128.5z"/>
	<path class="st2" d="M134.6,149.5c-0.3-0.2-0.7-0.5-1-0.9c-0.3-0.4-0.6-0.7-0.7-1.1c-0.2,0.4-0.4,0.8-0.8,1.2
		c-0.4,0.4-0.7,0.7-1.1,1l-0.4-0.5c0.5-0.3,1-0.7,1.4-1.3s0.6-1.1,0.6-1.7v-0.9h0.6v0.9c0,0.6,0.2,1.1,0.6,1.6
		c0.4,0.5,0.8,0.9,1.3,1.1L134.6,149.5z M134.4,153.4c-0.8,0-1.4-0.2-1.8-0.5c-0.4-0.3-0.7-0.7-0.7-1.2s0.2-0.9,0.6-1.2
		c0.4-0.3,1-0.5,1.8-0.5s1.4,0.2,1.8,0.5c0.4,0.3,0.6,0.7,0.6,1.2s-0.2,0.9-0.7,1.2C135.9,153.2,135.2,153.4,134.4,153.4z
		 M134.4,150.7c-0.6,0-1.1,0.1-1.4,0.3c-0.3,0.2-0.5,0.5-0.5,0.8c0,0.3,0.2,0.6,0.5,0.8s0.8,0.3,1.4,0.3c0.6,0,1.1-0.1,1.4-0.3
		c0.3-0.2,0.5-0.5,0.5-0.8c0-0.3-0.2-0.6-0.5-0.8C135.5,150.8,135.1,150.7,134.4,150.7z M136.2,149.9v-2.5h-1.8v-0.6h1.8V145h0.6
		v4.9H136.2z"/>
	<path class="st2" d="M138.4,152.1v-0.6h1.8v-2.9h0.6v2.9h1.4v-2.9h0.6v2.9h2.7v0.6H138.4z M144.3,150.4l-0.6-0.1
		c0.1-0.8,0.1-1.7,0.1-2.7v-1.2h-4.5v-0.6h5.1v1.8C144.4,148.5,144.4,149.4,144.3,150.4z"/>
	<path class="st2" d="M151.6,153.5v-2.2h-4.3v-0.6h1v-1.1h-2V149h7.1v0.6h-2v1.1h0.9v2.8H151.6z M149.9,148.3
		c-0.8,0-1.4-0.1-1.8-0.4s-0.6-0.7-0.6-1.2c0-0.5,0.2-0.9,0.6-1.2c0.4-0.3,1-0.4,1.8-0.4c0.8,0,1.4,0.1,1.8,0.4s0.6,0.7,0.6,1.2
		c0,0.5-0.2,0.9-0.6,1.2S150.6,148.3,149.9,148.3z M149.9,145.7c-1.2,0-1.8,0.3-1.8,1c0,0.3,0.2,0.6,0.5,0.7s0.8,0.3,1.4,0.3
		s1.1-0.1,1.4-0.3c0.3-0.2,0.5-0.4,0.5-0.7C151.7,146,151.1,145.7,149.9,145.7z M150.8,150.7v-1.1h-1.8v1.1H150.8z"/>
</g>
<g>
	<path d="M297.2,126.4c-0.5-0.4-0.9-0.9-1.2-1.4s-0.6-1-0.7-1.4c-0.1,0.4-0.3,0.9-0.7,1.5c-0.4,0.5-0.7,1-1.2,1.4L293,126
		c0.6-0.5,1.1-1.1,1.5-1.8s0.5-1.5,0.5-2.2v-0.7h-1.7v-0.6h4v0.6h-1.7v0.7c0,0.8,0.2,1.5,0.6,2.2c0.4,0.7,0.8,1.3,1.4,1.7
		L297.2,126.4z M298.6,128.4V120h0.6v8.5H298.6z"/>
	<path d="M305,123.7c-0.4,0.5-0.9,0.8-1.6,0.8c-0.6,0-1-0.2-1.4-0.6c-0.4-0.4-0.6-0.9-0.6-1.6c0-0.6,0.2-1.2,0.6-1.6
		c0.4-0.4,0.8-0.6,1.4-0.6c0.7,0,1.3,0.3,1.7,0.9h1.6V120h0.6v4.8h-0.6v-1.1H305z M303.4,120.7c-0.4,0-0.7,0.1-1,0.4
		c-0.3,0.3-0.4,0.7-0.4,1.2s0.1,0.9,0.4,1.2s0.6,0.4,1,0.4c0.4,0,0.8-0.1,1-0.4s0.4-0.7,0.4-1.2s-0.1-0.9-0.4-1.2
		C304.1,120.9,303.8,120.7,303.4,120.7z M306.6,128.4v-2.5h-4.3v-0.6h4.9v3.1H306.6z M305.3,123.1h1.4v-1.4h-1.3
		c0.1,0.2,0.1,0.4,0.1,0.7C305.4,122.6,305.3,122.9,305.3,123.1z"/>
	<path d="M309.3,123.8v-3.6h0.6v1.3h2.3v-1.3h0.6v3.6H309.3z M312.2,122.1h-2.3v1.1h2.3V122.1z M310.1,128.3v-2.1h4.1v-0.9h-4.1
		v-0.6h4.7v2.1h-4.1v1h4.3v0.6H310.1z M314.8,122.6v1.7h-0.6V120h0.6v2.1h1.2v0.6H314.8z"/>
	<path d="M320.9,124.7c-0.4-0.3-0.7-0.6-1.1-1c-0.3-0.4-0.6-0.8-0.7-1.1c-0.1,0.4-0.4,0.8-0.8,1.3c-0.4,0.5-0.7,0.8-1.1,1l-0.4-0.5
		c0.5-0.3,1-0.8,1.4-1.4c0.4-0.6,0.6-1.2,0.6-1.8V121h-1.7v-0.6h3.9v0.6h-1.7v0.3c0,0.6,0.2,1.1,0.6,1.7c0.4,0.6,0.8,1,1.3,1.2
		L320.9,124.7z M318.3,128.2v-2.8h0.6v2.2h4.3v0.6H318.3z M322.4,126v-3.3h-1.8v-0.6h1.8V120h0.6v6H322.4z"/>
	<path d="M324.7,124.3v-0.5h7.1v0.5H324.7z M328.2,123c-0.8,0-1.4-0.1-1.8-0.4c-0.4-0.3-0.6-0.6-0.6-1.1c0-0.5,0.2-0.8,0.6-1.1
		c0.4-0.3,1-0.4,1.8-0.4c0.8,0,1.4,0.1,1.8,0.4c0.4,0.3,0.6,0.6,0.6,1.1c0,0.5-0.2,0.8-0.6,1.1S329,123,328.2,123z M325.8,128.4
		v-1.9h4.2v-0.8h-4.2V125h4.8v1.9h-4.2v0.9h4.4v0.5H325.8z M328.2,120.5c-0.6,0-1,0.1-1.4,0.3s-0.5,0.4-0.5,0.7
		c0,0.3,0.2,0.5,0.5,0.7s0.8,0.3,1.4,0.3c0.6,0,1-0.1,1.3-0.3c0.3-0.2,0.5-0.4,0.5-0.7c0-0.3-0.2-0.5-0.5-0.7
		S328.8,120.5,328.2,120.5z"/>
	<path d="M339.5,124.7c-0.4-0.3-0.7-0.6-1.1-1c-0.3-0.4-0.6-0.8-0.7-1.1c-0.1,0.4-0.4,0.8-0.8,1.3c-0.4,0.5-0.7,0.8-1.1,1l-0.4-0.5
		c0.5-0.3,1-0.8,1.4-1.4c0.4-0.6,0.6-1.2,0.6-1.8v-1.1h0.6v1.1c0,0.6,0.2,1.1,0.6,1.7c0.4,0.6,0.8,1,1.3,1.2L339.5,124.7z
		 M336.9,128.2v-2.7h0.6v2.1h4.3v0.6H336.9z M341,126.2v-3.6h-1.8v-0.6h1.8v-2h0.6v6.2H341z"/>
	<path d="M343.2,127.1v-0.6h3.2v-2h-2v-3.8h4.7v0.6H345v2.6h4.2v0.6h-2.2v2h3.2v0.6H343.2z"/>
	<path d="M351.3,121.9v-0.6h2V120h0.6v1.3h2v0.6H351.3z M353.5,126.3c-0.6,0-1-0.2-1.4-0.5c-0.4-0.4-0.5-0.8-0.5-1.3
		c0-0.5,0.2-1,0.5-1.4c0.4-0.4,0.8-0.5,1.4-0.5c0.6,0,1,0.2,1.4,0.5c0.4,0.4,0.5,0.8,0.5,1.4c0,0.5-0.2,1-0.5,1.3
		C354.6,126.2,354.1,126.3,353.5,126.3z M353.5,123.1c-0.4,0-0.7,0.1-1,0.4c-0.3,0.3-0.4,0.6-0.4,0.9c0,0.4,0.1,0.7,0.4,0.9
		c0.3,0.3,0.6,0.4,1,0.4s0.7-0.1,1-0.4c0.3-0.3,0.4-0.6,0.4-0.9c0-0.4-0.1-0.7-0.4-0.9C354.2,123.3,353.9,123.1,353.5,123.1z
		 M357.1,124.5v4h-0.6V120h0.6v3.9h1.3v0.6H357.1z"/>
	<path d="M359.1,124.9v-0.6h7.1v0.6H359.1z M360.4,128.1v-2.5h0.6v1.9h4.2v0.6H360.4z M360.4,123.1v-2.8h0.6v2.3h4.2v0.6H360.4z"/>
	<path d="M374,126.4c-0.5-0.4-0.9-0.9-1.2-1.4s-0.6-1-0.7-1.4c-0.1,0.4-0.3,0.9-0.7,1.5c-0.4,0.5-0.7,1-1.2,1.4l-0.4-0.5
		c0.6-0.5,1.1-1.1,1.5-1.8s0.5-1.5,0.5-2.2v-0.7h-1.7v-0.6h4v0.6h-1.7v0.7c0,0.8,0.2,1.5,0.6,2.2c0.4,0.7,0.8,1.3,1.4,1.7L374,126.4
		z M375.4,128.4V120h0.6v8.5H375.4z"/>
	<path d="M377.7,127.1v-0.6h3.2v-2h-2v-3.8h4.7v0.6h-4.1v2.6h4.2v0.6h-2.2v2h3.2v0.6H377.7z"/>
	<path d="M389.8,126.4c-0.4-0.3-0.7-0.7-1.1-1.3s-0.6-1-0.7-1.4c-0.1,0.4-0.3,0.9-0.7,1.4c-0.3,0.5-0.7,1-1.2,1.4l-0.5-0.4
		c0.6-0.4,1-1,1.4-1.7s0.6-1.5,0.6-2.1v-0.9H386v-0.6h3.9v0.6h-1.7v0.8c0,0.7,0.2,1.4,0.6,2.1c0.4,0.7,0.8,1.3,1.4,1.7L389.8,126.4z
		 M391.6,124v4.4H391V120h0.6v3.4h1.3v0.6H391.6z"/>
	<path d="M397.7,124.4c-0.3-0.2-0.7-0.5-1-0.9c-0.3-0.4-0.6-0.7-0.7-1c-0.1,0.4-0.4,0.7-0.7,1.2c-0.4,0.4-0.7,0.7-1.1,0.9l-0.4-0.4
		c0.6-0.3,1-0.7,1.4-1.3c0.4-0.5,0.5-1.1,0.5-1.7v-0.3h-1.7v-0.6h3.9v0.6h-1.7v0.3c0,0.6,0.2,1.1,0.6,1.6c0.4,0.5,0.8,0.9,1.3,1.1
		L397.7,124.4z M399.2,128.4v-2.5h-4.4v-0.6h5v3.1H399.2z M399.2,124.9v-2.4h-1.8v-0.6h1.8V120h0.6v4.9H399.2z"/>
	<path d="M404.2,124.4v-0.6h7.1v0.6H404.2z M407.7,128.3c-0.8,0-1.4-0.1-1.8-0.4c-0.4-0.3-0.6-0.7-0.6-1.2c0-0.5,0.2-0.9,0.6-1.1
		c0.4-0.3,1-0.4,1.8-0.4c0.8,0,1.4,0.1,1.8,0.4c0.4,0.3,0.6,0.7,0.6,1.1c0,0.5-0.2,0.9-0.6,1.2C409.1,128.2,408.5,128.3,407.7,128.3
		z M405.5,122.8v-2.7h0.6v2.1h4.2v0.6H405.5z M407.7,125.7c-0.6,0-1.1,0.1-1.4,0.3c-0.3,0.2-0.5,0.4-0.5,0.7s0.2,0.6,0.5,0.7
		c0.3,0.2,0.8,0.3,1.4,0.3c0.6,0,1.1-0.1,1.4-0.3c0.3-0.2,0.5-0.4,0.5-0.7c0-0.3-0.2-0.6-0.5-0.7S408.3,125.7,407.7,125.7z"/>
	<path d="M416.5,124.4c-0.4,0.1-0.8,0.1-1.2,0.1s-1.2,0-2.4,0v-2.5h2.6v-1.2h-2.6v-0.6h3.1v2.3h-2.6v1.4h0.9c0.9,0,1.5,0,2-0.1
		L416.5,124.4z M417.9,128.4V126h-4.4v-0.6h5v3H417.9z M416.5,123.4v-0.6h1.4v-1h-1.4v-0.6h1.4V120h0.6v5h-0.6v-1.5H416.5z"/>
</g>
<rect x="267" y="142.2" class="st0" width="178.1" height="20.8"/>
<g>
	<path d="M327,151.8c-0.3-0.2-0.6-0.4-0.9-0.8c-0.3-0.3-0.5-0.6-0.6-0.9c-0.1,0.3-0.3,0.6-0.6,1s-0.6,0.6-0.9,0.8l-0.5-0.5
		c0.5-0.2,0.8-0.5,1.2-1c0.3-0.5,0.5-0.9,0.5-1.4v-0.3h-1.4v-0.6h1.4v-0.9h0.6v0.9h1.4v0.6h-1.4v0.3c0,0.5,0.2,0.9,0.5,1.3
		c0.3,0.4,0.7,0.7,1.1,0.9L327,151.8z M329.3,155.7v-2.5h-4.4v-0.6h5v3H329.3z M329.3,152.2v-2h-0.9v2h-0.6v-4.8h0.6v2.2h0.9v-2.4
		h0.6v5H329.3z"/>
	<path d="M333.9,151.5c-0.6,0-1-0.2-1.4-0.6c-0.4-0.4-0.5-0.9-0.5-1.4c0-0.6,0.2-1.1,0.5-1.4c0.4-0.4,0.8-0.6,1.4-0.6
		c0.6,0,1,0.2,1.4,0.6c0.4,0.4,0.5,0.9,0.5,1.4s-0.2,1.1-0.5,1.4C334.9,151.3,334.4,151.5,333.9,151.5z M333.9,148
		c-0.4,0-0.7,0.1-1,0.4c-0.2,0.3-0.4,0.6-0.4,1c0,0.4,0.1,0.8,0.4,1.1c0.2,0.3,0.6,0.4,1,0.4c0.4,0,0.7-0.1,1-0.4
		c0.2-0.3,0.4-0.6,0.4-1c0-0.4-0.1-0.8-0.4-1C334.6,148.1,334.3,148,333.9,148z M333,155.4v-3.1h4.7v3.1H333z M337.1,152.9h-3.5v1.9
		h3.5V152.9z M337.1,151.9v-4.7h0.6v4.7H337.1z"/>
	<path d="M343.2,147.6c-0.1,2-1.3,3.5-3.4,4.5l-0.4-0.5c0.9-0.3,1.6-0.8,2.2-1.4c0.6-0.6,0.9-1.3,1-2h-2.7v-0.6H343.2z M340.6,155.5
		v-3.1h4.6v3.1H340.6z M344.7,153h-3.5v1.9h3.5V153z M345.2,150v1.8h-0.6v-4.7h0.6v2.3h1.2v0.6H345.2z"/>
	<path d="M352.2,153.9c-1.4,0.1-3.1,0.1-5.1,0.1l-0.1-0.6c0.3,0,0.9,0,1.9,0v-2.9h0.6v2.9l2.6-0.1L352.2,153.9z M351.6,148
		c0,1.6,0,3.1-0.1,4.4l-0.6,0c0-0.3,0.1-0.9,0.1-1.8c0-0.9,0-1.5,0-2h-3.2V148H351.6z M354.5,151.1h-1.2v4.5h-0.6v-8.5h0.6v3.4h1.3
		V151.1z"/>
	<path d="M357.8,151.9v-0.6h3.2v-0.9h-2v-3.1h0.6v1h3.5v-1h0.6v3.1h-2v0.9h3.2v0.6H357.8z M361.4,155.6c-0.8,0-1.4-0.1-1.8-0.4
		c-0.4-0.3-0.6-0.6-0.6-1.1c0-0.5,0.2-0.9,0.6-1.1c0.4-0.3,1-0.4,1.8-0.4s1.4,0.1,1.8,0.4c0.4,0.3,0.6,0.6,0.6,1.1
		c0,0.5-0.2,0.9-0.6,1.1C362.8,155.5,362.2,155.6,361.4,155.6z M361.4,153.1c-1.2,0-1.8,0.3-1.8,1c0,0.7,0.6,1,1.8,1s1.8-0.3,1.8-1
		C363.2,153.4,362.6,153.1,361.4,153.1z M363.1,148.9h-3.5v0.9h3.5V148.9z"/>
	<path d="M370,153.5c-0.4-0.4-0.8-0.8-1.2-1.4c-0.4-0.5-0.6-1-0.7-1.4c-0.1,0.4-0.4,0.9-0.7,1.5c-0.4,0.6-0.8,1-1.2,1.4l-0.5-0.4
		c0.6-0.5,1.1-1.1,1.5-1.8c0.4-0.7,0.6-1.5,0.6-2.2v-1.4h0.6v1.4c0,0.7,0.2,1.5,0.6,2.2c0.4,0.7,0.9,1.3,1.5,1.7L370,153.5z
		 M371.7,151.2v4.4h-0.6v-8.5h0.6v3.4h1.3v0.6H371.7z"/>
	<path d="M377.8,151.6c-0.3-0.2-0.7-0.5-1-0.9c-0.3-0.4-0.6-0.7-0.7-1.1c-0.2,0.4-0.4,0.8-0.8,1.2c-0.4,0.4-0.7,0.7-1.1,1l-0.4-0.5
		c0.5-0.3,1-0.7,1.4-1.3s0.6-1.1,0.6-1.7v-0.2h-1.7v-0.6h3.9v0.6h-1.7v0.2c0,0.6,0.2,1.1,0.6,1.6c0.4,0.5,0.8,0.9,1.3,1.1
		L377.8,151.6z M377.7,155.5c-0.8,0-1.4-0.2-1.8-0.5s-0.7-0.7-0.7-1.2s0.2-0.9,0.6-1.2c0.4-0.3,1-0.5,1.8-0.5s1.4,0.2,1.8,0.5
		c0.4,0.3,0.6,0.7,0.6,1.2s-0.2,0.9-0.7,1.2S378.5,155.5,377.7,155.5z M377.7,152.8c-0.6,0-1.1,0.1-1.4,0.3
		c-0.3,0.2-0.5,0.5-0.5,0.8c0,0.3,0.2,0.6,0.5,0.8s0.8,0.3,1.4,0.3c0.6,0,1.1-0.1,1.4-0.3c0.3-0.2,0.5-0.5,0.5-0.8
		c0-0.3-0.2-0.6-0.5-0.8C378.8,152.9,378.3,152.8,377.7,152.8z M379.5,152.1v-2.4h-1.8v-0.6h1.8v-1.9h0.6v4.9H379.5z"/>
	<path d="M385.8,152c-0.4-0.3-0.7-0.6-1.1-1c-0.3-0.4-0.6-0.8-0.7-1.1c-0.1,0.4-0.4,0.8-0.8,1.3c-0.4,0.5-0.7,0.8-1.1,1l-0.4-0.5
		c0.5-0.3,1-0.8,1.4-1.4c0.4-0.6,0.6-1.2,0.6-1.8v-1.1h0.6v1.1c0,0.6,0.2,1.1,0.6,1.7c0.4,0.6,0.8,1,1.3,1.2L385.8,152z
		 M383.2,155.4v-2.7h0.6v2.1h4.3v0.6H383.2z M387.3,153.2v-6h0.6v6H387.3z"/>
</g>
<rect x="267" y="170.7" class="st0" width="178.1" height="20.8"/>
<rect x="11.2" y="170" class="st1" width="185.4" height="49.5"/>
<g>
	<path class="st2" d="M29.8,187.7v-2.6h-4.3v-0.6h2.1v-1.6h-3.2v-0.6h5.3c0-0.5,0.1-1.2,0.1-2.3h-4.2v-0.6h4.8c0,1,0,1.9-0.1,2.9
		h1.2v0.6h-3.3v1.6h2.1v3.2H29.8z"/>
	<path class="st2" d="M35.8,185.7c-0.7-0.7-1.2-1.6-1.4-2.7c-0.1,0.4-0.3,0.9-0.6,1.4c-0.3,0.5-0.6,1-1,1.3l-0.5-0.4
		c0.4-0.4,0.8-0.9,1.2-1.7c0.3-0.8,0.5-1.5,0.5-2.2v-1h-1.4v-0.6h3.4v0.6h-1.4v1c0,0.7,0.2,1.4,0.5,2.1c0.3,0.7,0.7,1.3,1.1,1.7
		L35.8,185.7z M36.9,187.4v-4.7h-1.3v-0.6h1.3v-2.7h0.6v8H36.9z M38.3,187.7v-8.5h0.6v8.5H38.3z"/>
	<path class="st2" d="M44.4,183.7c-0.3-0.2-0.7-0.5-1-0.9c-0.3-0.4-0.6-0.7-0.7-1c-0.1,0.4-0.4,0.7-0.7,1.2
		c-0.4,0.4-0.7,0.7-1.1,0.9l-0.4-0.4c0.6-0.3,1-0.7,1.4-1.3c0.4-0.5,0.5-1.1,0.5-1.7v-0.3h-1.7v-0.6h3.9v0.6h-1.7v0.3
		c0,0.6,0.2,1.1,0.6,1.6c0.4,0.5,0.8,0.9,1.3,1.1L44.4,183.7z M46,187.7v-2.5h-4.4v-0.6h5v3.1H46z M46,184.1v-2.4h-1.8v-0.6H46v-1.9
		h0.6v4.9H46z"/>
	<path class="st2" d="M55.1,180c0,1.2-0.3,2.3-0.9,3.2c-0.6,1-1.4,1.8-2.5,2.5l-0.5-0.5c0.8-0.4,1.5-1,2.1-1.8
		c0.6-0.8,1-1.8,1.1-2.8h-2.9V180H55.1z M56.6,187.7v-8.5h0.6v8.5H56.6z"/>
	<path class="st2" d="M62.7,183.9v2.1h-0.6v-2.1h-3.2v-0.6H66v0.6H62.7z M65.3,182.6c-0.6-0.1-1.2-0.3-1.7-0.6
		c-0.5-0.3-0.9-0.7-1.1-1c-0.2,0.3-0.6,0.6-1.1,1c-0.6,0.3-1.1,0.6-1.7,0.7l-0.3-0.5c0.7-0.1,1.3-0.3,1.9-0.7c0.6-0.4,0.9-0.8,1-1.2
		h-2.5v-0.6h5.5v0.6h-2.5c0.1,0.4,0.4,0.8,0.9,1.2s1.2,0.6,1.9,0.7L65.3,182.6z M60.1,187.4v-2.6h0.6v2H65v0.6H60.1z"/>
	<path class="st2" d="M70.5,182.9c0,0.8-0.2,1.5-0.5,1.9c-0.3,0.5-0.7,0.7-1.2,0.7c-0.5,0-0.9-0.2-1.2-0.7c-0.3-0.5-0.4-1.2-0.4-2.1
		s0.1-1.6,0.4-2.1c0.3-0.5,0.7-0.7,1.2-0.7c0.5,0,0.9,0.2,1.2,0.7s0.4,1.1,0.5,1.9h0.9v-3H72v8h-0.6v-4.5H70.5z M68.8,180.4
		c-0.4,0-0.6,0.2-0.8,0.6s-0.3,1-0.3,1.7s0.1,1.3,0.3,1.7c0.2,0.4,0.5,0.6,0.8,0.6c0.4,0,0.6-0.2,0.8-0.6c0.2-0.4,0.3-1,0.3-1.7
		s-0.1-1.3-0.3-1.7C69.4,180.6,69.1,180.4,68.8,180.4z M72.7,187.7v-8.5h0.6v8.5H72.7z"/>
	<path class="st2" d="M81.3,184.6v3.1h-0.6v-3.1h-3.2V184h7.1v0.6H81.3z M78.6,182.9v-3.5h0.6v1.2h3.6v-1.2h0.6v3.5H78.6z
		 M82.8,181.2h-3.6v1.1h3.6V181.2z"/>
	<path class="st2" d="M87.4,179.1H88v1h2v0.6h-4.5v-0.6h2V179.1z M87.7,184.1c-0.6,0-1-0.1-1.4-0.4c-0.3-0.3-0.5-0.6-0.5-1.1
		c0-0.4,0.2-0.8,0.5-1.1c0.3-0.3,0.8-0.4,1.4-0.4s1,0.1,1.4,0.4s0.5,0.6,0.5,1.1s-0.2,0.8-0.5,1.1S88.3,184.1,87.7,184.1z
		 M87.7,181.6c-0.4,0-0.7,0.1-1,0.3c-0.2,0.2-0.3,0.4-0.3,0.7c0,0.3,0.1,0.5,0.4,0.7s0.6,0.3,1,0.3s0.7-0.1,1-0.3s0.4-0.4,0.4-0.7
		c0-0.3-0.1-0.5-0.3-0.7C88.4,181.7,88.1,181.6,87.7,181.6z M86.7,187.6v-3h0.6v1h3.5v-1h0.6v3H86.7z M90.8,186.2h-3.5v0.8h3.5
		V186.2z M91.4,182.2v1.9h-0.6v-5h0.6v2.5h1.1v0.6H91.4z"/>
	<path class="st2" d="M93.4,181.1v-0.6h2v-1.3H96v1.3h2v0.6H93.4z M95.7,185.6c-0.6,0-1-0.2-1.4-0.5c-0.4-0.4-0.5-0.8-0.5-1.3
		c0-0.5,0.2-1,0.5-1.4c0.4-0.4,0.8-0.5,1.4-0.5c0.6,0,1,0.2,1.4,0.5c0.4,0.4,0.5,0.8,0.5,1.4c0,0.5-0.2,1-0.5,1.3
		C96.7,185.4,96.2,185.6,95.7,185.6z M95.7,182.4c-0.4,0-0.7,0.1-1,0.4c-0.3,0.3-0.4,0.6-0.4,0.9c0,0.4,0.1,0.7,0.4,0.9
		c0.3,0.3,0.6,0.4,1,0.4s0.7-0.1,1-0.4c0.3-0.3,0.4-0.6,0.4-0.9c0-0.4-0.1-0.7-0.4-0.9C96.4,182.5,96.1,182.4,95.7,182.4z
		 M99.3,183.7v4h-0.6v-8.5h0.6v3.9h1.3v0.6H99.3z"/>
	<path class="st2" d="M101.3,184.1v-0.6h7.1v0.6H101.3z M102.5,187.3v-2.5h0.6v1.9h4.2v0.6H102.5z M102.5,182.3v-2.8h0.6v2.3h4.2
		v0.6H102.5z"/>
	<path class="st2" d="M116,184c-0.4-0.3-0.7-0.6-1.1-1c-0.3-0.4-0.6-0.8-0.7-1.1c-0.1,0.4-0.4,0.8-0.8,1.3c-0.4,0.5-0.7,0.8-1.1,1
		l-0.4-0.5c0.5-0.3,1-0.8,1.4-1.4c0.4-0.6,0.6-1.2,0.6-1.8v-0.3h-1.7v-0.6h3.9v0.6h-1.7v0.3c0,0.6,0.2,1.1,0.6,1.7
		c0.4,0.6,0.8,1,1.3,1.2L116,184z M113.4,187.4v-2.8h0.6v2.2h4.3v0.6H113.4z M117.5,185.2v-3.3h-1.8v-0.6h1.8v-2.1h0.6v6H117.5z"/>
	<path class="st2" d="M123.1,185.8v-1.7h-3.3v-0.6h7.1v0.6h-3.2v1.7H123.1z M120.9,187.4v-2.5h0.6v2h4.4v0.6H120.9z M121,182.5v-3
		h4.7v3H121z M125.1,180.1h-3.5v1.9h3.5V180.1z"/>
	<path class="st2" d="M134.7,185.6c-0.5-0.4-0.9-0.9-1.2-1.4s-0.6-1-0.7-1.4c-0.1,0.4-0.3,0.9-0.7,1.5c-0.4,0.5-0.7,1-1.2,1.4
		l-0.4-0.5c0.6-0.5,1.1-1.1,1.5-1.8s0.5-1.5,0.5-2.2v-0.7h-1.7v-0.6h4v0.6h-1.7v0.7c0,0.8,0.2,1.5,0.6,2.2c0.4,0.7,0.8,1.3,1.4,1.7
		L134.7,185.6z M136.1,187.7v-8.5h0.6v8.5H136.1z"/>
	<path class="st2" d="M142.5,183.6c-0.3-0.2-0.7-0.5-1-0.9c-0.3-0.4-0.6-0.7-0.7-1.1c-0.2,0.4-0.4,0.8-0.8,1.2
		c-0.4,0.4-0.7,0.7-1.1,1l-0.4-0.5c0.5-0.3,1-0.7,1.4-1.3s0.6-1.1,0.6-1.7v-0.9h0.6v0.9c0,0.6,0.2,1.1,0.6,1.6
		c0.4,0.5,0.8,0.9,1.3,1.1L142.5,183.6z M144.1,187.7v-2.5h-4.4v-0.6h5v3.1H144.1z M144.1,184.1v-4.9h0.6v4.9H144.1z"/>
	<path class="st2" d="M151.3,185.9c-1.4,0.1-3.1,0.1-5.1,0.1l-0.1-0.6c0.3,0,0.9,0,1.9,0v-2.9h0.6v2.9l2.6-0.1L151.3,185.9z
		 M150.7,180c0,1.6,0,3.1-0.1,4.4l-0.6,0c0-0.3,0.1-0.9,0.1-1.8c0-0.9,0-1.5,0-2h-3.2V180H150.7z M153.6,183.1h-1.2v4.5h-0.6v-8.5
		h0.6v3.4h1.3V183.1z"/>
	<path class="st2" d="M161.1,180c0,1.2-0.3,2.3-0.9,3.2c-0.6,1-1.4,1.8-2.5,2.5l-0.5-0.5c0.8-0.4,1.5-1,2.1-1.8
		c0.6-0.8,1-1.8,1.1-2.8h-2.9V180H161.1z M162.6,187.7v-8.5h0.6v8.5H162.6z"/>
	<path class="st2" d="M166,187.5v-1.9h4.2v-0.7H166v-0.6h2.1v-0.9h-3.2v-0.6h7.1v0.6h-3.2v0.9h2.1v1.9h-4.2v0.8h4.4v0.6H166z
		 M171.3,182.1c-0.6-0.1-1.2-0.3-1.8-0.6s-0.9-0.7-1.1-1c-0.1,0.3-0.5,0.6-1,1s-1.1,0.6-1.8,0.7l-0.3-0.5c0.8-0.1,1.5-0.3,2-0.7
		c0.6-0.4,0.8-0.8,0.8-1.2v-0.2h0.6v0.2c0,0.4,0.3,0.8,0.8,1.3c0.6,0.4,1.2,0.7,2,0.7L171.3,182.1z"/>
	<path class="st2" d="M172.8,183.5v-0.5h7.1v0.5H172.8z M176.4,182.2c-0.8,0-1.4-0.1-1.8-0.4c-0.4-0.3-0.6-0.6-0.6-1.1
		c0-0.5,0.2-0.8,0.6-1.1c0.4-0.3,1-0.4,1.8-0.4c0.8,0,1.4,0.1,1.8,0.4c0.4,0.3,0.6,0.6,0.6,1.1c0,0.5-0.2,0.8-0.6,1.1
		S177.1,182.2,176.4,182.2z M174,187.6v-1.9h4.2v-0.8H174v-0.5h4.8v1.9h-4.2v0.9h4.4v0.5H174z M176.4,179.8c-0.6,0-1,0.1-1.4,0.3
		s-0.5,0.4-0.5,0.7c0,0.3,0.2,0.5,0.5,0.7s0.8,0.3,1.4,0.3c0.6,0,1-0.1,1.3-0.3c0.3-0.2,0.5-0.4,0.5-0.7c0-0.3-0.2-0.5-0.5-0.7
		S176.9,179.8,176.4,179.8z"/>
	<path class="st2" d="M28.9,196.2v-5.5h0.6v2.3H32v-2.3h0.6v5.5H28.9z M32,193.5h-2.5v2.1H32V193.5z M34.4,194v4.5h-0.6V190h0.6v3.4
		h1.3v0.6H34.4z"/>
	<path class="st2" d="M37.5,192.7v1c1.6,0,2.7,0,3.4-0.1l0,0.6c-0.8,0.1-2.1,0.1-4,0.1v-3.8h3.7v0.6h-3.1v1h2.6v0.6H37.5z M40,198.4
		c-0.8,0-1.4-0.1-1.8-0.4s-0.6-0.7-0.6-1.2c0-0.5,0.2-0.9,0.6-1.2c0.4-0.3,1-0.5,1.8-0.5s1.4,0.1,1.8,0.4c0.4,0.3,0.6,0.7,0.6,1.2
		c0,0.5-0.2,0.9-0.6,1.2C41.4,198.2,40.8,198.4,40,198.4z M40,195.7c-0.6,0-1.1,0.1-1.4,0.3c-0.3,0.2-0.5,0.5-0.5,0.8
		s0.2,0.6,0.5,0.8c0.3,0.2,0.8,0.3,1.4,0.3c0.6,0,1.1-0.1,1.4-0.3c0.3-0.2,0.5-0.5,0.5-0.8s-0.2-0.6-0.5-0.8
		C41,195.8,40.6,195.7,40,195.7z M42.3,192.9v2h-0.6V190h0.6v2.3h1.2v0.6H42.3z"/>
	<path class="st2" d="M44.3,197.2v-0.6h7.1v0.6H44.3z M45.3,192.7c0-0.6,0.2-1.2,0.7-1.5c0.5-0.4,1.1-0.6,1.9-0.6
		c0.8,0,1.4,0.2,1.8,0.6c0.5,0.4,0.7,0.9,0.7,1.5c0,0.6-0.2,1.2-0.7,1.5c-0.5,0.4-1.1,0.6-1.8,0.6c-0.8,0-1.4-0.2-1.9-0.6
		C45.5,193.8,45.3,193.3,45.3,192.7z M45.9,192.7c0,0.5,0.2,0.8,0.5,1.1c0.4,0.3,0.8,0.4,1.4,0.4c0.6,0,1.1-0.1,1.4-0.4
		c0.4-0.3,0.5-0.6,0.5-1.1c0-0.5-0.2-0.8-0.5-1.1c-0.4-0.3-0.8-0.4-1.4-0.4c-0.6,0-1.1,0.1-1.4,0.4S45.9,192.2,45.9,192.7z"/>
	<path class="st2" d="M53.3,192.6h4.3v-1.3h-4.3v-0.6h4.9v2.4h-4.3v1.4h4.5v0.6h-2.4v1.5h3.2v0.6h-7.1v-0.6h3.2v-1.5h-2.2V192.6z"/>
	<path class="st2" d="M67.1,194.6c-0.4-0.2-0.8-0.5-1.1-0.8c-0.3-0.3-0.6-0.7-0.7-1c-0.2,0.4-0.4,0.7-0.8,1.1
		c-0.4,0.4-0.7,0.7-1.1,0.9l-0.4-0.5c0.5-0.2,1-0.6,1.4-1.1c0.4-0.5,0.6-1,0.6-1.4v-0.3h-1.7v-0.6h1.7v-1h0.6v1h1.7v0.6h-1.7v0.3
		c0,0.4,0.2,0.9,0.6,1.3c0.4,0.5,0.9,0.8,1.3,0.9L67.1,194.6z M66.5,198.4c-0.8,0-1.4-0.2-1.8-0.5c-0.4-0.3-0.7-0.7-0.7-1.2
		s0.2-0.9,0.6-1.2c0.4-0.3,1-0.5,1.8-0.5c0.8,0,1.4,0.2,1.8,0.5c0.4,0.3,0.6,0.7,0.6,1.2s-0.2,0.9-0.6,1.2
		C67.9,198.2,67.3,198.4,66.5,198.4z M66.5,195.6c-0.6,0-1.1,0.1-1.4,0.3c-0.3,0.2-0.5,0.5-0.5,0.8c0,0.3,0.2,0.6,0.5,0.8
		s0.8,0.3,1.4,0.3c0.6,0,1.1-0.1,1.4-0.3s0.5-0.5,0.5-0.8c0-0.3-0.2-0.6-0.5-0.8S67.1,195.6,66.5,195.6z M68.8,192.9v2h-0.6V190h0.6
		v2.4H70v0.6H68.8z"/>
	<path class="st2" d="M70.8,197.1v-0.6H74v-2.1h0.6v2.1h3.2v0.6H70.8z M74.6,191.4L74.6,191.4c0,0.6,0.3,1.1,0.8,1.7
		c0.5,0.6,1.2,1,2.1,1.2l-0.4,0.5c-0.6-0.2-1.2-0.6-1.7-1c-0.5-0.4-0.9-0.9-1.1-1.3c-0.2,0.4-0.6,0.9-1.1,1.3
		c-0.5,0.4-1.1,0.8-1.7,1l-0.4-0.5c0.9-0.2,1.6-0.6,2.1-1.2c0.5-0.6,0.8-1.2,0.8-1.6v-0.1h-2.4v-0.6h5.5v0.6H74.6z"/>
	<path class="st2" d="M82.8,194.5c-0.3-0.2-0.7-0.5-1-0.9c-0.3-0.4-0.6-0.7-0.7-1c-0.1,0.4-0.4,0.7-0.7,1.2
		c-0.4,0.4-0.7,0.7-1.1,0.9l-0.4-0.4c0.6-0.3,1-0.7,1.4-1.3c0.4-0.5,0.5-1.1,0.5-1.7V191h-1.7v-0.6H83v0.6h-1.7v0.3
		c0,0.6,0.2,1.1,0.6,1.6c0.4,0.5,0.8,0.9,1.3,1.1L82.8,194.5z M84.4,198.5v-2.5H80v-0.6h5v3.1H84.4z M84.4,194.9v-2.4h-1.8v-0.6h1.8
		V190H85v4.9H84.4z"/>
	<path class="st2" d="M93.5,193.9c-0.3-0.2-0.7-0.4-1-0.8c-0.4-0.4-0.6-0.7-0.8-1c-0.3,0.8-0.9,1.4-1.8,2l-0.4-0.4
		c0.6-0.3,1.1-0.7,1.4-1.2c0.3-0.5,0.5-1,0.5-1.6v-0.7H92v0.7c0,0.6,0.2,1.1,0.6,1.5c0.4,0.5,0.8,0.8,1.3,1L93.5,193.9z M90.9,198.3
		v-2.1H95v-0.9h-4.1v-0.6h4.7v2.1h-4.1v0.9h4.3v0.6H90.9z M95,194.2v-2.1h-1.8v-0.6H95V190h0.6v4.2H95z"/>
	<path class="st2" d="M101.8,198.2V195h-1.6v-0.6h1.6v-1.8h-1.4c-0.4,1.6-1.3,2.8-2.6,3.8l-0.5-0.4c0.7-0.4,1.3-1.1,1.8-1.9
		c0.5-0.9,0.8-1.8,0.9-2.8h-2.3v-0.6h2.9c0,0.5-0.1,0.9-0.1,1.3h1.2v-1.8h0.6v8H101.8z M103.2,198.5V190h0.6v8.5H103.2z"/>
	<path class="st2" d="M107.9,194.4v-0.6h7.1v0.6H107.9z M111.5,198.4c-0.8,0-1.4-0.1-1.8-0.4c-0.4-0.3-0.6-0.7-0.6-1.2
		c0-0.5,0.2-0.9,0.6-1.1c0.4-0.3,1-0.4,1.8-0.4c0.8,0,1.4,0.1,1.8,0.4c0.4,0.3,0.6,0.7,0.6,1.1c0,0.5-0.2,0.9-0.6,1.2
		C112.9,198.2,112.2,198.4,111.5,198.4z M109.2,192.9v-2.7h0.6v2.1h4.2v0.6H109.2z M111.5,195.8c-0.6,0-1.1,0.1-1.4,0.3
		c-0.3,0.2-0.5,0.4-0.5,0.7s0.2,0.6,0.5,0.7c0.3,0.2,0.8,0.3,1.4,0.3c0.6,0,1.1-0.1,1.4-0.3c0.3-0.2,0.5-0.4,0.5-0.7
		c0-0.3-0.2-0.6-0.5-0.7S112.1,195.8,111.5,195.8z"/>
	<path class="st2" d="M120.2,194.5c-0.4,0.1-0.8,0.1-1.2,0.1s-1.2,0-2.4,0v-2.5h2.6v-1.2h-2.6v-0.6h3.1v2.3h-2.6v1.4h0.9
		c0.9,0,1.5,0,2-0.1L120.2,194.5z M121.6,198.5v-2.4h-4.4v-0.6h5v3H121.6z M120.2,193.5v-0.6h1.4v-1h-1.4v-0.6h1.4V190h0.6v5h-0.6
		v-1.5H120.2z"/>
	<path class="st2" d="M123.8,194.3v-0.5h7.1v0.5H123.8z M127.3,193c-0.8,0-1.4-0.1-1.8-0.4c-0.4-0.3-0.6-0.6-0.6-1.1
		c0-0.5,0.2-0.8,0.6-1.1c0.4-0.3,1-0.4,1.8-0.4c0.8,0,1.4,0.1,1.8,0.4c0.4,0.3,0.6,0.6,0.6,1.1c0,0.5-0.2,0.8-0.6,1.1
		S128.1,193,127.3,193z M124.9,198.4v-1.9h4.2v-0.8h-4.2v-0.5h4.8v1.9h-4.2v0.9h4.4v0.5H124.9z M127.3,190.6c-0.6,0-1,0.1-1.4,0.3
		s-0.5,0.4-0.5,0.7c0,0.3,0.2,0.5,0.5,0.7s0.8,0.3,1.4,0.3c0.6,0,1-0.1,1.3-0.3c0.3-0.2,0.5-0.4,0.5-0.7c0-0.3-0.2-0.5-0.5-0.7
		S127.9,190.6,127.3,190.6z"/>
	<path class="st2" d="M138.3,190.4c-0.1,1-0.4,1.9-1,2.6s-1.4,1.3-2.4,1.8l-0.4-0.5c0.9-0.3,1.6-0.8,2.2-1.4s0.9-1.2,1-1.9H135v-0.6
		H138.3z M140.6,198.3c-0.5-0.1-1.1-0.3-1.6-0.6c-0.5-0.3-0.9-0.7-1.2-1.1c-0.2,0.4-0.6,0.8-1.1,1.1c-0.5,0.3-1,0.6-1.6,0.7
		l-0.3-0.5c0.7-0.1,1.3-0.3,1.8-0.7c0.5-0.4,0.8-0.8,0.9-1.3h-2.3v-0.6h5.2v0.6h-2.3c0.1,0.4,0.4,0.8,0.9,1.3
		c0.5,0.4,1.1,0.7,1.8,0.7L140.6,198.3z M140.4,192.8v1.9h-0.6V190h0.6v2.2h1.2v0.6H140.4z"/>
	<path class="st2" d="M146.2,195v1.9h-0.6V195h-3.2v-0.6h7.1v0.6H146.2z M148.8,193.5c-0.6-0.1-1.2-0.3-1.7-0.6s-1-0.6-1.1-0.9
		c-0.2,0.3-0.5,0.6-1.1,0.9s-1.1,0.5-1.8,0.6l-0.3-0.6c0.5,0,1.1-0.1,1.7-0.4c0.6-0.3,1-0.6,1.1-1h-2.4v-0.6h2.4v-0.8h0.6v0.8h2.4
		v0.6h-2.4c0.2,0.4,0.5,0.7,1.1,1c0.6,0.3,1.2,0.4,1.7,0.4L148.8,193.5z M143.5,198.2v-2.5h0.6v1.9h4.3v0.6H143.5z"/>
	<path class="st2" d="M154.9,198.5v-3.1H153v-0.6h7.1v0.6h-1.9v3.1h-0.6v-3.1h-2.1v3.1H154.9z M156.5,193.8c-0.8,0-1.4-0.2-1.8-0.5
		s-0.6-0.8-0.6-1.3c0-0.6,0.2-1,0.7-1.3c0.4-0.3,1-0.5,1.8-0.5c0.8,0,1.4,0.2,1.8,0.5s0.6,0.8,0.6,1.3c0,0.6-0.2,1-0.6,1.3
		S157.3,193.8,156.5,193.8z M156.5,190.7c-0.6,0-1,0.1-1.4,0.3c-0.3,0.2-0.5,0.5-0.5,0.9c0,0.4,0.2,0.7,0.5,0.9s0.8,0.3,1.4,0.3
		s1-0.1,1.4-0.3c0.3-0.2,0.5-0.5,0.5-0.9c0-0.4-0.2-0.7-0.5-0.9C157.5,190.8,157.1,190.7,156.5,190.7z"/>
	<path class="st2" d="M160.9,194.4v-0.6h7.1v0.6H160.9z M164.4,198.4c-0.8,0-1.4-0.1-1.8-0.4c-0.4-0.3-0.6-0.7-0.6-1.2
		c0-0.5,0.2-0.9,0.6-1.1c0.4-0.3,1-0.4,1.8-0.4c0.8,0,1.4,0.1,1.8,0.4c0.4,0.3,0.6,0.7,0.6,1.1c0,0.5-0.2,0.9-0.6,1.2
		C165.9,198.2,165.2,198.4,164.4,198.4z M162.2,192.9v-2.7h0.6v2.1h4.2v0.6H162.2z M164.4,195.8c-0.6,0-1.1,0.1-1.4,0.3
		c-0.3,0.2-0.5,0.4-0.5,0.7s0.2,0.6,0.5,0.7c0.3,0.2,0.8,0.3,1.4,0.3c0.6,0,1.1-0.1,1.4-0.3c0.3-0.2,0.5-0.4,0.5-0.7
		c0-0.3-0.2-0.6-0.5-0.7S165.1,195.8,164.4,195.8z"/>
	<path class="st2" d="M168.9,191.7v-0.6h2V190h0.6v1.1h2v0.6H168.9z M171.2,195.4c-0.6,0-1-0.2-1.4-0.5c-0.3-0.3-0.5-0.7-0.5-1.1
		c0-0.4,0.2-0.8,0.5-1.1c0.3-0.3,0.8-0.5,1.4-0.5c0.6,0,1,0.2,1.4,0.5c0.3,0.3,0.5,0.7,0.5,1.1c0,0.4-0.2,0.8-0.5,1.1
		C172.2,195.2,171.8,195.4,171.2,195.4z M171.2,192.7c-0.4,0-0.7,0.1-0.9,0.3s-0.3,0.4-0.3,0.7c0,0.3,0.1,0.6,0.3,0.8
		s0.5,0.3,0.9,0.3s0.7-0.1,0.9-0.3s0.3-0.4,0.3-0.8c0-0.3-0.1-0.5-0.3-0.7S171.6,192.7,171.2,192.7z M170.2,198.3V196h0.6v1.8h4.3
		v0.6H170.2z M174.8,193.9v2.4h-0.6V190h0.6v3.3h1.2v0.6H174.8z"/>
	<path class="st2" d="M77.6,205.6c-0.4-0.3-0.7-0.6-1.1-1c-0.3-0.4-0.6-0.8-0.7-1.1c-0.1,0.4-0.4,0.8-0.8,1.3
		c-0.4,0.5-0.7,0.8-1.1,1l-0.4-0.5c0.5-0.3,1-0.8,1.4-1.4c0.4-0.6,0.6-1.2,0.6-1.8v-0.3h-1.7v-0.6h3.9v0.6h-1.7v0.3
		c0,0.6,0.2,1.1,0.6,1.7c0.4,0.6,0.8,1,1.3,1.2L77.6,205.6z M75,209v-2.8h0.6v2.2h4.3v0.6H75z M79.1,206.8v-3.3h-1.8v-0.6h1.8v-2.1
		h0.6v6H79.1z"/>
	<path class="st2" d="M84.7,207.4v-1.7h-3.3v-0.6h7.1v0.6h-3.2v1.7H84.7z M82.5,209v-2.5h0.6v2h4.4v0.6H82.5z M82.6,204.1v-3h4.7v3
		H82.6z M86.7,201.7h-3.5v1.9h3.5V201.7z"/>
	<path class="st2" d="M93.4,201.6c-0.1,2.4-1.2,4.3-3.4,5.7l-0.5-0.5c0.8-0.4,1.5-1,2.1-1.8s1-1.8,1.1-2.8h-2.9v-0.6H93.4z
		 M95.3,204.9v4.4h-0.6v-8.5h0.6v3.5h1.4v0.6H95.3z"/>
	<path class="st2" d="M102.2,205.1c-0.6,0-1-0.2-1.4-0.6c-0.4-0.4-0.5-0.9-0.5-1.5c0-0.6,0.2-1.1,0.5-1.5s0.8-0.6,1.4-0.6
		c0.6,0,1,0.2,1.4,0.6c0.4,0.4,0.5,0.9,0.5,1.5c0,0.6-0.2,1.1-0.5,1.5C103.2,204.9,102.8,205.1,102.2,205.1z M102.2,201.6
		c-0.4,0-0.7,0.1-1,0.4c-0.2,0.3-0.4,0.6-0.4,1.1c0,0.4,0.1,0.8,0.4,1.1c0.2,0.3,0.6,0.4,1,0.4c0.4,0,0.7-0.1,1-0.4s0.4-0.6,0.4-1.1
		c0-0.4-0.1-0.8-0.4-1.1C102.9,201.7,102.6,201.6,102.2,201.6z M103.6,209.2c-0.8,0-1.4-0.2-1.8-0.5c-0.4-0.3-0.6-0.7-0.6-1.2
		c0-0.5,0.2-0.9,0.6-1.2s1-0.5,1.8-0.5c0.8,0,1.4,0.2,1.8,0.5c0.4,0.3,0.6,0.7,0.6,1.2s-0.2,0.9-0.6,1.2
		C105,209,104.4,209.2,103.6,209.2z M103.6,206.4c-0.6,0-1,0.1-1.4,0.3c-0.3,0.2-0.5,0.5-0.5,0.8c0,0.3,0.2,0.6,0.5,0.8
		s0.8,0.3,1.4,0.3c0.6,0,1.1-0.1,1.4-0.3s0.5-0.5,0.5-0.8c0-0.3-0.2-0.6-0.5-0.8C104.7,206.5,104.2,206.4,103.6,206.4z M106,204.5
		v1.2h-0.6v-4.9h0.6v1.3h1.2v0.6H106v1.3h1.2v0.6H106z"/>
	<path class="st2" d="M112,205.2c-0.3-0.2-0.7-0.5-1-0.9c-0.3-0.4-0.6-0.7-0.7-1.1c-0.2,0.4-0.4,0.8-0.8,1.2c-0.4,0.4-0.7,0.7-1.1,1
		L108,205c0.5-0.3,1-0.7,1.4-1.3s0.6-1.1,0.6-1.7v-0.9h0.6v0.9c0,0.6,0.2,1.1,0.6,1.6c0.4,0.5,0.8,0.9,1.3,1.1L112,205.2z
		 M111.9,209.2c-0.8,0-1.4-0.2-1.8-0.5s-0.7-0.7-0.7-1.2s0.2-0.9,0.6-1.2c0.4-0.3,1-0.5,1.8-0.5s1.4,0.2,1.8,0.5
		c0.4,0.3,0.6,0.7,0.6,1.2s-0.2,0.9-0.7,1.2S112.7,209.2,111.9,209.2z M111.9,206.4c-0.6,0-1.1,0.1-1.4,0.3
		c-0.3,0.2-0.5,0.5-0.5,0.8c0,0.3,0.2,0.6,0.5,0.8s0.8,0.3,1.4,0.3c0.6,0,1.1-0.1,1.4-0.3c0.3-0.2,0.5-0.5,0.5-0.8
		c0-0.3-0.2-0.6-0.5-0.8C113,206.5,112.5,206.4,111.9,206.4z M113.7,205.7v-2.5h-1.8v-0.6h1.8v-1.8h0.6v4.9H113.7z"/>
	<path class="st2" d="M115.9,207.8v-0.6h1.8v-2.9h0.6v2.9h1.4v-2.9h0.6v2.9h2.7v0.6H115.9z M121.8,206.2l-0.6-0.1
		c0.1-0.8,0.1-1.7,0.1-2.7v-1.2h-4.5v-0.6h5.1v1.8C121.9,204.3,121.9,205.2,121.8,206.2z"/>
	<path class="st2" d="M129.1,209.3v-2.2h-4.3v-0.6h1v-1.1h-2v-0.6h7.1v0.6h-2v1.1h0.9v2.8H129.1z M127.3,204c-0.8,0-1.4-0.1-1.8-0.4
		s-0.6-0.7-0.6-1.2c0-0.5,0.2-0.9,0.6-1.2c0.4-0.3,1-0.4,1.8-0.4c0.8,0,1.4,0.1,1.8,0.4s0.6,0.7,0.6,1.2c0,0.5-0.2,0.9-0.6,1.2
		S128.1,204,127.3,204z M127.3,201.4c-1.2,0-1.8,0.3-1.8,1c0,0.3,0.2,0.6,0.5,0.7s0.8,0.3,1.4,0.3s1.1-0.1,1.4-0.3
		c0.3-0.2,0.5-0.4,0.5-0.7C129.1,201.8,128.5,201.4,127.3,201.4z M128.3,206.5v-1.1h-1.8v1.1H128.3z"/>
</g>
<g>
	<path d="M326.2,180.3c-0.4-0.2-0.8-0.5-1.1-0.8c-0.3-0.3-0.6-0.7-0.7-1c-0.2,0.4-0.4,0.7-0.8,1.1c-0.4,0.4-0.7,0.7-1.1,0.9L322,180
		c0.5-0.2,1-0.6,1.4-1.1c0.4-0.5,0.6-1,0.6-1.4v-0.3h-1.7v-0.6h1.7v-1h0.6v1h1.7v0.6h-1.7v0.3c0,0.4,0.2,0.9,0.6,1.3
		c0.4,0.5,0.9,0.8,1.3,0.9L326.2,180.3z M325.6,184.1c-0.8,0-1.4-0.2-1.8-0.5s-0.7-0.7-0.7-1.2s0.2-0.9,0.6-1.2
		c0.4-0.3,1-0.5,1.8-0.5c0.8,0,1.4,0.2,1.8,0.5c0.4,0.3,0.6,0.7,0.6,1.2s-0.2,0.9-0.6,1.2C327.1,183.9,326.4,184.1,325.6,184.1z
		 M325.6,181.4c-0.6,0-1.1,0.1-1.4,0.3c-0.3,0.2-0.5,0.5-0.5,0.8c0,0.3,0.2,0.6,0.5,0.8s0.8,0.3,1.4,0.3c0.6,0,1.1-0.1,1.4-0.3
		c0.3-0.2,0.5-0.5,0.5-0.8c0-0.3-0.2-0.6-0.5-0.8S326.3,181.4,325.6,181.4z M328,178.7v2h-0.6v-4.9h0.6v2.4h1.2v0.6H328z"/>
	<path d="M329.9,182.9v-0.6h3.2v-2.1h0.6v2.1h3.2v0.6H329.9z M333.8,177.1L333.8,177.1c0,0.6,0.3,1.1,0.8,1.7c0.5,0.6,1.2,1,2.1,1.2
		l-0.4,0.5c-0.6-0.2-1.2-0.6-1.7-1c-0.5-0.4-0.9-0.9-1.1-1.3c-0.2,0.4-0.6,0.9-1.1,1.3c-0.5,0.4-1.1,0.8-1.7,1l-0.4-0.5
		c0.9-0.2,1.6-0.6,2.1-1.2c0.5-0.6,0.8-1.1,0.8-1.6v-0.1h-2.4v-0.6h5.5v0.6H333.8z"/>
	<path d="M342,180.2c-0.3-0.2-0.7-0.5-1-0.9c-0.3-0.4-0.6-0.7-0.7-1c-0.1,0.4-0.4,0.7-0.7,1.2c-0.4,0.4-0.7,0.7-1.1,0.9l-0.4-0.4
		c0.6-0.3,1-0.7,1.4-1.3c0.4-0.5,0.5-1.1,0.5-1.7v-0.3h-1.7v-0.6h3.9v0.6h-1.7v0.3c0,0.6,0.2,1.1,0.6,1.6c0.4,0.5,0.8,0.9,1.3,1.1
		L342,180.2z M343.5,184.2v-2.5h-4.4v-0.6h5v3.1H343.5z M343.5,180.6v-2.4h-1.8v-0.6h1.8v-1.9h0.6v4.9H343.5z"/>
	<path d="M352.6,179.7c-0.3-0.2-0.7-0.4-1-0.8c-0.4-0.4-0.6-0.7-0.8-1c-0.3,0.8-0.9,1.4-1.8,2l-0.4-0.4c0.6-0.3,1.1-0.7,1.4-1.2
		c0.3-0.5,0.5-1,0.5-1.6v-0.7h0.6v0.7c0,0.6,0.2,1.1,0.6,1.5c0.4,0.5,0.8,0.8,1.3,1L352.6,179.7z M350.1,184v-2.1h4.1V181h-4.1v-0.6
		h4.7v2.1h-4.1v0.9h4.3v0.6H350.1z M354.2,180v-2.1h-1.8v-0.6h1.8v-1.5h0.6v4.2H354.2z"/>
	<path d="M360.9,183.9v-3.2h-1.6v-0.6h1.6v-1.8h-1.4c-0.4,1.6-1.3,2.8-2.6,3.8l-0.5-0.4c0.7-0.4,1.3-1.1,1.8-1.9
		c0.5-0.9,0.8-1.8,0.9-2.8h-2.3v-0.6h2.9c0,0.5-0.1,0.9-0.1,1.3h1.2v-1.8h0.6v8H360.9z M362.3,184.2v-8.5h0.6v8.5H362.3z"/>
	<path d="M367.1,180.1v-0.6h7.1v0.6H367.1z M370.6,184.1c-0.8,0-1.4-0.1-1.8-0.4c-0.4-0.3-0.6-0.7-0.6-1.2c0-0.5,0.2-0.9,0.6-1.1
		c0.4-0.3,1-0.4,1.8-0.4c0.8,0,1.4,0.1,1.8,0.4c0.4,0.3,0.6,0.7,0.6,1.1c0,0.5-0.2,0.9-0.6,1.2C372,184,371.4,184.1,370.6,184.1z
		 M368.3,178.6v-2.7h0.6v2.1h4.2v0.6H368.3z M370.6,181.5c-0.6,0-1.1,0.1-1.4,0.3c-0.3,0.2-0.5,0.4-0.5,0.7s0.2,0.6,0.5,0.7
		c0.3,0.2,0.8,0.3,1.4,0.3c0.6,0,1.1-0.1,1.4-0.3c0.3-0.2,0.5-0.4,0.5-0.7c0-0.3-0.2-0.6-0.5-0.7S371.2,181.5,370.6,181.5z"/>
	<path d="M379.3,180.2c-0.4,0.1-0.8,0.1-1.2,0.1s-1.2,0-2.4,0v-2.5h2.6v-1.2h-2.6v-0.6h3.1v2.3h-2.6v1.4h0.9c0.9,0,1.5,0,2-0.1
		L379.3,180.2z M380.8,184.2v-2.4h-4.4v-0.6h5v3H380.8z M379.3,179.2v-0.6h1.4v-1h-1.4V177h1.4v-1.3h0.6v5h-0.6v-1.5H379.3z"/>
</g>
<rect x="267" y="197.9" class="st0" width="178.1" height="20.8"/>
<g>
	<path d="M323.5,207.7c-0.4-0.3-0.7-0.6-1.1-1c-0.3-0.4-0.6-0.8-0.7-1.1c-0.1,0.4-0.4,0.8-0.8,1.3c-0.4,0.5-0.7,0.8-1.1,1l-0.4-0.5
		c0.5-0.3,1-0.8,1.4-1.4c0.4-0.6,0.6-1.2,0.6-1.8V204h-1.7v-0.6h3.9v0.6H322v0.3c0,0.6,0.2,1.1,0.6,1.7c0.4,0.6,0.8,1,1.3,1.2
		L323.5,207.7z M320.9,211.1v-2.8h0.6v2.2h4.3v0.6H320.9z M325,209v-3.3h-1.8v-0.6h1.8v-2.1h0.6v6H325z"/>
	<path d="M330.6,209.6v-1.7h-3.3v-0.6h7.1v0.6h-3.2v1.7H330.6z M328.4,211.2v-2.5h0.6v2h4.4v0.6H328.4z M328.5,206.3v-3h4.7v3H328.5
		z M332.6,203.8h-3.5v1.9h3.5V203.8z"/>
	<path d="M339.4,207.4c-0.3-0.2-0.7-0.5-1-0.9c-0.3-0.4-0.6-0.7-0.7-1c-0.1,0.4-0.4,0.7-0.7,1.2c-0.4,0.4-0.7,0.7-1.1,0.9l-0.4-0.4
		c0.6-0.3,1-0.7,1.4-1.3c0.4-0.5,0.5-1.1,0.5-1.7v-0.3h-1.7v-0.6h3.9v0.6h-1.7v0.3c0,0.6,0.2,1.1,0.6,1.6c0.4,0.5,0.8,0.9,1.3,1.1
		L339.4,207.4z M340.9,211.4v-2.5h-4.4v-0.6h5v3.1H340.9z M340.9,207.8v-2.4h-1.8v-0.6h1.8v-1.9h0.6v4.9H340.9z"/>
	<path d="M345.8,207.6c-0.6,0-1-0.2-1.4-0.6c-0.4-0.4-0.6-0.9-0.6-1.6c0-0.6,0.2-1.2,0.6-1.6c0.4-0.4,0.9-0.6,1.4-0.6s1,0.2,1.4,0.6
		s0.6,0.9,0.6,1.6c0,0.6-0.2,1.2-0.6,1.6C346.8,207.4,346.3,207.6,345.8,207.6z M345.8,203.9c-0.4,0-0.8,0.1-1,0.4s-0.4,0.7-0.4,1.1
		s0.1,0.9,0.4,1.1c0.3,0.3,0.6,0.4,1,0.4s0.8-0.1,1-0.4c0.3-0.3,0.4-0.7,0.4-1.1s-0.1-0.9-0.4-1.1S346.2,203.9,345.8,203.9z
		 M344.7,211.1v-2.8h0.6v2.2h4.4v0.6H344.7z M348.9,209.1v-6.2h0.6v6.2H348.9z"/>
	<path d="M357.9,206.9c-0.3-0.2-0.7-0.4-1-0.8c-0.4-0.4-0.6-0.7-0.8-1c-0.3,0.8-0.9,1.4-1.8,2l-0.4-0.4c0.6-0.3,1.1-0.7,1.4-1.2
		c0.3-0.5,0.5-1,0.5-1.6v-0.7h0.6v0.7c0,0.6,0.2,1.1,0.6,1.5c0.4,0.5,0.8,0.8,1.3,1L357.9,206.9z M355.4,211.2v-2.1h4.1v-0.9h-4.1
		v-0.6h4.7v2.1H356v0.9h4.3v0.6H355.4z M359.5,207.2v-4.2h0.6v4.2H359.5z"/>
	<path d="M365.6,208.3v3.2H365v-3.2h-3.2v-0.6h7.1v0.6H365.6z M362.9,206.5v-3.3h4.7v3.3H362.9z M367.1,203.8h-3.6v2.1h3.6V203.8z"
		/>
	<path d="M369.7,207.3v-0.6h7.1v0.6H369.7z M373.2,211.3c-0.8,0-1.4-0.1-1.8-0.4c-0.4-0.3-0.6-0.7-0.6-1.2c0-0.5,0.2-0.9,0.6-1.1
		c0.4-0.3,1-0.4,1.8-0.4c0.8,0,1.4,0.1,1.8,0.4c0.4,0.3,0.6,0.7,0.6,1.1c0,0.5-0.2,0.9-0.6,1.2C374.6,211.2,374,211.3,373.2,211.3z
		 M371,205.8v-2.7h0.6v2.1h4.2v0.6H371z M373.2,208.7c-0.6,0-1.1,0.1-1.4,0.3c-0.3,0.2-0.5,0.4-0.5,0.7s0.2,0.6,0.5,0.7
		c0.3,0.2,0.8,0.3,1.4,0.3c0.6,0,1.1-0.1,1.4-0.3c0.3-0.2,0.5-0.4,0.5-0.7c0-0.3-0.2-0.6-0.5-0.7S373.8,208.7,373.2,208.7z"/>
	<path d="M382,207.4c-0.4,0.1-0.8,0.1-1.2,0.1s-1.2,0-2.4,0v-2.5h2.6v-1.2h-2.6v-0.6h3.1v2.3H379v1.4h0.9c0.9,0,1.5,0,2-0.1
		L382,207.4z M383.4,211.4V209H379v-0.6h5v3H383.4z M382,206.4v-0.6h1.4v-1H382v-0.6h1.4v-1.3h0.6v5h-0.6v-1.5H382z"/>
</g>
<path class="st3" d="M445.1,27.1c0,7.1-5.4,12.9-12,12.9H23.2c-6.6,0-12-5.8-12-12.9l0,0c0-7.1,5.4-12.9,12-12.9h409.9
	C439.8,14.2,445.1,20,445.1,27.1L445.1,27.1z"/>
<g>
	<path class="st2" d="M28.2,29.2c-0.7-0.6-1.2-1.3-1.5-2.1c-0.1,0.4-0.4,0.8-0.7,1.3c-0.3,0.5-0.7,0.8-1,1.1l-0.9-0.9
		c1.3-0.9,2-2.3,2-4.2v-2.4h1.2v2.4c0,1.7,0.6,2.9,1.8,3.8L28.2,29.2z M29.3,31.4v-5.7H28v-1.1h1.3v-3h1.2v9.8H29.3z M31.2,31.7
		V21.4h1.2v10.4H31.2z"/>
	<path class="st2" d="M38.2,22.2c-0.1,0.7-0.1,1.2-0.2,1.6h1v-2.3h1.2v9.8H39v-3.7h-1.8v-1.1H39V25h-1.3c-0.2,0.8-0.6,1.6-1.2,2.5
		s-1.1,1.5-1.6,2l-1-0.8c0.6-0.4,1.2-1,1.8-2s1-2,1.2-3.2h-2.5v-1.1H38.2z M40.9,31.7V21.4h1.2v10.4H40.9z"/>
	<path class="st2" d="M49.9,30.1c-1.7,0.1-3.8,0.2-6.4,0.2l-0.1-1.1l2.7,0v-1c-0.6-0.1-1-0.3-1.3-0.7c-0.3-0.4-0.5-0.8-0.5-1.3
		c0-0.6,0.2-1.1,0.7-1.5c0.4-0.4,1-0.6,1.8-0.6c0.7,0,1.3,0.2,1.8,0.5c0.4,0.4,0.6,0.8,0.6,1.5c0,0.5-0.2,0.9-0.5,1.3
		c-0.3,0.4-0.8,0.6-1.3,0.7v1c1.3,0,2.2-0.1,2.6-0.1L49.9,30.1z M43.7,23.6v-1.1H46v-1.2h1.2v1.2h2.3v1.1H43.7z M46.6,25.1
		c-0.4,0-0.7,0.1-0.9,0.3s-0.3,0.4-0.3,0.7c0,0.3,0.1,0.5,0.3,0.7s0.5,0.3,0.9,0.3c0.4,0,0.7-0.1,0.9-0.3c0.2-0.2,0.3-0.4,0.3-0.7
		c0-0.3-0.1-0.5-0.3-0.7C47.3,25.2,47,25.1,46.6,25.1z M51.4,26.9v4.8h-1.2V21.4h1.2v4.4h1.4v1.1H51.4z"/>
	<path class="st2" d="M53.2,30.1L53.1,29c1,0,1.8,0,2.6,0v-1.8c-0.6-0.1-1.1-0.4-1.5-0.9c-0.4-0.5-0.5-1-0.5-1.7
		c0-0.8,0.3-1.4,0.8-1.9s1.1-0.7,1.9-0.7c0.7,0,1.3,0.2,1.8,0.7c0.5,0.5,0.7,1.1,0.7,1.9c0,0.6-0.2,1.2-0.5,1.6
		c-0.4,0.5-0.8,0.8-1.4,0.9v1.8c0.9,0,1.8-0.1,2.6-0.1l0.1,1.1C57.5,30,55.4,30.1,53.2,30.1z M56.3,23.1c-0.4,0-0.7,0.1-1,0.4
		c-0.2,0.3-0.4,0.6-0.4,1.1c0,0.4,0.1,0.8,0.4,1.1c0.3,0.3,0.6,0.4,1,0.4c0.4,0,0.7-0.1,1-0.4c0.3-0.3,0.4-0.6,0.4-1.1
		c0-0.4-0.1-0.8-0.4-1.1S56.7,23.1,56.3,23.1z M61.1,26.6v5.1h-1.2V21.4h1.2v4.1h1.4v1.1H61.1z"/>
	<path class="st2" d="M71.4,29.2c-0.9-0.7-1.6-1.6-2.1-2.5c-0.6,1.2-1.3,2.2-2.1,2.7l-0.9-0.9c0.6-0.3,1.1-0.9,1.6-1.7
		c0.5-0.8,0.7-1.6,0.7-2.4v-1.1h-2v-1.1h5.2v1.1h-2v1.1c0,0.7,0.2,1.5,0.7,2.2s1,1.2,1.6,1.6L71.4,29.2z M73,31.7V21.4h1.2v10.4H73z
		"/>
	<path class="st2" d="M80.9,26.1c-0.5,0.7-1.1,1-2,1c-0.7,0-1.3-0.3-1.8-0.8c-0.5-0.5-0.7-1.2-0.7-2c0-0.8,0.2-1.5,0.7-2
		s1.1-0.8,1.8-0.8c0.9,0,1.5,0.3,2,1h2v-1.3h1.2v6h-1.2v-1.2H80.9z M78.9,22.7c-0.4,0-0.7,0.1-0.9,0.4c-0.2,0.3-0.4,0.7-0.4,1.2
		c0,0.5,0.1,0.9,0.4,1.2c0.2,0.3,0.6,0.4,0.9,0.4s0.7-0.1,0.9-0.4c0.2-0.3,0.3-0.7,0.3-1.2s-0.1-0.9-0.4-1.2
		C79.6,22.9,79.3,22.7,78.9,22.7z M82.9,31.7v-2.8h-5v-1.1h6.2v4H82.9z M81.3,25h1.5v-1.3h-1.5c0,0.2,0.1,0.4,0.1,0.6
		C81.4,24.6,81.4,24.8,81.3,25z"/>
	<path class="st2" d="M92,30.1c-1.7,0.1-3.8,0.2-6.4,0.2l-0.1-1.1l2.7,0v-1c-0.6-0.1-1-0.3-1.3-0.7c-0.3-0.4-0.5-0.8-0.5-1.3
		c0-0.6,0.2-1.1,0.7-1.5c0.4-0.4,1-0.6,1.8-0.6c0.7,0,1.3,0.2,1.8,0.5c0.4,0.4,0.6,0.8,0.6,1.5c0,0.5-0.2,0.9-0.5,1.3
		c-0.3,0.4-0.8,0.6-1.3,0.7v1c1.3,0,2.2-0.1,2.6-0.1L92,30.1z M85.8,23.6v-1.1h2.3v-1.2h1.2v1.2h2.3v1.1H85.8z M88.7,25.1
		c-0.4,0-0.7,0.1-0.9,0.3s-0.3,0.4-0.3,0.7c0,0.3,0.1,0.5,0.3,0.7s0.5,0.3,0.9,0.3c0.4,0,0.7-0.1,0.9-0.3c0.2-0.2,0.3-0.4,0.3-0.7
		c0-0.3-0.1-0.5-0.3-0.7C89.4,25.2,89.1,25.1,88.7,25.1z M93.5,26.9v4.8h-1.2V21.4h1.2v4.4h1.4v1.1H93.5z"/>
	<path class="st2" d="M95.4,30l-0.1-1.1c3,0,5.2-0.1,6.6-0.2l0.1,1.1C99.9,29.9,97.7,30,95.4,30z M98.5,27.2c-0.7,0-1.3-0.2-1.8-0.7
		c-0.5-0.5-0.7-1.1-0.7-1.9c0-0.8,0.3-1.4,0.8-1.9s1.1-0.7,1.9-0.7c0.7,0,1.3,0.2,1.8,0.7c0.5,0.5,0.7,1.1,0.7,1.9
		c0,0.8-0.2,1.4-0.7,1.9S99.2,27.2,98.5,27.2z M98.5,23.1c-0.4,0-0.7,0.1-1,0.4c-0.2,0.3-0.4,0.6-0.4,1.1c0,0.4,0.1,0.8,0.4,1.1
		c0.3,0.3,0.6,0.4,1,0.4c0.4,0,0.7-0.1,1-0.4c0.2-0.3,0.4-0.6,0.4-1c0-0.4-0.1-0.8-0.4-1.1C99.2,23.3,98.9,23.1,98.5,23.1z
		 M102.3,31.7V21.4h1.2v10.4H102.3z"/>
	<path class="st2" d="M113.4,28.8c-0.4,0.1-0.9,0.2-1.5,0.2h-3.4v-1.1h1l-0.1-4h1.2l0.1,4h0.8l0.1-4h1.2l-0.1,4c0.1,0,0.4,0,0.9-0.1
		L113.4,28.8z M108.7,23.3v-1.1h4.5v1.1H108.7z M115.4,31.7v-5h-0.6v4.7h-1.2v-9.8h1.2v4h0.6v-4.2h1.2v10.4H115.4z"/>
	<path class="st2" d="M123.7,29.2c-0.8,0.2-2.5,0.3-5.1,0.3V25h3.2v-1.7h-3.1v-1.1h4.3v4h-3.2v2.1c1.8,0,3,0,3.8-0.2L123.7,29.2z
		 M125,31.7v-5.6h-1.6V25h1.6v-3.6h1.2v10.4H125z"/>
	<path class="st2" d="M133.4,28.7c-0.7,0.1-1.9,0.2-3.6,0.2h-1.4v-6.6h4.4v1.1h-3.2v4.4h0.5c1.5,0,2.6-0.1,3.3-0.2L133.4,28.7z
		 M135.3,26.4v5.3h-1.2V21.4h1.2v3.9h1.6v1.1H135.3z"/>
	<path class="st2" d="M140.4,26.8c-0.7,0-1.3-0.2-1.8-0.7c-0.5-0.5-0.7-1.1-0.7-1.9c0-0.8,0.2-1.4,0.7-1.9s1.1-0.7,1.8-0.7
		c0.7,0,1.3,0.2,1.8,0.7c0.5,0.5,0.7,1.1,0.7,1.9c0,0.8-0.2,1.4-0.7,1.9C141.8,26.6,141.2,26.8,140.4,26.8z M140.4,22.7
		c-0.4,0-0.7,0.1-0.9,0.4c-0.2,0.3-0.4,0.6-0.4,1.1c0,0.4,0.1,0.8,0.4,1.1c0.2,0.3,0.6,0.4,0.9,0.4c0.4,0,0.7-0.1,0.9-0.4
		c0.2-0.3,0.4-0.6,0.4-1.1c0-0.4-0.1-0.8-0.4-1.1C141.2,22.9,140.8,22.7,140.4,22.7z M139.4,31.5v-3.8h6v3.8H139.4z M144.3,28.8
		h-3.6v1.6h3.6V28.8z M144.2,27.2v-5.9h1.2v5.9H144.2z"/>
	<path class="st2" d="M147.3,26.6v-1.1h8.7v1.1H147.3z M151.6,25c-1,0-1.8-0.2-2.3-0.5c-0.6-0.3-0.8-0.8-0.8-1.3
		c0-0.6,0.3-1,0.8-1.3c0.6-0.3,1.3-0.5,2.3-0.5c1,0,1.8,0.2,2.3,0.5c0.6,0.3,0.8,0.8,0.8,1.3c0,0.6-0.3,1-0.8,1.3
		C153.4,24.9,152.6,25,151.6,25z M148.6,31.5V29h4.9v-0.6h-4.9v-1.1h6.1v2.6h-4.9v0.6h5.1v1.1H148.6z M151.6,22.4
		c-0.6,0-1.1,0.1-1.4,0.2c-0.3,0.2-0.5,0.3-0.5,0.6c0,0.2,0.2,0.4,0.5,0.6c0.3,0.1,0.8,0.2,1.4,0.2s1.1-0.1,1.4-0.2
		c0.3-0.1,0.5-0.3,0.5-0.6c0-0.2-0.2-0.4-0.5-0.6C152.7,22.5,152.3,22.4,151.6,22.4z"/>
	<path class="st2" d="M165.3,27.1c-0.4-0.2-0.8-0.4-1.3-0.8c-0.4-0.4-0.8-0.7-0.9-1c-0.4,0.8-1.2,1.5-2.1,2.1l-0.8-0.9
		c0.7-0.3,1.2-0.7,1.6-1.2c0.4-0.5,0.6-1.1,0.7-1.7h-2v-1.1h2.1v-1.2h1.2v1.2h2v1.1h-2c0,0.6,0.3,1.1,0.8,1.6c0.5,0.5,1,0.8,1.6,0.9
		L165.3,27.1z M164.8,31.7c-1,0-1.8-0.2-2.3-0.6c-0.5-0.4-0.8-0.9-0.8-1.5c0-0.6,0.3-1.1,0.8-1.5s1.3-0.6,2.3-0.6
		c1,0,1.7,0.2,2.3,0.6c0.5,0.4,0.8,0.9,0.8,1.5c0,0.6-0.3,1.1-0.8,1.5S165.8,31.7,164.8,31.7z M164.8,28.7c-1.2,0-1.9,0.3-1.9,0.9
		c0,0.6,0.6,0.9,1.9,0.9c1.2,0,1.9-0.3,1.9-0.9C166.7,29,166.1,28.7,164.8,28.7z M167.8,25v2.4h-1.2v-6h1.2v2.5h1.4V25H167.8z"/>
	<path class="st2" d="M170,30.3v-1.1h3.7v-2.3h1.2v2.3h3.7v1.1H170z M177.6,27.3c-0.6-0.2-1.3-0.5-1.9-1c-0.7-0.5-1.1-1-1.4-1.4
		c-0.3,0.5-0.7,0.9-1.3,1.4s-1.3,0.8-2,1.1l-0.8-1c0.9-0.2,1.7-0.5,2.4-1.1c0.7-0.6,1-1.2,1.1-1.8h-2.8v-1.1h6.8v1.1h-2.8
		c0,0.6,0.4,1.2,1,1.7s1.4,0.9,2.4,1.2L177.6,27.3z"/>
	<path class="st2" d="M184.6,27.2c-0.9-0.5-1.6-1.1-2.1-1.9c-0.2,0.4-0.5,0.8-0.9,1.2c-0.4,0.5-0.8,0.8-1.2,1l-0.9-0.9
		c0.7-0.3,1.2-0.7,1.7-1.3s0.7-1.2,0.7-1.9v-0.5H180v-1.1h5v1.1h-1.9v0.5c0,0.6,0.2,1.2,0.6,1.7s1,0.9,1.6,1.1L184.6,27.2z
		 M186.5,31.7v-2.8h-5v-1.1h6.2v3.9H186.5z M186.5,27.4v-2.5h-1.8v-1.1h1.8v-2.4h1.2v6H186.5z"/>
	<path class="st2" d="M189.4,30.2v-1.1h8.7v1.1H189.4z M193.7,27.4c-0.9,0-1.7-0.2-2.3-0.7s-0.9-1.1-0.9-2c0-0.8,0.3-1.5,0.9-1.9
		s1.4-0.7,2.3-0.7c0.9,0,1.7,0.2,2.3,0.7s0.9,1.1,0.9,1.9c0,0.8-0.3,1.5-0.9,2C195.4,27.2,194.6,27.4,193.7,27.4z M193.7,23.2
		c-0.6,0-1.1,0.1-1.4,0.4c-0.4,0.3-0.5,0.7-0.5,1.1c0,0.5,0.2,0.9,0.5,1.1c0.4,0.3,0.8,0.4,1.4,0.4c0.6,0,1.1-0.1,1.4-0.4
		s0.5-0.7,0.5-1.1c0-0.5-0.2-0.9-0.5-1.1C194.8,23.3,194.3,23.2,193.7,23.2z"/>
	<path class="st2" d="M199.1,30.3v-1.1h3.7v-1.5h-2.5v-3.3h4.9v-1h-4.9v-1.1h6.1v3.2h-4.9v1.1h5.2v1.1H204v1.5h3.7v1.1H199.1z"/>
	<path class="st2" d="M214.8,29.2c-0.8,0-1.4-0.3-1.8-1c-0.5-0.6-0.7-1.5-0.7-2.6c0-1.1,0.2-2,0.7-2.6c0.5-0.6,1.1-0.9,1.8-0.9
		c0.7,0,1.3,0.3,1.8,1c0.5,0.6,0.7,1.5,0.7,2.6s-0.2,2-0.7,2.6S215.5,29.2,214.8,29.2z M214.8,23.2c-0.4,0-0.7,0.2-0.9,0.7
		c-0.2,0.4-0.4,1-0.4,1.8c0,0.7,0.1,1.3,0.4,1.8c0.2,0.4,0.5,0.7,0.9,0.7c0.4,0,0.7-0.2,0.9-0.7c0.2-0.4,0.4-1,0.4-1.8
		c0-0.8-0.1-1.4-0.4-1.8C215.5,23.4,215.2,23.2,214.8,23.2z M219.6,26.5v5.2h-1.2V21.4h1.2v4h1.5v1.1H219.6z"/>
	<path class="st2" d="M226.7,28.2v3.5h-1.2v-3.5h-3.7v-1.1h8.7v1.1H226.7z M226.1,26.2c-1,0-1.7-0.2-2.3-0.7s-0.8-1-0.8-1.7
		c0-0.7,0.3-1.3,0.8-1.7s1.3-0.6,2.3-0.6c1,0,1.7,0.2,2.3,0.6s0.8,1,0.8,1.7c0,0.7-0.3,1.3-0.8,1.7C227.8,26,227.1,26.2,226.1,26.2z
		 M226.1,22.6c-0.6,0-1.1,0.1-1.4,0.3c-0.3,0.2-0.5,0.5-0.5,0.9c0,0.4,0.2,0.7,0.5,0.9c0.3,0.2,0.8,0.3,1.4,0.3
		c0.6,0,1.1-0.1,1.4-0.3s0.5-0.5,0.5-0.9s-0.2-0.7-0.5-0.9C227.1,22.7,226.7,22.6,226.1,22.6z"/>
	<path class="st2" d="M231.5,27v-1h8.7v1H231.5z M232.7,31.6v-2.5h4.9v-0.6h-4.9v-1h6.1V30H234v0.6h5.1v1H232.7z M232.8,25.4V23h4.8
		v-0.6h-4.8v-1h6.1v2.4H234v0.6h5.1v1H232.8z"/>
	<path class="st2" d="M249.4,27.9v3.9h-1.2v-3.9h-3.7v-1.1h8.7v1.1H249.4z M252.1,25.8c-0.7-0.2-1.4-0.4-2-0.8s-1.1-0.8-1.3-1.2
		c-0.3,0.4-0.7,0.9-1.3,1.3c-0.6,0.4-1.3,0.7-1.9,0.8l-0.7-1c1-0.1,1.8-0.5,2.5-1s0.9-1.1,0.9-1.7v-0.5h1.2V22
		c0,0.6,0.3,1.2,0.9,1.7s1.4,0.8,2.5,1L252.1,25.8z"/>
	<path class="st2" d="M260.9,30.7c-0.3-0.2-0.5-0.5-0.7-0.8c-0.1,0.3-0.4,0.6-0.7,1s-0.7,0.7-1,0.8l-0.9-0.8c0.6-0.3,1-0.7,1.4-1.2
		c0.3-0.5,0.5-1,0.5-1.6v-0.4h1.2v0.4c0,0.3,0.1,0.7,0.3,1c0.2,0.3,0.5,0.6,0.8,0.7L260.9,30.7z M260.3,27c-0.7,0-1.3-0.2-1.8-0.7
		c-0.5-0.5-0.7-1.1-0.7-1.9c0-0.8,0.2-1.4,0.7-1.9c0.5-0.5,1.1-0.7,1.8-0.7c0.7,0,1.3,0.2,1.8,0.7c0.5,0.5,0.7,1.1,0.7,1.9
		c0,0.8-0.2,1.4-0.7,1.9C261.6,26.7,261,27,260.3,27z M260.3,22.8c-0.4,0-0.7,0.1-0.9,0.4c-0.2,0.3-0.4,0.6-0.4,1.1
		c0,0.5,0.1,0.8,0.4,1.1c0.2,0.3,0.6,0.4,0.9,0.4c0.4,0,0.7-0.1,0.9-0.4c0.2-0.3,0.4-0.7,0.4-1.1c0-0.5-0.1-0.8-0.4-1.1
		C261,22.9,260.7,22.8,260.3,22.8z M265.2,31.7c-0.7-0.4-1.2-0.9-1.6-1.6c-0.1,0.3-0.3,0.5-0.7,0.9c-0.3,0.3-0.6,0.6-0.9,0.8
		l-0.9-0.9c0.6-0.3,1.1-0.7,1.4-1.1c0.3-0.5,0.5-1,0.5-1.7v-0.4h1.2v0.4c0,0.6,0.2,1.1,0.5,1.6s0.8,0.8,1.4,1.1L265.2,31.7z
		 M264.1,27.2v-5.9h1.2v5.9H264.1z"/>
	<path class="st2" d="M267.2,27.5v-1.1h8.7v1.1H267.2z M268.4,31.3v-3.1h1.2v1.9h5v1.1H268.4z M268.5,25.2v-3.4h1.2v2.2h4.9v1.1
		H268.5z"/>
	<path class="st2" d="M282.3,31.7v-3.4h-2.2v-1.1h8.7v1.1h-2.2v3.4h-1.2v-3.4h-1.9v3.4H282.3z M284.5,26.3c-0.9,0-1.7-0.2-2.3-0.7
		s-0.8-1-0.8-1.7c0-0.7,0.3-1.3,0.8-1.7s1.3-0.7,2.2-0.7c0.9,0,1.7,0.2,2.3,0.7c0.6,0.4,0.8,1,0.8,1.7c0,0.7-0.3,1.2-0.9,1.7
		C286.1,26,285.4,26.3,284.5,26.3z M284.4,22.6c-0.6,0-1,0.1-1.4,0.4c-0.3,0.2-0.5,0.5-0.5,0.9c0,0.4,0.2,0.7,0.5,0.9
		s0.8,0.4,1.4,0.4s1-0.1,1.4-0.4s0.5-0.5,0.5-0.9c0-0.4-0.2-0.7-0.5-0.9C285.5,22.7,285,22.6,284.4,22.6z"/>
	<path class="st2" d="M289.8,26.9v-1.1h8.7v1.1H289.8z M294.2,31.7c-1,0-1.8-0.2-2.3-0.5c-0.5-0.3-0.8-0.8-0.8-1.5
		c0-0.6,0.3-1.1,0.8-1.5c0.5-0.3,1.3-0.5,2.3-0.5c1,0,1.8,0.2,2.4,0.5c0.5,0.4,0.8,0.8,0.8,1.5c0,0.6-0.3,1.1-0.8,1.5
		C296,31.5,295.2,31.7,294.2,31.7z M291.2,24.9v-3.4h1.2v2.2h4.9v1.1H291.2z M294.2,28.8c-1.3,0-1.9,0.3-1.9,0.9
		c0,0.3,0.2,0.5,0.5,0.7c0.3,0.2,0.8,0.2,1.4,0.2s1.1-0.1,1.4-0.2c0.3-0.2,0.5-0.4,0.5-0.7C296.1,29.1,295.4,28.8,294.2,28.8z"/>
	<path class="st2" d="M299.7,23.9v-1.1h2.2v-1.4h1.2v1.4h2.2v1.1H299.7z M302.5,29.3c-0.7,0-1.3-0.2-1.8-0.7c-0.5-0.5-0.7-1-0.7-1.7
		c0-0.7,0.2-1.3,0.7-1.8c0.5-0.5,1-0.7,1.8-0.7c0.7,0,1.3,0.2,1.8,0.7c0.5,0.5,0.7,1,0.7,1.8c0,0.7-0.2,1.3-0.7,1.7
		C303.8,29.1,303.2,29.3,302.5,29.3z M302.5,25.6c-0.4,0-0.7,0.1-0.9,0.4c-0.2,0.2-0.3,0.6-0.3,1c0,0.4,0.1,0.7,0.3,0.9
		c0.2,0.2,0.5,0.4,0.9,0.4c0.4,0,0.7-0.1,0.9-0.4s0.3-0.6,0.3-0.9c0-0.4-0.1-0.7-0.3-0.9C303.2,25.7,302.9,25.6,302.5,25.6z
		 M307.1,27v4.7h-1.2V21.4h1.2v4.5h1.5V27H307.1z"/>
	<path class="st2" d="M309.2,30.3v-1.1h3.1v-3.5h1.2v3.5h4.4v1.1H309.2z M316.7,24.5c0,1.2-0.1,2.4-0.2,3.6l-1.2-0.1
		c0.1-1.1,0.2-2.2,0.2-3.2v-1.4h-5.1v-1.1h6.3V24.5z"/>
	<path class="st2" d="M326.1,27.2c-0.7-0.4-1.3-0.9-1.7-1.7c-0.3,0.7-0.9,1.3-1.7,2l-0.8-0.9c0.6-0.3,1-0.7,1.4-1.2
		c0.4-0.5,0.5-1,0.5-1.6v-0.3h-1.6v-1.1h1.6v-1.1h1.2v1.1h1.6v1.1H325v0.3c0,0.5,0.2,1,0.5,1.4c0.4,0.5,0.8,0.8,1.3,1L326.1,27.2z
		 M329.1,31.7v-2.8h-5v-1.1h6.2v3.9H329.1z M329.1,27.3v-2.1h-0.7v2.1h-1.2v-5.8h1.2v2.5h0.7v-2.8h1.2v6H329.1z"/>
	<path class="st2" d="M334.8,26.8c-0.7,0-1.3-0.2-1.8-0.7c-0.5-0.5-0.7-1.1-0.7-1.9c0-0.8,0.2-1.4,0.7-1.9c0.5-0.5,1.1-0.7,1.8-0.7
		c0.7,0,1.3,0.2,1.8,0.7c0.5,0.5,0.7,1.1,0.7,1.9c0,0.8-0.2,1.4-0.7,1.9C336.1,26.6,335.5,26.8,334.8,26.8z M334.8,22.7
		c-0.4,0-0.7,0.1-0.9,0.4c-0.2,0.3-0.4,0.6-0.4,1.1c0,0.4,0.1,0.8,0.4,1.1c0.2,0.3,0.6,0.4,0.9,0.4c0.4,0,0.7-0.1,0.9-0.4
		c0.2-0.3,0.4-0.6,0.4-1.1c0-0.4-0.1-0.8-0.4-1.1C335.5,22.9,335.2,22.7,334.8,22.7z M333.8,31.5v-3.8h6v3.8H333.8z M338.6,28.8
		h-3.7v1.6h3.7V28.8z M338.6,27.2v-5.9h1.2v5.9H338.6z"/>
	<path class="st2" d="M348.4,30.7c-0.3-0.2-0.5-0.5-0.7-0.8c-0.1,0.3-0.4,0.6-0.7,1s-0.7,0.7-1,0.8l-0.9-0.8c0.6-0.3,1-0.7,1.4-1.2
		c0.3-0.5,0.5-1,0.5-1.6v-0.4h1.2v0.4c0,0.3,0.1,0.7,0.3,1c0.2,0.3,0.5,0.6,0.8,0.7L348.4,30.7z M347.8,27c-0.7,0-1.3-0.2-1.8-0.7
		c-0.5-0.5-0.7-1.1-0.7-1.9c0-0.8,0.2-1.4,0.7-1.9c0.5-0.5,1.1-0.7,1.8-0.7c0.7,0,1.3,0.2,1.8,0.7c0.5,0.5,0.7,1.1,0.7,1.9
		c0,0.8-0.2,1.4-0.7,1.9C349.1,26.7,348.5,27,347.8,27z M347.8,22.8c-0.4,0-0.7,0.1-0.9,0.4c-0.2,0.3-0.4,0.6-0.4,1.1
		c0,0.5,0.1,0.8,0.4,1.1c0.2,0.3,0.6,0.4,0.9,0.4c0.4,0,0.7-0.1,0.9-0.4c0.2-0.3,0.4-0.7,0.4-1.1c0-0.5-0.1-0.8-0.4-1.1
		C348.5,22.9,348.2,22.8,347.8,22.8z M352.7,31.7c-0.7-0.4-1.2-0.9-1.6-1.6c-0.1,0.3-0.3,0.5-0.7,0.9c-0.3,0.3-0.6,0.6-0.9,0.8
		l-0.9-0.9c0.6-0.3,1.1-0.7,1.4-1.1c0.3-0.5,0.5-1,0.5-1.7v-0.4h1.2v0.4c0,0.6,0.2,1.1,0.5,1.6s0.8,0.8,1.4,1.1L352.7,31.7z
		 M351.5,27.2v-5.9h1.2v5.9H351.5z"/>
	<path class="st2" d="M354.6,27.5v-1.1h8.7v1.1H354.6z M355.9,31.3v-3.1h1.2v1.9h5v1.1H355.9z M355.9,25.2v-3.4h1.2v2.2h4.9v1.1
		H355.9z"/>
	<path class="st2" d="M372.7,22c-0.3,2.6-1.7,4.5-4.2,5.8l-0.8-1c0.7-0.3,1.4-0.7,2.1-1.4s1.2-1.4,1.4-2.3h-3V22H372.7z M369.6,31.4
		v-3.5h1.2v2.3h5v1.1H369.6z M374.4,28.8v-3.4h-2.2v-1.1h2.2v-2.9h1.2v7.4H374.4z"/>
	<path class="st2" d="M383.5,31.7v-2.4h-5v-1.1h2.6v-0.9h-3.7v-1.1h8.7v1.1h-3.7v0.9h2.5v3.6H383.5z M385.1,25.6
		c-0.6-0.1-1.3-0.2-2-0.5c-0.7-0.3-1.2-0.6-1.5-1c-0.3,0.3-0.8,0.7-1.5,1s-1.4,0.5-2,0.5l-0.6-1.1c0.7,0,1.4-0.1,2-0.4
		c0.6-0.2,1.1-0.6,1.3-0.9h-2.6v-1.1h2.8v-0.9h1.2v0.9h2.8v1.1h-2.6c0.2,0.4,0.7,0.7,1.3,0.9s1.3,0.4,2,0.4L385.1,25.6z"/>
	<path class="st2" d="M387.9,29.4l-0.9-0.9c2.1-1.3,3.3-3,3.8-5.1h-3.2v-1.1h4.6C391.9,25.3,390.5,27.7,387.9,29.4z M394.5,26.6v5.1
		h-1.2V21.4h1.2v4.1h1.4v1.1H394.5z"/>
	<path class="st2" d="M396.6,30l-0.1-1.1c3,0,5.2-0.1,6.6-0.2l0.1,1.1C401.1,29.9,398.9,30,396.6,30z M399.7,27.2
		c-0.7,0-1.3-0.2-1.8-0.7c-0.5-0.5-0.7-1.1-0.7-1.9c0-0.8,0.3-1.4,0.8-1.9c0.5-0.5,1.1-0.7,1.9-0.7c0.7,0,1.3,0.2,1.8,0.7
		c0.5,0.5,0.7,1.1,0.7,1.9c0,0.8-0.2,1.4-0.7,1.9C401,27,400.4,27.2,399.7,27.2z M399.7,23.1c-0.4,0-0.7,0.1-1,0.4s-0.4,0.6-0.4,1.1
		c0,0.4,0.1,0.8,0.4,1.1c0.3,0.3,0.6,0.4,1,0.4c0.4,0,0.7-0.1,1-0.4c0.2-0.3,0.4-0.6,0.4-1c0-0.4-0.1-0.8-0.4-1.1
		C400.4,23.3,400.1,23.1,399.7,23.1z M403.5,31.7V21.4h1.2v10.4H403.5z"/>
	<path class="st2" d="M412.3,26.8c-0.7,0-1.3-0.2-1.8-0.7s-0.7-1.1-0.7-1.8c0-0.7,0.2-1.4,0.7-1.9c0.5-0.5,1.1-0.7,1.8-0.7
		s1.3,0.2,1.8,0.7c0.5,0.5,0.7,1.1,0.7,1.9c0,0.7-0.2,1.4-0.7,1.8S413,26.8,412.3,26.8z M412.3,22.7c-0.4,0-0.7,0.1-0.9,0.4
		c-0.2,0.3-0.3,0.6-0.3,1.1c0,0.4,0.1,0.8,0.3,1.1c0.2,0.3,0.5,0.4,0.9,0.4c0.4,0,0.7-0.1,0.9-0.4c0.2-0.3,0.3-0.6,0.3-1.1
		c0-0.4-0.1-0.8-0.4-1.1C413,22.9,412.7,22.7,412.3,22.7z M414.2,31.7c-1,0-1.8-0.2-2.3-0.6c-0.5-0.4-0.8-0.9-0.8-1.5
		c0-0.6,0.3-1.1,0.8-1.5s1.3-0.6,2.3-0.6c1,0,1.7,0.2,2.3,0.6c0.5,0.4,0.8,0.9,0.8,1.5c0,0.6-0.3,1.1-0.8,1.5S415.2,31.7,414.2,31.7
		z M414.2,28.7c-1.2,0-1.9,0.3-1.9,0.9c0,0.6,0.6,0.9,1.9,0.9c1.2,0,1.9-0.3,1.9-0.9C416.1,29,415.5,28.7,414.2,28.7z M417.2,26.1
		v1.3H416v-6h1.2v1.2h1.4v1.1h-1.4V25h1.4v1.1H417.2z"/>
	<path class="st2" d="M424.3,26.9c-0.9-0.5-1.7-1.2-2.1-2c-0.2,0.4-0.5,0.8-0.9,1.3c-0.4,0.5-0.8,0.8-1.2,1l-0.9-0.9
		c0.7-0.3,1.2-0.8,1.7-1.4c0.4-0.6,0.7-1.3,0.7-1.9v-1.3h1.2v1.2c0,0.7,0.2,1.3,0.7,1.8s1,0.9,1.7,1.1L424.3,26.9z M424.4,31.7
		c-1,0-1.7-0.2-2.3-0.6c-0.5-0.4-0.8-0.9-0.8-1.6c0-0.6,0.3-1.2,0.8-1.6c0.5-0.4,1.3-0.6,2.3-0.6c1,0,1.7,0.2,2.3,0.6
		s0.8,0.9,0.8,1.6c0,0.6-0.3,1.2-0.8,1.6C426.1,31.5,425.4,31.7,424.4,31.7z M424.4,28.5c-0.6,0-1.1,0.1-1.4,0.3s-0.5,0.4-0.5,0.8
		s0.2,0.6,0.5,0.8c0.3,0.2,0.8,0.3,1.4,0.3c0.6,0,1.1-0.1,1.4-0.3c0.3-0.2,0.5-0.4,0.5-0.8c0-0.3-0.2-0.6-0.5-0.8
		C425.5,28.6,425,28.5,424.4,28.5z M426.2,27.3v-3h-2v-1.1h2v-1.8h1.2v5.9H426.2z"/>
</g>
<line class="st4" x1="196.8" y1="141.5" x2="267" y2="209.9"/>
<line class="st5" x1="196.6" y1="87" x2="266.8" y2="154.1"/>
<line class="st6" x1="196.3" y1="141.5" x2="267" y2="70.2"/>
<line class="st7" x1="196.6" y1="197.2" x2="266.8" y2="99.7"/>
<line class="st8" x1="196.6" y1="87" x2="267.1" y2="124.6"/>
<line class="st9" x1="196.6" y1="197.2" x2="267.1" y2="124.6"/>
<g>
	<g>
		<path d="M266.6,179.6c-7.9,1.9-15.9,3.8-23.8,5.7c-12.6,3-25.2,6-37.8,9c-2.9,0.7-5.8,1.4-8.7,2.1c-0.7,0.2-0.7,1.3,0,1.4
			c7.9,1.4,15.9,2.9,23.8,4.3c12.6,2.3,25.3,4.6,37.9,6.9c2.9,0.5,5.7,1,8.6,1.6c0.9,0.2,1.3-1.3,0.4-1.4
			c-7.9-1.4-15.9-2.9-23.8-4.3c-12.6-2.3-25.3-4.6-37.9-6.9c-2.9-0.5-5.7-1-8.6-1.6c0,0.5,0,1,0,1.4c7.9-1.9,15.9-3.8,23.8-5.7
			c12.6-3,25.2-6,37.8-9c2.9-0.7,5.8-1.4,8.7-2.1C268,180.9,267.6,179.4,266.6,179.6L266.6,179.6z"/>
	</g>
</g>
<g>
	<g>
		<path d="M266.6,123.9c-7.9,1.9-15.9,3.8-23.8,5.7c-12.6,3-25.2,6-37.8,9c-2.9,0.7-5.8,1.4-8.7,2.1c-0.7,0.2-0.7,1.3,0,1.4
			c7.9,1.4,15.9,2.9,23.8,4.3c12.6,2.3,25.3,4.6,37.9,6.9c2.9,0.5,5.7,1,8.6,1.6c0.9,0.2,1.3-1.3,0.4-1.4
			c-7.9-1.4-15.9-2.9-23.8-4.3c-12.6-2.3-25.3-4.6-37.9-6.9c-2.9-0.5-5.7-1-8.6-1.6c0,0.5,0,1,0,1.4c7.9-1.9,15.9-3.8,23.8-5.7
			c12.6-3,25.2-6,37.8-9c2.9-0.7,5.8-1.4,8.7-2.1C268,125.1,267.6,123.7,266.6,123.9L266.6,123.9z"/>
	</g>
</g>
<g>
	<g>
		<path d="M266.8,69.4c-7.9,1.9-15.9,3.8-23.8,5.7c-12.6,3-25.2,6-37.8,9c-2.9,0.7-5.8,1.4-8.7,2.1c-0.7,0.2-0.7,1.3,0,1.4
			c7.9,1.4,15.9,2.9,23.8,4.3c12.6,2.3,25.3,4.6,37.9,6.9c2.9,0.5,5.7,1,8.6,1.6c0.9,0.2,1.3-1.3,0.4-1.4
			c-7.9-1.4-15.9-2.9-23.8-4.3c-12.6-2.3-25.3-4.6-37.9-6.9c-2.9-0.5-5.7-1-8.6-1.6c0,0.5,0,1,0,1.4c7.9-1.9,15.9-3.8,23.8-5.7
			c12.6-3,25.2-6,37.8-9c2.9-0.7,5.8-1.4,8.7-2.1C268.1,70.7,267.7,69.2,266.8,69.4L266.8,69.4z"/>
	</g>
</g>
</svg>
