<?xml version="1.0" encoding="utf-8"?>
<!-- Generator: Adobe Illustrator 24.3.0, SVG Export Plug-In . SVG Version: 6.00 Build 0)  -->
<svg version="1.1" id="레이어_1" xmlns="http://www.w3.org/2000/svg" xmlns:xlink="http://www.w3.org/1999/xlink" x="0px"
	 y="0px" viewBox="0 0 125 37" style="enable-background:new 0 0 125 37;" xml:space="preserve">
<style type="text/css">
	.st0{fill:#AC5033;}
	.st1{fill:#FF3600;}
</style>
<g>
	<path class="st0" d="M74.3,12.4h6.4L73.6,37h-5.9l-2.5-9.4c-0.6-2.4-1.1-4.8-1.6-7.7h-0.1c-0.4,3-1,5.4-1.6,7.7L59.2,37h-5.9
		l-6.8-24.5h6.7l2.1,10.7c0.5,2.6,1,5.2,1.3,7.8h0.1c0.4-2.6,1.1-5.3,1.7-7.8l2.7-10.8h5.2L68.9,23c0.7,2.8,1.3,5.4,1.7,8h0.1
		c0.3-2.6,0.8-5.2,1.4-8L74.3,12.4z"/>
	<path class="st0" d="M86.2,26.7c0.2,4.2,3.2,5.8,6.7,5.8c2.4,0,4.3-0.4,6-1l0.9,4.5c-2,0.9-4.9,1.4-7.9,1.4
		C84.3,37.4,80,32.7,80,25c0-7,4-13.1,11.2-13.1c5.9,0,9.8,4.2,9.8,12.2c0,1,0,1.9-0.2,2.6L86.2,26.7L86.2,26.7z M95,22.1
		c0-2.5-1-5.7-4.2-5.7c-3.1,0-4.4,3.3-4.6,5.7H95z"/>
	<path class="st0" d="M109.2,15.4L109.2,15.4c1.5-2.2,3.8-3.5,6.9-3.5c5.4,0,9,5,9,12.3c0,8.9-5,13.2-10,13.2
		c-2.7,0-5.1-1.1-6.6-3.9h-0.1L108,37h-5.5c0.1-1.8,0.2-4.5,0.2-7V1.6h6.5L109.2,15.4L109.2,15.4z M109.2,27.2
		c0,2.8,1.8,5.1,4.4,5.1c3.2,0,5-2.9,5-7.7c0-4.2-1.6-7.4-5-7.4c-2.2,0-4.4,2.1-4.4,5.3V27.2z"/>
</g>
<polygon class="st1" points="11.6,12.8 11.6,35.9 29,24.2 "/>
</svg>
